<svg width="32" height="33" viewBox="0 0 32 33" fill="none" xmlns="http://www.w3.org/2000/svg">
<path fill-rule="evenodd" clip-rule="evenodd" d="M2.66699 16.4993C2.66699 23.8594 8.62699 29.8327 16.0003 29.8327C23.3603 29.8327 29.3337 23.8594 29.3337 16.4993C29.3337 9.12602 23.3603 3.16602 16.0003 3.16602C8.62699 3.16602 2.66699 9.12602 2.66699 16.4993ZM5.33366 16.4993C5.33366 10.606 10.107 5.83268 16.0003 5.83268C21.8803 5.83268 26.667 10.606 26.667 16.4993C26.667 22.3793 21.8803 27.166 16.0003 27.166C10.107 27.166 5.33366 22.3793 5.33366 16.4993ZM22.6544 16.4887L22.6548 16.4884C22.6548 16.8484 22.5081 17.195 22.2681 17.435C22.2513 17.4523 22.2341 17.469 22.2167 17.4851L16.9345 22.7673C16.4011 23.3006 15.5611 23.3006 15.0411 22.7686C14.5078 22.2486 14.5078 21.4086 15.0398 20.8753L18.094 17.8211L10.654 17.8211C9.9073 17.8211 9.32064 17.2344 9.32064 16.4878C9.32064 15.7544 9.9073 15.1544 10.654 15.1544L18.0675 15.1544L15.0281 12.115C14.4948 11.595 14.4948 10.755 15.0268 10.2217C15.5468 9.7017 16.3868 9.7017 16.9201 10.2217L22.1232 15.4249C22.4451 15.6689 22.654 16.0551 22.654 16.4878L22.6544 16.4873C22.6544 16.4877 22.6544 16.4882 22.6544 16.4887Z" fill="white"/>
</svg>
