<svg width="20" height="20" viewBox="0 0 20 20" fill="none" xmlns="http://www.w3.org/2000/svg">
<path fill-rule="evenodd" clip-rule="evenodd" d="M20 10C20 4.47715 15.5229 0 10 0C4.47715 0 0 4.47715 0 10C0 15.5229 4.47715 20 10 20C15.5229 20 20 15.5229 20 10ZM8.14 13.69L5.28 10.69C5.23768 10.6466 5.20377 10.5958 5.18 10.54C5.13754 10.4929 5.10369 10.4388 5.08 10.38C4.97302 10.138 4.97302 9.86204 5.08 9.62C5.12759 9.49725 5.19896 9.3851 5.29 9.29L8.29 6.29C8.68212 5.89788 9.31788 5.89788 9.71 6.29C10.1021 6.68212 10.1021 7.31788 9.71 7.71L8.41 9H14C14.5523 9 15 9.44771 15 10C15 10.5523 14.5523 11 14 11H8.34L9.59 12.31C9.97108 12.7104 9.95541 13.3439 9.555 13.725C9.15459 14.1061 8.52108 14.0904 8.14 13.69Z" fill="white"/>
</svg>
