<svg width="33" height="32" viewBox="0 0 33 32" fill="none" xmlns="http://www.w3.org/2000/svg">
<path fill-rule="evenodd" clip-rule="evenodd" d="M3.16699 15.9993C3.16699 23.3594 9.12699 29.3327 16.5003 29.3327C23.8603 29.3327 29.8337 23.3594 29.8337 15.9993C29.8337 8.62602 23.8603 2.66602 16.5003 2.66602C9.12699 2.66602 3.16699 8.62602 3.16699 15.9993ZM5.83366 15.9993C5.83366 10.106 10.607 5.33268 16.5003 5.33268C22.3803 5.33268 27.167 10.106 27.167 15.9993C27.167 21.8793 22.3803 26.666 16.5003 26.666C10.607 26.666 5.83366 21.8793 5.83366 15.9993ZM9.91384 15.5205C9.98067 15.3477 10.0815 15.1909 10.2084 15.064C10.2253 15.0467 10.2424 15.03 10.2599 15.0139L15.5421 9.73171C16.0754 9.19838 16.9154 9.19838 17.4354 9.73038C17.9688 10.2504 17.9688 11.0904 17.4368 11.6237L14.3826 14.6779H21.8219C22.5686 14.6779 23.1552 15.2646 23.1552 16.0112C23.1552 16.7446 22.5686 17.3446 21.8219 17.3446H14.409L17.4484 20.384C17.9818 20.904 17.9818 21.744 17.4498 22.2773C16.9298 22.7973 16.0898 22.7973 15.5564 22.2773L10.3553 17.0762C10.0319 16.8323 9.82192 16.4451 9.82192 16.0112C9.82192 16.011 9.82192 16.0107 9.82192 16.0105L9.82177 16.0106C9.82177 15.9695 9.82368 15.9286 9.82742 15.8881C9.83902 15.759 9.8687 15.6356 9.91384 15.5205Z" fill="white"/>
</svg>
