<svg width="16" height="14" viewBox="0 0 16 14" fill="none" xmlns="http://www.w3.org/2000/svg">
<path fill-rule="evenodd" clip-rule="evenodd" d="M15 6.0003H3.14L6.77 1.6403C7.12346 1.21504 7.06526 0.583758 6.64 0.230298C6.21474 -0.123164 5.58346 -0.0649607 5.23 0.360298L0.23 6.3603C0.196361 6.40802 0.166279 6.45816 0.14 6.5103C0.14 6.5603 0.14 6.5903 0.0699999 6.6403C0.0246734 6.75496 0.0009411 6.87701 0 7.0003C0.000941335 7.12359 0.0246739 7.24564 0.0700006 7.3603C0.0700006 7.4103 0.0700006 7.4403 0.140001 7.4903C0.16628 7.54244 0.196361 7.59258 0.230001 7.6403L5.23 13.6403C5.42036 13.8688 5.70257 14.0008 6 14.0003C6.23365 14.0008 6.46009 13.9194 6.64 13.7703C7.06517 13.4178 7.12409 12.7874 6.7716 12.3622C6.77107 12.3616 6.77053 12.3609 6.77 12.3603L3.14 8.0003H15C15.5523 8.0003 16 7.55258 16 7.0003C16 6.44801 15.5523 6.0003 15 6.0003Z" fill="white"/>
</svg>
