<svg width="20" height="20" viewBox="0 0 20 20" fill="none" xmlns="http://www.w3.org/2000/svg">
<path fill-rule="evenodd" clip-rule="evenodd" d="M0 10C0 4.47715 4.47715 0 10 0C15.5229 0 20 4.47715 20 10C20 15.5229 15.5229 20 10 20C4.47715 20 0 15.5229 0 10ZM11.86 13.69L14.72 10.69C14.7623 10.6466 14.7962 10.5958 14.82 10.54C14.8625 10.4929 14.8963 10.4388 14.92 10.38C15.027 10.138 15.027 9.86204 14.92 9.62C14.8724 9.49725 14.801 9.3851 14.71 9.29L11.71 6.29C11.3179 5.89788 10.6821 5.89788 10.29 6.29C9.89788 6.68212 9.89788 7.31788 10.29 7.71L11.59 9H6C5.44771 9 5 9.44771 5 10C5 10.5523 5.44771 11 6 11H11.66L10.41 12.31C10.0289 12.7104 10.0446 13.3439 10.445 13.725C10.8454 14.1061 11.4789 14.0904 11.86 13.69Z" fill="white"/>
</svg>
