<svg width="20" height="18" viewBox="0 0 20 18" fill="none" xmlns="http://www.w3.org/2000/svg">
<path d="M10 0C10.5523 0 11 0.447715 11 1C11 1.51284 10.614 1.93551 10.1166 1.99327L10 2H7L6.99491 2.17627C6.90704 3.69275 5.69275 4.90704 4.17627 4.99491L4 5H3C2.48716 5 2.06449 5.38604 2.00673 5.88338L2 6V15C2 15.5128 2.38604 15.9355 2.88338 15.9933L3 16H17C17.5128 16 17.9355 15.614 17.9933 15.1166L18 15V7C18 6.44772 18.4477 6 19 6C19.5128 6 19.9355 6.38604 19.9933 6.88338L20 7V15C20 16.5977 18.7511 17.9037 17.1763 17.9949L17 18H3C1.40232 18 0.0963391 16.7511 0.00509269 15.1763L0 15V6C0 4.34315 1.34315 3 3 3H4C4.55228 3 5 2.55228 5 2C5 0.945638 5.81588 0.0818349 6.85074 0.00548574L7 0H10Z" fill="white"/>
<path fill-rule="evenodd" clip-rule="evenodd" d="M6 10C6 7.79086 7.79086 6 10 6C12.2091 6 14 7.79086 14 10C14 12.2091 12.2091 14 10 14C7.79086 14 6 12.2091 6 10ZM12 10C12 8.89543 11.1046 8 10 8C8.89543 8 8 8.89543 8 10C8 11.1046 8.89543 12 10 12C11.1046 12 12 11.1046 12 10Z" fill="white"/>
<path d="M20 3C20 2.44772 19.5523 2 19 2H13L12.8834 2.00673C12.386 2.06449 12 2.48716 12 3C12 3.55228 12.4477 4 13 4H19L19.1166 3.99327C19.614 3.93551 20 3.51284 20 3Z" fill="white"/>
</svg>
