<svg width="84" height="84" viewBox="0 0 84 84" fill="none" xmlns="http://www.w3.org/2000/svg">
<g filter="url(#filter0_d_2579_2463)">
<path fill-rule="evenodd" clip-rule="evenodd" d="M42 1.33331C21.7496 1.33331 5.33337 17.7495 5.33337 38C5.33337 58.2504 21.7496 74.6666 42 74.6666C62.2505 74.6666 78.6667 58.2504 78.6667 38C78.6667 17.7495 62.2505 1.33331 42 1.33331ZM42 8.66665C58.2004 8.66665 71.3334 21.7996 71.3334 38C71.3334 54.2003 58.2004 67.3333 42 67.3333C25.7997 67.3333 12.6667 54.2003 12.6667 38C12.6667 21.7996 25.7997 8.66665 42 8.66665ZM55.5928 28.0739C54.1608 26.642 51.8392 26.642 50.4073 28.0739L38.3334 40.145L33.5928 35.4073L33.2473 35.1022C31.8089 33.9838 29.7291 34.0855 28.4073 35.4073C26.9754 36.8392 26.9754 39.1608 28.4073 40.5927L35.7406 47.926L36.0861 48.2311C37.5245 49.3495 39.6043 49.2478 40.9261 47.926L55.5928 33.2594L55.8978 32.9139C57.0162 31.4755 56.9145 29.3957 55.5928 28.0739Z" fill="#18A957"/>
<path d="M50.4073 28.0739L50.7608 28.4275L50.7609 28.4275L50.4073 28.0739ZM38.3334 40.145L37.9799 40.4986L38.3334 40.8519L38.6869 40.4986L38.3334 40.145ZM33.5928 35.4073L33.9462 35.0536L33.9353 35.0427L33.9237 35.0325L33.5928 35.4073ZM33.2473 35.1022L33.5783 34.7274L33.5666 34.7171L33.5543 34.7075L33.2473 35.1022ZM35.7406 47.926L35.3871 48.2796L35.3981 48.2906L35.4097 48.3008L35.7406 47.926ZM36.0861 48.2311L35.7551 48.6059L35.7668 48.6162L35.7792 48.6258L36.0861 48.2311ZM40.9261 47.926L40.5725 47.5725L40.5725 47.5725L40.9261 47.926ZM55.5928 33.2594L55.9463 33.6129L55.9573 33.602L55.9676 33.5903L55.5928 33.2594ZM55.8978 32.9139L56.2726 33.2449L56.2829 33.2332L56.2925 33.2209L55.8978 32.9139ZM5.83337 38C5.83337 18.0257 22.0257 1.83331 42 1.83331V0.833313C21.4735 0.833313 4.83337 17.4734 4.83337 38H5.83337ZM42 74.1666C22.0257 74.1666 5.83337 57.9743 5.83337 38H4.83337C4.83337 58.5266 21.4735 75.1666 42 75.1666V74.1666ZM78.1667 38C78.1667 57.9743 61.9743 74.1666 42 74.1666V75.1666C62.5266 75.1666 79.1667 58.5266 79.1667 38H78.1667ZM42 1.83331C61.9743 1.83331 78.1667 18.0257 78.1667 38H79.1667C79.1667 17.4734 62.5266 0.833313 42 0.833313V1.83331ZM71.8334 38C71.8334 21.5235 58.4765 8.16665 42 8.16665V9.16665C57.9243 9.16665 70.8334 22.0758 70.8334 38H71.8334ZM42 67.8333C58.4765 67.8333 71.8334 54.4765 71.8334 38H70.8334C70.8334 53.9242 57.9243 66.8333 42 66.8333V67.8333ZM12.1667 38C12.1667 54.4765 25.5235 67.8333 42 67.8333V66.8333C26.0758 66.8333 13.1667 53.9242 13.1667 38H12.1667ZM42 8.16665C25.5235 8.16665 12.1667 21.5235 12.1667 38H13.1667C13.1667 22.0758 26.0758 9.16665 42 9.16665V8.16665ZM50.7609 28.4275C51.9975 27.1908 54.0026 27.1908 55.2392 28.4275L55.9463 27.7204C54.3191 26.0932 51.6809 26.0932 50.0538 27.7204L50.7609 28.4275ZM38.6869 40.4986L50.7608 28.4275L50.0538 27.7203L37.9799 39.7914L38.6869 40.4986ZM33.2393 35.7609L37.9799 40.4986L38.6868 39.7913L33.9462 35.0536L33.2393 35.7609ZM32.9164 35.477L33.2618 35.782L33.9237 35.0325L33.5783 34.7274L32.9164 35.477ZM28.7609 35.7608C29.9021 34.6195 31.6986 34.5314 32.9404 35.497L33.5543 34.7075C31.9193 33.4363 29.556 33.5514 28.0538 35.0537L28.7609 35.7608ZM28.7609 40.2392C27.5242 39.0025 27.5242 36.9975 28.7609 35.7608L28.0538 35.0537C26.4266 36.6809 26.4266 39.3191 28.0538 40.9463L28.7609 40.2392ZM36.0942 47.5725L28.7609 40.2392L28.0538 40.9463L35.3871 48.2796L36.0942 47.5725ZM36.417 47.8563L36.0716 47.5512L35.4097 48.3008L35.7551 48.6059L36.417 47.8563ZM40.5725 47.5725C39.4313 48.7137 37.6348 48.8019 36.393 47.8363L35.7792 48.6258C37.4141 49.897 39.7774 49.7819 41.2797 48.2796L40.5725 47.5725ZM55.2392 32.9058L40.5725 47.5725L41.2797 48.2796L55.9463 33.6129L55.2392 32.9058ZM55.523 32.583L55.218 32.9284L55.9676 33.5903L56.2726 33.2449L55.523 32.583ZM55.2392 28.4275C56.3805 29.5687 56.4687 31.3652 55.5031 32.607L56.2925 33.2209C57.5638 31.5859 57.4486 29.2227 55.9463 27.7204L55.2392 28.4275Z" fill="black"/>
</g>
<defs>
<filter id="filter0_d_2579_2463" x="0.833374" y="0.833313" width="82.3334" height="82.3333" filterUnits="userSpaceOnUse" color-interpolation-filters="sRGB">
<feFlood flood-opacity="0" result="BackgroundImageFix"/>
<feColorMatrix in="SourceAlpha" type="matrix" values="0 0 0 0 0 0 0 0 0 0 0 0 0 0 0 0 0 0 127 0" result="hardAlpha"/>
<feOffset dy="4"/>
<feGaussianBlur stdDeviation="2"/>
<feComposite in2="hardAlpha" operator="out"/>
<feColorMatrix type="matrix" values="0 0 0 0 0 0 0 0 0 0 0 0 0 0 0 0 0 0 0.25 0"/>
<feBlend mode="normal" in2="BackgroundImageFix" result="effect1_dropShadow_2579_2463"/>
<feBlend mode="normal" in="SourceGraphic" in2="effect1_dropShadow_2579_2463" result="shape"/>
</filter>
</defs>
</svg>
