<svg width="9" height="9" viewBox="0 0 9 9" fill="none" xmlns="http://www.w3.org/2000/svg">
<path fill-rule="evenodd" clip-rule="evenodd" d="M7.20121 0.396085L3.42121 5.39609L1.79121 3.28609H1.79121C1.45155 2.84978 0.822512 2.77143 0.386207 3.11109C-0.0500975 3.45074 -0.128448 4.07978 0.211208 4.51609V4.51609L2.64121 7.62609V7.62609C2.83203 7.86758 3.12343 8.00774 3.43121 8.00609H3.43121C3.7407 8.00534 4.03241 7.86133 4.22121 7.61609L8.79121 1.61609V1.61609C9.1281 1.17426 9.04304 0.542975 8.60121 0.206085C8.15938 -0.130809 7.5281 -0.0457428 7.19121 0.396085C7.19121 0.396085 7.19121 0.396085 7.19121 0.396085L7.20121 0.396085Z" fill="#FAFAFA"/>
</svg>
