<svg width="7" height="11" viewBox="0 0 7 11" fill="none" xmlns="http://www.w3.org/2000/svg">
<path fill-rule="evenodd" clip-rule="evenodd" d="M1.50189 10.9997C1.23609 11.0012 0.980611 10.8969 0.791892 10.7097C0.39977 10.3208 0.397174 9.6876 0.786094 9.29548C0.788018 9.29354 0.789951 9.29161 0.791892 9.28969L4.10189 5.99968L0.921892 2.68968C0.534168 2.29965 0.534168 1.66972 0.921892 1.27968C1.31081 0.887563 1.94397 0.884967 2.33609 1.27389C2.33803 1.27581 2.33997 1.27774 2.34189 1.27968L6.20189 5.27969C6.58303 5.66853 6.58303 6.29085 6.20189 6.67969L2.20189 10.6797C2.0206 10.8755 1.76857 10.9907 1.50189 10.9997Z" fill="#171717"/>
</svg>
