<svg width="16" height="21" viewBox="0 0 16 21" fill="none" xmlns="http://www.w3.org/2000/svg">
<path d="M7 13.5852L5.70936 12.2889C5.30936 11.8899 4.67936 11.8899 4.28936 12.2899C3.89036 12.6799 3.89036 13.3099 4.29036 13.7099L7.29036 16.7099C7.38325 16.8028 7.49745 16.877 7.62334 16.9271C7.69385 16.9556 7.76853 16.9762 7.84639 16.988C7.89701 16.9958 7.9485 16.9999 8.00036 16.9999C8.22304 16.9999 8.42913 16.9257 8.59579 16.8013C8.63579 16.7728 8.6738 16.7416 8.70936 16.7079L11.7094 13.7079C12.0994 13.3079 12.0994 12.6779 11.7094 12.2879C11.3094 11.8889 10.6794 11.8889 10.2894 12.2889L9 13.5839V9.99951C9 9.43951 8.55 8.99951 8 8.99951C7.44 8.99951 7 9.43951 7 9.99951V13.5852Z" fill="white"/>
<path fill-rule="evenodd" clip-rule="evenodd" d="M13 20.9997C14.65 20.9997 16 19.6487 16 17.9987V6.99951C16 6.98787 15.9998 6.97541 15.9994 6.96381C15.9954 6.84904 15.9726 6.7397 15.9338 6.63862C15.8837 6.50603 15.807 6.38572 15.71 6.28867L10.71 1.28867C10.52 1.09867 10.26 0.988675 10 0.998675L9.98134 0.999675H3C1.34 0.999675 0 2.33967 0 3.99967V17.9997C0 19.6497 1.34 20.9997 3 20.9997H13ZM9 2.99967H3C2.44 2.99967 2 3.43967 2 3.99967V17.9997C2 18.5497 2.44 18.9997 3 18.9997H13C13.55 18.9997 14 18.5497 14 17.9997V7.99951H11C9.89 7.99951 9 7.09951 9 5.99951V2.99967ZM11 4.40967V5.99951H12.5898L11 4.40967Z" fill="white"/>
</svg>
