<svg width="18" height="18" viewBox="0 0 18 18" fill="none" xmlns="http://www.w3.org/2000/svg">
<path fill-rule="evenodd" clip-rule="evenodd" d="M13 0C13.221 0 13.4345 0.0731645 13.608 0.206081L13.7071 0.292893L17.7071 4.29289C17.8634 4.44917 17.9626 4.65185 17.9913 4.86856L18 5V15C18 16.5977 16.7511 17.9037 15.1763 17.9949L15 18H3C1.40232 18 0.0963391 16.7511 0.00509269 15.1763L0 15V3C0 1.40232 1.24892 0.0963391 2.82373 0.00509269L3 0H13ZM10 2H6V4H10V2ZM4 2V5L4.00673 5.11662C4.06449 5.61396 4.48716 6 5 6H11L11.1166 5.99327C11.614 5.93551 12 5.51284 12 5V2H12.585L16 5.415V15L15.9933 15.1166C15.9355 15.614 15.5128 16 15 16H3L2.88338 15.9933C2.38604 15.9355 2 15.5128 2 15V3L2.00673 2.88338C2.06449 2.38604 2.48716 2 3 2H4Z" fill="white"/>
</svg>
