<svg width="18" height="18" viewBox="0 0 18 18" fill="none" xmlns="http://www.w3.org/2000/svg">
<path d="M17.3832 0.0760455C17.2652 0.0270469 17.1357 0 17 0H12L11.8834 0.00672773C11.386 0.0644928 11 0.487164 11 1L11.0067 1.11662C11.0645 1.61396 11.4872 2 12 2H14.5858L6.29289 10.2929L6.2097 10.3871C5.90468 10.7794 5.93241 11.3466 6.29289 11.7071C6.68342 12.0976 7.31658 12.0976 7.70711 11.7071L16 3.41421V6L16.0067 6.11662C16.0645 6.61396 16.4872 7 17 7C17.5523 7 18 6.55228 18 6V1.00095L17.9933 0.884315" fill="white"/>
<path d="M8 3C8.55229 3 9 3.44772 9 4C9 4.51284 8.61396 4.93551 8.11662 4.99327L8 5H3C2.48716 5 2.06449 5.38604 2.00673 5.88338L2 6V15C2 15.5128 2.38604 15.9355 2.88338 15.9933L3 16H12C12.5128 16 12.9355 15.614 12.9933 15.1166L13 15V10C13 9.44772 13.4477 9 14 9C14.5128 9 14.9355 9.38604 14.9933 9.88338L15 10V15C15 16.5977 13.7511 17.9037 12.1763 17.9949L12 18H3C1.40232 18 0.0963391 16.7511 0.00509269 15.1763L0 15V6C0 4.40232 1.24892 3.09634 2.82373 3.00509L3 3H8Z" fill="white"/>
</svg>
