<svg width="22" height="20" viewBox="0 0 22 20" fill="none" xmlns="http://www.w3.org/2000/svg">
<path fill-rule="evenodd" clip-rule="evenodd" d="M2.29007 1.29019C2.68219 0.898063 3.31795 0.898063 3.71007 1.29019L19.7101 17.2902L19.7159 17.296C20.1048 17.6881 20.1022 18.3213 19.7101 18.7102L19.7043 18.716C19.3121 19.1049 18.679 19.1023 18.2901 18.7102L12.6601 13.0802C11.6253 13.6364 10.3805 13.6364 9.34569 13.0802C7.6431 12.1649 7.00483 10.0428 7.92007 8.34019L2.29007 2.71019C1.89795 2.31807 1.89795 1.68231 2.29007 1.29019ZM9.50007 10.0002C9.50007 10.8286 10.1716 11.5002 11.0001 11.5002L11.0601 11.4902L9.50007 9.93019V10.0002ZM11.2201 15.0002C6.92007 15.1002 4.10007 11.4102 3.22007 10.0002C3.84654 9.00088 4.59943 8.08666 5.46007 7.28019L4.00007 5.87019C2.8714 6.93366 1.90448 8.15663 1.13007 9.50019C0.951436 9.80959 0.951436 10.1908 1.13007 10.5002C1.76007 11.5902 5.13007 17.0002 11.0201 17.0002H11.2701C12.3776 16.9673 13.4708 16.7406 14.5001 16.3302L12.9201 14.7502C12.3644 14.8964 11.7943 14.9802 11.2201 15.0002ZM10.7301 3.00019C16.7001 2.82019 20.2301 8.39019 20.8701 9.50019C21.0612 9.80239 21.0765 10.1837 20.9101 10.5002C20.1234 11.8464 19.1429 13.0695 18.0001 14.1302L16.4901 12.7202C17.3683 11.9168 18.1381 11.0025 18.7801 10.0002C17.8901 8.59019 15.0701 4.89019 10.7801 5.00019C10.2059 5.02017 9.6357 5.10402 9.08007 5.25019L7.50007 3.67019C8.52931 3.2598 9.62252 3.03304 10.7301 3.00019Z" fill="white"/>
</svg>
 