<svg width="34" height="42" viewBox="0 0 34 42" fill="none" xmlns="http://www.w3.org/2000/svg">
<path d="M10.7497 16.8334H12.833C13.9788 16.8334 14.9163 15.8959 14.9163 14.75C14.9163 13.5834 13.9788 12.6667 12.833 12.6667H10.7497C9.58301 12.6667 8.66634 13.5834 8.66634 14.75C8.66634 15.8959 9.58301 16.8334 10.7497 16.8334Z" fill="white"/>
<path d="M23.2497 25.1667H10.7497C9.58301 25.1667 8.66634 24.2292 8.66634 23.0834C8.66634 21.9167 9.58301 21 10.7497 21H23.2497C24.3955 21 25.333 21.9167 25.333 23.0834C25.333 24.2292 24.3955 25.1667 23.2497 25.1667Z" fill="white"/>
<path d="M10.7497 33.5H23.2497C24.3955 33.5 25.333 32.5625 25.333 31.4167C25.333 30.25 24.3955 29.3334 23.2497 29.3334H10.7497C9.58301 29.3334 8.66634 30.25 8.66634 31.4167C8.66634 32.5625 9.58301 33.5 10.7497 33.5Z" fill="white"/>
<path fill-rule="evenodd" clip-rule="evenodd" d="M27.4163 41.8337H6.58301C3.12467 41.8337 0.333008 39.0212 0.333008 35.5837V6.41703C0.333008 2.95869 3.12467 0.167027 6.58301 0.167027H21.1275C21.1404 0.1668 21.1534 0.166687 21.1663 0.166687V0.164943C21.708 0.14411 22.2497 0.373277 22.6455 0.76911L33.0622 11.1858C33.2644 11.388 33.4242 11.6386 33.5285 11.9148C33.6052 12.1179 33.6519 12.3348 33.6635 12.5565C33.6654 12.5925 33.6663 12.6287 33.6663 12.6649V35.5816C33.6663 39.0191 30.8538 41.8316 27.4163 41.8316V41.8337ZM6.58301 4.33369H19.083V10.5834C19.083 12.875 20.9372 14.75 23.2497 14.75H29.4997V35.5837C29.4997 36.7295 28.5622 37.667 27.4163 37.667H6.58301C5.41634 37.667 4.49967 36.7295 4.49967 35.5837V6.41703C4.49967 5.25036 5.41634 4.33369 6.58301 4.33369ZM23.2497 10.5834V7.27119L26.5618 10.5834H23.2497Z" fill="white"/>
</svg>
