<svg width="34" height="42" viewBox="0 0 34 42" fill="none" xmlns="http://www.w3.org/2000/svg">
<path fill-rule="evenodd" clip-rule="evenodd" d="M33.1247 13.3541L21.7913 0.854143C21.3975 0.417728 20.8376 0.168032 20.2497 0.166643H5.66635C2.75556 0.131923 0.367746 2.46343 0.333017 5.37423C0.33302 5.37398 0.333014 5.37447 0.333017 5.37423L0.333008 36.625C0.367312 39.5358 2.7548 41.8676 5.66559 41.8333C5.66584 41.8333 5.66534 41.8333 5.66559 41.8333L28.333 41.8333C31.2438 41.868 33.6316 39.5365 33.6663 36.6257C33.6663 36.6255 33.6663 36.626 33.6663 36.6257L33.6663 14.75C33.665 14.2336 33.472 13.7362 33.1247 13.3541ZM28.7678 14.7501H20.5595C19.666 14.6621 19.0078 13.8742 19.0803 12.9793V4.33344H19.3095L28.7678 14.7501ZM28.333 37.6666H5.66635C5.05757 37.7021 4.53532 37.2373 4.49988 36.6285C4.49981 36.6273 4.49975 36.6262 4.49968 36.625V5.37498C4.53317 4.76608 5.05392 4.29962 5.66282 4.33311C5.664 4.33317 5.66517 4.33324 5.66635 4.33331H14.9164V12.9791C14.8463 16.1737 17.3681 18.8258 20.5622 18.9166H29.4997V36.625C29.4662 37.2339 28.9454 37.7003 28.3365 37.6669C28.3354 37.6668 28.3342 37.6667 28.333 37.6666Z" fill="white"/>
</svg>
