<svg width="34" height="44" viewBox="0 0 34 44" fill="none" xmlns="http://www.w3.org/2000/svg">
<path d="M25.3562 41.8356H27.4395L27.4166 41.7939C30.8541 41.7939 33.6666 38.9842 33.6666 35.55V12.6557C33.6666 12.0938 33.4374 11.5526 33.0624 11.178L22.6458 0.77151C22.2499 0.376063 21.7083 0.14712 21.1666 0.167933V0.188746H6.58327C3.12494 0.188746 0.333273 2.97769 0.333273 6.43265V35.5709C0.312439 37.7978 1.52077 39.8583 3.45827 40.9822H3.46036C4.43952 41.5442 5.71036 41.2112 6.29369 40.233H6.31452C6.87702 39.2339 6.54369 37.9644 5.56452 37.4024C4.89786 37.0278 4.50202 36.3201 4.52286 35.5917V6.45346C4.52286 5.28793 5.43952 4.37216 6.60619 4.37216H12.822C11.6713 4.38942 10.7721 5.29881 10.7721 6.45321C10.7721 7.59793 11.6887 8.53451 12.8554 8.53451H14.9387C16.0846 8.53451 17.0221 7.59793 17.0221 6.45321C17.0221 5.29881 16.1024 4.38942 14.9715 4.37216H20.3354L29.5229 13.5507V35.5917C29.5229 36.7364 28.5854 37.673 27.4395 37.673H25.3562C24.1895 37.673 23.2729 38.5887 23.2729 39.7543C23.2729 40.899 24.1895 41.8356 25.3562 41.8356Z" fill="white"/>
<path fill-rule="evenodd" clip-rule="evenodd" d="M8.68872 39.754C8.68872 42.0435 10.5429 43.9166 12.8554 43.9166H17.0221C19.3137 43.9166 21.1887 42.0435 21.1887 39.754V35.5914C21.1887 32.1365 18.3762 29.3475 14.9387 29.3475C11.4804 29.3475 8.68872 32.1365 8.68872 35.5914V39.754ZM12.8554 35.5914C12.8554 34.4259 13.7721 33.5101 14.9387 33.5101C16.0846 33.5101 17.0221 34.4259 17.0221 35.5914V39.754H12.8554V35.5914Z" fill="white"/>
<path d="M17.0221 12.6971H19.1054C20.2512 12.6971 21.1887 11.7605 21.1887 10.6158C21.1887 9.45028 20.2512 8.53451 19.1054 8.53451H17.0221C15.8554 8.53451 14.9387 9.45028 14.9387 10.6158C14.9387 11.7605 15.8554 12.6971 17.0221 12.6971Z" fill="white"/>
<path d="M14.9387 16.8597H12.8554C11.6887 16.8597 10.7721 15.9231 10.7721 14.7784C10.7721 13.6129 11.6887 12.6971 12.8554 12.6971H14.9387C16.0846 12.6971 17.0221 13.6129 17.0221 14.7784C17.0221 15.9231 16.0846 16.8597 14.9387 16.8597Z" fill="white"/>
<path d="M17.0221 21.0223H19.1054C20.2512 21.0223 21.1887 20.0857 21.1887 18.941C21.1887 17.7755 20.2512 16.8597 19.1054 16.8597H17.0221C15.8554 16.8597 14.9387 17.7755 14.9387 18.941C14.9387 20.0857 15.8554 21.0223 17.0221 21.0223Z" fill="white"/>
<path d="M14.9387 25.1849H12.8554C11.6887 25.1849 10.7721 24.2483 10.7721 23.1036C10.7721 21.9381 11.6887 21.0223 12.8554 21.0223H14.9387C16.0846 21.0223 17.0221 21.9381 17.0221 23.1036C17.0221 24.2483 16.0846 25.1849 14.9387 25.1849Z" fill="white"/>
<path d="M17.0221 29.3475H19.1054C20.2512 29.3475 21.1887 28.4109 21.1887 27.2662C21.1887 26.1007 20.2512 25.1849 19.1054 25.1849H17.0221C15.8554 25.1849 14.9387 26.1007 14.9387 27.2662C14.9387 28.4109 15.8554 29.3475 17.0221 29.3475Z" fill="white"/>
</svg>
