<svg width="16" height="20" viewBox="0 0 16 20" fill="none" xmlns="http://www.w3.org/2000/svg">
<path fill-rule="evenodd" clip-rule="evenodd" d="M15.74 5.33018L11.3 0.330184C11.1109 0.120705 10.8422 0.000850742 10.56 0.000183742H2.56C1.16282 -0.0164819 0.0166742 1.10264 4.21806e-06 2.49982C5.61574e-06 2.49971 2.8037e-06 2.49994 4.21806e-06 2.49982L0 17.5002C0.0164662 18.8974 1.16246 20.0167 2.55964 20.0002C2.55952 20.0002 2.55976 20.0002 2.55964 20.0002L13.44 20.0002C14.8372 20.0168 15.9833 18.8977 16 17.5005C16 17.5007 16 17.5004 16 17.5005L16 6.00018C15.9994 5.75234 15.9067 5.51358 15.74 5.33018ZM9.99851 2.00024L13.7385 6.00024H10.7385C10.303 5.97395 9.97126 5.59958 9.99755 5.16407C9.99783 5.15946 9.99815 5.15485 9.99851 5.15024V2.00024Z" fill="white"/>
</svg>
