<svg width="42" height="30" viewBox="0 0 42 30" fill="none" xmlns="http://www.w3.org/2000/svg">
<path fill-rule="evenodd" clip-rule="evenodd" d="M39.7503 4.89585C38.4564 4.31325 36.9397 4.55921 35.8962 5.52085L31.417 9.68752V6.66669C31.417 3.21492 28.6188 0.416687 25.167 0.416687H6.41699C2.96522 0.416687 0.166992 3.21492 0.166992 6.66669V23.3334C0.166992 26.7851 2.96522 29.5834 6.41699 29.5834H25.167C28.6188 29.5834 31.417 26.7851 31.417 23.3334V20.3125L35.917 24.4792C36.5795 25.0789 37.4401 25.4127 38.3337 25.4167C38.8296 25.4155 39.3195 25.309 39.7712 25.1042C41.028 24.5958 41.8517 23.3767 41.8545 22.0209V7.97919C41.8483 6.61823 41.0154 5.39769 39.7503 4.89585ZM27.2503 23.3334C27.2503 24.4839 26.3176 25.4167 25.167 25.4167H6.41699C5.2664 25.4167 4.33366 24.4839 4.33366 23.3334V6.66669C4.33366 5.51609 5.2664 4.58335 6.41699 4.58335H25.167C26.3176 4.58335 27.2503 5.51609 27.2503 6.66669V23.3334ZM37.6699 20.4134L31.8158 14.9968L37.6699 9.5801V20.4134Z" fill="white"/>
</svg>
