<svg width="34" height="42" viewBox="0 0 34 42" fill="none" xmlns="http://www.w3.org/2000/svg">
<path d="M12.8321 33.5C12.0404 33.4791 11.3113 33.0416 10.9779 32.3541L8.89461 28.1875C8.58211 27.5833 8.58211 26.8958 8.89461 26.3125L10.9779 22.1458C11.5613 21.1458 12.8321 20.8333 13.8321 21.4166C14.7071 21.9375 15.0613 23.0416 14.6654 24L13.0613 27.2291L14.6654 30.4583C15.1654 31.4791 14.7696 32.7291 13.7488 33.25C13.4571 33.3958 13.1238 33.4791 12.8113 33.4791L12.8321 33.5Z" fill="white"/>
<path d="M20.2282 33.2707C20.4991 33.4166 20.8324 33.4999 21.1657 33.4999L21.1241 33.477C21.8949 33.4561 22.6241 33.0186 22.9782 32.3311L25.0616 28.1645C25.3532 27.5603 25.3532 26.8728 25.0616 26.2895L22.9782 22.1228C22.9366 22.0186 22.8949 21.9353 22.8532 21.852C22.2491 20.852 20.9782 20.5395 19.9991 21.1436C18.9991 21.7478 18.6866 23.0186 19.2907 24.0186H19.3116L20.9157 27.2478L19.3116 30.477C18.7907 31.4978 19.1866 32.7499 20.2282 33.2707Z" fill="white"/>
<path fill-rule="evenodd" clip-rule="evenodd" d="M6.58301 41.8337H27.4163C30.8538 41.8337 33.6663 39.0191 33.6663 35.5816V12.6667C33.6663 12.6424 33.6659 12.6165 33.6651 12.5923C33.6569 12.3532 33.6092 12.1254 33.5285 11.9148C33.4242 11.6386 33.2644 11.388 33.0622 11.1858L22.6455 0.76911C22.2497 0.373277 21.708 0.14411 21.1663 0.164943L21.1275 0.167027H6.58301C3.12467 0.167027 0.333008 2.95869 0.333008 6.41703V35.5837C0.333008 39.0212 3.12467 41.8337 6.58301 41.8337ZM19.083 4.33369H6.58301C5.41634 4.33369 4.49967 5.25036 4.49967 6.41703V35.5837C4.49967 36.7295 5.41634 37.667 6.58301 37.667H27.4163C28.5622 37.667 29.4997 36.7295 29.4997 35.5837V14.75H23.2497C20.9372 14.75 19.083 12.875 19.083 10.5834V4.33369ZM23.2497 7.27119V10.5834H26.5618L23.2497 7.27119Z" fill="white"/>
</svg>
