<svg width="42" height="36" viewBox="0 0 42 36" fill="none" xmlns="http://www.w3.org/2000/svg">
<path fill-rule="evenodd" clip-rule="evenodd" d="M14.7503 0.25C15.2108 0.25 15.6555 0.402426 16.0171 0.679335L16.2235 0.860194L21.8649 6.5H35.5837C38.9122 6.5 41.6329 9.10192 41.823 12.3828L41.8337 12.75V29.4167C41.8337 32.7452 39.2317 35.466 35.9509 35.6561L35.5837 35.6667H6.41699C3.08849 35.6667 0.367699 33.0648 0.177602 29.7839L0.166992 29.4167V6.5C0.166992 3.1715 2.76891 0.450707 6.04976 0.26061L6.41699 0.25H14.7503ZM13.8857 4.41667H6.41699C5.34858 4.41667 4.46802 5.22092 4.34767 6.25704L4.33366 6.5V29.4167C4.33366 30.4851 5.13791 31.3656 6.17403 31.486L6.41699 31.5H35.5837C36.6521 31.5 37.5326 30.6957 37.653 29.6596L37.667 29.4167V12.75C37.667 11.6816 36.8627 10.801 35.8266 10.6807L35.5837 10.6667H21.0003C20.5399 10.6667 20.0952 10.5142 19.7336 10.2373L19.5272 10.0565L13.8857 4.41667Z" fill="white"/>
</svg>
