<svg width="20" height="18" viewBox="0 0 20 18" fill="none" xmlns="http://www.w3.org/2000/svg">
<path d="M11 10.0002H12C12.5523 10.0002 13 10.4479 13 11.0002C13 11.5525 12.5523 12.0002 12 12.0002H11V13.0002C11 13.5525 10.5523 14.0002 10 14.0002C9.44771 14.0002 9 13.5525 9 13.0002V12.0002H8C7.44771 12.0002 7 11.5525 7 11.0002C7 10.4479 7.44771 10.0002 8 10.0002H9V9.00019C9 8.4479 9.44771 8.00019 10 8.00019C10.5523 8.00019 11 8.4479 11 9.00019V10.0002Z" fill="white"/>
<path fill-rule="evenodd" clip-rule="evenodd" d="M17.5 4.05019H10.5L7.87 0.87019C7.68158 0.637913 7.39908 0.502168 7.1 0.50019H2.5C1.13967 0.48349 0.0219301 1.56993 0 2.93019V15.0702C0.0219256 16.4304 1.13966 17.5169 2.49999 17.5002H17.5C18.8603 17.5169 19.9781 16.4305 20 15.0702V6.48019C19.9781 5.11994 18.8603 4.0335 17.5 4.05019ZM18 15.0502C17.9844 15.3038 17.7663 15.4967 17.5127 15.4811L17.5 15.4802H2.5C2.24695 15.5028 2.02352 15.3159 2.00096 15.0629L2 15.0502V2.93019C2.01556 2.67662 2.23374 2.48367 2.48732 2.49924L2.5 2.50019H6.63L9.23 5.68019C9.41842 5.91247 9.70092 6.04821 10 6.05019H17.5C17.753 6.02762 17.9765 6.21446 17.999 6.46751L18 6.48019V15.0502Z" fill="white"/>
</svg>
