<svg width="20" height="20" viewBox="0 0 20 20" fill="none" xmlns="http://www.w3.org/2000/svg">
<path d="M10 4C8.067 4 6.5 5.567 6.5 7.5C6.5 8.05229 6.94772 8.5 7.5 8.5C8.05229 8.5 8.5 8.05229 8.5 7.5C8.5 6.67157 9.17157 6 10 6C10.8284 6 11.5 6.67157 11.5 7.5C11.5 8.32843 10.8284 9 10 9C9.44772 9 9 9.44771 9 10V12C9 12.5523 9.44772 13 10 13C10.5523 13 11 12.5523 11 12V10.84C12.8502 10.2997 13.9121 8.36178 13.3717 6.51159C12.9348 5.01539 11.5587 3.99032 10 4Z" fill="white"/>
<path d="M10.7071 15.7071C11.0976 15.3166 11.0976 14.6834 10.7071 14.2929C10.3166 13.9024 9.68341 13.9024 9.29289 14.2929C8.90237 14.6834 8.90237 15.3166 9.29289 15.7071C9.68341 16.0976 10.3166 16.0976 10.7071 15.7071Z" fill="white"/>
<path fill-rule="evenodd" clip-rule="evenodd" d="M0 10C0 4.47715 4.47715 0 10 0C15.5229 0 20 4.47715 20 10C20 15.5229 15.5229 20 10 20C4.47715 20 0 15.5229 0 10ZM2 10C2 14.4183 5.58172 18 10 18C14.4183 18 18 14.4183 18 10C18 5.58172 14.4183 2 10 2C5.58172 2 2 5.58172 2 10Z" fill="white"/>
</svg>
