<svg width="18" height="18" viewBox="0 0 18 18" fill="none" xmlns="http://www.w3.org/2000/svg">
<path d="M6.06066 6.56066C6.64645 5.97487 6.64645 5.02513 6.06066 4.43934C5.47487 3.85355 4.52513 3.85355 3.93934 4.43934C3.35355 5.02513 3.35355 5.97487 3.93934 6.56066C4.52513 7.14645 5.47487 7.14645 6.06066 6.56066Z" fill="white"/>
<path fill-rule="evenodd" clip-rule="evenodd" d="M3 0H15C16.6569 0 18 1.34315 18 3V15C18 16.6569 16.6569 18 15 18H3C1.34315 18 0 16.6569 0 15V3C0 1.34315 1.34315 0 3 0ZM15 2H3C2.44772 2 2 2.44772 2 3V14.7L9.28 8.63C10.3025 7.78866 11.7775 7.78866 12.8 8.63L16 11.36V3C16 2.44772 15.5523 2 15 2ZM14.9986 16.0001H3.55859L10.5586 10.1601C10.8347 9.95509 11.2125 9.95509 11.4886 10.1601L15.9986 14.0001V15.0001C15.9986 15.5524 15.5509 16.0001 14.9986 16.0001Z" fill="white"/>
</svg>
