<svg width="20" height="20" viewBox="0 0 20 20" fill="none" xmlns="http://www.w3.org/2000/svg">
<path d="M10.7071 5.29289C11.0976 5.68341 11.0976 6.31658 10.7071 6.7071C10.3166 7.09762 9.68341 7.09762 9.29289 6.7071C8.90237 6.31658 8.90237 5.68341 9.29289 5.29289C9.68341 4.90237 10.3166 4.90237 10.7071 5.29289Z" fill="white"/>
<path d="M9 9C9 8.44771 9.44771 8 10 8C10.5523 8 11 8.44771 11 9V14C11 14.5523 10.5523 15 10 15C9.44771 15 9 14.5523 9 14V9Z" fill="white"/>
<path fill-rule="evenodd" clip-rule="evenodd" d="M0 10C0 4.47715 4.47715 0 10 0C15.5229 0 20 4.47715 20 10C20 15.5229 15.5229 20 10 20C4.47715 20 0 15.5229 0 10ZM2 10C2 14.4183 5.58172 18 10 18C14.4183 18 18 14.4183 18 10C18 5.58172 14.4183 2 10 2C5.58172 2 2 5.58172 2 10Z" fill="white"/>
</svg>
