<svg width="20" height="20" viewBox="0 0 20 20" fill="none" xmlns="http://www.w3.org/2000/svg">
<path fill-rule="evenodd" clip-rule="evenodd" d="M10.8506 18.3336H15.0065V18.3327C16.3779 18.3327 17.5 17.2077 17.5 15.8327V6.66675V6.66605C17.5 6.65635 17.4998 6.64666 17.4995 6.637C17.4962 6.54136 17.4772 6.45025 17.445 6.36602C17.4034 6.25552 17.3396 6.15526 17.259 6.07438L13.1031 1.90772C12.9452 1.74938 12.7291 1.65772 12.513 1.66605V1.66675L12.4975 1.66688H6.69481C5.31506 1.66688 4.2013 2.78355 4.2013 4.16688V6.66688C4.2013 7.12522 4.56701 7.50022 5.03247 7.50022C5.48961 7.50022 5.86364 7.12522 5.86364 6.66688V4.16688C5.86364 3.70022 6.22935 3.33355 6.69481 3.33355H11.6818V5.83342C11.6818 6.75008 12.4216 7.50008 13.3442 7.50008H15.8377V15.8336C15.8377 16.2919 15.4636 16.6669 15.0065 16.6669H10.8506C10.3852 16.6669 10.0195 17.0336 10.0195 17.5002C10.0195 17.9586 10.3852 18.3336 10.8506 18.3336ZM14.6656 5.83342L13.3442 4.50855V5.83342H14.6656ZM3.69736 14.1931C2.9881 13.5805 2.53906 12.6739 2.53906 11.6667C2.53906 9.82508 4.02685 8.33341 5.86374 8.33341C7.69231 8.33341 9.18841 9.82508 9.18841 11.6667C9.18841 12.7037 8.70983 13.6339 7.96319 14.2465L9.11358 18.0911C9.20501 18.4078 9.10527 18.7578 8.84761 18.9745C8.70631 19.0911 8.52345 19.1578 8.34891 19.1661L8.35722 19.167C8.22423 19.1586 8.09124 19.1336 7.98319 19.0753L5.86371 18.017L3.74423 19.0753H3.73592C3.4367 19.2253 3.0793 19.1836 2.82995 18.9753C2.55566 18.767 2.4393 18.417 2.53072 18.092L3.69736 14.1931ZM5.21407 14.9362L4.67514 16.7245L5.44813 16.3411C5.68085 16.2161 5.95514 16.2161 6.19618 16.3411L6.96917 16.7245L6.43456 14.9506C6.24898 14.9831 6.05824 15.0001 5.86374 15.0001C5.6414 15.0001 5.42417 14.9781 5.21407 14.9362ZM5.86374 10.0001C4.94114 10.0001 4.2014 10.7417 4.2014 11.6667C4.2014 12.5834 4.94114 13.3334 5.86374 13.3334C6.77802 13.3334 7.52608 12.5834 7.52608 11.6667C7.52608 10.7417 6.77802 10.0001 5.86374 10.0001Z" fill="#9E9E9E"/>
</svg>
