<svg width="28" height="28" viewBox="0 0 28 28" fill="none" xmlns="http://www.w3.org/2000/svg">
<path fill-rule="evenodd" clip-rule="evenodd" d="M12.8273 5.65919C12.7382 4.45186 11.7304 3.5 10.5003 3.5H5.83366L5.6976 3.50785C5.11737 3.57524 4.66699 4.06836 4.66699 4.66667C4.66699 5.311 5.18933 5.83333 5.83366 5.83333H10.5003L10.5003 8.16667L10.5003 10.5H5.83366L5.6976 10.5078C5.11737 10.5752 4.66699 11.0684 4.66699 11.6667C4.66699 12.311 5.18933 12.8333 5.83366 12.8333H10.5003L10.6745 12.8269C11.8818 12.7379 12.8337 11.7301 12.8337 10.5V9.33333H16.3337V18.6667H12.8337V17.5L12.8273 17.3259C12.7382 16.1185 11.7304 15.1667 10.5003 15.1667H5.83366L5.6976 15.1745C5.11737 15.2419 4.66699 15.735 4.66699 16.3333C4.66699 16.9777 5.18933 17.5 5.83366 17.5H10.5003L10.5003 19.8333L10.5003 22.1667H5.83366L5.6976 22.1745C5.11737 22.2419 4.66699 22.735 4.66699 23.3333C4.66699 23.9777 5.18933 24.5 5.83366 24.5H10.5003L10.6745 24.4936C11.8818 24.4045 12.8337 23.3968 12.8337 22.1667V21H16.3337L16.5078 20.9936C17.7151 20.9045 18.667 19.8968 18.667 18.6667V15.1667H23.3337L23.4697 15.1588C24.0499 15.0914 24.5003 14.5983 24.5003 14C24.5003 13.3557 23.978 12.8333 23.3337 12.8333H18.667V9.33333L18.6606 9.15919C18.5715 7.95186 17.5637 7 16.3337 7H12.8337V5.83333L12.8273 5.65919Z" fill="white"/>
</svg>
