<svg width="20" height="14" viewBox="0 0 20 14" fill="none" xmlns="http://www.w3.org/2000/svg">
<path d="M1 1.05C1 1.57467 1.42533 2 1.95 2H18.05C18.5747 2 19 1.57467 19 1.05V0.95C19 0.425334 18.5747 0 18.05 0H1.95C1.42533 0 1 0.425334 1 0.95V1.05Z" fill="white"/>
<path d="M18.0519 6H3.91189L5.21189 4.71C5.60401 4.31788 5.60401 3.68212 5.21189 3.29C4.81977 2.89788 4.18401 2.89788 3.79189 3.29L0.791892 6.29C0.39977 6.67892 0.397174 7.31208 0.786094 7.7042L3.79189 10.71C4.18081 11.1021 4.81397 11.1047 5.20609 10.7158L5.21189 10.71C5.60401 10.3211 5.60661 9.68792 5.21769 9.2958L5.21189 9.29L3.91189 8H18.0519C18.5658 7.97489 18.9768 7.56391 19.0019 7.05V7C19.0026 6.46666 18.5846 6.02666 18.0519 6Z" fill="white"/>
<path d="M1.95 14C1.42533 14 1 13.5747 1 13.05V12.95C1 12.4253 1.42533 12 1.95 12H18.05C18.5747 12 19 12.4253 19 12.95V13.05C19 13.5747 18.5747 14 18.05 14H1.95Z" fill="white"/>
</svg>
