<svg width="19" height="22" viewBox="0 0 19 22" fill="none" xmlns="http://www.w3.org/2000/svg">
<path d="M4.29774 21.7097C4.47764 21.8897 4.73751 21.9997 5.00736 21.9997L4.98638 21.9877C5.24624 21.9877 5.5061 21.8777 5.696 21.6977L5.697 21.6987L8.69542 18.6987C8.78538 18.5987 8.85534 18.4887 8.90531 18.3687C8.95529 18.2387 8.97528 18.1187 8.98527 17.9887H8.99427C8.98427 17.8487 8.96428 17.7287 8.91431 17.6087C8.86434 17.4787 8.79437 17.3687 8.70442 17.2787L5.706 14.2787C5.30621 13.8797 4.67654 13.8797 4.28674 14.2797C3.88795 14.6697 3.88795 15.2997 4.28774 15.6997L5.58706 16.9897H0.999474C0.439769 16.9897 0 17.4297 0 17.9897C0 18.5397 0.439769 18.9897 0.999474 18.9897H5.58706L4.28774 20.2797V20.2897C3.89795 20.6797 3.89795 21.3197 4.29774 21.7097Z" fill="white"/>
<path fill-rule="evenodd" clip-rule="evenodd" d="M10.5045 20.9997H16.0016C17.6507 20.9997 19 19.6487 19 17.9987V6.99867C19 6.94014 18.9948 6.88207 18.9849 6.82518C18.9776 6.78277 18.9676 6.74134 18.9552 6.70106C18.9071 6.54385 18.8222 6.40075 18.7102 6.28867L13.7128 1.28867C13.5229 1.09867 13.263 0.988675 13.0032 0.998675C13.0032 0.998675 13.0031 0.998675 13.0032 0.998675C12.9969 0.998675 12.9905 0.999566 12.9843 0.999675H6.00684C4.34771 0.999675 3.00842 2.33967 3.00842 3.99967V11.9997C3.00842 12.5497 3.44819 12.9997 4.00789 12.9997C4.5576 12.9997 5.00736 12.5497 5.00736 11.9997V3.99967C5.00736 3.43967 5.44713 2.99967 6.00684 2.99967H12.0034V5.99951C12.0034 7.09951 12.893 7.99951 14.0024 7.99951H17.0011V17.9997C17.0011 18.5497 16.5513 18.9997 16.0016 18.9997H10.5045C9.94477 18.9997 9.505 19.4397 9.505 19.9997C9.505 20.5497 9.94477 20.9997 10.5045 20.9997ZM15.5916 5.99951L14.0024 4.40944V5.99951H15.5916Z" fill="white"/>
</svg>
