<svg width="16" height="14" viewBox="0 0 16 14" fill="none" xmlns="http://www.w3.org/2000/svg">
<path d="M1.851 0.820325C1.79736 0.358486 1.40485 0 0.928622 0C0.415758 0 0 0.415758 0 0.928622L0.00624752 1.04621C0.0598895 1.50805 0.452392 1.86653 0.928622 1.86653C1.44149 1.86653 1.85724 1.45077 1.85724 0.937909L1.851 0.820325Z" fill="white"/>
<path d="M15.7866 0.928622C15.7866 0.415758 15.3708 0 14.858 0H4.64311L4.53481 0.00624752C4.07298 0.0598895 3.71449 0.452392 3.71449 0.928622C3.71449 1.44149 4.13025 1.85724 4.64311 1.85724H14.858L14.9663 1.851C15.4281 1.79736 15.7866 1.40485 15.7866 0.928622Z" fill="white"/>
<path d="M15.7866 6.50036C15.7866 5.98749 15.3708 5.57173 14.858 5.57173H4.64311L4.53481 5.57798C4.07298 5.63162 3.71449 6.02413 3.71449 6.50036C3.71449 7.01322 4.13025 7.42898 4.64311 7.42898H14.858L14.9663 7.42273C15.4281 7.36909 15.7866 6.97659 15.7866 6.50036Z" fill="white"/>
<path d="M14.858 11.1435C15.3708 11.1435 15.7866 11.5592 15.7866 12.0721C15.7866 12.5483 15.4281 12.9408 14.9663 12.9945L14.858 13.0007H4.64311C4.13025 13.0007 3.71449 12.585 3.71449 12.0721C3.71449 11.5959 4.07298 11.2034 4.53481 11.1497L4.64311 11.1435H14.858Z" fill="white"/>
<path d="M0.928622 5.57173C1.40485 5.57173 1.79736 5.93022 1.851 6.39206L1.85724 6.50964C1.85724 7.02251 1.44149 7.43827 0.928622 7.43827C0.452392 7.43827 0.0598895 7.07978 0.00624752 6.61794L0 6.50036C0 5.98749 0.415758 5.57173 0.928622 5.57173Z" fill="white"/>
<path d="M1.851 11.9638C1.79736 11.502 1.40485 11.1435 0.928622 11.1435C0.415758 11.1435 0 11.5592 0 12.0721L0.00624752 12.1897C0.0598895 12.6515 0.452392 13.01 0.928622 13.01C1.44149 13.01 1.85724 12.5942 1.85724 12.0814L1.851 11.9638Z" fill="white"/>
</svg>
