<svg width="9" height="13" viewBox="0 0 9 13" fill="none" xmlns="http://www.w3.org/2000/svg">
<path fill-rule="evenodd" clip-rule="evenodd" d="M4.5 0.25C2.77411 0.25 1.375 1.64911 1.375 3.375C1.375 5.10089 2.77411 6.5 4.5 6.5C6.22589 6.5 7.625 5.10089 7.625 3.375C7.625 1.64911 6.22589 0.25 4.5 0.25ZM4.5 1.5C5.53553 1.5 6.375 2.33947 6.375 3.375C6.375 4.41053 5.53553 5.25 4.5 5.25C3.46447 5.25 2.625 4.41053 2.625 3.375C2.625 2.33947 3.46447 1.5 4.5 1.5Z" fill="white"/>
<path d="M8.87211 10.7394C8.80114 9.07644 7.43047 7.75 5.75 7.75H3.25L3.11444 7.75289C1.45144 7.82386 0.125 9.19453 0.125 10.875V12.125L0.129205 12.1979C0.165308 12.5087 0.429478 12.75 0.75 12.75C1.09518 12.75 1.375 12.4702 1.375 12.125V10.875L1.37818 10.7648C1.43521 9.78057 2.25145 9 3.25 9H5.75L5.86017 9.00318C6.84442 9.06021 7.625 9.87645 7.625 10.875V12.125L7.62921 12.1979C7.66531 12.5087 7.92948 12.75 8.25 12.75C8.59518 12.75 8.875 12.4702 8.875 12.125V10.875L8.87211 10.7394Z" fill="white"/>
</svg>
