<svg width="20" height="20" viewBox="0 0 20 20" fill="none" xmlns="http://www.w3.org/2000/svg">
<circle opacity="0.1" cx="10" cy="10" r="9.5" fill="#D9D9D9" fill-opacity="0.75" stroke="white"/>
<path fill-rule="evenodd" clip-rule="evenodd" d="M8.44355 5.60485C8.6397 5.45234 8.92331 5.4662 9.10355 5.64645C9.26276 5.80565 9.29216 6.0455 9.19175 6.23449L10.7775 7.8195L12.6756 8.53184L12.7245 8.55322C12.7721 8.57715 12.8157 8.60859 12.8536 8.64645L13.6036 9.39645L13.6451 9.44355C13.7977 9.6397 13.7838 9.92331 13.6036 10.1036L12.2071 11.5L14.1036 13.3964L14.1451 13.4436C14.2977 13.6397 14.2838 13.9233 14.1036 14.1036C13.9083 14.2988 13.5917 14.2988 13.3964 14.1036L11.5 12.2071L10.1036 13.6036L10.0564 13.6451C9.8603 13.7977 9.57669 13.7838 9.39645 13.6036L8.64645 12.8536L8.61077 12.8138C8.57731 12.7724 8.55063 12.7257 8.53184 12.6756L7.82 10.777L6.2346 9.19169C6.0456 9.29217 5.80568 9.26279 5.64645 9.10355C5.45118 8.90829 5.45118 8.59171 5.64645 8.39645L5.89645 8.14645C5.89648 8.14641 5.89652 8.14637 5.89656 8.14633L8.14645 5.89645L8.39645 5.64645L8.44355 5.60485ZM8.5 6.95711L10.1464 8.60355C10.1843 8.64141 10.2279 8.67285 10.2755 8.69678L10.3244 8.71816L12.223 9.43L12.5425 9.75L9.75 12.5425L9.4305 12.2225L8.71816 10.3244C8.69937 10.2743 8.67269 10.2276 8.63923 10.1862L8.60355 10.1464L6.95711 8.5L8.5 6.95711Z" fill="white"/>
</svg>
