<svg width="13" height="12" viewBox="0 0 13 12" fill="none" xmlns="http://www.w3.org/2000/svg">
<path fill-rule="evenodd" clip-rule="evenodd" d="M11.5147 6.96078C11.1656 6.85198 10.7941 7.04515 10.6827 7.39341C10.0374 9.36654 8.18595 10.6925 6.1101 10.6681C3.50525 10.6977 1.3677 8.61375 1.33118 6.00898C1.3677 3.40422 3.50525 1.32026 6.1101 1.34986C7.23999 1.34714 8.3351 1.74044 9.20509 2.4614L7.76076 2.22179C7.39804 2.1621 7.05562 2.40776 6.99594 2.77048C6.99573 2.77173 6.99553 2.77297 6.99533 2.77422C6.93565 3.13694 7.18131 3.47936 7.54403 3.53904C7.54528 3.53925 7.54652 3.53945 7.54777 3.53965L10.3699 4.00556H10.483C10.5602 4.00547 10.6368 3.99196 10.7093 3.96563C10.7337 3.95637 10.7562 3.94285 10.7759 3.92569C10.8236 3.90795 10.8685 3.88328 10.909 3.85248L10.9689 3.77926C10.9689 3.74598 11.0288 3.71936 11.0554 3.67942C11.082 3.63949 11.0554 3.61286 11.0887 3.58624C11.1071 3.54748 11.1227 3.50744 11.1353 3.46643L11.6345 0.804081C11.7043 0.436487 11.463 0.081871 11.0954 0.0120309C10.7278 -0.057812 10.3731 0.183564 10.3033 0.551157L10.1236 1.51626C9.0094 0.550652 7.5845 0.018973 6.1101 0.0186868C2.77009 -0.0108773 0.0365741 2.66904 0 6.00898C0.0365771 9.34893 2.77009 12.0288 6.11011 11.9993C8.77895 12.0403 11.1614 10.3331 11.9806 7.79276C12.085 7.44031 11.8839 7.06994 11.5315 6.96552C11.5259 6.96386 11.5203 6.96228 11.5147 6.96078Z" fill="white"/>
</svg>
