<svg width="56" height="56" viewBox="0 0 56 56" fill="none" xmlns="http://www.w3.org/2000/svg">
<path fill-rule="evenodd" clip-rule="evenodd" d="M33.8556 10.1701C32.5916 8.21546 30.3808 7 27.9934 7C25.4469 7 23.1012 8.38293 21.8684 10.6111L5.32464 39.154L5.1816 39.446L5.01523 39.8999C4.36496 41.8829 4.63191 44.0635 5.76138 45.8384C6.97774 47.7498 9.04398 48.9543 11.3066 49.071L11.5792 49.0693L11.6834 49.0741H44.3501L44.8146 49.0556C46.9695 48.8992 48.9316 47.7657 50.1352 45.9669C51.4247 44.0396 51.6761 41.5987 50.8064 39.449L50.6622 39.154L34.0955 10.5707L33.8556 10.1701ZM26.086 12.6619C26.5373 12.0309 27.2389 11.6667 27.9934 11.6667L28.2735 11.6835C29.0114 11.7726 29.6698 12.2102 30.0351 12.8704L46.52 41.3163L46.5716 41.4719C46.7439 42.1164 46.6327 42.8096 46.2566 43.3718C45.8268 44.0142 45.1067 44.4021 44.3337 44.4075L11.6834 44.4074L11.5667 44.4127L11.2675 44.3792C10.6249 44.2676 10.0532 43.8905 9.69847 43.333L9.5621 43.0872C9.3208 42.5829 9.26866 42.008 9.41529 41.4685L9.46667 41.314L25.9288 12.9108L26.086 12.6619ZM28.0167 21.0741C29.2134 21.0741 30.1996 21.9749 30.3344 23.1353L30.3501 23.4074V28.0741C30.3501 29.3628 29.3054 30.4074 28.0167 30.4074C26.8201 30.4074 25.8339 29.5067 25.6991 28.3462L25.6834 28.0741V23.4074C25.6834 22.1188 26.7281 21.0741 28.0167 21.0741ZM30.3734 37.4074C30.3734 36.1188 29.3287 35.0741 28.0401 35.0741L27.7446 35.0898C26.5842 35.2246 25.6834 36.2108 25.6834 37.4074C25.6834 38.6961 26.7281 39.7408 28.0167 39.7408L28.3122 39.7251C29.4726 39.5903 30.3734 38.604 30.3734 37.4074Z" fill="white"/>
</svg>
