<svg width="11" height="7" viewBox="0 0 11 7" fill="none" xmlns="http://www.w3.org/2000/svg">
<path fill-rule="evenodd" clip-rule="evenodd" d="M10.0019 6.50002C9.73609 6.50155 9.48061 6.3972 9.29189 6.21002L6.00189 2.90002L2.70189 6.08002C2.31186 6.46774 1.68193 6.46774 1.29189 6.08002C0.89977 5.6911 0.897174 5.05794 1.28609 4.66582C1.28802 4.66388 1.28995 4.66194 1.29189 4.66002L5.29189 0.800017C5.68074 0.418874 6.30305 0.418874 6.69189 0.800017L10.6919 4.80002C11.084 5.18894 11.0866 5.8221 10.6977 6.21422C10.6958 6.21616 10.6938 6.21809 10.6919 6.22002C10.5065 6.3987 10.2594 6.49899 10.0019 6.50002Z" fill="#171717"/>
</svg>
