<svg width="42" height="37" viewBox="0 0 42 37" fill="none" xmlns="http://www.w3.org/2000/svg">
<path fill-rule="evenodd" clip-rule="evenodd" d="M17.0751 1.58484C23.338 -0.58278 30.1723 2.7371 32.34 9L32.34 8.99999C34.3928 9.25463 36.3162 10.1396 37.8451 11.533C41.927 15.2532 42.2202 21.5781 38.5 25.66C38.1208 26.0916 37.5744 26.3393 37 26.34C36.5138 26.3393 36.0446 26.1615 35.68 25.84L35.6616 25.8238C34.8372 25.0887 34.7648 23.8244 35.5 23C36.4903 21.8928 37.0348 20.4575 37.0278 18.972C37.0124 15.6583 34.3137 12.9846 31 13H30.88C29.9145 13.0195 29.0729 12.3462 28.88 11.4C28.2407 8.25173 25.7802 5.79125 22.632 5.15197C18.302 4.27275 14.0792 7.07007 13.2 11.4C13.007 12.3462 12.1655 13.0195 11.2 13H11C9.51448 12.9931 8.07923 13.5375 6.972 14.5279C4.50214 16.737 4.29081 20.5301 6.49999 23C6.69328 23.1569 6.85557 23.3486 6.9785 23.5652C7.52383 24.5257 7.18722 25.7465 6.22666 26.2918C5.26608 26.8372 4.04531 26.5006 3.49998 25.54C2.1835 24.0529 1.33965 22.2075 1.076 20.239C0.342837 14.765 4.18602 9.73317 9.65998 9C10.8638 5.52192 13.5971 2.78862 17.0751 1.58484ZM19.62 17.58C20.3977 16.8177 21.6423 16.8177 22.42 17.58L28.42 23.58L28.4316 23.5916C29.2094 24.3758 29.2042 25.6422 28.42 26.42L28.4084 26.4316C27.6241 27.2094 26.3578 27.2042 25.58 26.42L23 23.82V35C23 36.1046 22.1045 37 21 37C19.8954 37 19 36.1046 19 35V23.72L16.38 26.26C16.3138 26.3336 16.2422 26.4022 16.1658 26.4653C15.3138 27.1683 14.0533 27.0475 13.3503 26.1955C12.6473 25.3436 12.768 24.083 13.62 23.38L19.62 17.58Z" fill="white"/>
</svg>
