<svg width="18" height="18" viewBox="0 0 18 18" fill="none" xmlns="http://www.w3.org/2000/svg">
<path fill-rule="evenodd" clip-rule="evenodd" d="M15 0H3C1.34315 0 0 1.34315 0 3V15C0 16.6569 1.34315 18 3 18H15C16.6569 18 18 16.6569 18 15V3C18 1.34315 16.6569 0 15 0ZM16 15C16 15.5523 15.5523 16 15 16H3C2.44772 16 2 15.5523 2 15V3C2 2.44772 2.44772 2 3 2H15C15.5523 2 16 2.44772 16 3V15ZM6 8H12C12.5523 8 13 8.44771 13 9C13 9.55229 12.5523 10 12 10H6C5.44771 10 5 9.55229 5 9C5 8.44771 5.44771 8 6 8Z" fill="white"/>
</svg>
