<svg id="svg" version="1.1" xmlns="http://www.w3.org/2000/svg" xmlns:xlink="http://www.w3.org/1999/xlink" width="400" height="87.62169680111266" viewBox="0, 0, 400,87.62169680111266"><g id="svgg"><path id="path0" d="M44.917 4.765 C 39.867 7.941,39.140 8.408,39.073 8.517 C 39.035 8.579,39.462 9.618,40.022 10.826 C 41.352 13.697,41.260 14.464,39.465 15.489 L 38.652 15.954 35.201 15.873 C 22.556 15.575,9.454 22.479,5.060 31.754 C -1.991 46.639,16.683 64.747,41.250 66.847 C 59.533 68.409,79.322 57.588,78.792 46.317 C 78.697 44.287,78.824 43.835,79.711 43.056 C 80.902 42.011,81.082 42.012,85.312 43.085 L 89.083 44.042 92.833 41.430 C 94.896 39.993,96.605 38.755,96.632 38.679 C 96.659 38.604,95.909 37.993,94.965 37.322 C 94.022 36.651,89.688 33.515,85.333 30.354 C 80.979 27.193,75.317 23.095,72.750 21.248 C 64.236 15.120,58.950 11.286,51.804 6.055 C 49.634 4.466,47.759 3.172,47.638 3.179 C 47.516 3.186,46.292 3.900,44.917 4.765 M45.583 25.078 C 62.477 27.819,66.748 43.565,52.416 50.263 C 36.803 57.559,16.677 44.704,24.582 32.484 C 28.153 26.963,37.308 23.735,45.583 25.078 " stroke="none" fill="#fc0535" fill-rule="evenodd"></path><path id="path1" d="M36.774 11.875 C 36.113 13.027,36.077 13.307,36.574 13.411 C 36.808 13.460,37.194 13.541,37.431 13.590 C 38.550 13.824,38.710 13.435,38.049 12.087 C 37.506 10.981,37.306 10.948,36.774 11.875 M1.306 34.512 C 1.139 34.606,0.987 34.991,0.917 35.499 C 0.854 35.958,0.734 36.375,0.651 36.426 C 0.568 36.478,0.500 36.800,0.500 37.143 C 0.500 37.486,0.419 37.847,0.321 37.946 C 0.120 38.147,0.194 40.099,0.483 42.250 C 3.048 61.300,30.220 75.426,54.815 70.496 C 60.593 69.337,68.077 66.144,71.862 63.222 C 72.198 62.963,72.902 62.421,73.426 62.020 C 77.638 58.790,80.620 54.293,81.121 50.417 L 81.250 49.417 81.333 50.738 L 81.417 52.059 84.500 52.855 C 88.987 54.014,88.753 54.045,91.951 51.875 C 93.403 50.890,95.485 49.483,96.578 48.750 C 99.765 46.612,100.731 45.297,99.800 44.367 C 99.397 43.963,99.000 44.203,91.917 49.123 C 89.168 51.032,89.076 51.045,84.974 50.085 C 81.218 49.205,81.168 49.190,81.157 48.869 C 81.152 48.712,81.004 49.133,80.828 49.806 C 78.978 56.869,70.266 63.851,59.035 67.271 C 39.883 73.103,16.541 66.015,5.727 51.083 C 2.137 46.126,0.488 40.265,1.389 35.667 C 1.667 34.247,1.671 34.308,1.306 34.512 M39.000 37.088 C 38.862 37.115,38.188 37.228,37.500 37.339 C 34.173 37.878,30.801 39.322,28.461 41.210 C 26.323 42.935,26.288 43.116,27.805 44.608 C 35.106 51.793,49.126 52.089,56.221 45.207 C 57.830 43.646,57.704 43.299,54.667 40.967 C 51.054 38.193,43.238 36.257,39.000 37.088 M99.382 39.846 C 99.179 39.922,97.004 41.385,94.549 43.096 C 88.962 46.990,90.013 46.712,85.376 45.522 C 80.861 44.362,81.034 44.332,81.132 46.266 L 81.192 47.448 84.138 48.177 C 88.216 49.186,89.373 49.196,90.667 48.236 C 91.171 47.861,93.271 46.403,95.333 44.996 C 97.396 43.588,99.148 42.330,99.227 42.200 C 99.306 42.069,99.512 41.821,99.685 41.648 C 100.295 41.038,100.052 39.596,99.382 39.846 M0.172 44.917 C 0.172 45.100,0.244 45.362,0.333 45.500 C 0.467 45.707,0.495 45.693,0.495 45.417 C 0.495 45.233,0.422 44.971,0.333 44.833 C 0.200 44.626,0.172 44.641,0.172 44.917 M0.580 47.000 C 1.701 62.363,24.715 77.102,46.000 76.087 C 63.840 75.237,79.089 66.120,81.087 55.110 L 81.303 53.917 81.318 55.259 L 81.333 56.601 84.828 57.487 C 89.096 58.568,88.803 58.608,91.814 56.538 C 93.111 55.646,95.165 54.243,96.378 53.421 C 99.823 51.084,100.726 49.868,99.746 48.889 C 99.372 48.515,99.279 48.572,91.621 53.880 C 89.433 55.395,88.851 55.619,87.717 55.377 C 84.656 54.725,81.174 53.728,81.161 53.500 C 81.153 53.362,80.974 53.750,80.762 54.362 C 78.569 60.688,71.495 66.584,61.709 70.242 C 38.057 79.081,7.327 67.339,0.885 47.000 L 0.489 45.750 0.580 47.000 M0.178 49.532 C 0.172 49.779,0.242 50.027,0.333 50.083 C 0.532 50.206,0.532 49.880,0.333 49.417 C 0.205 49.119,0.189 49.131,0.178 49.532 M0.579 51.500 C 1.429 64.114,17.071 76.747,35.773 79.922 C 56.120 83.377,78.569 73.383,81.082 59.750 L 81.297 58.583 81.315 59.869 L 81.333 61.154 81.958 61.315 C 89.303 63.208,88.800 63.173,90.605 61.929 C 91.326 61.431,92.667 60.513,93.583 59.889 C 99.802 55.656,100.000 55.484,100.000 54.308 C 100.000 52.620,100.396 52.432,92.418 57.894 C 90.738 59.045,89.348 59.878,89.001 59.944 C 87.981 60.137,81.173 58.458,81.158 58.010 C 81.153 57.867,81.015 58.163,80.852 58.667 C 78.507 65.898,69.727 72.582,58.167 75.938 C 34.965 82.673,6.582 70.495,0.821 51.333 L 0.495 50.250 0.579 51.500 M0.181 54.000 C 0.176 54.229,0.244 54.529,0.333 54.667 C 0.545 54.995,0.545 54.410,0.333 53.917 C 0.202 53.611,0.189 53.618,0.181 54.000 M0.504 55.500 C 0.495 59.828,3.721 66.228,8.220 70.808 C 18.667 81.442,35.047 86.732,51.417 84.758 C 64.992 83.121,78.215 74.585,80.733 65.833 C 81.333 63.747,81.365 61.512,80.767 63.457 C 78.290 71.510,66.237 79.427,53.067 81.652 C 31.011 85.377,6.881 73.866,1.170 56.893 C 0.673 55.417,0.505 55.064,0.504 55.500 " stroke="none" fill="#1b1b1b" fill-rule="evenodd"></path><path id="path2" d="M47.417 0.333 C 47.360 0.425,47.131 0.500,46.907 0.500 C 46.683 0.500,46.500 0.575,46.500 0.667 C 46.500 0.758,46.393 0.833,46.262 0.833 C 46.131 0.833,45.925 0.927,45.804 1.042 C 45.682 1.156,45.378 1.356,45.128 1.485 C 44.877 1.614,44.524 1.858,44.343 2.027 C 44.162 2.195,43.936 2.333,43.840 2.333 C 43.745 2.333,43.667 2.408,43.667 2.500 C 43.667 2.592,43.610 2.655,43.542 2.640 C 43.276 2.584,42.841 2.877,42.943 3.043 C 43.003 3.139,42.977 3.172,42.887 3.116 C 42.796 3.061,42.466 3.188,42.153 3.401 C 41.840 3.613,41.415 3.839,41.208 3.904 C 41.002 3.969,40.833 4.092,40.833 4.178 C 40.833 4.263,40.721 4.333,40.583 4.333 C 40.446 4.333,40.333 4.396,40.333 4.472 C 40.333 4.549,39.921 4.827,39.417 5.091 C 38.912 5.355,38.500 5.630,38.500 5.702 C 38.500 5.774,38.402 5.833,38.281 5.833 C 38.161 5.833,37.902 5.983,37.705 6.167 C 37.508 6.350,37.276 6.500,37.188 6.500 C 36.820 6.500,36.167 7.538,36.167 8.124 C 36.167 8.840,37.122 11.000,37.439 11.000 C 37.673 11.000,38.667 12.812,38.667 13.239 C 38.667 13.871,36.966 13.969,36.295 13.376 C 36.094 13.199,35.805 13.149,35.337 13.212 C 34.968 13.261,34.667 13.234,34.667 13.151 C 34.667 13.068,33.992 13.000,33.167 13.000 C 32.342 13.000,31.667 13.063,31.667 13.140 C 31.667 13.218,31.160 13.297,30.542 13.317 C 29.923 13.336,29.345 13.423,29.258 13.510 C 29.171 13.596,28.796 13.667,28.425 13.668 C 28.054 13.669,27.037 13.825,26.167 14.013 C 25.296 14.202,24.376 14.397,24.123 14.447 C 23.870 14.498,23.622 14.605,23.571 14.686 C 23.521 14.767,23.312 14.833,23.107 14.833 C 22.901 14.833,22.648 14.918,22.544 15.022 C 22.441 15.126,22.219 15.225,22.053 15.242 C 21.472 15.300,20.833 15.537,20.833 15.695 C 20.833 15.782,20.755 15.804,20.658 15.745 C 20.472 15.630,19.412 16.071,19.252 16.331 C 19.199 16.416,19.046 16.443,18.911 16.392 C 18.777 16.340,18.667 16.381,18.667 16.482 C 18.667 16.584,18.580 16.667,18.475 16.667 C 18.198 16.667,16.438 17.536,16.298 17.742 C 16.232 17.838,16.120 17.920,16.048 17.923 C 15.770 17.936,14.667 18.545,14.667 18.686 C 14.667 18.767,14.610 18.821,14.542 18.807 C 14.158 18.726,13.270 19.372,13.466 19.590 C 13.531 19.662,13.496 19.670,13.388 19.609 C 13.281 19.547,13.062 19.629,12.900 19.790 C 12.739 19.951,12.602 20.060,12.595 20.031 C 12.556 19.857,11.781 20.319,11.106 20.919 C 11.002 21.012,10.699 21.227,10.433 21.397 C 10.167 21.568,9.717 21.926,9.433 22.193 C 9.149 22.460,8.489 23.079,7.967 23.570 C 7.445 24.060,7.063 24.508,7.120 24.564 C 7.176 24.621,7.097 24.667,6.944 24.667 C 6.792 24.667,6.667 24.742,6.667 24.834 C 6.667 24.925,6.381 25.282,6.031 25.625 C 5.265 26.379,4.193 27.810,3.628 28.833 C 3.400 29.246,3.062 29.851,2.877 30.178 C 2.691 30.505,2.488 31.010,2.424 31.301 C 2.360 31.592,2.238 31.872,2.154 31.925 C 2.069 31.977,2.000 32.203,2.000 32.427 C 2.000 32.650,1.915 32.833,1.811 32.833 C 1.687 32.833,1.654 33.066,1.715 33.520 C 1.766 33.898,1.694 34.742,1.555 35.395 C -0.158 43.472,5.572 53.577,15.764 60.457 C 33.281 72.280,58.083 71.986,73.309 59.773 C 77.813 56.161,81.000 51.356,81.000 48.178 C 81.000 47.619,81.292 47.941,81.362 48.578 C 81.458 49.447,88.661 50.961,89.799 50.352 C 89.998 50.245,91.381 49.310,92.872 48.275 C 97.307 45.194,99.057 44.055,99.532 43.940 C 100.042 43.817,100.350 42.630,100.047 41.951 L 99.886 41.590 99.693 41.950 C 99.503 42.306,98.714 42.889,95.000 45.419 C 88.443 49.884,89.614 49.530,84.872 48.486 C 81.572 47.759,80.935 47.574,81.057 47.375 C 81.099 47.306,81.080 46.735,81.014 46.106 C 80.803 44.076,80.597 44.085,87.167 45.834 C 88.999 46.322,89.713 46.319,90.387 45.819 C 93.280 43.675,99.286 39.667,99.605 39.667 C 100.221 39.667,100.229 37.955,99.615 37.449 C 98.510 36.536,98.231 36.339,98.042 36.336 C 97.927 36.335,97.833 36.275,97.833 36.203 C 97.833 36.131,97.590 35.930,97.292 35.757 C 96.994 35.584,96.712 35.396,96.667 35.340 C 96.621 35.285,96.171 34.943,95.667 34.580 C 95.162 34.218,94.605 33.789,94.427 33.628 C 94.249 33.466,94.038 33.333,93.957 33.333 C 93.876 33.333,93.705 33.240,93.577 33.125 C 93.032 32.636,92.838 32.500,92.688 32.500 C 92.600 32.500,92.503 32.442,92.472 32.372 C 92.442 32.302,92.004 31.947,91.500 31.584 C 90.996 31.221,90.492 30.836,90.379 30.728 C 90.267 30.621,89.892 30.358,89.546 30.145 C 88.915 29.755,88.496 29.440,88.065 29.030 C 87.937 28.909,87.833 28.852,87.833 28.903 C 87.833 28.990,87.388 28.659,86.940 28.239 C 86.835 28.141,86.337 27.787,85.833 27.452 C 85.329 27.116,84.751 26.690,84.548 26.504 C 84.345 26.319,84.135 26.167,84.082 26.167 C 83.990 26.167,83.755 25.989,83.256 25.542 C 83.128 25.427,82.950 25.333,82.859 25.333 C 82.769 25.333,82.669 25.277,82.639 25.208 C 82.545 24.996,81.334 24.141,81.328 24.283 C 81.325 24.357,81.247 24.285,81.153 24.125 C 81.060 23.965,80.911 23.833,80.824 23.833 C 80.736 23.833,80.428 23.608,80.140 23.333 C 79.853 23.058,79.565 22.833,79.501 22.833 C 79.437 22.833,79.229 22.702,79.040 22.542 C 78.196 21.828,78.029 21.702,77.529 21.407 C 77.238 21.236,77.000 21.036,77.000 20.964 C 77.000 20.892,76.906 20.833,76.792 20.833 C 76.677 20.833,76.321 20.608,76.000 20.333 C 75.679 20.059,75.372 19.834,75.317 19.834 C 75.262 19.834,75.045 19.683,74.833 19.500 C 74.622 19.317,74.348 19.167,74.224 19.167 C 74.101 19.167,74.000 19.059,74.000 18.928 C 74.000 18.797,73.869 18.647,73.708 18.595 C 73.548 18.544,73.154 18.276,72.833 18.001 C 72.512 17.726,72.156 17.501,72.042 17.500 C 71.927 17.500,71.833 17.441,71.833 17.369 C 71.833 17.297,71.595 17.098,71.304 16.926 C 71.013 16.754,70.657 16.516,70.512 16.396 C 69.946 15.928,67.980 14.500,67.902 14.500 C 67.856 14.500,67.617 14.312,67.369 14.083 C 67.122 13.854,66.826 13.667,66.711 13.667 C 66.597 13.667,66.409 13.517,66.295 13.333 C 66.180 13.150,65.988 13.000,65.869 13.000 C 65.749 13.000,65.477 12.812,65.265 12.583 C 65.052 12.354,64.831 12.167,64.774 12.167 C 64.717 12.167,64.342 11.923,63.941 11.625 C 63.540 11.327,63.010 10.938,62.763 10.761 C 62.516 10.584,62.112 10.265,61.865 10.053 C 61.618 9.841,61.366 9.667,61.304 9.667 C 61.241 9.667,61.091 9.568,60.970 9.447 C 60.849 9.327,60.337 8.952,59.833 8.615 C 59.329 8.277,58.826 7.926,58.715 7.834 C 58.605 7.742,58.431 7.667,58.331 7.667 C 58.230 7.667,58.193 7.592,58.250 7.500 C 58.307 7.408,58.194 7.333,58.000 7.333 C 57.806 7.333,57.690 7.264,57.743 7.179 C 57.795 7.094,57.700 6.980,57.532 6.927 C 57.363 6.873,57.081 6.699,56.904 6.540 C 56.267 5.965,55.333 5.319,55.328 5.450 C 55.325 5.523,55.247 5.452,55.153 5.292 C 55.060 5.131,54.911 5.000,54.824 5.000 C 54.736 5.000,54.426 4.773,54.136 4.496 C 53.846 4.219,53.435 3.948,53.222 3.895 C 53.010 3.841,52.877 3.731,52.928 3.649 C 52.978 3.567,52.959 3.500,52.885 3.500 C 52.811 3.499,52.487 3.275,52.167 3.000 C 51.846 2.725,51.532 2.501,51.470 2.500 C 51.408 2.500,51.258 2.406,51.136 2.292 C 50.563 1.750,49.255 0.833,49.056 0.833 C 48.934 0.833,48.833 0.758,48.833 0.667 C 48.833 0.575,48.650 0.500,48.427 0.500 C 48.203 0.500,47.973 0.425,47.917 0.333 C 47.860 0.242,47.748 0.167,47.667 0.167 C 47.586 0.167,47.473 0.242,47.417 0.333 M49.439 4.220 C 50.343 4.891,53.558 7.238,56.583 9.436 C 59.608 11.634,62.748 13.917,63.560 14.508 C 66.254 16.470,67.724 17.530,70.333 19.391 C 73.233 21.461,79.810 26.216,81.083 27.165 C 82.258 28.039,93.067 35.861,95.125 37.325 C 97.185 38.791,97.181 38.521,95.162 39.923 C 94.243 40.561,92.502 41.779,91.294 42.629 C 90.085 43.480,89.018 44.147,88.923 44.113 C 88.828 44.078,87.175 43.652,85.250 43.165 C 81.137 42.125,80.872 42.129,79.686 43.252 L 78.917 43.981 78.963 45.891 C 79.257 58.091,59.295 68.801,39.917 66.840 C 23.120 65.140,8.138 55.230,4.177 43.199 C -0.418 29.243,16.515 15.018,36.764 15.824 C 40.755 15.982,41.664 14.456,39.847 10.650 L 38.860 8.583 39.222 8.296 C 39.421 8.138,40.333 7.542,41.250 6.973 C 42.167 6.403,43.964 5.276,45.243 4.468 C 48.019 2.717,47.457 2.750,49.439 4.220 M143.292 11.457 C 144.048 11.488,145.285 11.488,146.042 11.457 C 146.798 11.426,146.179 11.401,144.667 11.401 C 143.154 11.401,142.535 11.426,143.292 11.457 M226.125 11.458 C 227.156 11.487,228.844 11.487,229.875 11.458 C 230.906 11.429,230.063 11.405,228.000 11.405 C 225.938 11.405,225.094 11.429,226.125 11.458 M293.347 11.600 C 293.126 11.760,293.005 11.793,293.079 11.674 C 293.153 11.554,293.146 11.488,293.065 11.525 C 292.293 11.883,291.882 12.112,291.696 12.290 C 291.575 12.405,291.408 12.500,291.325 12.500 C 290.626 12.500,288.000 16.138,288.000 17.107 C 288.000 17.323,287.932 17.500,287.850 17.500 C 287.767 17.500,287.689 18.512,287.677 19.750 C 287.662 21.208,287.715 22.000,287.827 22.000 C 287.922 22.000,288.000 22.171,288.000 22.380 C 288.000 22.793,288.864 24.563,289.307 25.058 C 292.598 28.730,296.792 29.594,300.667 27.397 C 301.615 26.859,303.667 24.922,303.667 24.564 C 303.667 24.452,303.723 24.336,303.792 24.306 C 305.036 23.753,305.469 18.280,304.428 16.250 C 304.194 15.792,304.001 15.350,304.001 15.269 C 304.000 15.188,303.794 14.930,303.542 14.697 C 303.290 14.463,303.106 14.244,303.135 14.210 C 303.163 14.175,302.882 13.843,302.510 13.471 C 302.138 13.099,301.833 12.837,301.833 12.889 C 301.833 12.941,301.640 12.805,301.405 12.587 C 300.335 11.595,299.806 11.461,296.667 11.382 C 294.084 11.318,293.704 11.343,293.347 11.600 M377.801 11.458 C 378.929 11.487,380.729 11.487,381.801 11.458 C 382.873 11.429,381.950 11.405,379.750 11.405 C 377.550 11.405,376.673 11.429,377.801 11.458 M239.769 13.094 C 239.713 13.241,239.667 17.667,239.667 22.930 L 239.667 32.500 239.292 32.497 C 239.085 32.496,238.654 32.270,238.333 31.996 C 237.001 30.856,236.568 30.541,236.125 30.392 C 235.965 30.339,235.833 30.228,235.833 30.147 C 235.833 30.066,235.683 30.000,235.500 30.000 C 235.317 30.000,235.167 29.925,235.167 29.833 C 235.167 29.742,235.084 29.667,234.984 29.667 C 234.883 29.667,234.564 29.565,234.275 29.440 C 233.023 28.900,232.747 28.819,231.816 28.722 C 231.275 28.665,230.833 28.553,230.833 28.471 C 230.833 28.390,229.339 28.331,227.500 28.340 C 225.572 28.350,224.167 28.422,224.167 28.512 C 224.167 28.597,223.853 28.667,223.469 28.667 C 222.764 28.667,220.988 29.066,220.467 29.342 C 220.311 29.425,219.946 29.534,219.655 29.585 C 219.364 29.637,218.832 29.821,218.472 29.994 C 218.113 30.168,217.597 30.359,217.326 30.418 C 217.055 30.478,216.833 30.596,216.833 30.680 C 216.833 30.764,216.721 30.833,216.583 30.833 C 216.446 30.833,216.333 30.908,216.333 31.000 C 216.333 31.092,216.222 31.167,216.086 31.167 C 215.692 31.167,214.070 32.191,213.250 32.958 C 213.029 33.165,212.789 33.333,212.716 33.333 C 212.514 33.333,210.000 35.861,210.000 36.064 C 210.000 36.108,209.740 36.419,209.422 36.755 C 209.105 37.092,208.800 37.510,208.745 37.684 C 208.689 37.858,208.574 38.000,208.489 38.000 C 208.403 38.000,208.333 38.152,208.333 38.339 C 208.333 38.525,208.221 38.720,208.084 38.773 C 207.947 38.825,207.871 38.927,207.916 38.999 C 207.960 39.070,207.885 39.222,207.748 39.335 C 207.612 39.448,207.500 39.639,207.500 39.759 C 207.500 39.878,207.403 40.075,207.285 40.196 C 207.032 40.456,206.500 41.554,206.500 41.817 C 206.500 41.918,206.443 42.000,206.374 42.000 C 206.237 42.000,205.862 42.977,205.719 43.708 C 205.669 43.960,205.568 44.167,205.493 44.167 C 205.418 44.167,205.306 44.579,205.243 45.083 C 205.180 45.587,205.070 46.000,204.999 46.000 C 204.928 46.000,204.823 46.281,204.765 46.625 C 204.708 46.969,204.606 47.587,204.539 48.000 C 204.321 49.337,204.396 57.463,204.628 57.695 C 204.741 57.808,204.833 58.143,204.833 58.440 C 204.833 58.737,204.900 59.021,204.981 59.071 C 205.061 59.121,205.179 59.576,205.243 60.081 C 205.306 60.587,205.427 61.000,205.512 61.000 C 205.597 61.000,205.667 61.148,205.667 61.330 C 205.667 61.653,205.973 62.562,206.435 63.609 C 206.562 63.897,206.667 64.216,206.667 64.317 C 206.667 64.418,206.742 64.500,206.833 64.500 C 206.925 64.500,207.000 64.650,207.000 64.833 C 207.000 65.017,207.067 65.167,207.149 65.167 C 207.230 65.167,207.340 65.337,207.392 65.545 C 207.444 65.753,207.640 66.087,207.827 66.288 C 208.014 66.489,208.167 66.719,208.167 66.801 C 208.167 66.882,208.298 67.105,208.458 67.295 C 208.902 67.822,209.502 68.570,209.633 68.759 C 209.697 68.852,209.966 69.094,210.231 69.297 C 210.495 69.501,210.658 69.667,210.592 69.667 C 210.526 69.667,210.673 69.835,210.918 70.042 C 211.164 70.248,211.557 70.623,211.793 70.875 C 212.029 71.127,212.290 71.333,212.373 71.333 C 212.456 71.333,212.637 71.447,212.775 71.585 C 212.914 71.723,213.107 71.787,213.206 71.726 C 213.315 71.658,213.336 71.694,213.259 71.819 C 213.179 71.948,213.260 72.056,213.483 72.114 C 213.676 72.164,213.833 72.263,213.833 72.333 C 213.833 72.404,213.965 72.506,214.125 72.561 C 214.285 72.616,214.717 72.847,215.083 73.073 C 215.450 73.300,215.881 73.489,216.042 73.493 C 216.202 73.497,216.333 73.557,216.333 73.626 C 216.333 73.772,217.042 74.098,217.708 74.259 C 217.960 74.320,218.167 74.436,218.167 74.518 C 218.167 74.600,218.350 74.667,218.573 74.667 C 218.797 74.667,219.023 74.735,219.074 74.819 C 219.126 74.903,219.487 75.024,219.876 75.089 C 220.265 75.154,220.623 75.269,220.671 75.345 C 220.720 75.421,221.022 75.510,221.344 75.543 C 221.666 75.576,222.015 75.656,222.120 75.721 C 222.593 76.014,225.067 76.156,228.833 76.109 C 233.029 76.056,233.248 76.026,235.083 75.259 C 235.358 75.144,235.846 74.949,236.167 74.826 C 236.487 74.703,236.787 74.560,236.833 74.509 C 236.879 74.458,237.198 74.274,237.542 74.099 C 237.885 73.924,238.167 73.718,238.167 73.640 C 238.167 73.563,238.268 73.500,238.391 73.500 C 238.514 73.500,238.833 73.312,239.099 73.082 C 239.365 72.853,239.715 72.623,239.875 72.571 C 240.035 72.520,240.167 72.370,240.167 72.239 C 240.167 72.107,240.272 72.000,240.401 72.000 C 240.530 72.000,240.987 71.659,241.416 71.242 L 242.197 70.483 242.515 70.851 C 242.690 71.052,242.833 71.319,242.833 71.442 C 242.833 71.566,242.890 71.668,242.958 71.670 C 243.027 71.672,243.346 72.235,243.666 72.920 C 243.987 73.606,244.305 74.167,244.374 74.167 C 244.444 74.167,244.501 74.260,244.501 74.375 C 244.505 75.025,253.915 75.381,254.760 74.763 C 255.138 74.487,255.369 14.871,254.998 13.491 L 254.824 12.846 247.348 12.837 C 240.642 12.828,239.861 12.855,239.769 13.094 M38.917 25.020 C 26.721 26.266,19.441 35.617,24.518 43.513 C 32.653 56.165,56.957 54.681,60.663 41.307 C 61.650 37.745,60.165 33.002,57.306 30.583 C 55.689 29.216,55.048 28.745,53.817 28.021 C 49.788 25.649,44.055 24.494,38.917 25.020 M200.083 28.291 C 199.533 28.324,199.012 28.423,198.925 28.509 C 198.838 28.596,198.500 28.670,198.175 28.674 C 197.850 28.678,197.283 28.789,196.917 28.921 C 196.550 29.054,196.119 29.163,195.958 29.164 C 195.798 29.166,195.667 29.242,195.667 29.333 C 195.667 29.425,195.547 29.500,195.400 29.500 C 195.070 29.500,193.993 29.996,193.696 30.285 C 193.575 30.403,193.400 30.500,193.306 30.500 C 193.065 30.500,191.167 31.852,191.167 32.024 C 191.167 32.103,191.089 32.167,190.993 32.167 C 190.898 32.167,190.535 32.467,190.186 32.833 C 189.318 33.746,188.500 33.467,188.500 32.258 C 188.500 32.116,188.434 32.000,188.352 32.000 C 188.271 32.000,188.154 31.661,188.092 31.247 C 188.029 30.833,187.908 30.537,187.823 30.590 C 187.737 30.643,187.667 30.541,187.667 30.364 C 187.667 29.657,187.305 29.585,183.600 29.554 C 179.276 29.518,175.477 29.661,175.597 29.855 C 175.646 29.935,175.569 30.000,175.427 30.000 C 175.192 30.000,175.167 32.208,175.167 52.241 L 175.167 74.481 175.537 74.741 C 176.086 75.125,189.741 75.122,190.250 74.738 C 190.576 74.492,190.586 74.230,190.684 63.368 C 190.780 52.778,190.873 50.751,191.311 49.750 C 192.271 47.554,193.976 45.405,195.014 45.081 C 195.235 45.012,195.454 44.909,195.500 44.853 C 195.621 44.704,196.674 44.309,197.207 44.212 C 197.458 44.167,197.629 44.074,197.587 44.006 C 197.491 43.851,201.558 43.469,201.902 43.601 C 202.042 43.655,202.372 43.604,202.634 43.488 C 203.478 43.114,203.536 42.561,203.425 35.896 C 203.306 28.737,203.287 28.538,202.728 28.325 C 202.320 28.170,202.110 28.167,200.083 28.291 M284.162 28.227 C 284.116 28.273,283.499 28.332,282.789 28.359 C 282.080 28.386,281.500 28.466,281.500 28.537 C 281.500 28.608,281.256 28.668,280.958 28.671 C 280.660 28.673,280.117 28.754,279.750 28.851 C 279.383 28.948,278.877 29.067,278.625 29.116 C 278.373 29.165,278.167 29.263,278.167 29.334 C 278.167 29.405,277.912 29.511,277.600 29.569 C 277.288 29.628,276.942 29.785,276.831 29.919 C 276.720 30.053,276.562 30.122,276.481 30.072 C 276.400 30.021,276.333 30.052,276.333 30.139 C 276.333 30.226,276.146 30.344,275.917 30.402 C 275.688 30.459,275.500 30.580,275.500 30.670 C 275.500 30.760,275.387 30.833,275.250 30.833 C 275.112 30.833,275.000 30.907,275.000 30.997 C 275.000 31.087,274.813 31.207,274.584 31.265 C 274.356 31.322,274.210 31.436,274.261 31.518 C 274.312 31.600,274.242 31.667,274.105 31.667 C 273.969 31.667,273.710 31.854,273.530 32.083 C 273.350 32.313,273.131 32.500,273.045 32.500 C 272.959 32.500,272.688 32.725,272.443 33.000 C 272.007 33.489,271.333 33.681,271.333 33.317 C 271.333 33.216,271.213 32.860,271.066 32.525 C 270.574 31.404,270.520 31.252,270.413 30.709 C 270.208 29.664,270.183 29.660,263.954 29.671 C 257.730 29.682,257.833 29.671,257.833 30.351 C 257.833 30.616,257.758 30.833,257.667 30.833 C 257.413 30.833,257.439 73.553,257.693 74.044 C 257.798 74.249,257.938 74.529,258.002 74.667 C 258.118 74.914,271.649 75.156,272.583 74.928 C 273.302 74.752,273.318 74.492,273.368 62.202 C 273.403 53.908,273.470 50.453,273.600 50.369 C 273.701 50.303,273.828 50.063,273.882 49.833 C 274.071 49.027,274.416 48.167,274.551 48.167 C 274.625 48.167,274.640 48.092,274.583 48.000 C 274.527 47.908,274.560 47.833,274.657 47.833 C 274.754 47.833,274.833 47.751,274.833 47.650 C 274.833 46.920,277.646 44.885,279.417 44.333 C 279.783 44.219,280.212 44.061,280.369 43.982 C 280.640 43.845,283.614 43.584,284.496 43.620 C 284.723 43.629,285.118 43.487,285.374 43.305 L 285.839 42.973 285.827 35.945 C 285.818 30.615,285.765 28.850,285.608 28.639 C 285.406 28.368,284.328 28.061,284.162 28.227 M374.750 28.286 C 374.200 28.322,373.679 28.423,373.592 28.509 C 373.505 28.596,373.209 28.667,372.936 28.667 C 372.347 28.667,370.374 29.114,369.961 29.341 C 369.801 29.428,369.533 29.500,369.363 29.500 C 369.194 29.500,368.999 29.556,368.931 29.625 C 368.862 29.694,368.756 29.758,368.694 29.768 C 368.057 29.874,367.500 30.069,367.500 30.188 C 367.500 30.268,367.380 30.333,367.234 30.333 C 366.903 30.333,365.826 30.830,365.530 31.119 C 365.409 31.237,365.184 31.339,365.030 31.346 C 364.876 31.352,364.525 31.501,364.250 31.677 C 363.975 31.853,363.637 32.050,363.500 32.115 C 363.203 32.256,362.943 32.454,362.393 32.958 C 362.169 33.165,361.916 33.333,361.832 33.333 C 361.136 33.333,357.516 37.712,356.457 39.833 C 356.252 40.246,356.037 40.621,355.979 40.667 C 355.922 40.712,355.822 40.994,355.758 41.292 C 355.693 41.590,355.571 41.833,355.487 41.833 C 355.402 41.833,355.333 41.979,355.333 42.157 C 355.333 42.335,355.267 42.521,355.186 42.572 C 355.104 42.622,354.987 42.936,354.924 43.269 C 354.862 43.602,354.750 43.996,354.676 44.146 C 354.407 44.686,354.152 45.661,354.051 46.530 C 353.995 47.017,353.874 47.466,353.782 47.526 C 353.492 47.716,353.539 57.167,353.831 57.167 C 353.898 57.167,354.001 57.598,354.060 58.125 C 354.206 59.421,354.249 59.638,354.384 59.773 C 354.448 59.837,354.500 60.059,354.500 60.268 C 354.500 60.476,354.568 60.689,354.652 60.741 C 354.736 60.793,354.855 61.134,354.917 61.500 C 354.978 61.866,355.097 62.207,355.181 62.259 C 355.265 62.311,355.333 62.499,355.333 62.677 C 355.333 62.854,355.402 63.000,355.487 63.000 C 355.571 63.000,355.690 63.225,355.750 63.500 C 355.810 63.775,355.914 64.000,355.980 64.000 C 356.046 64.000,356.193 64.257,356.306 64.571 C 356.783 65.889,360.115 69.790,361.727 70.917 C 361.989 71.100,362.302 71.344,362.423 71.458 C 362.544 71.573,362.723 71.667,362.821 71.667 C 362.920 71.667,363.000 71.730,363.000 71.807 C 363.000 71.925,363.832 72.395,363.958 72.349 C 363.981 72.340,364.150 72.483,364.333 72.667 C 364.517 72.850,364.779 73.000,364.917 73.000 C 365.054 73.000,365.167 73.069,365.167 73.153 C 365.167 73.238,365.392 73.356,365.667 73.417 C 365.942 73.477,366.167 73.596,366.167 73.680 C 366.167 73.764,366.271 73.833,366.398 73.833 C 366.525 73.833,366.843 73.945,367.106 74.082 C 367.369 74.219,367.715 74.332,367.875 74.332 C 368.035 74.333,368.167 74.408,368.167 74.500 C 368.167 74.592,368.350 74.667,368.573 74.667 C 368.797 74.667,369.025 74.739,369.080 74.829 C 369.135 74.918,369.552 75.040,370.007 75.100 C 370.461 75.160,370.833 75.275,370.833 75.355 C 370.833 75.435,371.016 75.500,371.240 75.500 C 371.463 75.500,372.157 75.628,372.781 75.785 C 374.429 76.199,385.248 76.193,387.250 75.777 C 387.983 75.625,388.790 75.500,389.042 75.500 C 389.294 75.500,389.500 75.439,389.500 75.365 C 389.500 75.291,389.969 75.139,390.542 75.027 C 392.320 74.681,392.500 74.633,392.500 74.502 C 392.500 74.433,392.800 74.328,393.167 74.269 C 393.533 74.211,393.833 74.089,393.833 73.998 C 393.833 73.907,394.021 73.833,394.250 73.833 C 394.479 73.833,394.667 73.758,394.667 73.667 C 394.667 73.575,394.760 73.499,394.875 73.498 C 395.346 73.494,396.580 72.716,396.854 72.250 C 397.333 71.434,397.297 61.985,396.813 61.304 C 396.497 60.861,395.500 60.603,395.500 60.964 C 395.500 61.035,395.301 61.110,395.059 61.131 C 394.816 61.151,394.522 61.246,394.406 61.342 C 394.290 61.438,393.983 61.554,393.723 61.599 C 393.149 61.700,392.183 61.991,391.811 62.177 C 391.661 62.251,391.078 62.365,390.515 62.428 C 389.953 62.492,389.452 62.609,389.403 62.689 C 389.354 62.768,388.993 62.833,388.601 62.833 C 388.209 62.833,387.842 62.881,387.784 62.938 C 387.658 63.065,387.167 63.098,383.125 63.257 C 380.904 63.345,379.553 63.320,378.458 63.170 C 377.610 63.054,376.692 62.933,376.417 62.901 C 375.397 62.781,372.515 61.637,372.361 61.292 C 372.331 61.223,372.234 61.167,372.146 61.167 C 371.711 61.167,369.818 59.233,369.416 58.377 C 369.233 57.988,369.027 57.670,368.958 57.669 C 368.890 57.668,368.833 57.517,368.833 57.333 C 368.833 57.003,368.944 57.000,383.252 57.000 C 394.478 57.000,397.753 56.954,398.042 56.792 C 398.584 56.487,399.000 55.992,399.000 55.651 C 399.000 55.487,399.075 55.307,399.167 55.250 C 399.258 55.193,399.333 54.941,399.333 54.690 C 399.333 54.439,399.406 54.161,399.494 54.073 C 400.138 53.429,400.139 44.194,399.495 42.991 C 399.405 42.822,399.316 42.498,399.297 42.271 C 399.278 42.043,399.204 41.894,399.131 41.939 C 399.059 41.983,398.994 41.884,398.987 41.718 C 398.956 40.983,398.875 40.750,398.134 39.250 C 397.539 38.046,397.113 37.298,396.875 37.037 C 396.760 36.912,396.667 36.741,396.667 36.657 C 396.667 36.402,392.908 32.713,392.524 32.591 C 392.328 32.529,392.167 32.416,392.167 32.342 C 392.167 32.226,391.710 32.038,391.400 32.026 C 391.350 32.024,391.178 31.872,391.019 31.689 C 390.860 31.506,390.528 31.305,390.282 31.243 C 390.035 31.181,389.833 31.064,389.833 30.982 C 389.833 30.900,389.683 30.833,389.500 30.833 C 389.317 30.833,389.167 30.764,389.167 30.680 C 389.167 30.596,388.923 30.474,388.625 30.411 C 388.327 30.347,388.008 30.237,387.917 30.166 C 387.825 30.095,387.300 29.900,386.750 29.732 C 386.200 29.563,385.712 29.382,385.667 29.329 C 385.535 29.175,383.255 28.667,382.698 28.667 C 382.421 28.667,382.167 28.586,382.134 28.487 C 382.072 28.301,376.725 28.155,374.750 28.286 M141.750 28.500 C 141.693 28.592,141.337 28.667,140.959 28.667 C 140.221 28.667,138.266 29.082,137.799 29.338 C 137.643 29.424,137.211 29.542,136.841 29.602 C 136.470 29.661,136.167 29.775,136.167 29.855 C 136.167 29.935,135.979 30.000,135.750 30.000 C 135.521 30.000,135.333 30.075,135.333 30.167 C 135.333 30.258,135.251 30.333,135.150 30.333 C 134.950 30.333,133.801 30.843,133.667 30.991 C 133.621 31.042,133.222 31.271,132.781 31.500 C 132.339 31.729,131.836 32.048,131.663 32.208 C 131.489 32.369,131.283 32.500,131.203 32.500 C 130.659 32.500,125.833 37.890,125.833 38.498 C 125.833 38.591,125.771 38.667,125.695 38.667 C 125.619 38.667,125.306 39.173,125.000 39.792 C 124.694 40.410,124.315 41.104,124.159 41.333 C 124.003 41.563,123.822 41.994,123.757 42.292 C 123.693 42.590,123.571 42.833,123.487 42.833 C 123.402 42.833,123.333 42.979,123.333 43.157 C 123.333 43.335,123.267 43.521,123.186 43.572 C 123.104 43.622,122.987 43.936,122.924 44.269 C 122.862 44.602,122.750 44.996,122.676 45.146 C 122.464 45.571,122.168 46.575,122.150 46.928 C 122.137 47.184,122.105 47.165,121.993 46.833 C 121.666 45.867,121.914 57.012,122.249 58.333 C 122.423 59.021,122.615 59.621,122.676 59.667 C 122.737 59.712,122.839 60.105,122.903 60.538 C 122.967 60.971,123.090 61.369,123.176 61.423 C 123.263 61.476,123.333 61.665,123.333 61.843 C 123.333 62.021,123.402 62.167,123.485 62.167 C 123.569 62.167,123.688 62.467,123.750 62.833 C 123.812 63.200,123.931 63.500,124.015 63.500 C 124.098 63.500,124.167 63.612,124.167 63.750 C 124.167 63.887,124.233 64.000,124.315 64.000 C 124.396 64.000,124.512 64.262,124.572 64.583 C 124.633 64.904,124.745 65.167,124.823 65.167 C 124.900 65.167,125.007 65.337,125.059 65.545 C 125.111 65.753,125.307 66.087,125.494 66.288 C 125.680 66.489,125.833 66.719,125.833 66.801 C 125.833 66.882,125.965 67.105,126.125 67.296 C 126.285 67.486,126.642 67.929,126.917 68.280 C 128.419 70.194,132.589 73.633,132.959 73.263 C 133.001 73.221,133.192 73.332,133.383 73.510 C 133.573 73.688,133.828 73.833,133.948 73.833 C 134.068 73.833,134.167 73.900,134.167 73.981 C 134.167 74.063,134.429 74.179,134.750 74.239 C 135.071 74.299,135.333 74.420,135.333 74.508 C 135.333 74.595,135.479 74.667,135.657 74.667 C 135.835 74.667,136.023 74.735,136.074 74.819 C 136.126 74.903,136.487 75.024,136.876 75.088 C 137.265 75.152,137.672 75.275,137.779 75.362 C 137.887 75.449,138.075 75.504,138.196 75.483 C 138.317 75.463,138.636 75.537,138.904 75.647 C 140.753 76.407,150.216 76.179,152.250 75.326 C 152.433 75.249,152.827 75.138,153.125 75.080 C 153.423 75.021,153.667 74.904,153.667 74.820 C 153.667 74.736,153.772 74.667,153.901 74.667 C 154.230 74.667,155.833 73.817,155.833 73.643 C 155.833 73.564,155.958 73.500,156.111 73.500 C 156.264 73.500,156.507 73.391,156.653 73.258 C 157.507 72.473,157.667 72.342,157.667 72.420 C 157.667 72.467,157.929 72.236,158.250 71.905 C 158.571 71.575,158.833 71.224,158.833 71.125 C 158.833 71.026,158.882 70.993,158.941 71.053 C 159.001 71.112,159.194 70.994,159.370 70.791 L 159.690 70.422 160.004 70.836 C 160.176 71.064,160.452 71.530,160.617 71.873 C 160.782 72.216,160.967 72.497,161.028 72.498 C 161.090 72.499,161.190 72.725,161.250 73.000 C 161.310 73.275,161.429 73.500,161.513 73.500 C 161.598 73.500,161.667 73.633,161.667 73.796 C 161.667 74.101,162.051 74.504,162.644 74.821 C 164.051 75.574,172.917 74.894,172.597 74.058 C 172.545 73.923,172.577 73.861,172.669 73.918 C 172.777 73.985,172.833 66.584,172.833 52.343 C 172.833 37.198,172.780 30.667,172.657 30.667 C 172.560 30.667,172.513 30.610,172.554 30.542 C 173.037 29.722,171.276 29.535,163.785 29.610 C 162.765 29.620,162.275 29.888,161.891 30.645 C 161.722 30.978,161.537 31.287,161.481 31.333 C 161.424 31.379,161.320 31.604,161.249 31.833 C 161.178 32.063,160.943 32.511,160.726 32.830 C 160.510 33.150,160.333 33.498,160.333 33.604 C 160.333 33.711,160.209 33.845,160.057 33.904 C 159.780 34.010,159.686 33.941,158.265 32.583 C 157.319 31.679,156.637 31.167,156.380 31.167 C 156.263 31.167,156.167 31.092,156.167 31.000 C 156.167 30.908,156.054 30.833,155.917 30.833 C 155.779 30.833,155.667 30.758,155.667 30.667 C 155.667 30.575,155.573 30.498,155.458 30.496 C 155.344 30.494,154.800 30.271,154.250 30.000 C 153.700 29.729,153.123 29.506,152.968 29.504 C 152.813 29.502,152.640 29.425,152.583 29.333 C 152.527 29.242,152.316 29.166,152.115 29.164 C 151.914 29.163,151.450 29.054,151.083 28.921 C 150.717 28.789,150.060 28.678,149.625 28.674 C 149.190 28.670,148.833 28.592,148.833 28.500 C 148.833 28.394,147.559 28.333,145.343 28.333 C 143.196 28.333,141.813 28.397,141.750 28.500 M319.468 29.588 C 319.420 29.636,316.494 29.675,312.966 29.675 L 306.552 29.674 306.344 30.064 C 306.200 30.332,306.186 30.552,306.298 30.769 C 306.387 30.942,306.812 31.833,307.243 32.750 C 307.674 33.667,308.107 34.567,308.206 34.750 C 308.497 35.291,308.604 35.509,309.352 37.083 C 309.744 37.908,310.132 38.629,310.213 38.685 C 310.295 38.741,310.345 38.816,310.324 38.852 C 310.304 38.888,310.447 39.269,310.644 39.699 C 310.840 40.130,311.000 40.561,311.000 40.658 C 311.000 40.754,311.072 40.833,311.160 40.833 C 311.248 40.833,311.453 41.208,311.616 41.667 C 311.778 42.125,311.969 42.500,312.039 42.500 C 312.109 42.500,312.167 42.574,312.167 42.666 C 312.167 42.935,312.735 44.167,312.859 44.167 C 312.922 44.167,313.023 44.392,313.083 44.667 C 313.144 44.942,313.262 45.167,313.347 45.167 C 313.431 45.167,313.500 45.317,313.500 45.500 C 313.500 45.683,313.575 45.833,313.667 45.833 C 313.758 45.833,313.833 45.938,313.833 46.066 C 313.833 46.194,314.058 46.753,314.333 47.307 C 314.608 47.861,314.833 48.394,314.833 48.491 C 314.833 48.587,314.908 48.667,315.000 48.667 C 315.092 48.667,315.167 48.786,315.167 48.933 C 315.167 49.227,315.678 50.218,315.875 50.306 C 315.944 50.336,316.000 50.449,316.001 50.556 C 316.002 50.663,316.338 51.425,316.748 52.250 C 317.158 53.075,317.495 53.844,317.497 53.958 C 317.499 54.073,317.557 54.167,317.627 54.167 C 317.761 54.167,318.333 55.383,318.333 55.668 C 318.333 55.759,318.391 55.833,318.461 55.833 C 318.602 55.833,319.244 57.178,319.197 57.375 C 319.180 57.444,319.242 57.500,319.333 57.500 C 319.425 57.500,319.500 57.574,319.500 57.666 C 319.500 57.935,320.069 59.167,320.193 59.167 C 320.255 59.167,320.356 59.392,320.417 59.667 C 320.477 59.942,320.596 60.167,320.680 60.167 C 320.764 60.167,320.833 60.264,320.833 60.383 C 320.833 60.502,321.133 61.211,321.500 61.959 C 321.867 62.708,322.167 63.398,322.167 63.493 C 322.167 63.589,322.242 63.667,322.333 63.667 C 322.425 63.667,322.500 63.786,322.500 63.933 C 322.500 64.227,323.011 65.218,323.208 65.306 C 323.277 65.336,323.333 65.469,323.333 65.600 C 323.333 65.732,323.558 66.261,323.833 66.777 C 324.108 67.292,324.333 67.816,324.333 67.940 C 324.333 68.065,324.400 68.167,324.482 68.167 C 324.564 68.167,324.682 68.372,324.745 68.623 C 324.808 68.874,324.910 69.118,324.972 69.165 C 325.183 69.326,325.667 70.302,325.667 70.567 C 325.667 70.714,325.742 70.833,325.833 70.833 C 325.925 70.833,326.000 70.910,326.000 71.003 C 326.000 71.620,327.821 74.790,328.046 74.565 C 328.086 74.525,328.214 74.606,328.330 74.746 C 328.610 75.084,334.950 75.124,335.542 74.792 C 336.031 74.517,336.500 74.001,336.500 73.738 C 336.500 73.623,336.556 73.503,336.625 73.472 C 336.822 73.385,337.333 72.393,337.333 72.099 C 337.333 71.953,337.408 71.833,337.500 71.833 C 337.592 71.833,337.667 71.758,337.667 71.665 C 337.667 71.573,338.079 70.646,338.583 69.605 C 339.087 68.564,339.500 67.578,339.500 67.412 C 339.500 67.247,339.551 67.162,339.614 67.225 C 339.733 67.344,340.318 66.237,340.328 65.875 C 340.331 65.760,340.405 65.667,340.492 65.667 C 340.580 65.667,340.701 65.404,340.761 65.083 C 340.821 64.762,340.937 64.500,341.019 64.500 C 341.100 64.500,341.167 64.387,341.167 64.250 C 341.167 64.112,341.226 64.000,341.299 64.000 C 341.372 64.000,341.570 63.590,341.741 63.089 C 341.911 62.588,342.114 62.217,342.192 62.266 C 342.270 62.314,342.333 62.278,342.333 62.187 C 342.333 62.096,342.399 61.848,342.480 61.636 C 342.561 61.424,342.644 61.175,342.665 61.083 C 342.686 60.992,342.832 60.729,342.989 60.500 C 343.335 59.995,343.833 58.930,343.833 58.697 C 343.833 58.604,343.912 58.502,344.007 58.470 C 344.103 58.438,344.194 58.249,344.209 58.051 C 344.224 57.852,344.295 57.726,344.368 57.771 C 344.441 57.816,344.500 57.754,344.500 57.632 C 344.500 57.511,344.650 57.132,344.834 56.789 C 345.017 56.447,345.111 56.166,345.042 56.164 C 344.973 56.163,345.001 56.106,345.104 56.039 C 345.306 55.907,346.000 54.464,346.000 54.176 C 346.000 54.079,346.057 54.000,346.127 54.000 C 346.261 54.000,346.833 52.783,346.833 52.499 C 346.833 52.408,346.891 52.333,346.961 52.333 C 347.095 52.333,347.667 51.117,347.667 50.832 C 347.667 50.741,347.742 50.667,347.833 50.667 C 347.925 50.667,348.000 50.592,348.000 50.501 C 348.000 50.217,348.572 49.000,348.706 49.000 C 348.776 49.000,348.833 48.915,348.833 48.811 C 348.833 48.707,349.300 47.676,349.870 46.519 C 350.441 45.363,350.912 44.379,350.918 44.333 C 350.924 44.288,351.170 43.752,351.464 43.143 C 351.759 42.534,352.000 41.959,352.000 41.865 C 352.000 41.771,352.056 41.669,352.125 41.639 C 352.322 41.551,352.833 40.560,352.833 40.266 C 352.833 40.120,352.908 40.000,353.000 40.000 C 353.092 40.000,353.155 39.944,353.140 39.875 C 353.109 39.728,353.350 39.120,353.488 39.000 C 353.680 38.832,354.000 38.165,354.000 37.931 C 354.000 37.799,354.107 37.584,354.237 37.454 C 354.367 37.323,354.499 37.074,354.529 36.900 C 354.559 36.726,354.677 36.484,354.792 36.363 C 354.906 36.242,355.000 36.036,355.000 35.905 C 355.000 35.774,355.069 35.667,355.153 35.667 C 355.238 35.667,355.356 35.443,355.416 35.169 C 355.476 34.895,355.595 34.628,355.679 34.575 C 355.764 34.523,355.833 34.341,355.833 34.171 C 355.833 34.000,355.894 33.836,355.969 33.806 C 356.316 33.663,357.523 30.859,357.471 30.315 L 357.417 29.750 355.333 29.729 C 350.099 29.676,343.401 29.645,343.250 29.673 C 343.158 29.690,342.933 29.693,342.750 29.680 C 342.263 29.645,341.211 30.585,341.083 31.168 C 341.023 31.442,340.919 31.667,340.853 31.667 C 340.787 31.667,340.595 32.049,340.427 32.517 C 340.259 32.984,339.944 33.715,339.728 34.142 C 339.512 34.568,339.334 35.042,339.334 35.194 C 339.334 35.347,339.261 35.497,339.171 35.528 C 339.082 35.558,338.979 35.733,338.942 35.917 C 338.830 36.468,338.436 37.333,338.297 37.333 C 338.225 37.333,338.167 37.515,338.167 37.738 C 338.167 37.961,338.062 38.248,337.934 38.376 C 337.806 38.504,337.563 38.997,337.395 39.471 C 337.226 39.945,337.031 40.333,336.961 40.333 C 336.891 40.333,336.833 40.479,336.833 40.657 C 336.833 40.835,336.757 41.027,336.664 41.085 C 336.571 41.143,336.538 41.260,336.590 41.345 C 336.643 41.430,336.607 41.500,336.510 41.500 C 336.413 41.500,336.333 41.646,336.333 41.823 C 336.333 42.001,336.264 42.190,336.179 42.242 C 336.095 42.294,335.976 42.561,335.916 42.835 C 335.856 43.109,335.738 43.333,335.653 43.333 C 335.569 43.333,335.500 43.521,335.500 43.750 C 335.500 43.979,335.425 44.167,335.333 44.167 C 335.242 44.167,335.167 44.246,335.167 44.344 C 335.167 44.442,334.989 44.910,334.772 45.386 C 334.555 45.861,334.218 46.602,334.022 47.033 C 333.827 47.463,333.667 47.932,333.667 48.074 C 333.667 48.217,333.592 48.333,333.500 48.333 C 333.408 48.333,333.333 48.443,333.333 48.578 C 333.333 48.817,333.064 49.503,332.512 50.667 C 332.063 51.614,331.463 51.565,331.094 50.550 C 330.492 48.896,330.246 48.335,330.125 48.334 C 330.056 48.334,330.000 48.160,330.000 47.949 C 330.000 47.737,329.890 47.418,329.755 47.240 C 329.621 47.062,329.508 46.785,329.505 46.625 C 329.502 46.465,329.433 46.333,329.351 46.333 C 329.270 46.333,329.155 46.144,329.097 45.912 C 329.039 45.681,328.802 45.062,328.570 44.537 C 328.338 44.013,328.069 43.396,327.973 43.167 C 327.877 42.938,327.704 42.525,327.589 42.250 C 327.137 41.168,327.012 40.884,326.605 40.000 C 326.372 39.496,326.133 38.877,326.073 38.625 C 326.013 38.373,325.897 38.167,325.815 38.167 C 325.734 38.167,325.667 38.021,325.667 37.843 C 325.667 37.665,325.597 37.477,325.513 37.425 C 325.428 37.372,325.310 37.105,325.250 36.831 C 325.189 36.557,325.079 36.333,325.005 36.333 C 324.931 36.333,324.819 36.060,324.757 35.726 C 324.694 35.392,324.535 35.011,324.403 34.879 C 324.271 34.748,324.206 34.571,324.258 34.487 C 324.310 34.402,324.280 34.333,324.191 34.333 C 324.102 34.333,323.979 34.033,323.917 33.667 C 323.855 33.300,323.751 33.000,323.687 33.000 C 323.622 33.000,323.429 32.587,323.257 32.083 C 323.086 31.579,322.883 31.167,322.806 31.167 C 322.729 31.167,322.667 31.058,322.667 30.924 C 322.667 30.126,320.031 29.024,319.468 29.588 M288.318 29.936 C 287.880 30.463,287.977 74.405,288.417 74.738 C 288.917 75.116,303.249 75.116,303.750 74.738 C 304.105 74.470,304.297 30.241,303.945 29.889 C 303.638 29.582,288.574 29.627,288.318 29.936 M45.063 37.096 C 50.239 37.902,54.655 40.043,57.049 42.908 C 57.849 43.865,57.860 43.819,56.513 45.165 C 49.918 51.760,36.722 52.077,28.956 45.828 C 26.226 43.630,26.055 43.178,27.458 41.868 C 29.960 39.533,33.489 37.861,37.167 37.268 C 38.037 37.127,38.938 36.982,39.167 36.946 C 40.233 36.775,43.542 36.859,45.063 37.096 M380.325 40.128 C 380.376 40.195,380.567 40.276,380.750 40.308 C 380.933 40.339,381.158 40.424,381.250 40.497 C 381.342 40.569,381.660 40.680,381.958 40.744 C 382.256 40.808,382.500 40.910,382.501 40.972 C 382.501 41.033,382.824 41.216,383.219 41.378 C 384.763 42.013,386.190 43.944,386.480 45.792 L 386.617 46.667 377.671 46.667 L 368.724 46.667 368.802 46.125 C 368.845 45.827,368.930 45.546,368.993 45.500 C 369.055 45.454,369.280 45.054,369.491 44.611 C 370.178 43.175,372.673 40.930,373.810 40.726 C 374.052 40.682,374.321 40.576,374.408 40.490 C 374.495 40.404,374.762 40.333,375.000 40.333 C 375.238 40.333,375.505 40.264,375.592 40.179 C 375.911 39.869,380.098 39.824,380.325 40.128 M0.106 42.917 C 0.164 43.558,0.275 44.164,0.352 44.262 C 0.429 44.361,0.608 44.998,0.750 45.679 C 2.973 56.374,14.377 66.516,29.030 70.831 C 43.229 75.013,58.173 73.311,69.750 66.194 C 71.097 65.365,71.762 64.896,73.571 63.495 C 77.040 60.808,79.550 57.478,80.611 54.153 C 81.094 52.641,81.333 52.303,81.333 53.134 L 81.333 53.601 84.828 54.487 C 88.873 55.512,88.960 55.510,90.614 54.378 C 91.239 53.950,92.537 53.056,93.500 52.392 C 97.008 49.972,98.927 48.732,99.410 48.575 C 99.942 48.401,100.122 48.007,100.150 46.958 C 100.169 46.237,99.937 46.157,99.486 46.729 C 99.315 46.947,97.767 48.086,96.046 49.260 C 94.325 50.435,92.200 51.900,91.323 52.516 C 89.179 54.024,88.798 54.114,86.813 53.583 C 85.953 53.353,84.462 52.975,83.500 52.743 C 80.920 52.121,81.128 52.241,81.236 51.443 C 81.340 50.670,81.247 50.889,80.751 52.583 C 79.193 57.915,72.919 63.797,65.011 67.341 C 46.360 75.699,22.644 71.600,8.410 57.559 C 4.297 53.501,1.226 48.016,0.500 43.430 C 0.242 41.799,-0.027 41.448,0.106 42.917 M148.403 42.645 C 148.452 42.724,148.944 42.841,149.496 42.903 C 150.048 42.965,150.500 43.088,150.500 43.175 C 150.500 43.262,150.688 43.333,150.917 43.333 C 151.146 43.333,151.333 43.402,151.333 43.487 C 151.333 43.571,151.552 43.688,151.820 43.747 C 152.087 43.806,152.472 43.998,152.674 44.173 C 152.877 44.349,153.120 44.446,153.214 44.387 C 153.308 44.329,153.340 44.355,153.285 44.444 C 153.230 44.533,153.347 44.713,153.546 44.845 C 154.251 45.310,155.667 46.861,155.667 47.168 C 155.667 47.259,155.737 47.333,155.822 47.333 C 155.908 47.333,156.030 47.502,156.095 47.708 C 156.159 47.915,156.259 48.121,156.317 48.167 C 156.424 48.251,156.781 49.399,156.939 50.167 C 156.986 50.396,157.101 50.740,157.193 50.932 C 157.579 51.731,156.943 55.723,156.333 56.333 C 156.287 56.379,156.109 56.694,155.937 57.032 C 155.616 57.663,153.719 59.578,153.028 59.967 C 152.816 60.087,152.329 60.337,151.946 60.522 C 151.563 60.708,151.120 60.929,150.961 61.013 C 150.801 61.098,150.526 61.167,150.349 61.167 C 150.173 61.167,150.003 61.241,149.972 61.331 C 149.813 61.804,143.333 61.787,143.333 61.314 C 143.333 61.233,143.225 61.167,143.092 61.167 C 141.331 61.167,137.944 57.337,137.548 54.899 C 137.498 54.588,137.407 54.333,137.347 54.333 C 137.219 54.333,137.210 54.236,137.164 52.149 C 137.145 51.269,137.204 50.407,137.295 50.233 C 137.386 50.059,137.514 49.598,137.579 49.208 C 137.643 48.819,137.756 48.500,137.830 48.500 C 137.904 48.500,138.008 48.322,138.063 48.106 C 138.160 47.718,139.183 46.129,139.614 45.696 C 139.735 45.575,139.833 45.407,139.833 45.321 C 139.833 45.236,139.929 45.167,140.046 45.167 C 140.163 45.167,140.488 44.958,140.768 44.702 C 141.048 44.446,141.721 44.015,142.263 43.744 C 142.806 43.472,143.274 43.197,143.303 43.132 C 143.333 43.067,143.803 42.963,144.349 42.902 C 144.894 42.840,145.381 42.724,145.430 42.645 C 145.479 42.565,146.148 42.500,146.917 42.500 C 147.685 42.500,148.354 42.565,148.403 42.645 M231.069 42.643 C 231.117 42.722,231.557 42.833,232.046 42.891 C 232.534 42.948,233.305 43.183,233.759 43.414 C 234.212 43.644,234.671 43.832,234.778 43.833 C 234.885 43.833,234.997 43.890,235.028 43.960 C 235.058 44.029,235.418 44.348,235.827 44.668 C 237.421 45.916,239.000 47.984,239.000 48.824 C 239.000 48.921,239.075 49.000,239.167 49.000 C 239.258 49.000,239.333 49.181,239.333 49.403 C 239.333 49.624,239.425 49.836,239.536 49.873 C 239.826 49.970,239.831 54.235,239.542 54.525 C 239.427 54.640,239.333 54.901,239.333 55.107 C 239.333 55.312,239.264 55.523,239.179 55.575 C 239.095 55.628,238.976 55.895,238.916 56.169 C 238.856 56.443,238.756 56.667,238.694 56.667 C 238.632 56.667,238.484 56.886,238.366 57.154 C 237.851 58.317,235.589 60.257,234.000 60.898 C 233.588 61.065,233.125 61.265,232.972 61.343 C 232.819 61.422,231.887 61.568,230.900 61.668 C 229.914 61.769,229.034 61.896,228.944 61.951 C 228.855 62.006,228.829 61.976,228.886 61.883 C 228.951 61.777,228.519 61.678,227.735 61.619 C 227.045 61.567,226.391 61.451,226.282 61.362 C 226.173 61.272,225.896 61.173,225.667 61.141 C 225.438 61.109,225.151 60.990,225.030 60.875 C 224.909 60.760,224.660 60.667,224.478 60.667 C 224.296 60.667,224.193 60.592,224.250 60.500 C 224.307 60.408,224.269 60.333,224.165 60.333 C 223.741 60.333,221.679 58.501,221.670 58.115 C 221.668 58.041,221.592 58.027,221.500 58.083 C 221.408 58.140,221.333 58.087,221.333 57.965 C 221.333 57.844,221.159 57.483,220.947 57.164 C 220.197 56.038,219.612 53.837,219.619 52.167 C 219.622 51.371,219.998 49.122,220.162 48.917 C 220.235 48.825,220.347 48.506,220.411 48.208 C 220.474 47.910,220.596 47.667,220.680 47.667 C 220.764 47.667,220.833 47.554,220.833 47.417 C 220.833 47.279,220.908 47.167,221.000 47.167 C 221.092 47.167,221.167 47.056,221.167 46.920 C 221.167 46.609,223.375 44.396,223.829 44.251 C 224.015 44.192,224.167 44.080,224.167 44.002 C 224.167 43.924,224.391 43.811,224.665 43.750 C 224.939 43.690,225.206 43.572,225.258 43.487 C 225.310 43.403,225.499 43.333,225.677 43.333 C 225.854 43.333,226.000 43.263,226.000 43.177 C 226.000 43.091,226.527 42.968,227.170 42.905 C 227.814 42.841,228.381 42.724,228.430 42.645 C 228.546 42.457,230.953 42.455,231.069 42.643 M0.104 47.500 C 0.164 48.188,0.262 48.788,0.321 48.833 C 0.380 48.879,0.659 49.854,0.940 51.000 C 4.749 66.515,26.268 78.781,47.479 77.528 C 63.115 76.604,77.587 68.345,80.673 58.583 C 81.107 57.211,81.333 56.883,81.333 57.627 C 81.333 58.095,81.403 58.172,81.958 58.319 C 88.768 60.116,88.883 60.127,90.364 59.113 C 93.867 56.714,94.830 56.055,96.292 55.058 C 97.185 54.449,98.095 53.811,98.313 53.642 C 98.532 53.473,98.995 53.258,99.344 53.164 C 99.959 52.998,99.980 52.967,100.093 52.067 C 100.230 50.969,100.007 50.579,99.599 51.203 C 99.452 51.426,97.814 52.640,95.958 53.900 C 94.102 55.160,91.889 56.667,91.041 57.248 C 89.073 58.596,88.700 58.663,86.467 58.072 C 85.523 57.822,83.962 57.415,83.000 57.168 L 81.250 56.718 81.295 56.026 C 81.358 55.047,81.224 55.167,80.998 56.292 C 79.425 64.108,68.591 72.020,55.167 75.155 C 32.272 80.502,3.821 66.495,0.560 48.270 C 0.206 46.291,-0.038 45.879,0.104 47.500 M0.104 52.000 C 0.164 52.688,0.265 53.288,0.327 53.333 C 0.390 53.379,0.644 54.279,0.892 55.333 C 5.196 73.653,32.947 86.437,56.250 80.836 C 68.720 77.839,79.448 69.801,80.941 62.337 C 81.095 61.568,81.333 61.557,81.333 62.319 C 81.333 63.055,81.861 63.500,82.732 63.500 C 82.960 63.500,83.193 63.575,83.250 63.667 C 83.307 63.758,83.569 63.833,83.833 63.833 C 84.098 63.833,84.355 63.900,84.405 63.982 C 84.456 64.063,84.741 64.173,85.040 64.226 C 86.791 64.534,87.821 64.766,87.931 64.875 C 88.103 65.047,88.613 65.032,88.961 64.843 C 89.120 64.757,89.439 64.648,89.670 64.600 C 89.901 64.552,90.238 64.379,90.420 64.215 C 90.601 64.051,90.956 63.810,91.208 63.680 C 91.460 63.550,91.667 63.381,91.667 63.305 C 91.667 63.229,91.747 63.167,91.844 63.167 C 92.038 63.167,93.216 62.327,93.306 62.125 C 93.336 62.056,93.442 62.000,93.540 62.000 C 93.638 62.000,93.964 61.812,94.265 61.583 C 94.565 61.354,94.891 61.167,94.989 61.167 C 95.087 61.167,95.167 61.050,95.167 60.907 C 95.167 60.764,95.234 60.688,95.316 60.739 C 95.398 60.790,95.512 60.709,95.570 60.559 C 95.627 60.408,95.716 60.327,95.767 60.379 C 95.851 60.463,96.779 59.927,97.285 59.502 C 97.395 59.409,97.564 59.333,97.660 59.333 C 97.755 59.333,97.833 59.275,97.833 59.203 C 97.833 59.131,98.077 58.933,98.375 58.764 C 99.327 58.224,100.001 57.374,100.110 56.578 C 100.269 55.415,100.084 55.165,99.536 55.806 C 99.287 56.098,97.678 57.292,95.961 58.460 C 94.243 59.628,92.093 61.096,91.183 61.722 C 88.949 63.259,88.975 63.257,84.650 62.151 L 81.151 61.255 81.261 60.586 C 81.422 59.610,81.245 59.917,80.929 61.161 C 78.146 72.111,59.840 81.498,42.667 80.780 C 21.870 79.911,2.728 67.065,0.486 52.473 C 0.223 50.760,-0.033 50.443,0.104 52.000 M0.112 57.266 C 0.165 58.266,0.274 59.155,0.354 59.242 C 0.434 59.329,0.500 59.643,0.500 59.940 C 0.500 60.237,0.565 60.520,0.643 60.569 C 0.722 60.618,0.833 60.995,0.890 61.408 C 0.946 61.821,1.069 62.311,1.163 62.496 C 1.257 62.682,1.408 62.982,1.500 63.164 C 1.592 63.346,1.667 63.609,1.667 63.748 C 1.667 63.886,1.742 64.000,1.833 64.000 C 1.925 64.000,2.000 64.105,2.000 64.233 C 2.000 64.560,3.188 66.833,3.359 66.833 C 3.437 66.833,3.500 66.909,3.500 67.000 C 3.500 67.295,4.433 68.678,4.552 68.559 C 4.615 68.496,4.667 68.601,4.667 68.792 C 4.667 68.983,4.726 69.164,4.799 69.194 C 4.871 69.225,5.152 69.549,5.424 69.915 C 6.716 71.657,10.400 75.340,11.637 76.125 C 11.882 76.281,12.196 76.525,12.333 76.668 C 12.471 76.811,12.996 77.224,13.500 77.586 C 14.004 77.948,14.442 78.302,14.472 78.372 C 14.503 78.442,14.595 78.500,14.677 78.500 C 14.760 78.500,15.237 78.762,15.739 79.083 C 16.240 79.404,16.729 79.667,16.825 79.667 C 16.921 79.667,17.000 79.742,17.000 79.833 C 17.000 79.925,17.112 80.000,17.250 80.000 C 17.387 80.000,17.500 80.081,17.500 80.181 C 17.500 80.280,17.592 80.330,17.705 80.293 C 17.817 80.255,18.056 80.362,18.236 80.529 C 18.416 80.696,18.661 80.833,18.781 80.833 C 18.902 80.833,19.000 80.908,19.000 81.000 C 19.000 81.092,19.150 81.167,19.333 81.167 C 19.517 81.167,19.667 81.250,19.667 81.351 C 19.667 81.453,19.779 81.492,19.917 81.440 C 20.054 81.387,20.167 81.415,20.167 81.503 C 20.167 81.591,20.448 81.782,20.792 81.929 C 21.135 82.076,21.604 82.277,21.833 82.376 C 22.063 82.474,22.302 82.562,22.367 82.569 C 22.431 82.577,22.577 82.677,22.692 82.792 C 22.806 82.906,23.020 83.000,23.167 83.000 C 23.313 83.000,23.505 83.065,23.592 83.143 C 23.679 83.222,24.162 83.425,24.667 83.594 C 25.171 83.762,25.655 83.960,25.742 84.034 C 25.829 84.107,26.068 84.167,26.273 84.167 C 26.479 84.167,26.693 84.242,26.750 84.333 C 26.807 84.425,27.032 84.500,27.250 84.500 C 27.468 84.500,27.691 84.571,27.744 84.657 C 27.797 84.743,28.178 84.865,28.589 84.926 C 29.001 84.988,29.378 85.105,29.429 85.186 C 29.479 85.267,29.778 85.333,30.093 85.333 C 30.409 85.333,30.667 85.408,30.667 85.500 C 30.667 85.592,30.925 85.667,31.240 85.667 C 31.556 85.667,31.855 85.734,31.906 85.816 C 31.956 85.898,32.280 86.005,32.624 86.055 C 32.968 86.105,33.625 86.220,34.083 86.313 C 34.542 86.405,35.310 86.485,35.792 86.490 C 36.273 86.496,36.667 86.575,36.667 86.667 C 36.667 86.763,37.194 86.833,37.917 86.833 C 38.605 86.833,39.167 86.905,39.167 86.993 C 39.167 87.217,49.611 87.225,49.749 87.002 C 49.806 86.909,50.407 86.833,51.083 86.833 C 51.760 86.833,52.353 86.769,52.402 86.691 C 52.450 86.613,53.086 86.499,53.814 86.438 C 54.543 86.378,55.389 86.226,55.695 86.102 C 56.000 85.978,56.344 85.911,56.458 85.952 C 56.573 85.994,56.667 85.947,56.667 85.847 C 56.667 85.748,56.925 85.667,57.240 85.667 C 57.556 85.667,57.860 85.592,57.917 85.500 C 57.973 85.408,58.236 85.333,58.500 85.333 C 58.764 85.333,59.021 85.267,59.071 85.186 C 59.122 85.105,59.499 84.988,59.911 84.926 C 60.322 84.865,60.703 84.743,60.756 84.657 C 60.809 84.571,61.036 84.500,61.260 84.500 C 61.484 84.500,61.667 84.425,61.667 84.333 C 61.667 84.242,61.839 84.167,62.050 84.167 C 62.261 84.167,62.505 84.104,62.592 84.027 C 62.679 83.950,63.012 83.788,63.333 83.668 C 64.988 83.049,68.222 81.511,68.306 81.305 C 68.336 81.229,68.467 81.167,68.597 81.167 C 68.727 81.167,68.833 81.092,68.833 81.000 C 68.833 80.908,68.928 80.833,69.044 80.833 C 69.160 80.833,69.644 80.571,70.121 80.250 C 70.597 79.929,71.065 79.667,71.160 79.667 C 71.255 79.667,71.333 79.597,71.333 79.511 C 71.333 79.426,71.475 79.311,71.647 79.256 C 71.820 79.201,72.194 78.934,72.479 78.662 C 72.764 78.389,73.073 78.167,73.165 78.167 C 73.258 78.167,73.334 78.110,73.334 78.042 C 73.335 77.973,73.616 77.729,73.959 77.500 C 74.867 76.894,78.200 73.522,78.081 73.330 C 78.026 73.240,78.079 73.167,78.200 73.167 C 78.414 73.167,79.333 71.810,79.333 71.493 C 79.333 71.405,79.393 71.333,79.465 71.333 C 79.641 71.333,80.500 69.625,80.500 69.275 C 80.500 69.124,80.575 69.000,80.667 69.000 C 80.758 69.000,80.833 68.854,80.833 68.677 C 80.833 68.499,80.908 68.307,81.000 68.250 C 81.092 68.193,81.167 67.931,81.167 67.667 C 81.167 67.402,81.242 67.139,81.335 67.082 C 81.428 67.025,81.495 66.777,81.484 66.531 C 81.473 66.285,81.518 65.446,81.583 64.667 C 81.738 62.838,81.446 63.032,81.075 65.005 C 79.356 74.146,66.138 82.909,50.917 84.998 C 28.459 88.080,3.190 74.040,0.481 56.975 C 0.183 55.102,0.005 55.243,0.112 57.266 M295.133 76.124 C 295.894 76.155,297.094 76.155,297.800 76.124 C 298.506 76.093,297.883 76.067,296.417 76.067 C 294.950 76.068,294.372 76.093,295.133 76.124 " stroke="none" fill="#fbfbfb" fill-rule="evenodd"></path><path id="path3" d="M40.872 13.333 C 40.872 13.654,40.906 13.785,40.948 13.625 C 40.990 13.465,40.990 13.202,40.948 13.042 C 40.906 12.881,40.872 13.012,40.872 13.333 M32.542 15.789 C 32.977 15.824,33.690 15.824,34.125 15.789 C 34.560 15.755,34.204 15.727,33.333 15.727 C 32.462 15.727,32.106 15.755,32.542 15.789 M73.500 21.727 C 73.500 21.773,73.725 21.971,74.000 22.167 C 74.275 22.362,74.500 22.485,74.500 22.439 C 74.500 22.394,74.275 22.196,74.000 22.000 C 73.725 21.804,73.500 21.681,73.500 21.727 M9.330 25.792 L 7.917 27.250 9.375 25.837 C 10.729 24.525,10.909 24.333,10.788 24.333 C 10.763 24.333,10.107 24.990,9.330 25.792 M39.125 24.951 C 39.331 24.991,39.669 24.991,39.875 24.951 C 40.081 24.911,39.912 24.879,39.500 24.879 C 39.087 24.879,38.919 24.911,39.125 24.951 M42.208 24.956 C 42.644 24.990,43.356 24.990,43.792 24.956 C 44.227 24.922,43.871 24.893,43.000 24.893 C 42.129 24.893,41.773 24.922,42.208 24.956 M5.075 31.349 C 4.929 31.632,4.838 31.894,4.875 31.930 C 4.911 31.966,5.065 31.734,5.217 31.415 C 5.560 30.696,5.441 30.641,5.075 31.349 M59.783 33.915 C 59.935 34.234,60.089 34.466,60.125 34.430 C 60.202 34.354,59.696 33.333,59.582 33.333 C 59.540 33.333,59.630 33.595,59.783 33.915 M40.542 36.957 C 41.160 36.989,42.173 36.989,42.792 36.957 C 43.410 36.925,42.904 36.899,41.667 36.899 C 40.429 36.899,39.923 36.925,40.542 36.957 M1.205 37.500 C 1.205 37.821,1.240 37.952,1.282 37.792 C 1.323 37.631,1.323 37.369,1.282 37.208 C 1.240 37.048,1.205 37.179,1.205 37.500 M3.389 38.500 C 3.389 39.188,3.419 39.469,3.455 39.125 C 3.491 38.781,3.491 38.219,3.455 37.875 C 3.419 37.531,3.389 37.813,3.389 38.500 M61.048 38.750 C 61.049 39.208,61.081 39.376,61.120 39.123 C 61.158 38.869,61.157 38.494,61.117 38.289 C 61.078 38.084,61.046 38.292,61.048 38.750 M1.205 39.333 C 1.205 39.654,1.240 39.785,1.282 39.625 C 1.323 39.465,1.323 39.202,1.282 39.042 C 1.240 38.881,1.205 39.012,1.205 39.333 M0.195 41.750 C 0.198 41.933,0.260 42.271,0.333 42.500 L 0.467 42.917 0.472 42.500 C 0.474 42.271,0.412 41.933,0.333 41.750 L 0.190 41.417 0.195 41.750 M27.073 42.208 L 26.583 42.750 27.125 42.260 C 27.630 41.804,27.743 41.667,27.615 41.667 C 27.586 41.667,27.342 41.910,27.073 42.208 M91.417 42.431 L 90.917 42.861 91.458 42.502 C 91.756 42.305,92.000 42.112,92.000 42.072 C 92.000 41.947,91.929 41.991,91.417 42.431 M79.491 43.292 L 78.917 43.917 79.542 43.342 C 79.885 43.026,80.167 42.745,80.167 42.717 C 80.167 42.590,80.026 42.710,79.491 43.292 M59.783 43.585 C 59.630 43.905,59.540 44.167,59.582 44.167 C 59.696 44.167,60.202 43.146,60.125 43.070 C 60.089 43.034,59.935 43.266,59.783 43.585 M89.750 43.598 L 89.250 44.028 89.792 43.669 C 90.090 43.472,90.333 43.278,90.333 43.239 C 90.333 43.114,90.263 43.157,89.750 43.598 M27.493 44.542 C 27.902 44.977,28.258 45.333,28.285 45.333 C 28.410 45.333,28.278 45.184,27.542 44.493 L 26.750 43.750 27.493 44.542 M56.409 45.208 L 55.750 45.917 56.458 45.258 C 57.117 44.645,57.243 44.500,57.117 44.500 C 57.090 44.500,56.771 44.819,56.409 45.208 M78.889 47.000 C 78.889 47.688,78.919 47.969,78.955 47.625 C 78.991 47.281,78.991 46.719,78.955 46.375 C 78.919 46.031,78.889 46.313,78.889 47.000 M81.039 46.333 C 81.039 46.654,81.073 46.785,81.115 46.625 C 81.157 46.465,81.157 46.202,81.115 46.042 C 81.073 45.881,81.039 46.012,81.039 46.333 M0.266 46.750 C 0.404 47.577,0.501 47.710,0.497 47.069 C 0.496 46.802,0.418 46.471,0.325 46.333 C 0.203 46.154,0.186 46.272,0.266 46.750 M56.000 48.020 C 55.419 48.530,55.419 48.530,55.953 48.175 C 56.248 47.978,56.534 47.746,56.588 47.659 C 56.749 47.399,56.616 47.481,56.000 48.020 M81.000 48.064 C 81.000 48.201,81.075 48.360,81.167 48.417 C 81.258 48.473,81.333 48.407,81.333 48.270 C 81.333 48.132,81.258 47.973,81.167 47.917 C 81.075 47.860,81.000 47.926,81.000 48.064 M88.128 50.621 C 88.428 50.658,88.878 50.657,89.128 50.619 C 89.378 50.581,89.133 50.551,88.583 50.552 C 88.033 50.553,87.828 50.584,88.128 50.621 M0.276 51.250 C 0.332 51.617,0.405 51.948,0.439 51.986 C 0.565 52.129,0.471 51.237,0.326 50.917 C 0.220 50.684,0.205 50.785,0.276 51.250 M39.877 52.286 C 40.131 52.325,40.506 52.324,40.711 52.284 C 40.916 52.244,40.708 52.213,40.250 52.214 C 39.792 52.216,39.624 52.248,39.877 52.286 M44.292 52.284 C 44.498 52.324,44.835 52.324,45.042 52.284 C 45.248 52.245,45.079 52.212,44.667 52.212 C 44.254 52.212,44.085 52.245,44.292 52.284 M10.333 53.219 C 10.333 53.248,10.577 53.491,10.875 53.760 L 11.417 54.250 10.927 53.708 C 10.471 53.203,10.333 53.090,10.333 53.219 M75.406 54.875 L 74.917 55.417 75.458 54.927 C 75.963 54.471,76.077 54.333,75.948 54.333 C 75.919 54.333,75.675 54.577,75.406 54.875 M9.750 55.667 C 10.294 56.217,10.777 56.667,10.823 56.667 C 10.869 56.667,10.461 56.217,9.917 55.667 C 9.372 55.117,8.890 54.667,8.844 54.667 C 8.798 54.667,9.206 55.117,9.750 55.667 M0.281 55.833 C 0.335 56.246,0.407 56.615,0.440 56.653 C 0.565 56.798,0.470 55.735,0.329 55.417 C 0.230 55.194,0.214 55.333,0.281 55.833 M81.219 56.320 C 81.236 56.542,81.362 56.754,81.500 56.791 C 81.665 56.836,81.686 56.812,81.561 56.721 C 81.457 56.645,81.331 56.433,81.280 56.250 C 81.208 55.987,81.195 56.002,81.219 56.320 M73.240 57.042 L 72.750 57.583 73.292 57.094 C 73.590 56.825,73.833 56.581,73.833 56.552 C 73.833 56.423,73.696 56.537,73.240 57.042 M75.994 57.458 L 75.083 58.417 76.042 57.506 C 76.932 56.659,77.076 56.500,76.953 56.500 C 76.927 56.500,76.495 56.931,75.994 57.458 M7.667 56.885 C 7.667 56.914,7.910 57.158,8.208 57.427 L 8.750 57.917 8.260 57.375 C 7.804 56.870,7.667 56.757,7.667 56.885 M71.827 58.179 L 71.250 58.691 71.875 58.242 C 72.427 57.846,72.607 57.667,72.452 57.667 C 72.426 57.667,72.144 57.897,71.827 58.179 M15.833 57.894 C 15.833 57.940,16.058 58.138,16.333 58.333 C 16.608 58.529,16.833 58.652,16.833 58.606 C 16.833 58.560,16.608 58.362,16.333 58.167 C 16.058 57.971,15.833 57.848,15.833 57.894 M88.042 58.448 C 88.202 58.490,88.465 58.490,88.625 58.448 C 88.785 58.406,88.654 58.372,88.333 58.372 C 88.013 58.372,87.881 58.406,88.042 58.448 M8.250 62.000 C 8.979 62.733,9.613 63.333,9.659 63.333 C 9.705 63.333,9.146 62.733,8.417 62.000 C 7.688 61.267,7.054 60.667,7.008 60.667 C 6.962 60.667,7.521 61.267,8.250 62.000 M20.333 60.741 C 20.333 60.787,20.558 60.941,20.833 61.083 C 21.108 61.226,21.333 61.304,21.333 61.259 C 21.333 61.213,21.108 61.059,20.833 60.917 C 20.558 60.774,20.333 60.696,20.333 60.741 M81.074 61.848 C 81.013 61.948,81.046 62.113,81.148 62.215 C 81.284 62.351,81.333 62.303,81.333 62.033 C 81.333 61.631,81.247 61.569,81.074 61.848 M8.333 63.583 C 8.924 64.179,9.445 64.667,9.490 64.667 C 9.536 64.667,9.091 64.179,8.500 63.583 C 7.909 62.987,7.389 62.500,7.343 62.500 C 7.297 62.500,7.743 62.987,8.333 63.583 M76.078 64.375 L 75.083 65.417 76.125 64.422 C 77.093 63.498,77.243 63.333,77.120 63.333 C 77.094 63.333,76.625 63.802,76.078 64.375 M7.000 65.250 C 7.311 65.571,7.603 65.833,7.649 65.833 C 7.695 65.833,7.478 65.571,7.167 65.250 C 6.856 64.929,6.564 64.667,6.518 64.667 C 6.472 64.667,6.689 64.929,7.000 65.250 M76.161 65.792 L 75.250 66.750 76.208 65.839 C 76.735 65.338,77.167 64.907,77.167 64.881 C 77.167 64.757,77.007 64.901,76.161 65.792 M57.917 65.167 C 57.707 65.257,57.676 65.310,57.833 65.310 C 57.971 65.310,58.233 65.245,58.417 65.167 C 58.627 65.076,58.658 65.023,58.500 65.023 C 58.362 65.023,58.100 65.088,57.917 65.167 M51.375 66.615 C 51.535 66.657,51.798 66.657,51.958 66.615 C 52.119 66.573,51.987 66.539,51.667 66.539 C 51.346 66.539,51.215 66.573,51.375 66.615 M39.294 66.785 C 39.501 66.824,39.801 66.823,39.960 66.781 C 40.120 66.739,39.950 66.707,39.583 66.709 C 39.217 66.711,39.086 66.745,39.294 66.785 M49.794 66.785 C 50.001 66.824,50.301 66.823,50.460 66.781 C 50.620 66.739,50.450 66.707,50.083 66.709 C 49.717 66.711,49.586 66.745,49.794 66.785 M41.125 66.951 C 41.331 66.991,41.669 66.991,41.875 66.951 C 42.081 66.911,41.912 66.879,41.500 66.879 C 41.087 66.879,40.919 66.911,41.125 66.951 M47.544 66.953 C 47.797 66.991,48.172 66.990,48.377 66.951 C 48.582 66.911,48.375 66.880,47.917 66.881 C 47.458 66.882,47.291 66.915,47.544 66.953 M9.500 67.750 C 9.811 68.071,10.103 68.333,10.149 68.333 C 10.195 68.333,9.978 68.071,9.667 67.750 C 9.356 67.429,9.064 67.167,9.018 67.167 C 8.972 67.167,9.189 67.429,9.500 67.750 M76.906 68.042 L 76.417 68.583 76.958 68.094 C 77.256 67.825,77.500 67.581,77.500 67.552 C 77.500 67.423,77.362 67.537,76.906 68.042 M40.877 69.120 C 41.131 69.158,41.506 69.157,41.711 69.117 C 41.916 69.078,41.708 69.046,41.250 69.048 C 40.792 69.049,40.624 69.081,40.877 69.120 M47.708 69.119 C 47.960 69.158,48.373 69.158,48.625 69.119 C 48.877 69.081,48.671 69.050,48.167 69.050 C 47.663 69.050,47.456 69.081,47.708 69.119 M76.906 69.542 L 76.417 70.083 76.958 69.594 C 77.463 69.138,77.577 69.000,77.448 69.000 C 77.419 69.000,77.175 69.244,76.906 69.542 M43.880 69.289 C 44.318 69.324,44.993 69.323,45.380 69.288 C 45.767 69.254,45.408 69.225,44.583 69.226 C 43.758 69.226,43.442 69.255,43.880 69.289 M8.000 70.917 C 8.311 71.237,8.603 71.500,8.649 71.500 C 8.695 71.500,8.478 71.237,8.167 70.917 C 7.856 70.596,7.564 70.333,7.518 70.333 C 7.472 70.333,7.689 70.596,8.000 70.917 M75.324 71.125 L 74.750 71.750 75.375 71.176 C 75.719 70.860,76.000 70.578,76.000 70.551 C 76.000 70.423,75.859 70.543,75.324 71.125 M41.875 71.615 C 42.035 71.657,42.298 71.657,42.458 71.615 C 42.619 71.573,42.487 71.539,42.167 71.539 C 41.846 71.539,41.715 71.573,41.875 71.615 M46.042 71.615 C 46.202 71.657,46.465 71.657,46.625 71.615 C 46.785 71.573,46.654 71.539,46.333 71.539 C 46.012 71.539,45.881 71.573,46.042 71.615 M41.542 73.115 C 41.702 73.157,41.965 73.157,42.125 73.115 C 42.285 73.073,42.154 73.039,41.833 73.039 C 41.512 73.039,41.381 73.073,41.542 73.115 M46.375 73.115 C 46.535 73.157,46.798 73.157,46.958 73.115 C 47.119 73.073,46.987 73.039,46.667 73.039 C 46.346 73.039,46.215 73.073,46.375 73.115 M76.073 73.542 L 75.583 74.083 76.125 73.594 C 76.423 73.325,76.667 73.081,76.667 73.052 C 76.667 72.923,76.529 73.037,76.073 73.542 M43.711 76.286 C 43.964 76.325,44.339 76.324,44.544 76.284 C 44.749 76.244,44.542 76.213,44.083 76.214 C 43.625 76.216,43.457 76.248,43.711 76.286 M40.708 77.619 C 40.960 77.658,41.373 77.658,41.625 77.619 C 41.877 77.581,41.671 77.550,41.167 77.550 C 40.662 77.550,40.456 77.581,40.708 77.619 M47.042 77.619 C 47.294 77.658,47.706 77.658,47.958 77.619 C 48.210 77.581,48.004 77.550,47.500 77.550 C 46.996 77.550,46.790 77.581,47.042 77.619 M42.128 80.787 C 42.428 80.825,42.878 80.824,43.128 80.786 C 43.378 80.748,43.133 80.717,42.583 80.718 C 42.033 80.719,41.828 80.750,42.128 80.787 M45.042 80.788 C 45.385 80.824,45.948 80.824,46.292 80.788 C 46.635 80.752,46.354 80.723,45.667 80.723 C 44.979 80.723,44.698 80.752,45.042 80.788 M38.375 81.948 C 38.535 81.990,38.798 81.990,38.958 81.948 C 39.119 81.906,38.987 81.872,38.667 81.872 C 38.346 81.872,38.215 81.906,38.375 81.948 M50.042 81.948 C 50.202 81.990,50.465 81.990,50.625 81.948 C 50.785 81.906,50.654 81.872,50.333 81.872 C 50.012 81.872,49.881 81.906,50.042 81.948 M39.958 82.118 C 40.165 82.157,40.502 82.157,40.708 82.118 C 40.915 82.078,40.746 82.045,40.333 82.045 C 39.921 82.045,39.752 82.078,39.958 82.118 M47.877 82.120 C 48.131 82.158,48.506 82.157,48.711 82.117 C 48.916 82.078,48.708 82.046,48.250 82.048 C 47.792 82.049,47.624 82.081,47.877 82.120 M43.375 82.290 C 43.902 82.323,44.765 82.323,45.292 82.290 C 45.819 82.257,45.387 82.230,44.333 82.230 C 43.279 82.230,42.848 82.257,43.375 82.290 M40.961 85.287 C 41.261 85.325,41.711 85.324,41.961 85.286 C 42.212 85.248,41.967 85.217,41.417 85.218 C 40.867 85.219,40.662 85.250,40.961 85.287 M46.628 85.287 C 46.928 85.325,47.378 85.324,47.628 85.286 C 47.878 85.248,47.633 85.217,47.083 85.218 C 46.533 85.219,46.328 85.250,46.628 85.287 " stroke="none" fill="#b69ea2" fill-rule="evenodd"></path><path id="path4" d="M0.181 41.083 C 0.197 41.653,0.474 42.184,0.486 41.667 C 0.491 41.438,0.422 41.137,0.333 41.000 C 0.200 40.794,0.173 40.808,0.181 41.083 M56.417 42.500 C 56.961 43.050,57.444 43.500,57.490 43.500 C 57.535 43.500,57.128 43.050,56.583 42.500 C 56.039 41.950,55.556 41.500,55.510 41.500 C 55.465 41.500,55.872 41.950,56.417 42.500 M99.432 41.917 C 99.282 42.146,99.185 42.333,99.216 42.333 C 99.248 42.333,99.436 42.146,99.636 41.917 C 99.835 41.688,99.932 41.500,99.851 41.500 C 99.771 41.500,99.582 41.688,99.432 41.917 M201.042 43.615 C 201.202 43.657,201.465 43.657,201.625 43.615 C 201.785 43.573,201.654 43.539,201.333 43.539 C 201.012 43.539,200.881 43.573,201.042 43.615 M55.824 45.625 L 55.250 46.250 55.875 45.676 C 56.219 45.360,56.500 45.078,56.500 45.051 C 56.500 44.923,56.359 45.043,55.824 45.625 M0.172 45.667 C 0.172 46.378,0.439 46.598,0.561 45.987 C 0.620 45.690,0.631 45.409,0.584 45.362 C 0.538 45.316,0.499 45.384,0.497 45.514 C 0.495 45.708,0.466 45.706,0.333 45.500 C 0.205 45.302,0.172 45.337,0.172 45.667 M52.500 47.833 C 52.179 48.009,51.977 48.156,52.050 48.160 C 52.227 48.169,53.167 47.680,53.167 47.579 C 53.167 47.470,53.157 47.474,52.500 47.833 M81.012 48.448 C 81.049 48.881,81.310 49.248,81.322 48.885 C 81.328 48.684,81.258 48.473,81.167 48.417 C 81.075 48.360,81.005 48.374,81.012 48.448 M88.375 49.115 C 88.535 49.157,88.798 49.157,88.958 49.115 C 89.119 49.073,88.987 49.039,88.667 49.039 C 88.346 49.039,88.215 49.073,88.375 49.115 M0.500 49.982 C 0.500 50.094,0.425 50.140,0.333 50.083 C 0.141 49.964,0.132 50.434,0.318 50.909 C 0.420 51.172,0.466 51.109,0.551 50.585 C 0.609 50.227,0.621 49.899,0.578 49.856 C 0.535 49.813,0.500 49.870,0.500 49.982 M41.127 50.285 C 41.334 50.324,41.634 50.323,41.794 50.281 C 41.953 50.239,41.783 50.207,41.417 50.209 C 41.050 50.211,40.920 50.245,41.127 50.285 M43.208 50.282 C 43.369 50.323,43.631 50.323,43.792 50.282 C 43.952 50.240,43.821 50.205,43.500 50.205 C 43.179 50.205,43.048 50.240,43.208 50.282 M81.055 53.236 C 81.116 53.396,81.167 53.596,81.167 53.680 C 81.167 53.764,81.298 53.827,81.458 53.820 C 81.633 53.812,81.666 53.773,81.542 53.723 C 81.427 53.677,81.333 53.537,81.333 53.413 C 81.333 53.288,81.246 53.132,81.138 53.066 C 81.005 52.984,80.979 53.038,81.055 53.236 M88.044 53.786 C 88.297 53.825,88.672 53.824,88.877 53.784 C 89.082 53.744,88.875 53.713,88.417 53.714 C 87.958 53.716,87.791 53.748,88.044 53.786 M9.083 55.167 C 9.535 55.625,9.942 56.000,9.987 56.000 C 10.033 56.000,9.701 55.625,9.250 55.167 C 8.799 54.708,8.392 54.333,8.346 54.333 C 8.300 54.333,8.632 54.708,9.083 55.167 M0.181 54.750 C 0.202 55.503,0.438 55.769,0.557 55.174 C 0.619 54.866,0.631 54.575,0.584 54.529 C 0.538 54.482,0.499 54.551,0.497 54.681 C 0.495 54.875,0.466 54.873,0.333 54.667 C 0.200 54.460,0.173 54.475,0.181 54.750 M88.127 55.451 C 88.334 55.491,88.634 55.490,88.794 55.448 C 88.953 55.406,88.783 55.374,88.417 55.375 C 88.050 55.377,87.920 55.411,88.127 55.451 M8.250 57.333 C 9.071 58.158,9.781 58.833,9.826 58.833 C 9.872 58.833,9.238 58.158,8.417 57.333 C 7.595 56.508,6.886 55.833,6.840 55.833 C 6.794 55.833,7.429 56.508,8.250 57.333 M8.250 59.000 C 9.163 59.917,9.948 60.667,9.994 60.667 C 10.040 60.667,9.330 59.917,8.417 59.000 C 7.503 58.083,6.719 57.333,6.673 57.333 C 6.627 57.333,7.337 58.083,8.250 59.000 M81.012 57.615 C 81.049 58.048,81.310 58.415,81.322 58.052 C 81.328 57.851,81.258 57.640,81.167 57.583 C 81.075 57.527,81.005 57.541,81.012 57.615 M76.078 59.708 L 75.083 60.750 76.125 59.755 C 77.093 58.831,77.243 58.667,77.120 58.667 C 77.094 58.667,76.625 59.135,76.078 59.708 M76.079 61.375 L 74.750 62.750 76.125 61.421 C 76.881 60.689,77.500 60.071,77.500 60.046 C 77.500 59.924,77.314 60.098,76.079 61.375 M6.667 60.219 C 6.667 60.248,6.910 60.491,7.208 60.760 L 7.750 61.250 7.260 60.708 C 6.804 60.203,6.667 60.090,6.667 60.219 M9.667 63.250 C 9.978 63.571,10.270 63.833,10.315 63.833 C 10.361 63.833,10.144 63.571,9.833 63.250 C 9.522 62.929,9.230 62.667,9.185 62.667 C 9.139 62.667,9.356 62.929,9.667 63.250 M76.742 63.542 L 76.083 64.250 76.792 63.591 C 77.450 62.978,77.577 62.833,77.450 62.833 C 77.423 62.833,77.105 63.152,76.742 63.542 M75.073 65.208 L 74.583 65.750 75.125 65.260 C 75.423 64.991,75.667 64.748,75.667 64.719 C 75.667 64.590,75.529 64.703,75.073 65.208 M8.250 66.500 C 8.608 66.867,8.938 67.167,8.984 67.167 C 9.030 67.167,8.775 66.867,8.417 66.500 C 8.059 66.133,7.728 65.833,7.682 65.833 C 7.637 65.833,7.892 66.133,8.250 66.500 M66.000 66.667 C 65.679 66.842,65.492 66.986,65.583 66.986 C 65.675 66.986,66.012 66.842,66.333 66.667 C 66.654 66.491,66.842 66.347,66.750 66.347 C 66.658 66.347,66.321 66.491,66.000 66.667 M8.417 68.333 C 8.961 68.883,9.444 69.333,9.490 69.333 C 9.535 69.333,9.128 68.883,8.583 68.333 C 8.039 67.783,7.556 67.333,7.510 67.333 C 7.465 67.333,7.872 67.783,8.417 68.333 M66.500 68.083 C 66.087 68.304,65.809 68.488,65.882 68.492 C 66.059 68.503,67.333 67.848,67.333 67.747 C 67.333 67.636,67.340 67.633,66.500 68.083 M75.906 69.042 L 75.417 69.583 75.958 69.094 C 76.463 68.638,76.577 68.500,76.448 68.500 C 76.419 68.500,76.175 68.744,75.906 69.042 M49.208 69.115 C 49.369 69.157,49.631 69.157,49.792 69.115 C 49.952 69.073,49.821 69.039,49.500 69.039 C 49.179 69.039,49.048 69.073,49.208 69.115 M42.044 69.286 C 42.297 69.325,42.672 69.324,42.877 69.284 C 43.082 69.244,42.875 69.213,42.417 69.214 C 41.958 69.216,41.791 69.248,42.044 69.286 M46.461 69.287 C 46.761 69.325,47.211 69.324,47.461 69.286 C 47.712 69.248,47.467 69.217,46.917 69.218 C 46.367 69.219,46.162 69.250,46.461 69.287 M8.333 71.083 C 9.201 71.954,9.948 72.667,9.993 72.667 C 10.039 72.667,9.367 71.954,8.500 71.083 C 7.633 70.212,6.886 69.500,6.840 69.500 C 6.794 69.500,7.466 70.212,8.333 71.083 M76.161 70.458 L 75.250 71.417 76.208 70.506 C 77.099 69.659,77.243 69.500,77.119 69.500 C 77.093 69.500,76.662 69.931,76.161 70.458 M47.875 71.448 C 48.035 71.490,48.298 71.490,48.458 71.448 C 48.619 71.406,48.487 71.372,48.167 71.372 C 47.846 71.372,47.715 71.406,47.875 71.448 M43.464 71.623 C 43.948 71.657,44.698 71.656,45.131 71.622 C 45.563 71.588,45.167 71.560,44.250 71.561 C 43.333 71.561,42.980 71.589,43.464 71.623 M76.079 73.375 L 74.917 74.583 76.125 73.421 C 77.247 72.342,77.409 72.167,77.287 72.167 C 77.262 72.167,76.718 72.710,76.079 73.375 M47.375 73.115 C 47.535 73.157,47.798 73.157,47.958 73.115 C 48.119 73.073,47.987 73.039,47.667 73.039 C 47.346 73.039,47.215 73.073,47.375 73.115 M43.625 73.284 C 43.831 73.324,44.169 73.324,44.375 73.284 C 44.581 73.245,44.413 73.212,44.000 73.212 C 43.587 73.212,43.419 73.245,43.625 73.284 M41.627 76.118 C 41.834 76.158,42.134 76.156,42.294 76.115 C 42.453 76.073,42.283 76.040,41.917 76.042 C 41.550 76.044,41.420 76.078,41.627 76.118 M46.292 76.118 C 46.498 76.157,46.835 76.157,47.042 76.118 C 47.248 76.078,47.079 76.045,46.667 76.045 C 46.254 76.045,46.085 76.078,46.292 76.118 M43.042 77.791 C 43.752 77.822,44.915 77.822,45.625 77.791 C 46.335 77.759,45.754 77.734,44.333 77.734 C 42.913 77.734,42.331 77.759,43.042 77.791 M49.542 80.448 C 49.702 80.490,49.965 80.490,50.125 80.448 C 50.285 80.406,50.154 80.372,49.833 80.372 C 49.512 80.372,49.381 80.406,49.542 80.448 M40.711 80.620 C 40.964 80.658,41.339 80.657,41.544 80.617 C 41.749 80.578,41.542 80.546,41.083 80.548 C 40.625 80.549,40.457 80.581,40.711 80.620 M47.042 80.619 C 47.294 80.658,47.706 80.658,47.958 80.619 C 48.210 80.581,48.004 80.550,47.500 80.550 C 46.996 80.550,46.790 80.581,47.042 80.619 M43.708 80.782 C 43.869 80.823,44.131 80.823,44.292 80.782 C 44.452 80.740,44.321 80.705,44.000 80.705 C 43.679 80.705,43.548 80.740,43.708 80.782 M49.208 82.115 C 49.369 82.157,49.631 82.157,49.792 82.115 C 49.952 82.073,49.821 82.039,49.500 82.039 C 49.179 82.039,49.048 82.073,49.208 82.115 M41.128 82.287 C 41.428 82.325,41.878 82.324,42.128 82.286 C 42.378 82.248,42.133 82.217,41.583 82.218 C 41.033 82.219,40.828 82.250,41.128 82.287 M46.628 82.287 C 46.928 82.325,47.378 82.324,47.628 82.286 C 47.878 82.248,47.633 82.217,47.083 82.218 C 46.533 82.219,46.328 82.250,46.628 82.287 M38.375 84.948 C 38.535 84.990,38.798 84.990,38.958 84.948 C 39.119 84.906,38.987 84.872,38.667 84.872 C 38.346 84.872,38.215 84.906,38.375 84.948 M50.042 84.948 C 50.202 84.990,50.465 84.990,50.625 84.948 C 50.785 84.906,50.654 84.872,50.333 84.872 C 50.012 84.872,49.881 84.906,50.042 84.948 M39.958 85.118 C 40.165 85.157,40.502 85.157,40.708 85.118 C 40.915 85.078,40.746 85.045,40.333 85.045 C 39.921 85.045,39.752 85.078,39.958 85.118 M48.044 85.120 C 48.297 85.158,48.672 85.157,48.877 85.117 C 49.082 85.078,48.875 85.046,48.417 85.048 C 47.958 85.049,47.791 85.081,48.044 85.120 M43.298 85.290 C 43.875 85.323,44.775 85.323,45.298 85.290 C 45.822 85.257,45.350 85.230,44.250 85.230 C 43.150 85.231,42.722 85.258,43.298 85.290 " stroke="none" fill="#7c7c7c" fill-rule="evenodd"></path></g></svg>