<svg width="32" height="32" viewBox="0 0 32 32" fill="none" xmlns="http://www.w3.org/2000/svg">
<path fill-rule="evenodd" clip-rule="evenodd" d="M16.0005 4.58435C16.4147 4.58435 16.7505 4.92014 16.7505 5.33435V20.1231C19.2385 18.0726 21.4712 15.7192 23.3975 13.1145C23.6438 12.7815 24.1134 12.7112 24.4465 12.9575C24.7795 13.2038 24.8498 13.6734 24.6035 14.0064C22.4911 16.8629 20.023 19.4287 17.2618 21.6404C16.8935 21.9354 16.4473 22.0843 16.0005 22.0843C15.5537 22.0843 15.1075 21.9354 14.7392 21.6404C11.978 19.4287 9.50996 16.8629 7.3975 14.0064C7.1512 13.6734 7.22152 13.2038 7.55455 12.9575C7.88759 12.7112 8.35723 12.7815 8.60352 13.1145C10.5298 15.7192 12.7625 18.0726 15.2505 20.1231V5.33435C15.2505 4.92014 15.5863 4.58435 16.0005 4.58435ZM5.91718 26.6677C5.91718 26.2535 6.25296 25.9177 6.66718 25.9177H25.3338C25.7481 25.9177 26.0838 26.2535 26.0838 26.6677C26.0838 27.0819 25.7481 27.4177 25.3338 27.4177H6.66718C6.25296 27.4177 5.91718 27.0819 5.91718 26.6677Z" fill="white"/>
</svg>
