<svg width="32" height="32" viewBox="0 0 32 32" fill="none" xmlns="http://www.w3.org/2000/svg">
<path fill-rule="evenodd" clip-rule="evenodd" d="M17.9168 3.43203C17.5556 3.41766 17.0998 3.417 16.4655 3.417H13.8668C12.361 3.417 11.2767 3.41758 10.425 3.48717C9.58202 3.55604 9.03312 3.68875 8.58604 3.91655C7.72363 4.35597 7.02247 5.05713 6.58305 5.91954C6.35525 6.36662 6.22254 6.91552 6.15367 7.75848C6.08408 8.6102 6.0835 9.69448 6.0835 11.2003V20.8003C6.0835 22.3062 6.08408 23.3905 6.15367 24.2422C6.22254 25.0851 6.35525 25.634 6.58305 26.0811C7.02247 26.9435 7.72363 27.6447 8.58604 28.0841C9.03312 28.3119 9.58202 28.4446 10.425 28.5135C11.2767 28.5831 12.361 28.5837 13.8668 28.5837H18.1335C19.6393 28.5837 20.7236 28.5831 21.5753 28.5135C22.4183 28.4446 22.9672 28.3119 23.4143 28.0841C24.2767 27.6447 24.9779 26.9435 25.4173 26.0811C25.6451 25.634 25.7778 25.0851 25.8467 24.2422C25.9162 23.3905 25.9168 22.3062 25.9168 20.8003V12.8683C25.9168 12.234 25.9162 11.7782 25.9018 11.417L25.0339 11.417C23.9417 11.417 23.0762 11.417 22.3786 11.36C21.6652 11.3017 21.0615 11.1801 20.5104 10.8993C19.6166 10.4439 18.8899 9.71722 18.4345 8.82345C18.1537 8.27228 18.0321 7.66865 17.9738 6.95526C17.9168 6.25764 17.9168 5.39215 17.9168 4.30002V3.43203ZM19.4168 3.71504V4.267C19.4168 5.39948 19.4174 6.20373 19.4688 6.83311C19.5195 7.45374 19.6159 7.83799 19.7711 8.14246C20.0826 8.75399 20.5798 9.25118 21.1914 9.56277C21.4958 9.7179 21.8801 9.81428 22.5007 9.86499C23.1301 9.91641 23.9343 9.917 25.0668 9.917H25.6188C25.5174 9.64985 25.3912 9.39236 25.2414 9.14802C24.9688 8.70309 24.5848 8.31229 23.6371 7.36464L21.9692 5.69668C21.0215 4.74903 20.6307 4.36505 20.1858 4.09239C19.9415 3.94266 19.684 3.81639 19.4168 3.71504ZM16.5301 1.91699C17.5205 1.91695 18.1962 1.91693 18.7753 2.00157C18.9239 2.02329 19.0677 2.05064 19.2112 2.08508C19.8319 2.2341 20.4253 2.47989 20.9696 2.81343C21.5842 3.1901 22.1042 3.71022 22.9588 4.56496L24.7689 6.37503C25.6236 7.22959 26.1437 7.74961 26.5204 8.36427C26.8539 8.90856 27.0997 9.50195 27.2487 10.1227C27.2832 10.2661 27.3105 10.41 27.3323 10.5585C27.4169 11.1377 27.4169 11.8133 27.4168 12.8038V20.834C27.4168 22.299 27.4168 23.4444 27.3417 24.3643C27.2652 25.3001 27.1073 26.0683 26.7538 26.7621C26.1706 27.9068 25.2399 28.8374 24.0953 29.4206C23.4015 29.7741 22.6332 29.9321 21.6975 30.0085C20.7776 30.0837 19.6322 30.0837 18.1672 30.0837H13.8331C12.3682 30.0837 11.2228 30.0837 10.3028 30.0085C9.36711 29.9321 8.59884 29.7741 7.90505 29.4206C6.7604 28.8374 5.82977 27.9068 5.24654 26.7621C4.89304 26.0683 4.7351 25.3001 4.65865 24.3643C4.58349 23.4444 4.58349 22.299 4.5835 20.834V11.1666C4.58349 9.70168 4.58349 8.55626 4.65865 7.63633C4.7351 6.70061 4.89304 5.93234 5.24654 5.23855C5.82977 4.0939 6.7604 3.16327 7.90505 2.58004C8.59884 2.22654 9.36711 2.0686 10.3028 1.99215C11.2228 1.91699 12.3682 1.91699 13.8331 1.917L16.5301 1.91699ZM9.91683 17.3337C9.91683 16.9194 10.2526 16.5837 10.6668 16.5837H21.3335C21.7477 16.5837 22.0835 16.9194 22.0835 17.3337C22.0835 17.7479 21.7477 18.0837 21.3335 18.0837H10.6668C10.2526 18.0837 9.91683 17.7479 9.91683 17.3337ZM9.91683 22.667C9.91683 22.2528 10.2526 21.917 10.6668 21.917H17.3335C17.7477 21.917 18.0835 22.2528 18.0835 22.667C18.0835 23.0812 17.7477 23.417 17.3335 23.417H10.6668C10.2526 23.417 9.91683 23.0812 9.91683 22.667Z" fill="white"/>
</svg>
