<svg width="32" height="32" viewBox="0 0 32 32" fill="none" xmlns="http://www.w3.org/2000/svg">
<rect width="32" height="32" fill="#141414" fill-opacity="0.2"/>
<path fill-rule="evenodd" clip-rule="evenodd" d="M13.2992 3.25H18.7008C20.5388 3.25 21.9642 3.24999 23.1064 3.34332C24.2645 3.43794 25.1974 3.63221 26.0338 4.05837C27.4293 4.76943 28.5639 5.90404 29.275 7.29957C30.0343 8.78993 30.0775 10.6565 30.0828 13.6952C30.0833 14.0048 30.0833 14.3285 30.0833 14.6667V17.3675C30.0833 19.2054 30.0833 20.6308 29.99 21.7731C29.8954 22.9311 29.7011 23.864 29.275 24.7004C28.5639 26.096 27.4293 27.2306 26.0338 27.9416C25.1974 28.3678 24.2645 28.5621 23.1064 28.6567C21.9642 28.75 20.5388 28.75 18.7008 28.75H13.3274C12.3205 28.75 11.4402 28.75 10.6674 28.7354C8.6098 28.6966 7.17583 28.558 5.96624 27.9416C4.5707 27.2306 3.4361 26.096 2.72504 24.7004C2.29887 23.864 2.1046 22.9311 2.00999 21.7731C1.91666 20.6308 1.91666 19.2054 1.91667 17.3675V14.6325C1.91666 12.7946 1.91666 11.3692 2.00999 10.2269C2.1046 9.06888 2.29887 8.13596 2.72504 7.29957C3.4361 5.90404 4.5707 4.76943 5.96624 4.05837C6.80263 3.63221 7.73555 3.43794 8.89361 3.34332C10.0359 3.24999 11.4612 3.25 13.2992 3.25ZM9.01576 4.83834C7.95046 4.92538 7.23691 5.09442 6.64722 5.39488C5.53393 5.96213 4.6288 6.86726 4.06155 7.98056C3.76108 8.57024 3.59204 9.28379 3.50501 10.3491C3.41725 11.4231 3.41667 12.7874 3.41667 14.6667V17.3333C3.41667 19.2126 3.41725 20.5769 3.50501 21.6509C3.59204 22.7162 3.76108 23.4298 4.06155 24.0194C4.6288 25.1327 5.53393 26.0379 6.64722 26.6051C7.41098 26.9943 8.36299 27.1561 9.98122 27.2162C10.7147 19.013 17.6063 12.5833 26 12.5833C26.8773 12.5833 27.7386 12.6536 28.5785 12.789C28.5568 10.2485 28.4437 8.97211 27.9385 7.98056C27.3712 6.86726 26.4661 5.96213 25.3528 5.39488C24.7631 5.09442 24.0495 4.92538 22.9842 4.83834C21.9102 4.75058 20.5459 4.75 18.6667 4.75H13.3333C11.4541 4.75 10.0898 4.75058 9.01576 4.83834ZM28.5833 14.3113C27.7453 14.1616 26.8821 14.0833 26 14.0833C18.4253 14.0833 12.1991 19.8586 11.485 27.2457C12.0428 27.25 12.6552 27.25 13.3333 27.25H18.6667C20.5459 27.25 21.9102 27.2494 22.9842 27.1617C24.0495 27.0746 24.7631 26.9056 25.3528 26.6051C26.4661 26.0379 27.3712 25.1327 27.9385 24.0194C28.2389 23.4298 28.408 22.7162 28.495 21.6509C28.5828 20.5769 28.5833 19.2126 28.5833 17.3333V14.6667C28.5833 14.5462 28.5833 14.4278 28.5833 14.3113ZM7.25 11.3333C7.25 9.81455 8.48122 8.58333 10 8.58333C11.5188 8.58333 12.75 9.81455 12.75 11.3333C12.75 12.8521 11.5188 14.0833 10 14.0833C8.48122 14.0833 7.25 12.8521 7.25 11.3333ZM10 10.0833C9.30965 10.0833 8.75 10.643 8.75 11.3333C8.75 12.0237 9.30965 12.5833 10 12.5833C10.6904 12.5833 11.25 12.0237 11.25 11.3333C11.25 10.643 10.6904 10.0833 10 10.0833Z" fill="white"/>
</svg>
