<svg width="32" height="32" viewBox="0 0 32 32" fill="none" xmlns="http://www.w3.org/2000/svg">
<path fill-rule="evenodd" clip-rule="evenodd" d="M16 4.58337C15.5858 4.58337 15.25 4.91916 15.25 5.33337V18.6735C14.2725 17.8094 13.3844 16.8472 12.6 15.8013C12.3515 15.47 11.8814 15.4028 11.55 15.6513C11.2186 15.8999 11.1515 16.37 11.4 16.7013C12.424 18.0667 13.6119 19.2997 14.9364 20.3729C15.2462 20.6239 15.6233 20.75 16 20.75C16.3766 20.75 16.7538 20.6239 17.0636 20.3729C18.3881 19.2997 19.576 18.0667 20.6 16.7013C20.8485 16.37 20.7814 15.8999 20.45 15.6513C20.1186 15.4028 19.6485 15.47 19.4 15.8013C18.6156 16.8472 17.7275 17.8094 16.75 18.6735V5.33337C16.75 4.91916 16.4142 4.58337 16 4.58337ZM28 19.25C27.5858 19.25 27.25 19.5858 27.25 20C27.25 23.2677 24.601 25.9167 21.3333 25.9167H10.6667C7.39898 25.9167 4.75 23.2677 4.75 20C4.75 19.5858 4.41421 19.25 4 19.25C3.58578 19.25 3.25 19.5858 3.25 20C3.25 24.0962 6.57055 27.4167 10.6667 27.4167H21.3333C25.4294 27.4167 28.75 24.0962 28.75 20C28.75 19.5858 28.4142 19.25 28 19.25Z" fill="white"/>
</svg>
