<svg width="32" height="32" viewBox="0 0 32 32" fill="none" xmlns="http://www.w3.org/2000/svg">
<path fill-rule="evenodd" clip-rule="evenodd" d="M15.9714 3.25H16.0286C17.8682 3.25 19.2871 3.25 20.4283 3.32786C21.5821 3.40659 22.5068 3.56741 23.3485 3.91605C25.4925 4.80413 27.1959 6.50752 28.0839 8.65152C28.4326 9.49322 28.5934 10.4179 28.6721 11.5717C28.75 12.7129 28.75 14.1318 28.75 15.9714V16.0286C28.75 17.8682 28.75 19.2871 28.6721 20.4283C28.5934 21.5821 28.4326 22.5068 28.0839 23.3485C27.1959 25.4925 25.4925 27.1959 23.3485 28.0839C22.5068 28.4326 21.5821 28.5934 20.4283 28.6721C19.2871 28.75 17.8682 28.75 16.0286 28.75H15.9714C14.1318 28.75 12.7129 28.75 11.5717 28.6721C10.4179 28.5934 9.49322 28.4326 8.65152 28.0839C6.50752 27.1959 4.80413 25.4925 3.91605 23.3485C3.56741 22.5068 3.40659 21.5821 3.32786 20.4283C3.25 19.2871 3.25 17.8682 3.25 16.0286V15.9714C3.25 14.1318 3.25 12.7129 3.32786 11.5717C3.40659 10.4179 3.56741 9.49322 3.91605 8.65152C4.80413 6.50752 6.50752 4.80413 8.65152 3.91605C9.49322 3.56741 10.4179 3.40659 11.5717 3.32786C12.7129 3.25 14.1318 3.25 15.9714 3.25ZM11.6738 4.82438C10.5963 4.8979 9.85401 5.04155 9.22555 5.30187C7.44909 6.0377 6.0377 7.44909 5.30187 9.22555C5.04155 9.85401 4.8979 10.5963 4.82438 11.6738C4.75041 12.758 4.75 14.126 4.75 16C4.75 17.874 4.75041 19.242 4.82438 20.3262C4.8979 21.4037 5.04155 22.146 5.30187 22.7745C6.0377 24.5509 7.44909 25.9623 9.22555 26.6981C9.85401 26.9584 10.5963 27.1021 11.6738 27.1756C12.758 27.2496 14.126 27.25 16 27.25C17.874 27.25 19.242 27.2496 20.3262 27.1756C21.4037 27.1021 22.146 26.9584 22.7745 26.6981C24.5509 25.9623 25.9623 24.5509 26.6981 22.7745C26.9584 22.146 27.1021 21.4037 27.1756 20.3262C27.2496 19.242 27.25 17.874 27.25 16C27.25 14.126 27.2496 12.758 27.1756 11.6738C27.1021 10.5963 26.9584 9.85401 26.6981 9.22555C25.9623 7.44909 24.5509 6.0377 22.7745 5.30187C22.146 5.04155 21.4037 4.8979 20.3262 4.82438C19.242 4.75041 17.874 4.75 16 4.75C14.126 4.75 12.758 4.75041 11.6738 4.82438ZM20.2437 12.5089C20.5858 12.2753 21.0525 12.3632 21.286 12.7053C21.5196 13.0474 21.4317 13.514 21.0896 13.7476L20.9545 13.8399C18.5508 15.4813 16.551 17.647 15.106 20.1737C14.99 20.3765 14.7861 20.5137 14.5545 20.5448C14.323 20.5758 14.0902 20.4971 13.9249 20.332L10.8033 17.2137C10.5102 16.921 10.51 16.4461 10.8027 16.1531C11.0955 15.86 11.5703 15.8598 11.8634 16.1525L14.3077 18.5942C15.8135 16.227 17.7862 14.187 20.1087 12.6011L20.2437 12.5089Z" fill="white"/>
</svg>
