<svg width="32" height="32" viewBox="0 0 32 32" fill="none" xmlns="http://www.w3.org/2000/svg">
<path fill-rule="evenodd" clip-rule="evenodd" d="M13.3333 4.75C8.59289 4.75 4.75 8.59289 4.75 13.3333C4.75 18.0738 8.59289 21.9167 13.3333 21.9167C15.7038 21.9167 17.8486 20.9568 19.4027 19.4027C20.9568 17.8486 21.9167 15.7038 21.9167 13.3333C21.9167 8.59289 18.0738 4.75 13.3333 4.75ZM3.25 13.3333C3.25 7.76446 7.76446 3.25 13.3333 3.25C18.9022 3.25 23.4167 7.76446 23.4167 13.3333C23.4167 15.8475 22.4957 18.1478 20.974 19.9134L28.5303 27.4697C28.8232 27.7626 28.8232 28.2374 28.5303 28.5303C28.2374 28.8232 27.7626 28.8232 27.4697 28.5303L19.9134 20.974C18.1478 22.4957 15.8475 23.4167 13.3333 23.4167C7.76446 23.4167 3.25 18.9022 3.25 13.3333Z" fill="white"/>
</svg>
