<svg width="32" height="32" viewBox="0 0 32 32" fill="none" xmlns="http://www.w3.org/2000/svg">
<path fill-rule="evenodd" clip-rule="evenodd" d="M9.91667 9.33333C9.91667 5.9736 12.6403 3.25 16 3.25C19.3597 3.25 22.0833 5.9736 22.0833 9.33333V12C22.0833 12.4142 21.7475 12.75 21.3333 12.75C20.9191 12.75 20.5833 12.4142 20.5833 12V9.33333C20.5833 6.80203 18.5313 4.75 16 4.75C13.4687 4.75 11.4167 6.80203 11.4167 9.33333V12C11.4167 12.4142 11.0809 12.75 10.6667 12.75C10.2525 12.75 9.91667 12.4142 9.91667 12V9.33333ZM5.91666 17.3333C5.91666 16.9191 6.25245 16.5833 6.66666 16.5833H17.3333C17.7475 16.5833 18.0833 16.9191 18.0833 17.3333C18.0833 17.7475 17.7475 18.0833 17.3333 18.0833H6.66666C6.25245 18.0833 5.91666 17.7475 5.91666 17.3333ZM20.5833 17.3333C20.5833 16.9191 20.9191 16.5833 21.3333 16.5833H25.3333C25.7475 16.5833 26.0833 16.9191 26.0833 17.3333C26.0833 17.7475 25.7475 18.0833 25.3333 18.0833H21.3333C20.9191 18.0833 20.5833 17.7475 20.5833 17.3333ZM5.91666 22.6667C5.91666 22.2525 6.25245 21.9167 6.66666 21.9167H14.6667C15.0809 21.9167 15.4167 22.2525 15.4167 22.6667C15.4167 23.0809 15.0809 23.4167 14.6667 23.4167H6.66666C6.25245 23.4167 5.91666 23.0809 5.91666 22.6667ZM17.9167 22.6667C17.9167 22.2525 18.2525 21.9167 18.6667 21.9167H25.3333C25.7475 21.9167 26.0833 22.2525 26.0833 22.6667C26.0833 23.0809 25.7475 23.4167 25.3333 23.4167H18.6667C18.2525 23.4167 17.9167 23.0809 17.9167 22.6667ZM5.91666 28C5.91666 27.5858 6.25245 27.25 6.66666 27.25H12C12.4142 27.25 12.75 27.5858 12.75 28C12.75 28.4142 12.4142 28.75 12 28.75H6.66666C6.25245 28.75 5.91666 28.4142 5.91666 28ZM15.25 28C15.25 27.5858 15.5858 27.25 16 27.25H25.3333C25.7475 27.25 26.0833 27.5858 26.0833 28C26.0833 28.4142 25.7475 28.75 25.3333 28.75H16C15.5858 28.75 15.25 28.4142 15.25 28Z" fill="white"/>
</svg>
