<svg width="32" height="32" viewBox="0 0 32 32" fill="none" xmlns="http://www.w3.org/2000/svg">
<path fill-rule="evenodd" clip-rule="evenodd" d="M28.5833 4.26791C28.5833 3.38687 27.6963 2.78231 26.8763 3.10447L12.6325 8.70023C11.899 8.98838 11.4167 9.69612 11.4167 10.4842V14.8996L28.5833 8.15557V4.26791ZM28.5833 9.76717L11.4167 16.5112V25.3334C11.4167 27.9567 9.29002 30.0834 6.66667 30.0834C4.04332 30.0834 1.91667 27.9567 1.91667 25.3334C1.91667 22.71 4.04332 20.5834 6.66667 20.5834C7.92388 20.5834 9.06702 21.0718 9.91667 21.8693V10.4842C9.91667 9.07939 10.7765 7.81777 12.084 7.30411L26.3278 1.70834C28.1318 0.999604 30.0833 2.32962 30.0833 4.26791V21.3334C30.0833 23.9567 27.9567 26.0834 25.3333 26.0834C22.71 26.0834 20.5833 23.9567 20.5833 21.3334C20.5833 18.71 22.71 16.5834 25.3333 16.5834C26.5905 16.5834 27.7337 17.0718 28.5833 17.8693V9.76717ZM28.5833 21.3334C28.5833 19.5385 27.1283 18.0834 25.3333 18.0834C23.5384 18.0834 22.0833 19.5385 22.0833 21.3334C22.0833 23.1283 23.5384 24.5834 25.3333 24.5834C27.1283 24.5834 28.5833 23.1283 28.5833 21.3334ZM9.91667 25.3334C9.91667 23.5385 8.4616 22.0834 6.66667 22.0834C4.87175 22.0834 3.41667 23.5385 3.41667 25.3334C3.41667 27.1283 4.87175 28.5834 6.66667 28.5834C8.4616 28.5834 9.91667 27.1283 9.91667 25.3334Z" fill="white"/>
</svg>
