<svg width="32" height="32" viewBox="0 0 32 32" fill="none" xmlns="http://www.w3.org/2000/svg">
<path fill-rule="evenodd" clip-rule="evenodd" d="M16 4.75024C9.78681 4.75024 4.75002 9.78704 4.75002 16.0002C4.75002 22.2134 9.78681 27.2502 16 27.2502C22.2132 27.2502 27.25 22.2134 27.25 16.0002C27.25 9.78704 22.2132 4.75024 16 4.75024ZM3.25002 16.0002C3.25002 8.95861 8.95838 3.25024 16 3.25024C23.0416 3.25024 28.75 8.95861 28.75 16.0002C28.75 23.0419 23.0416 28.7502 16 28.7502C8.95838 28.7502 3.25002 23.0419 3.25002 16.0002ZM17.9703 12.5181L18.2495 12.6976C18.9198 13.1285 19.4663 13.4798 19.8719 13.7961C20.284 14.1175 20.6395 14.4681 20.8347 14.9299C21.1238 15.6142 21.1238 16.3863 20.8347 17.0706C20.6395 17.5324 20.284 17.883 19.8719 18.2044C19.4663 18.5207 18.9198 18.872 18.2495 19.3029L17.9703 19.4824C17.1948 19.9809 16.5688 20.3834 16.0537 20.6515C15.5373 20.9203 15.0165 21.1189 14.4708 21.0799C13.6751 21.0231 12.9433 20.6236 12.4653 19.985C12.1374 19.547 12.0228 19.0015 11.9697 18.4218C11.9167 17.8435 11.9167 17.0993 11.9167 16.1774V15.8231C11.9167 14.9012 11.9167 14.157 11.9697 13.5787C12.0228 12.9989 12.1374 12.4535 12.4653 12.0155C12.9433 11.3769 13.6751 10.9774 14.4708 10.9206C15.0165 10.8816 15.5373 11.0802 16.0537 11.349C16.5688 11.6171 17.1948 12.0196 17.9703 12.5181ZM15.3612 12.6796C14.9086 12.444 14.6959 12.4083 14.5776 12.4168C14.216 12.4426 13.8833 12.6242 13.666 12.9144C13.595 13.0094 13.51 13.2076 13.4634 13.7157C13.4174 14.2172 13.4167 14.8921 13.4167 15.8616V16.1389C13.4167 17.1084 13.4174 17.7833 13.4634 18.2848C13.51 18.7929 13.595 18.9911 13.666 19.0861C13.8833 19.3763 14.216 19.5579 14.5776 19.5837C14.6959 19.5922 14.9086 19.5565 15.3612 19.3209C15.8079 19.0884 16.3761 18.724 17.1915 18.1998L17.4072 18.0611C18.1162 17.6054 18.6043 17.2907 18.9494 17.0216C19.2942 16.7527 19.4074 16.5945 19.4529 16.4868C19.5844 16.1757 19.5844 15.8248 19.4529 15.5137C19.4074 15.406 19.2942 15.2478 18.9494 14.9789C18.6043 14.7098 18.1162 14.3951 17.4072 13.9394L17.1915 13.8007C16.3761 13.2765 15.8079 12.9121 15.3612 12.6796Z" fill="white"/>
</svg>
