<svg width="32" height="32" viewBox="0 0 32 32" fill="none" xmlns="http://www.w3.org/2000/svg">
<path fill-rule="evenodd" clip-rule="evenodd" d="M16 4.75C9.7868 4.75 4.75 9.7868 4.75 16C4.75 22.2132 9.7868 27.25 16 27.25C22.2132 27.25 27.25 22.2132 27.25 16C27.25 9.7868 22.2132 4.75 16 4.75ZM3.25 16C3.25 8.95837 8.95837 3.25 16 3.25C23.0416 3.25 28.75 8.95837 28.75 16C28.75 23.0416 23.0416 28.75 16 28.75C8.95837 28.75 3.25 23.0416 3.25 16ZM16 10.0833C14.4123 10.0833 13.1253 11.3704 13.1253 12.958C13.1253 13.3723 12.7895 13.708 12.3753 13.708C11.9611 13.708 11.6253 13.3723 11.6253 12.958C11.6253 10.542 13.5839 8.58333 16 8.58333C18.4161 8.58333 20.3747 10.542 20.3747 12.958C20.3747 14.4976 19.5788 15.8509 18.3795 16.6295C17.9254 16.9243 17.5023 17.2558 17.1986 17.6185C16.8978 17.9777 16.75 18.3229 16.75 18.6667C16.75 19.0809 16.4142 19.4167 16 19.4167C15.5858 19.4167 15.25 19.0809 15.25 18.6667C15.25 17.8595 15.6051 17.185 16.0486 16.6554C16.4891 16.1294 17.0516 15.7032 17.5627 15.3714C18.354 14.8577 18.8747 13.9685 18.8747 12.958C18.8747 11.3704 17.5877 10.0833 16 10.0833ZM15.25 22.6667C15.25 22.2525 15.5858 21.9167 16 21.9167H16.0013C16.4155 21.9167 16.7513 22.2525 16.7513 22.6667C16.7513 23.0809 16.4155 23.4167 16.0013 23.4167H16C15.5858 23.4167 15.25 23.0809 15.25 22.6667Z" fill="white"/>
</svg>
