<svg width="32" height="32" viewBox="0 0 32 32" fill="none" xmlns="http://www.w3.org/2000/svg">
<path fill-rule="evenodd" clip-rule="evenodd" d="M16 4.75C9.7868 4.75 4.75 9.7868 4.75 16C4.75 22.2132 9.7868 27.25 16 27.25C22.2132 27.25 27.25 22.2132 27.25 16C27.25 9.7868 22.2132 4.75 16 4.75ZM3.25 16C3.25 8.95837 8.95837 3.25 16 3.25C23.0416 3.25 28.75 8.95837 28.75 16C28.75 23.0416 23.0416 28.75 16 28.75C8.95837 28.75 3.25 23.0416 3.25 16ZM16 9.91667C16.4142 9.91667 16.75 10.2525 16.75 10.6667V17.3333C16.75 17.7475 16.4142 18.0833 16 18.0833C15.5858 18.0833 15.25 17.7475 15.25 17.3333V10.6667C15.25 10.2525 15.5858 9.91667 16 9.91667ZM16 21.0833C16.4142 21.0833 16.75 21.4191 16.75 21.8333V21.8348C16.75 22.249 16.4142 22.5848 16 22.5848C15.5858 22.5848 15.25 22.249 15.25 21.8348V21.8333C15.25 21.4191 15.5858 21.0833 16 21.0833Z" fill="white"/>
</svg>
