<svg width="32" height="32" viewBox="0 0 32 32" fill="none" xmlns="http://www.w3.org/2000/svg">
<path fill-rule="evenodd" clip-rule="evenodd" d="M28.5303 3.46967C28.8232 3.76256 28.8232 4.23744 28.5303 4.53033L4.53033 28.5303C4.23744 28.8232 3.76256 28.8232 3.46967 28.5303C3.17678 28.2374 3.17678 27.7626 3.46967 27.4697L7.79897 23.1404C6.48469 22.0989 5.42924 20.8987 4.66936 19.743C3.79413 18.412 3.25 17.0457 3.25 16C3.25 15.1507 3.60813 14.103 4.18717 13.0542C4.777 11.9858 5.63641 10.8427 6.7306 9.79229C8.91788 7.69251 12.0953 5.91667 16 5.91667C18.6948 5.91667 21.0456 6.76348 22.9611 7.9782L27.4697 3.46967C27.7626 3.17678 28.2374 3.17678 28.5303 3.46967ZM21.871 9.06834C20.2156 8.07939 18.238 7.41667 16 7.41667C12.5714 7.41667 9.74879 8.97416 7.7694 10.8744C6.78025 11.824 6.01466 12.8475 5.50033 13.7792C4.97521 14.7303 4.75 15.516 4.75 16C4.75 16.6143 5.11009 17.6831 5.92268 18.9189C6.62511 19.9872 7.62077 21.1102 8.86753 22.0718L12.1529 18.7865C11.5853 18.004 11.25 17.0407 11.25 16C11.25 13.3766 13.3766 11.25 16 11.25C17.0407 11.25 18.004 11.5853 18.7865 12.1529L21.871 9.06834ZM17.7062 13.2332C17.2102 12.9265 16.6261 12.75 16 12.75C14.2051 12.75 12.75 14.2051 12.75 16C12.75 16.6261 12.9265 17.2102 13.2332 17.7062L17.7062 13.2332ZM26.2902 12.0401C26.6363 11.8124 27.1013 11.9084 27.329 12.2545C28.2052 13.5864 28.75 14.9537 28.75 16C28.75 16.8493 28.3919 17.897 27.8128 18.9458C27.223 20.0142 26.3636 21.1573 25.2694 22.2077C23.0821 24.3075 19.9047 26.0833 16 26.0833C15.5169 26.0833 15.0443 26.0561 14.5829 26.0042C14.1713 25.958 13.8751 25.5868 13.9214 25.1752C13.9676 24.7636 14.3388 24.4674 14.7504 24.5136C15.1567 24.5593 15.5734 24.5833 16 24.5833C19.4286 24.5833 22.2512 23.0258 24.2306 21.1256C25.2197 20.176 25.9853 19.1525 26.4997 18.2208C27.0248 17.2697 27.25 16.484 27.25 16C27.25 15.3853 26.8894 14.3155 26.0759 13.0789C25.8482 12.7328 25.9442 12.2678 26.2902 12.0401ZM20.0223 16.6262C20.4129 16.7642 20.6176 17.1927 20.4795 17.5833C20.0023 18.9335 18.9335 20.0023 17.5833 20.4795C17.1927 20.6176 16.7642 20.4129 16.6262 20.0223C16.4882 19.6318 16.6929 19.2033 17.0834 19.0653C18.0063 18.7391 18.7391 18.0063 19.0653 17.0834C19.2033 16.6929 19.6318 16.4882 20.0223 16.6262Z" fill="white"/>
</svg>
