<svg width="32" height="32" viewBox="0 0 32 32" fill="none" xmlns="http://www.w3.org/2000/svg">
<path fill-rule="evenodd" clip-rule="evenodd" d="M18.4945 3.25001C18.5513 3.25002 18.6087 3.25002 18.6667 3.25002C18.7246 3.25002 18.782 3.25002 18.8388 3.25001C21.1563 3.2498 22.5069 3.24967 23.6252 3.61302C25.8831 4.34666 27.6534 6.1169 28.387 8.37481C28.7503 9.49307 28.7502 10.8437 28.75 13.1612C28.75 13.218 28.75 13.2754 28.75 13.3334C28.75 13.3913 28.75 13.4487 28.75 13.5055C28.7502 15.823 28.7503 17.1736 28.387 18.2919C27.6534 20.5498 25.8831 22.32 23.6252 23.0537C23.4791 23.1012 23.3305 23.1422 23.1777 23.1777C23.1421 23.3305 23.1011 23.4792 23.0537 23.6252C22.32 25.8831 20.5498 27.6534 18.2919 28.387C17.1736 28.7504 15.823 28.7502 13.5055 28.75C13.4487 28.75 13.3913 28.75 13.3333 28.75C13.2754 28.75 13.218 28.75 13.1612 28.75C10.8436 28.7502 9.49304 28.7504 8.37478 28.387C6.11687 27.6534 4.34663 25.8831 3.61299 23.6252C3.24964 22.507 3.24977 21.1564 3.24998 18.8388C3.24998 18.782 3.24999 18.7247 3.24999 18.6667C3.24999 18.6087 3.24998 18.5513 3.24998 18.4946C3.24977 16.177 3.24964 14.8264 3.61299 13.7081C4.34663 11.4502 6.11687 9.67999 8.37478 8.94635C8.52085 8.89889 8.66951 8.85787 8.82233 8.82236C8.85784 8.66954 8.89886 8.52088 8.94632 8.37481C9.67996 6.1169 11.4502 4.34666 13.7081 3.61302C14.8264 3.24967 16.177 3.2498 18.4945 3.25001ZM10.448 8.62157C11.2019 8.58332 12.1113 8.58334 13.2579 8.58335L13.3333 8.58335C13.3913 8.58335 13.4487 8.58335 13.5054 8.58334C15.823 8.58313 17.1736 8.58301 18.2919 8.94635C20.5498 9.67999 22.32 11.4502 23.0537 13.7081C23.417 14.8264 23.4169 16.177 23.4167 18.4946C23.4167 18.5514 23.4167 18.6087 23.4167 18.6667V18.7421C23.4167 19.8887 23.4167 20.7981 23.3784 21.552C25.0759 20.9269 26.3988 19.5567 26.9604 17.8284C27.2407 16.9656 27.25 15.8734 27.25 13.3334C27.25 10.7933 27.2407 9.7011 26.9604 8.83834C26.3751 7.03708 24.9629 5.62487 23.1617 5.0396C22.2989 4.75927 21.2067 4.75002 18.6667 4.75002C16.1266 4.75002 15.0344 4.75927 14.1716 5.0396C12.4433 5.60118 11.0731 6.92412 10.448 8.62157ZM17.8283 10.3729C16.9656 10.0926 15.8734 10.0834 13.3333 10.0834C11.4767 10.0834 10.3892 10.0854 9.5742 10.2062C9.2938 10.2477 9.05557 10.3023 8.83831 10.3729C7.03705 10.9582 5.62484 12.3704 5.03957 14.1717C4.75924 15.0344 4.74999 16.1266 4.74999 18.6667C4.74999 21.2068 4.75924 22.2989 5.03957 23.1617C5.62484 24.963 7.03705 26.3752 8.83831 26.9604C9.70107 27.2408 10.7932 27.25 13.3333 27.25C15.8734 27.25 16.9656 27.2408 17.8283 26.9604C19.6296 26.3752 21.0418 24.963 21.6271 23.1617C21.6977 22.9444 21.7523 22.7062 21.7938 22.4258C21.9146 21.6109 21.9167 20.5233 21.9167 18.6667C21.9167 16.1266 21.9074 15.0344 21.6271 14.1717C21.0418 12.3704 19.6296 10.9582 17.8283 10.3729Z" fill="white"/>
</svg>
