<svg width="32" height="32" viewBox="0 0 32 32" fill="none" xmlns="http://www.w3.org/2000/svg">
<path fill-rule="evenodd" clip-rule="evenodd" d="M7.46967 7.46967C7.76256 7.17678 8.23744 7.17678 8.53033 7.46967L16 14.9393L23.4697 7.46967C23.7626 7.17678 24.2374 7.17678 24.5303 7.46967C24.8232 7.76256 24.8232 8.23744 24.5303 8.53033L17.0607 16L24.5303 23.4697C24.8232 23.7626 24.8232 24.2374 24.5303 24.5303C24.2374 24.8232 23.7626 24.8232 23.4697 24.5303L16 17.0607L8.53033 24.5303C8.23744 24.8232 7.76256 24.8232 7.46967 24.5303C7.17678 24.2374 7.17678 23.7626 7.46967 23.4697L14.9393 16L7.46967 8.53033C7.17678 8.23744 7.17678 7.76256 7.46967 7.46967Z" fill="white"/>
</svg>
