<svg width="32" height="32" viewBox="0 0 32 32" fill="none" xmlns="http://www.w3.org/2000/svg">
<path fill-rule="evenodd" clip-rule="evenodd" d="M5.50033 13.7791C4.97521 14.7303 4.75 15.5159 4.75 16C4.75 16.484 4.97521 17.2696 5.50033 18.2208C6.01466 19.1524 6.78025 20.176 7.7694 21.1256C9.74879 23.0258 12.5714 24.5833 16 24.5833C19.4286 24.5833 22.2512 23.0258 24.2306 21.1256C25.2197 20.176 25.9853 19.1524 26.4997 18.2208C27.0248 17.2696 27.25 16.484 27.25 16C27.25 15.5159 27.0248 14.7303 26.4997 13.7791C25.9853 12.8475 25.2197 11.8239 24.2306 10.8743C22.2512 8.97412 19.4286 7.41663 16 7.41663C12.5714 7.41663 9.74879 8.97412 7.7694 10.8743C6.78025 11.8239 6.01466 12.8475 5.50033 13.7791ZM6.7306 9.79225C8.91788 7.69246 12.0953 5.91663 16 5.91663C19.9047 5.91663 23.0821 7.69246 25.2694 9.79225C26.3636 10.8427 27.223 11.9858 27.8128 13.0541C28.3919 14.103 28.75 15.1506 28.75 16C28.75 16.8493 28.3919 17.897 27.8128 18.9458C27.223 20.0142 26.3636 21.1572 25.2694 22.2077C23.0821 24.3075 19.9047 26.0833 16 26.0833C12.0953 26.0833 8.91788 24.3075 6.7306 22.2077C5.63641 21.1572 4.777 20.0142 4.18717 18.9458C3.60813 17.897 3.25 16.8493 3.25 16C3.25 15.1506 3.60813 14.103 4.18717 13.0541C4.777 11.9858 5.63641 10.8427 6.7306 9.79225ZM16 12.75C14.2051 12.75 12.75 14.205 12.75 16C12.75 17.7949 14.2051 19.25 16 19.25C17.7949 19.25 19.25 17.7949 19.25 16C19.25 14.205 17.7949 12.75 16 12.75ZM11.25 16C11.25 13.3766 13.3766 11.25 16 11.25C18.6234 11.25 20.75 13.3766 20.75 16C20.75 18.6233 18.6234 20.75 16 20.75C13.3766 20.75 11.25 18.6233 11.25 16Z" fill="white"/>
</svg>
