<svg width="150" height="150" viewBox="0 0 150 150" fill="none" xmlns="http://www.w3.org/2000/svg">
<g filter="url(#filter0_d_157_613)">
<mask id="path-1-outside-1_157_613" maskUnits="userSpaceOnUse" x="27" y="41.8865" width="103" height="81" fill="black">
<rect fill="white" x="27" y="41.8865" width="103" height="81"/>
<path d="M75.5999 44.9977C75.9868 45.2446 76.3577 45.5364 76.7205 45.8394C80.1144 48.6562 83.5245 51.4506 86.9427 54.2113C91.0783 57.5557 95.1898 60.9336 99.3335 64.2443C105.944 69.5301 112.506 74.9393 119.101 80.27C121.382 82.1217 123.672 83.951 125.961 85.7915C126.05 85.8588 126.195 85.9037 126.195 86.0271C126.203 86.2067 126.042 86.2291 125.945 86.3077C123.382 88.3053 120.818 90.3029 118.262 92.3005C117.916 92.5699 117.569 92.8504 117.23 93.1422C116.94 93.4003 116.634 93.4452 116.303 93.3442C115.199 93.0075 114.086 92.6709 112.982 92.3454C111.813 92.0087 110.636 91.6833 109.459 91.3578C109.056 91.2456 108.661 91.3242 108.298 91.5935C108.072 91.7618 107.863 91.9751 107.661 92.1995C107.427 92.4576 107.331 92.7831 107.371 93.1871C107.403 93.4901 107.444 93.7931 107.476 94.0849C107.637 95.4989 107.516 96.8681 107.186 98.226C106.96 99.1687 106.637 100.044 106.259 100.886C105.38 102.861 104.259 104.533 102.977 106.003C101.994 107.114 100.954 108.102 99.8575 109C99.7769 109.067 99.6963 109.123 99.6318 109.202C99.1239 109.763 98.5596 110.189 97.9872 110.604C96.7054 111.525 95.4236 112.434 94.0934 113.219C91.8361 114.544 89.5063 115.587 87.1362 116.44C85.6367 116.979 84.1292 117.45 82.6055 117.82C81.6059 118.067 80.5981 118.258 79.5824 118.415C78.1958 118.629 76.8091 118.752 75.4145 118.853C74.3584 118.932 73.3023 118.976 72.2462 118.988C71.3352 118.999 70.4162 118.932 69.5052 118.875C68.8764 118.842 68.2396 118.774 67.6107 118.707C66.8691 118.629 66.1193 118.527 65.3777 118.415C64.7247 118.314 64.0717 118.202 63.4187 118.079C62.3303 117.888 61.2581 117.618 60.1779 117.327C58.1786 116.777 56.2115 116.092 54.2525 115.307C51.6889 114.274 49.2059 112.927 46.7954 111.345C45.5298 110.515 44.256 109.684 43.0468 108.685C40.9023 106.923 38.8466 104.982 36.936 102.737C36.3475 102.042 35.7832 101.301 35.2511 100.515C34.4127 99.2472 33.5662 97.9791 32.8487 96.5763C31.841 94.5899 31.0187 92.4576 30.4866 90.1346C30.1158 88.5185 29.9546 86.8464 30.011 85.1406C30.0835 83.0644 30.4705 81.1117 31.1074 79.2375C31.841 77.0716 32.8245 75.1525 34.058 73.4804C35.4768 71.5613 37.0005 69.8218 38.6693 68.3293C39.2796 67.7761 39.9188 67.2917 40.5633 66.8229L41.3377 66.2643C43.1919 64.9401 45.0864 63.728 47.0534 62.7292C48.8673 61.809 50.7296 61.102 52.616 60.5184C53.9381 60.1144 55.2763 59.845 56.6227 59.643C57.2918 59.542 57.9528 59.441 58.622 59.3176C59.1218 59.2278 59.6216 59.2166 60.1295 59.2166C61.2662 59.2166 62.4029 59.239 63.5315 59.2502C64.1281 59.2615 64.7166 59.3064 65.3051 59.4186C65.6598 59.4859 65.9984 59.4074 66.3289 59.2166C66.6353 59.0258 66.9174 58.7677 67.1835 58.4759C67.377 58.2739 67.4414 57.9933 67.4092 57.6679C67.385 57.4322 67.3125 57.219 67.2238 57.017C66.9255 56.3212 66.6272 55.6254 66.337 54.9296C65.9903 54.0879 65.6437 53.2462 65.297 52.4045C65.2406 52.2586 65.2003 52.1127 65.1439 51.9781C65.2245 51.8097 65.3535 51.7536 65.4663 51.6751C67.0787 50.463 68.7071 49.3183 70.3437 48.1961C71.5932 47.3432 72.8267 46.4454 74.0682 45.5812C74.3664 45.368 74.6728 45.1885 74.9711 44.9865C75.1887 44.8406 75.3903 44.863 75.5999 44.9977ZM68.7763 74.2702C68.6164 74.2702 68.4645 74.2702 68.3126 74.2923C67.633 74.3808 66.9614 74.4361 66.2898 74.5798C65.7781 74.6904 65.2504 74.7457 64.7387 74.8895C63.6114 75.1991 62.4921 75.5529 61.3967 76.0505C59.6778 76.8467 58.0467 77.8861 56.5596 79.3236C55.7681 80.0755 55.0405 80.938 54.4329 81.9774C53.8013 83.0611 53.2976 84.2332 53.0497 85.6044C52.9218 86.301 52.8179 86.9866 52.8659 87.7053C52.9458 88.9327 53.2016 90.0938 53.5854 91.1995C53.6974 91.5202 53.8333 91.8188 53.9852 92.1063C54.1931 92.4933 54.4249 92.8361 54.6408 93.212C55.0965 93.9861 55.6162 94.6606 56.1759 95.2798C57.4311 96.651 58.7663 97.801 60.2374 98.6635C60.4693 98.7962 60.7171 98.9067 60.941 99.0615C61.3328 99.338 61.7325 99.5481 62.1483 99.7361C63.8193 100.488 65.5143 101.03 67.2572 101.35C68.4885 101.572 69.7197 101.66 70.8471 101.704C72.0384 101.704 73.4455 101.55 74.7248 101.339C75.948 101.14 77.1473 100.809 78.3306 100.366C78.9862 100.123 79.6098 99.7692 80.2494 99.4596C81.8245 98.6856 83.2956 97.6572 84.6308 96.2529C84.9586 95.9101 85.2704 95.5563 85.5663 95.1582C85.7821 94.8707 85.982 94.5832 86.2219 94.3399C86.3018 94.2515 86.3818 94.1409 86.4137 94.0192C86.4857 93.7428 86.6296 93.5548 86.7575 93.3337C86.8615 93.1567 86.9574 92.9577 87.0454 92.7697C87.3892 92.0289 87.613 91.2327 87.8049 90.4034C88.1247 89.0322 88.1407 87.65 87.8929 86.2678C87.5491 84.388 86.8375 82.7957 85.8301 81.4577C84.5988 79.8322 83.1917 78.5606 81.6566 77.5544C80.2494 76.6255 78.7783 75.9178 77.2592 75.4202C76.2998 75.1106 75.3404 74.8121 74.365 74.6462C73.7653 74.5467 73.1737 74.4472 72.574 74.3587C72.2942 74.3255 72.0144 74.2813 71.7345 74.2813C70.7431 74.2702 69.7597 74.2702 68.7763 74.2702Z"/>
</mask>
<path d="M75.5999 44.9977C75.9868 45.2446 76.3577 45.5364 76.7205 45.8394C80.1144 48.6562 83.5245 51.4506 86.9427 54.2113C91.0783 57.5557 95.1898 60.9336 99.3335 64.2443C105.944 69.5301 112.506 74.9393 119.101 80.27C121.382 82.1217 123.672 83.951 125.961 85.7915C126.05 85.8588 126.195 85.9037 126.195 86.0271C126.203 86.2067 126.042 86.2291 125.945 86.3077C123.382 88.3053 120.818 90.3029 118.262 92.3005C117.916 92.5699 117.569 92.8504 117.23 93.1422C116.94 93.4003 116.634 93.4452 116.303 93.3442C115.199 93.0075 114.086 92.6709 112.982 92.3454C111.813 92.0087 110.636 91.6833 109.459 91.3578C109.056 91.2456 108.661 91.3242 108.298 91.5935C108.072 91.7618 107.863 91.9751 107.661 92.1995C107.427 92.4576 107.331 92.7831 107.371 93.1871C107.403 93.4901 107.444 93.7931 107.476 94.0849C107.637 95.4989 107.516 96.8681 107.186 98.226C106.96 99.1687 106.637 100.044 106.259 100.886C105.38 102.861 104.259 104.533 102.977 106.003C101.994 107.114 100.954 108.102 99.8575 109C99.7769 109.067 99.6963 109.123 99.6318 109.202C99.1239 109.763 98.5596 110.189 97.9872 110.604C96.7054 111.525 95.4236 112.434 94.0934 113.219C91.8361 114.544 89.5063 115.587 87.1362 116.44C85.6367 116.979 84.1292 117.45 82.6055 117.82C81.6059 118.067 80.5981 118.258 79.5824 118.415C78.1958 118.629 76.8091 118.752 75.4145 118.853C74.3584 118.932 73.3023 118.976 72.2462 118.988C71.3352 118.999 70.4162 118.932 69.5052 118.875C68.8764 118.842 68.2396 118.774 67.6107 118.707C66.8691 118.629 66.1193 118.527 65.3777 118.415C64.7247 118.314 64.0717 118.202 63.4187 118.079C62.3303 117.888 61.2581 117.618 60.1779 117.327C58.1786 116.777 56.2115 116.092 54.2525 115.307C51.6889 114.274 49.2059 112.927 46.7954 111.345C45.5298 110.515 44.256 109.684 43.0468 108.685C40.9023 106.923 38.8466 104.982 36.936 102.737C36.3475 102.042 35.7832 101.301 35.2511 100.515C34.4127 99.2472 33.5662 97.9791 32.8487 96.5763C31.841 94.5899 31.0187 92.4576 30.4866 90.1346C30.1158 88.5185 29.9546 86.8464 30.011 85.1406C30.0835 83.0644 30.4705 81.1117 31.1074 79.2375C31.841 77.0716 32.8245 75.1525 34.058 73.4804C35.4768 71.5613 37.0005 69.8218 38.6693 68.3293C39.2796 67.7761 39.9188 67.2917 40.5633 66.8229L41.3377 66.2643C43.1919 64.9401 45.0864 63.728 47.0534 62.7292C48.8673 61.809 50.7296 61.102 52.616 60.5184C53.9381 60.1144 55.2763 59.845 56.6227 59.643C57.2918 59.542 57.9528 59.441 58.622 59.3176C59.1218 59.2278 59.6216 59.2166 60.1295 59.2166C61.2662 59.2166 62.4029 59.239 63.5315 59.2502C64.1281 59.2615 64.7166 59.3064 65.3051 59.4186C65.6598 59.4859 65.9984 59.4074 66.3289 59.2166C66.6353 59.0258 66.9174 58.7677 67.1835 58.4759C67.377 58.2739 67.4414 57.9933 67.4092 57.6679C67.385 57.4322 67.3125 57.219 67.2238 57.017C66.9255 56.3212 66.6272 55.6254 66.337 54.9296C65.9903 54.0879 65.6437 53.2462 65.297 52.4045C65.2406 52.2586 65.2003 52.1127 65.1439 51.9781C65.2245 51.8097 65.3535 51.7536 65.4663 51.6751C67.0787 50.463 68.7071 49.3183 70.3437 48.1961C71.5932 47.3432 72.8267 46.4454 74.0682 45.5812C74.3664 45.368 74.6728 45.1885 74.9711 44.9865C75.1887 44.8406 75.3903 44.863 75.5999 44.9977ZM68.7763 74.2702C68.6164 74.2702 68.4645 74.2702 68.3126 74.2923C67.633 74.3808 66.9614 74.4361 66.2898 74.5798C65.7781 74.6904 65.2504 74.7457 64.7387 74.8895C63.6114 75.1991 62.4921 75.5529 61.3967 76.0505C59.6778 76.8467 58.0467 77.8861 56.5596 79.3236C55.7681 80.0755 55.0405 80.938 54.4329 81.9774C53.8013 83.0611 53.2976 84.2332 53.0497 85.6044C52.9218 86.301 52.8179 86.9866 52.8659 87.7053C52.9458 88.9327 53.2016 90.0938 53.5854 91.1995C53.6974 91.5202 53.8333 91.8188 53.9852 92.1063C54.1931 92.4933 54.4249 92.8361 54.6408 93.212C55.0965 93.9861 55.6162 94.6606 56.1759 95.2798C57.4311 96.651 58.7663 97.801 60.2374 98.6635C60.4693 98.7962 60.7171 98.9067 60.941 99.0615C61.3328 99.338 61.7325 99.5481 62.1483 99.7361C63.8193 100.488 65.5143 101.03 67.2572 101.35C68.4885 101.572 69.7197 101.66 70.8471 101.704C72.0384 101.704 73.4455 101.55 74.7248 101.339C75.948 101.14 77.1473 100.809 78.3306 100.366C78.9862 100.123 79.6098 99.7692 80.2494 99.4596C81.8245 98.6856 83.2956 97.6572 84.6308 96.2529C84.9586 95.9101 85.2704 95.5563 85.5663 95.1582C85.7821 94.8707 85.982 94.5832 86.2219 94.3399C86.3018 94.2515 86.3818 94.1409 86.4137 94.0192C86.4857 93.7428 86.6296 93.5548 86.7575 93.3337C86.8615 93.1567 86.9574 92.9577 87.0454 92.7697C87.3892 92.0289 87.613 91.2327 87.8049 90.4034C88.1247 89.0322 88.1407 87.65 87.8929 86.2678C87.5491 84.388 86.8375 82.7957 85.8301 81.4577C84.5988 79.8322 83.1917 78.5606 81.6566 77.5544C80.2494 76.6255 78.7783 75.9178 77.2592 75.4202C76.2998 75.1106 75.3404 74.8121 74.365 74.6462C73.7653 74.5467 73.1737 74.4472 72.574 74.3587C72.2942 74.3255 72.0144 74.2813 71.7345 74.2813C70.7431 74.2702 69.7597 74.2702 68.7763 74.2702Z" fill="#121212"/>
<path d="M75.5999 44.9977C75.9868 45.2446 76.3577 45.5364 76.7205 45.8394C80.1144 48.6562 83.5245 51.4506 86.9427 54.2113C91.0783 57.5557 95.1898 60.9336 99.3335 64.2443C105.944 69.5301 112.506 74.9393 119.101 80.27C121.382 82.1217 123.672 83.951 125.961 85.7915C126.05 85.8588 126.195 85.9037 126.195 86.0271C126.203 86.2067 126.042 86.2291 125.945 86.3077C123.382 88.3053 120.818 90.3029 118.262 92.3005C117.916 92.5699 117.569 92.8504 117.23 93.1422C116.94 93.4003 116.634 93.4452 116.303 93.3442C115.199 93.0075 114.086 92.6709 112.982 92.3454C111.813 92.0087 110.636 91.6833 109.459 91.3578C109.056 91.2456 108.661 91.3242 108.298 91.5935C108.072 91.7618 107.863 91.9751 107.661 92.1995C107.427 92.4576 107.331 92.7831 107.371 93.1871C107.403 93.4901 107.444 93.7931 107.476 94.0849C107.637 95.4989 107.516 96.8681 107.186 98.226C106.96 99.1687 106.637 100.044 106.259 100.886C105.38 102.861 104.259 104.533 102.977 106.003C101.994 107.114 100.954 108.102 99.8575 109C99.7769 109.067 99.6963 109.123 99.6318 109.202C99.1239 109.763 98.5596 110.189 97.9872 110.604C96.7054 111.525 95.4236 112.434 94.0934 113.219C91.8361 114.544 89.5063 115.587 87.1362 116.44C85.6367 116.979 84.1292 117.45 82.6055 117.82C81.6059 118.067 80.5981 118.258 79.5824 118.415C78.1958 118.629 76.8091 118.752 75.4145 118.853C74.3584 118.932 73.3023 118.976 72.2462 118.988C71.3352 118.999 70.4162 118.932 69.5052 118.875C68.8764 118.842 68.2396 118.774 67.6107 118.707C66.8691 118.629 66.1193 118.527 65.3777 118.415C64.7247 118.314 64.0717 118.202 63.4187 118.079C62.3303 117.888 61.2581 117.618 60.1779 117.327C58.1786 116.777 56.2115 116.092 54.2525 115.307C51.6889 114.274 49.2059 112.927 46.7954 111.345C45.5298 110.515 44.256 109.684 43.0468 108.685C40.9023 106.923 38.8466 104.982 36.936 102.737C36.3475 102.042 35.7832 101.301 35.2511 100.515C34.4127 99.2472 33.5662 97.9791 32.8487 96.5763C31.841 94.5899 31.0187 92.4576 30.4866 90.1346C30.1158 88.5185 29.9546 86.8464 30.011 85.1406C30.0835 83.0644 30.4705 81.1117 31.1074 79.2375C31.841 77.0716 32.8245 75.1525 34.058 73.4804C35.4768 71.5613 37.0005 69.8218 38.6693 68.3293C39.2796 67.7761 39.9188 67.2917 40.5633 66.8229L41.3377 66.2643C43.1919 64.9401 45.0864 63.728 47.0534 62.7292C48.8673 61.809 50.7296 61.102 52.616 60.5184C53.9381 60.1144 55.2763 59.845 56.6227 59.643C57.2918 59.542 57.9528 59.441 58.622 59.3176C59.1218 59.2278 59.6216 59.2166 60.1295 59.2166C61.2662 59.2166 62.4029 59.239 63.5315 59.2502C64.1281 59.2615 64.7166 59.3064 65.3051 59.4186C65.6598 59.4859 65.9984 59.4074 66.3289 59.2166C66.6353 59.0258 66.9174 58.7677 67.1835 58.4759C67.377 58.2739 67.4414 57.9933 67.4092 57.6679C67.385 57.4322 67.3125 57.219 67.2238 57.017C66.9255 56.3212 66.6272 55.6254 66.337 54.9296C65.9903 54.0879 65.6437 53.2462 65.297 52.4045C65.2406 52.2586 65.2003 52.1127 65.1439 51.9781C65.2245 51.8097 65.3535 51.7536 65.4663 51.6751C67.0787 50.463 68.7071 49.3183 70.3437 48.1961C71.5932 47.3432 72.8267 46.4454 74.0682 45.5812C74.3664 45.368 74.6728 45.1885 74.9711 44.9865C75.1887 44.8406 75.3903 44.863 75.5999 44.9977ZM68.7763 74.2702C68.6164 74.2702 68.4645 74.2702 68.3126 74.2923C67.633 74.3808 66.9614 74.4361 66.2898 74.5798C65.7781 74.6904 65.2504 74.7457 64.7387 74.8895C63.6114 75.1991 62.4921 75.5529 61.3967 76.0505C59.6778 76.8467 58.0467 77.8861 56.5596 79.3236C55.7681 80.0755 55.0405 80.938 54.4329 81.9774C53.8013 83.0611 53.2976 84.2332 53.0497 85.6044C52.9218 86.301 52.8179 86.9866 52.8659 87.7053C52.9458 88.9327 53.2016 90.0938 53.5854 91.1995C53.6974 91.5202 53.8333 91.8188 53.9852 92.1063C54.1931 92.4933 54.4249 92.8361 54.6408 93.212C55.0965 93.9861 55.6162 94.6606 56.1759 95.2798C57.4311 96.651 58.7663 97.801 60.2374 98.6635C60.4693 98.7962 60.7171 98.9067 60.941 99.0615C61.3328 99.338 61.7325 99.5481 62.1483 99.7361C63.8193 100.488 65.5143 101.03 67.2572 101.35C68.4885 101.572 69.7197 101.66 70.8471 101.704C72.0384 101.704 73.4455 101.55 74.7248 101.339C75.948 101.14 77.1473 100.809 78.3306 100.366C78.9862 100.123 79.6098 99.7692 80.2494 99.4596C81.8245 98.6856 83.2956 97.6572 84.6308 96.2529C84.9586 95.9101 85.2704 95.5563 85.5663 95.1582C85.7821 94.8707 85.982 94.5832 86.2219 94.3399C86.3018 94.2515 86.3818 94.1409 86.4137 94.0192C86.4857 93.7428 86.6296 93.5548 86.7575 93.3337C86.8615 93.1567 86.9574 92.9577 87.0454 92.7697C87.3892 92.0289 87.613 91.2327 87.8049 90.4034C88.1247 89.0322 88.1407 87.65 87.8929 86.2678C87.5491 84.388 86.8375 82.7957 85.8301 81.4577C84.5988 79.8322 83.1917 78.5606 81.6566 77.5544C80.2494 76.6255 78.7783 75.9178 77.2592 75.4202C76.2998 75.1106 75.3404 74.8121 74.365 74.6462C73.7653 74.5467 73.1737 74.4472 72.574 74.3587C72.2942 74.3255 72.0144 74.2813 71.7345 74.2813C70.7431 74.2702 69.7597 74.2702 68.7763 74.2702Z" stroke="#FAFAFA" stroke-width="6" stroke-linejoin="bevel" mask="url(#path-1-outside-1_157_613)"/>
</g>
<g filter="url(#filter1_d_157_613)">
<mask id="path-2-outside-2_157_613" maskUnits="userSpaceOnUse" x="27" y="34.9431" width="103" height="81" fill="black">
<rect fill="white" x="27" y="34.9431" width="103" height="81"/>
<path d="M75.5999 38.0543C75.9869 38.3012 76.3577 38.593 76.7205 38.896C80.1144 41.7129 83.5245 44.5073 86.9427 47.268C91.0783 50.6123 95.1898 53.9903 99.3335 57.3009C105.944 62.5867 112.506 67.9959 119.101 73.3266C121.382 75.1783 123.672 77.0076 125.961 78.8481C126.05 78.9154 126.195 78.9603 126.195 79.0838C126.203 79.2633 126.042 79.2858 125.945 79.3643C123.382 81.3619 120.818 83.3596 118.262 85.3572C117.916 85.6265 117.569 85.9071 117.23 86.1988C116.94 86.457 116.634 86.5019 116.303 86.4008C115.199 86.0642 114.086 85.7275 112.982 85.402C111.813 85.0654 110.636 84.7399 109.459 84.4145C109.056 84.3022 108.661 84.3808 108.298 84.6501C108.072 84.8185 107.863 85.0317 107.661 85.2562C107.427 85.5143 107.331 85.8397 107.371 86.2437C107.403 86.5467 107.444 86.8497 107.476 87.1415C107.637 88.5556 107.516 89.9247 107.186 91.2826C106.96 92.2253 106.637 93.1007 106.259 93.9424C105.38 95.9175 104.259 97.5897 102.977 99.0598C101.994 100.171 100.954 101.158 99.8575 102.056C99.7769 102.124 99.6963 102.18 99.6318 102.258C99.1239 102.819 98.5596 103.246 97.9872 103.661C96.7054 104.581 95.4236 105.49 94.0934 106.276C91.8361 107.6 89.5063 108.644 87.1362 109.497C85.6367 110.035 84.1292 110.507 82.6055 110.877C81.6059 111.124 80.5981 111.315 79.5824 111.472C78.1958 111.685 76.8091 111.809 75.4145 111.91C74.3584 111.988 73.3023 112.033 72.2462 112.044C71.3352 112.055 70.4162 111.988 69.5052 111.932C68.8764 111.898 68.2396 111.831 67.6107 111.764C66.8691 111.685 66.1193 111.584 65.3777 111.472C64.7247 111.371 64.0717 111.259 63.4187 111.135C62.3303 110.944 61.2581 110.675 60.1779 110.383C58.1786 109.833 56.2115 109.149 54.2525 108.363C51.6889 107.331 49.2059 105.984 46.7954 104.402C45.5298 103.571 44.256 102.741 43.0468 101.742C40.9023 99.9801 38.8466 98.0386 36.936 95.7941C36.3475 95.0983 35.7832 94.3576 35.2511 93.572C34.4127 92.3039 33.5662 91.0357 32.8487 89.6329C31.841 87.6465 31.0187 85.5143 30.4866 83.1912C30.1158 81.5752 29.9546 79.903 30.011 78.1972C30.0835 76.121 30.4705 74.1683 31.1074 72.2942C31.841 70.1282 32.8245 68.2092 34.058 66.537C35.4768 64.618 37.0005 62.8785 38.6693 61.3859C39.2796 60.8328 39.9188 60.3484 40.5633 59.8795L41.3377 59.321C43.1919 57.9967 45.0864 56.7847 47.0534 55.7859C48.8673 54.8656 50.7296 54.1586 52.616 53.575C53.9381 53.171 55.2763 52.9017 56.6227 52.6997C57.2918 52.5987 57.9528 52.4977 58.622 52.3742C59.1218 52.2844 59.6216 52.2732 60.1295 52.2732C61.2662 52.2732 62.4029 52.2957 63.5315 52.3069C64.1281 52.3181 64.7166 52.363 65.3051 52.4752C65.6598 52.5426 65.9984 52.464 66.3289 52.2732C66.6353 52.0824 66.9174 51.8243 67.1835 51.5325C67.377 51.3305 67.4414 51.05 67.4092 50.7245C67.385 50.4888 67.3125 50.2756 67.2238 50.0736C66.9255 49.3778 66.6272 48.682 66.337 47.9862C65.9903 47.1445 65.6437 46.3029 65.297 45.4612C65.2406 45.3153 65.2003 45.1694 65.1439 45.0347C65.2245 44.8664 65.3535 44.8103 65.4663 44.7317C67.0787 43.5197 68.7071 42.375 70.3437 41.2527C71.5932 40.3998 72.8267 39.502 74.0682 38.6379C74.3664 38.4247 74.6728 38.2451 74.9711 38.0431C75.1887 37.8972 75.3903 37.9196 75.5999 38.0543ZM68.7763 67.3269C68.6164 67.3269 68.4645 67.3269 68.3126 67.349C67.633 67.4374 66.9614 67.4927 66.2898 67.6365C65.7781 67.7471 65.2504 67.8024 64.7387 67.9461C63.6114 68.2557 62.4921 68.6096 61.3967 69.1072C59.6778 69.9033 58.0467 70.9427 56.5596 72.3802C55.7681 73.1322 55.0405 73.9947 54.4329 75.0341C53.8013 76.1177 53.2976 77.2898 53.0497 78.661C52.9218 79.3576 52.8179 80.0432 52.8659 80.762C52.9458 81.9894 53.2016 83.1504 53.5854 84.2562C53.6974 84.5768 53.8333 84.8754 53.9852 85.1629C54.1931 85.5499 54.4249 85.8927 54.6408 86.2687C55.0965 87.0427 55.6162 87.7172 56.1759 88.3365C57.4311 89.7076 58.7663 90.8576 60.2374 91.7201C60.4693 91.8528 60.7171 91.9634 60.941 92.1182C61.3328 92.3946 61.7325 92.6047 62.1483 92.7927C63.8193 93.5446 65.5143 94.0865 67.2572 94.4071C68.4885 94.6283 69.7198 94.7167 70.8471 94.761C72.0384 94.761 73.4455 94.6062 74.7248 94.3961C75.948 94.197 77.1473 93.8653 78.3306 93.423C78.9862 93.1797 79.6098 92.8259 80.2494 92.5163C81.8245 91.7422 83.2956 90.7139 84.6308 89.3095C84.9586 88.9667 85.2704 88.6129 85.5663 88.2148C85.7821 87.9273 85.982 87.6398 86.2219 87.3966C86.3018 87.3081 86.3818 87.1975 86.4137 87.0759C86.4857 86.7994 86.6296 86.6115 86.7575 86.3903C86.8615 86.2134 86.9574 86.0143 87.0454 85.8264C87.3892 85.0855 87.613 84.2893 87.8049 83.46C88.1247 82.0889 88.1407 80.7067 87.8929 79.3245C87.5491 77.4446 86.8375 75.8523 85.8301 74.5144C84.5988 72.8889 83.1917 71.6172 81.6566 70.611C80.2494 69.6822 78.7783 68.9745 77.2592 68.4769C76.2998 68.1673 75.3404 67.8687 74.365 67.7028C73.7653 67.6033 73.1737 67.5038 72.574 67.4153C72.2942 67.3822 72.0144 67.3379 71.7345 67.3379C70.7431 67.3269 69.7597 67.3269 68.7763 67.3269Z"/>
</mask>
<path d="M75.5999 38.0543C75.9869 38.3012 76.3577 38.593 76.7205 38.896C80.1144 41.7129 83.5245 44.5073 86.9427 47.268C91.0783 50.6123 95.1898 53.9903 99.3335 57.3009C105.944 62.5867 112.506 67.9959 119.101 73.3266C121.382 75.1783 123.672 77.0076 125.961 78.8481C126.05 78.9154 126.195 78.9603 126.195 79.0838C126.203 79.2633 126.042 79.2858 125.945 79.3643C123.382 81.3619 120.818 83.3596 118.262 85.3572C117.916 85.6265 117.569 85.9071 117.23 86.1988C116.94 86.457 116.634 86.5019 116.303 86.4008C115.199 86.0642 114.086 85.7275 112.982 85.402C111.813 85.0654 110.636 84.7399 109.459 84.4145C109.056 84.3022 108.661 84.3808 108.298 84.6501C108.072 84.8185 107.863 85.0317 107.661 85.2562C107.427 85.5143 107.331 85.8397 107.371 86.2437C107.403 86.5467 107.444 86.8497 107.476 87.1415C107.637 88.5556 107.516 89.9247 107.186 91.2826C106.96 92.2253 106.637 93.1007 106.259 93.9424C105.38 95.9175 104.259 97.5897 102.977 99.0598C101.994 100.171 100.954 101.158 99.8575 102.056C99.7769 102.124 99.6963 102.18 99.6318 102.258C99.1239 102.819 98.5596 103.246 97.9872 103.661C96.7054 104.581 95.4236 105.49 94.0934 106.276C91.8361 107.6 89.5063 108.644 87.1362 109.497C85.6367 110.035 84.1292 110.507 82.6055 110.877C81.6059 111.124 80.5981 111.315 79.5824 111.472C78.1958 111.685 76.8091 111.809 75.4145 111.91C74.3584 111.988 73.3023 112.033 72.2462 112.044C71.3352 112.055 70.4162 111.988 69.5052 111.932C68.8764 111.898 68.2396 111.831 67.6107 111.764C66.8691 111.685 66.1193 111.584 65.3777 111.472C64.7247 111.371 64.0717 111.259 63.4187 111.135C62.3303 110.944 61.2581 110.675 60.1779 110.383C58.1786 109.833 56.2115 109.149 54.2525 108.363C51.6889 107.331 49.2059 105.984 46.7954 104.402C45.5298 103.571 44.256 102.741 43.0468 101.742C40.9023 99.9801 38.8466 98.0386 36.936 95.7941C36.3475 95.0983 35.7832 94.3576 35.2511 93.572C34.4127 92.3039 33.5662 91.0357 32.8487 89.6329C31.841 87.6465 31.0187 85.5143 30.4866 83.1912C30.1158 81.5752 29.9546 79.903 30.011 78.1972C30.0835 76.121 30.4705 74.1683 31.1074 72.2942C31.841 70.1282 32.8245 68.2092 34.058 66.537C35.4768 64.618 37.0005 62.8785 38.6693 61.3859C39.2796 60.8328 39.9188 60.3484 40.5633 59.8795L41.3377 59.321C43.1919 57.9967 45.0864 56.7847 47.0534 55.7859C48.8673 54.8656 50.7296 54.1586 52.616 53.575C53.9381 53.171 55.2763 52.9017 56.6227 52.6997C57.2918 52.5987 57.9528 52.4977 58.622 52.3742C59.1218 52.2844 59.6216 52.2732 60.1295 52.2732C61.2662 52.2732 62.4029 52.2957 63.5315 52.3069C64.1281 52.3181 64.7166 52.363 65.3051 52.4752C65.6598 52.5426 65.9984 52.464 66.3289 52.2732C66.6353 52.0824 66.9174 51.8243 67.1835 51.5325C67.377 51.3305 67.4414 51.05 67.4092 50.7245C67.385 50.4888 67.3125 50.2756 67.2238 50.0736C66.9255 49.3778 66.6272 48.682 66.337 47.9862C65.9903 47.1445 65.6437 46.3029 65.297 45.4612C65.2406 45.3153 65.2003 45.1694 65.1439 45.0347C65.2245 44.8664 65.3535 44.8103 65.4663 44.7317C67.0787 43.5197 68.7071 42.375 70.3437 41.2527C71.5932 40.3998 72.8267 39.502 74.0682 38.6379C74.3664 38.4247 74.6728 38.2451 74.9711 38.0431C75.1887 37.8972 75.3903 37.9196 75.5999 38.0543ZM68.7763 67.3269C68.6164 67.3269 68.4645 67.3269 68.3126 67.349C67.633 67.4374 66.9614 67.4927 66.2898 67.6365C65.7781 67.7471 65.2504 67.8024 64.7387 67.9461C63.6114 68.2557 62.4921 68.6096 61.3967 69.1072C59.6778 69.9033 58.0467 70.9427 56.5596 72.3802C55.7681 73.1322 55.0405 73.9947 54.4329 75.0341C53.8013 76.1177 53.2976 77.2898 53.0497 78.661C52.9218 79.3576 52.8179 80.0432 52.8659 80.762C52.9458 81.9894 53.2016 83.1504 53.5854 84.2562C53.6974 84.5768 53.8333 84.8754 53.9852 85.1629C54.1931 85.5499 54.4249 85.8927 54.6408 86.2687C55.0965 87.0427 55.6162 87.7172 56.1759 88.3365C57.4311 89.7076 58.7663 90.8576 60.2374 91.7201C60.4693 91.8528 60.7171 91.9634 60.941 92.1182C61.3328 92.3946 61.7325 92.6047 62.1483 92.7927C63.8193 93.5446 65.5143 94.0865 67.2572 94.4071C68.4885 94.6283 69.7198 94.7167 70.8471 94.761C72.0384 94.761 73.4455 94.6062 74.7248 94.3961C75.948 94.197 77.1473 93.8653 78.3306 93.423C78.9862 93.1797 79.6098 92.8259 80.2494 92.5163C81.8245 91.7422 83.2956 90.7139 84.6308 89.3095C84.9586 88.9667 85.2704 88.6129 85.5663 88.2148C85.7821 87.9273 85.982 87.6398 86.2219 87.3966C86.3018 87.3081 86.3818 87.1975 86.4137 87.0759C86.4857 86.7994 86.6296 86.6115 86.7575 86.3903C86.8615 86.2134 86.9574 86.0143 87.0454 85.8264C87.3892 85.0855 87.613 84.2893 87.8049 83.46C88.1247 82.0889 88.1407 80.7067 87.8929 79.3245C87.5491 77.4446 86.8375 75.8523 85.8301 74.5144C84.5988 72.8889 83.1917 71.6172 81.6566 70.611C80.2494 69.6822 78.7783 68.9745 77.2592 68.4769C76.2998 68.1673 75.3404 67.8687 74.365 67.7028C73.7653 67.6033 73.1737 67.5038 72.574 67.4153C72.2942 67.3822 72.0144 67.3379 71.7345 67.3379C70.7431 67.3269 69.7597 67.3269 68.7763 67.3269Z" fill="#FAFAFA"/>
<path d="M75.5999 38.0543C75.9869 38.3012 76.3577 38.593 76.7205 38.896C80.1144 41.7129 83.5245 44.5073 86.9427 47.268C91.0783 50.6123 95.1898 53.9903 99.3335 57.3009C105.944 62.5867 112.506 67.9959 119.101 73.3266C121.382 75.1783 123.672 77.0076 125.961 78.8481C126.05 78.9154 126.195 78.9603 126.195 79.0838C126.203 79.2633 126.042 79.2858 125.945 79.3643C123.382 81.3619 120.818 83.3596 118.262 85.3572C117.916 85.6265 117.569 85.9071 117.23 86.1988C116.94 86.457 116.634 86.5019 116.303 86.4008C115.199 86.0642 114.086 85.7275 112.982 85.402C111.813 85.0654 110.636 84.7399 109.459 84.4145C109.056 84.3022 108.661 84.3808 108.298 84.6501C108.072 84.8185 107.863 85.0317 107.661 85.2562C107.427 85.5143 107.331 85.8397 107.371 86.2437C107.403 86.5467 107.444 86.8497 107.476 87.1415C107.637 88.5556 107.516 89.9247 107.186 91.2826C106.96 92.2253 106.637 93.1007 106.259 93.9424C105.38 95.9175 104.259 97.5897 102.977 99.0598C101.994 100.171 100.954 101.158 99.8575 102.056C99.7769 102.124 99.6963 102.18 99.6318 102.258C99.1239 102.819 98.5596 103.246 97.9872 103.661C96.7054 104.581 95.4236 105.49 94.0934 106.276C91.8361 107.6 89.5063 108.644 87.1362 109.497C85.6367 110.035 84.1292 110.507 82.6055 110.877C81.6059 111.124 80.5981 111.315 79.5824 111.472C78.1958 111.685 76.8091 111.809 75.4145 111.91C74.3584 111.988 73.3023 112.033 72.2462 112.044C71.3352 112.055 70.4162 111.988 69.5052 111.932C68.8764 111.898 68.2396 111.831 67.6107 111.764C66.8691 111.685 66.1193 111.584 65.3777 111.472C64.7247 111.371 64.0717 111.259 63.4187 111.135C62.3303 110.944 61.2581 110.675 60.1779 110.383C58.1786 109.833 56.2115 109.149 54.2525 108.363C51.6889 107.331 49.2059 105.984 46.7954 104.402C45.5298 103.571 44.256 102.741 43.0468 101.742C40.9023 99.9801 38.8466 98.0386 36.936 95.7941C36.3475 95.0983 35.7832 94.3576 35.2511 93.572C34.4127 92.3039 33.5662 91.0357 32.8487 89.6329C31.841 87.6465 31.0187 85.5143 30.4866 83.1912C30.1158 81.5752 29.9546 79.903 30.011 78.1972C30.0835 76.121 30.4705 74.1683 31.1074 72.2942C31.841 70.1282 32.8245 68.2092 34.058 66.537C35.4768 64.618 37.0005 62.8785 38.6693 61.3859C39.2796 60.8328 39.9188 60.3484 40.5633 59.8795L41.3377 59.321C43.1919 57.9967 45.0864 56.7847 47.0534 55.7859C48.8673 54.8656 50.7296 54.1586 52.616 53.575C53.9381 53.171 55.2763 52.9017 56.6227 52.6997C57.2918 52.5987 57.9528 52.4977 58.622 52.3742C59.1218 52.2844 59.6216 52.2732 60.1295 52.2732C61.2662 52.2732 62.4029 52.2957 63.5315 52.3069C64.1281 52.3181 64.7166 52.363 65.3051 52.4752C65.6598 52.5426 65.9984 52.464 66.3289 52.2732C66.6353 52.0824 66.9174 51.8243 67.1835 51.5325C67.377 51.3305 67.4414 51.05 67.4092 50.7245C67.385 50.4888 67.3125 50.2756 67.2238 50.0736C66.9255 49.3778 66.6272 48.682 66.337 47.9862C65.9903 47.1445 65.6437 46.3029 65.297 45.4612C65.2406 45.3153 65.2003 45.1694 65.1439 45.0347C65.2245 44.8664 65.3535 44.8103 65.4663 44.7317C67.0787 43.5197 68.7071 42.375 70.3437 41.2527C71.5932 40.3998 72.8267 39.502 74.0682 38.6379C74.3664 38.4247 74.6728 38.2451 74.9711 38.0431C75.1887 37.8972 75.3903 37.9196 75.5999 38.0543ZM68.7763 67.3269C68.6164 67.3269 68.4645 67.3269 68.3126 67.349C67.633 67.4374 66.9614 67.4927 66.2898 67.6365C65.7781 67.7471 65.2504 67.8024 64.7387 67.9461C63.6114 68.2557 62.4921 68.6096 61.3967 69.1072C59.6778 69.9033 58.0467 70.9427 56.5596 72.3802C55.7681 73.1322 55.0405 73.9947 54.4329 75.0341C53.8013 76.1177 53.2976 77.2898 53.0497 78.661C52.9218 79.3576 52.8179 80.0432 52.8659 80.762C52.9458 81.9894 53.2016 83.1504 53.5854 84.2562C53.6974 84.5768 53.8333 84.8754 53.9852 85.1629C54.1931 85.5499 54.4249 85.8927 54.6408 86.2687C55.0965 87.0427 55.6162 87.7172 56.1759 88.3365C57.4311 89.7076 58.7663 90.8576 60.2374 91.7201C60.4693 91.8528 60.7171 91.9634 60.941 92.1182C61.3328 92.3946 61.7325 92.6047 62.1483 92.7927C63.8193 93.5446 65.5143 94.0865 67.2572 94.4071C68.4885 94.6283 69.7198 94.7167 70.8471 94.761C72.0384 94.761 73.4455 94.6062 74.7248 94.3961C75.948 94.197 77.1473 93.8653 78.3306 93.423C78.9862 93.1797 79.6098 92.8259 80.2494 92.5163C81.8245 91.7422 83.2956 90.7139 84.6308 89.3095C84.9586 88.9667 85.2704 88.6129 85.5663 88.2148C85.7821 87.9273 85.982 87.6398 86.2219 87.3966C86.3018 87.3081 86.3818 87.1975 86.4137 87.0759C86.4857 86.7994 86.6296 86.6115 86.7575 86.3903C86.8615 86.2134 86.9574 86.0143 87.0454 85.8264C87.3892 85.0855 87.613 84.2893 87.8049 83.46C88.1247 82.0889 88.1407 80.7067 87.8929 79.3245C87.5491 77.4446 86.8375 75.8523 85.8301 74.5144C84.5988 72.8889 83.1917 71.6172 81.6566 70.611C80.2494 69.6822 78.7783 68.9745 77.2592 68.4769C76.2998 68.1673 75.3404 67.8687 74.365 67.7028C73.7653 67.6033 73.1737 67.5038 72.574 67.4153C72.2942 67.3822 72.0144 67.3379 71.7345 67.3379C70.7431 67.3269 69.7597 67.3269 68.7763 67.3269Z" stroke="#FAFAFA" stroke-width="6" stroke-linejoin="bevel" mask="url(#path-2-outside-2_157_613)"/>
</g>
<g filter="url(#filter2_d_157_613)">
<mask id="path-3-outside-3_157_613" maskUnits="userSpaceOnUse" x="27" y="28" width="103" height="81" fill="black">
<rect fill="white" x="27" y="28" width="103" height="81"/>
<path d="M75.5999 31.1112C75.9869 31.3581 76.3577 31.6499 76.7205 31.9529C80.1144 34.7697 83.5245 37.5641 86.9427 40.3249C91.0783 43.6692 95.1898 47.0472 99.3335 50.3578C105.944 55.6436 112.506 61.0528 119.101 66.3835C121.382 68.2352 123.672 70.0645 125.961 71.905C126.05 71.9723 126.195 72.0172 126.195 72.1407C126.203 72.3202 126.042 72.3427 125.945 72.4212C123.382 74.4188 120.818 76.4164 118.262 78.414C117.916 78.6834 117.569 78.9639 117.23 79.2557C116.94 79.5138 116.634 79.5587 116.303 79.4577C115.199 79.1211 114.086 78.7844 112.982 78.4589C111.813 78.1223 110.636 77.7968 109.459 77.4713C109.056 77.3591 108.661 77.4377 108.298 77.707C108.072 77.8754 107.863 78.0886 107.661 78.313C107.427 78.5712 107.331 78.8966 107.371 79.3006C107.403 79.6036 107.444 79.9066 107.476 80.1984C107.637 81.6125 107.516 82.9816 107.186 84.3395C106.96 85.2822 106.637 86.1576 106.259 86.9993C105.38 88.9744 104.259 90.6466 102.977 92.1167C101.994 93.2277 100.954 94.2153 99.8575 95.1131C99.7769 95.1805 99.6963 95.2366 99.6318 95.3151C99.1239 95.8763 98.5596 96.3027 97.9872 96.7179C96.7054 97.6382 95.4236 98.5472 94.0934 99.3328C91.8361 100.657 89.5063 101.701 87.1362 102.554C85.6367 103.092 84.1292 103.564 82.6055 103.934C81.6059 104.181 80.5981 104.372 79.5824 104.529C78.1958 104.742 76.8091 104.865 75.4145 104.966C74.3584 105.045 73.3023 105.09 72.2462 105.101C71.3353 105.112 70.4162 105.045 69.5052 104.989C68.8764 104.955 68.2396 104.888 67.6107 104.821C66.8691 104.742 66.1193 104.641 65.3777 104.529C64.7247 104.428 64.0717 104.316 63.4187 104.192C62.3303 104.001 61.2581 103.732 60.1779 103.44C58.1786 102.89 56.2115 102.206 54.2525 101.42C51.6889 100.388 49.2059 99.041 46.7954 97.4586C45.5298 96.6282 44.256 95.7977 43.0468 94.7989C40.9023 93.037 38.8466 91.0955 36.936 88.851C36.3475 88.1552 35.7832 87.4145 35.2511 86.6289C34.4127 85.3608 33.5662 84.0926 32.8487 82.6898C31.841 80.7034 31.0187 78.5712 30.4866 76.2481C30.1158 74.6321 29.9546 72.9599 30.011 71.2541C30.0835 69.1779 30.4705 67.2252 31.1074 65.3511C31.841 63.1851 32.8245 61.2661 34.058 59.5939C35.4768 57.6749 37.0005 55.9354 38.6693 54.4428C39.2796 53.8897 39.9188 53.4053 40.5633 52.9364L41.3377 52.3778C43.1919 51.0536 45.0864 49.8416 47.0534 48.8428C48.8673 47.9225 50.7296 47.2155 52.616 46.6319C53.9381 46.2279 55.2763 45.9586 56.6227 45.7566C57.2918 45.6556 57.9528 45.5546 58.622 45.4311C59.1218 45.3413 59.6216 45.3301 60.1295 45.3301C61.2662 45.3301 62.4029 45.3526 63.5315 45.3638C64.1281 45.375 64.7166 45.4199 65.3051 45.5321C65.6598 45.5994 65.9984 45.5209 66.3289 45.3301C66.6353 45.1393 66.9174 44.8812 67.1835 44.5894C67.377 44.3874 67.4415 44.1069 67.4092 43.7814C67.385 43.5457 67.3125 43.3325 67.2238 43.1305C66.9255 42.4347 66.6272 41.7389 66.337 41.0431C65.9903 40.2014 65.6437 39.3597 65.297 38.5181C65.2406 38.3722 65.2003 38.2263 65.1439 38.0916C65.2245 37.9233 65.3535 37.8671 65.4663 37.7886C67.0787 36.5766 68.7071 35.4319 70.3437 34.3096C71.5932 33.4567 72.8267 32.5589 74.0682 31.6948C74.3664 31.4815 74.6728 31.302 74.9711 31.1C75.1887 30.9541 75.3903 30.9765 75.5999 31.1112ZM68.7763 60.3838C68.6164 60.3838 68.4645 60.3838 68.3126 60.4059C67.633 60.4943 66.9614 60.5496 66.2898 60.6934C65.7781 60.8039 65.2504 60.8592 64.7387 61.003C63.6114 61.3126 62.4921 61.6664 61.3967 62.164C59.6778 62.9602 58.0467 63.9996 56.5596 65.4371C55.7681 66.189 55.0405 67.0515 54.4329 68.091C53.8013 69.1746 53.2976 70.3467 53.0497 71.7179C52.9218 72.4145 52.8179 73.1001 52.8659 73.8188C52.9458 75.0462 53.2017 76.2073 53.5854 77.3131C53.6974 77.6337 53.8333 77.9323 53.9852 78.2198C54.1931 78.6068 54.4249 78.9496 54.6408 79.3256C55.0965 80.0996 55.6162 80.7741 56.1759 81.3933C57.4311 82.7645 58.7663 83.9145 60.2374 84.777C60.4693 84.9097 60.7171 85.0203 60.941 85.1751C61.3328 85.4515 61.7325 85.6616 62.1483 85.8496C63.8193 86.6015 65.5143 87.1433 67.2572 87.464C68.4885 87.6852 69.7198 87.7736 70.8471 87.8179C72.0384 87.8179 73.4455 87.6631 74.7248 87.453C75.948 87.2539 77.1473 86.9222 78.3306 86.4799C78.9862 86.2366 79.6098 85.8828 80.2494 85.5732C81.8245 84.7991 83.2956 83.7707 84.6308 82.3664C84.9586 82.0236 85.2704 81.6698 85.5663 81.2717C85.7821 80.9842 85.982 80.6967 86.2219 80.4534C86.3018 80.365 86.3818 80.2544 86.4137 80.1328C86.4857 79.8563 86.6296 79.6683 86.7575 79.4472C86.8615 79.2703 86.9574 79.0712 87.0454 78.8833C87.3892 78.1424 87.613 77.3462 87.8049 76.5169C88.1247 75.1458 88.1407 73.7635 87.8929 72.3813C87.5491 70.5015 86.8375 68.9092 85.8301 67.5712C84.5988 65.9458 83.1917 64.6741 81.6566 63.6679C80.2494 62.739 78.7783 62.0314 77.2592 61.5338C76.2998 61.2241 75.3404 60.9256 74.365 60.7597C73.7653 60.6602 73.1737 60.5607 72.574 60.4722C72.2942 60.439 72.0144 60.3948 71.7345 60.3948C70.7431 60.3838 69.7597 60.3838 68.7763 60.3838Z"/>
</mask>
<path d="M75.5999 31.1112C75.9869 31.3581 76.3577 31.6499 76.7205 31.9529C80.1144 34.7697 83.5245 37.5641 86.9427 40.3249C91.0783 43.6692 95.1898 47.0472 99.3335 50.3578C105.944 55.6436 112.506 61.0528 119.101 66.3835C121.382 68.2352 123.672 70.0645 125.961 71.905C126.05 71.9723 126.195 72.0172 126.195 72.1407C126.203 72.3202 126.042 72.3427 125.945 72.4212C123.382 74.4188 120.818 76.4164 118.262 78.414C117.916 78.6834 117.569 78.9639 117.23 79.2557C116.94 79.5138 116.634 79.5587 116.303 79.4577C115.199 79.1211 114.086 78.7844 112.982 78.4589C111.813 78.1223 110.636 77.7968 109.459 77.4713C109.056 77.3591 108.661 77.4377 108.298 77.707C108.072 77.8754 107.863 78.0886 107.661 78.313C107.427 78.5712 107.331 78.8966 107.371 79.3006C107.403 79.6036 107.444 79.9066 107.476 80.1984C107.637 81.6125 107.516 82.9816 107.186 84.3395C106.96 85.2822 106.637 86.1576 106.259 86.9993C105.38 88.9744 104.259 90.6466 102.977 92.1167C101.994 93.2277 100.954 94.2153 99.8575 95.1131C99.7769 95.1805 99.6963 95.2366 99.6318 95.3151C99.1239 95.8763 98.5596 96.3027 97.9872 96.7179C96.7054 97.6382 95.4236 98.5472 94.0934 99.3328C91.8361 100.657 89.5063 101.701 87.1362 102.554C85.6367 103.092 84.1292 103.564 82.6055 103.934C81.6059 104.181 80.5981 104.372 79.5824 104.529C78.1958 104.742 76.8091 104.865 75.4145 104.966C74.3584 105.045 73.3023 105.09 72.2462 105.101C71.3353 105.112 70.4162 105.045 69.5052 104.989C68.8764 104.955 68.2396 104.888 67.6107 104.821C66.8691 104.742 66.1193 104.641 65.3777 104.529C64.7247 104.428 64.0717 104.316 63.4187 104.192C62.3303 104.001 61.2581 103.732 60.1779 103.44C58.1786 102.89 56.2115 102.206 54.2525 101.42C51.6889 100.388 49.2059 99.041 46.7954 97.4586C45.5298 96.6282 44.256 95.7977 43.0468 94.7989C40.9023 93.037 38.8466 91.0955 36.936 88.851C36.3475 88.1552 35.7832 87.4145 35.2511 86.6289C34.4127 85.3608 33.5662 84.0926 32.8487 82.6898C31.841 80.7034 31.0187 78.5712 30.4866 76.2481C30.1158 74.6321 29.9546 72.9599 30.011 71.2541C30.0835 69.1779 30.4705 67.2252 31.1074 65.3511C31.841 63.1851 32.8245 61.2661 34.058 59.5939C35.4768 57.6749 37.0005 55.9354 38.6693 54.4428C39.2796 53.8897 39.9188 53.4053 40.5633 52.9364L41.3377 52.3778C43.1919 51.0536 45.0864 49.8416 47.0534 48.8428C48.8673 47.9225 50.7296 47.2155 52.616 46.6319C53.9381 46.2279 55.2763 45.9586 56.6227 45.7566C57.2918 45.6556 57.9528 45.5546 58.622 45.4311C59.1218 45.3413 59.6216 45.3301 60.1295 45.3301C61.2662 45.3301 62.4029 45.3526 63.5315 45.3638C64.1281 45.375 64.7166 45.4199 65.3051 45.5321C65.6598 45.5994 65.9984 45.5209 66.3289 45.3301C66.6353 45.1393 66.9174 44.8812 67.1835 44.5894C67.377 44.3874 67.4415 44.1069 67.4092 43.7814C67.385 43.5457 67.3125 43.3325 67.2238 43.1305C66.9255 42.4347 66.6272 41.7389 66.337 41.0431C65.9903 40.2014 65.6437 39.3597 65.297 38.5181C65.2406 38.3722 65.2003 38.2263 65.1439 38.0916C65.2245 37.9233 65.3535 37.8671 65.4663 37.7886C67.0787 36.5766 68.7071 35.4319 70.3437 34.3096C71.5932 33.4567 72.8267 32.5589 74.0682 31.6948C74.3664 31.4815 74.6728 31.302 74.9711 31.1C75.1887 30.9541 75.3903 30.9765 75.5999 31.1112ZM68.7763 60.3838C68.6164 60.3838 68.4645 60.3838 68.3126 60.4059C67.633 60.4943 66.9614 60.5496 66.2898 60.6934C65.7781 60.8039 65.2504 60.8592 64.7387 61.003C63.6114 61.3126 62.4921 61.6664 61.3967 62.164C59.6778 62.9602 58.0467 63.9996 56.5596 65.4371C55.7681 66.189 55.0405 67.0515 54.4329 68.091C53.8013 69.1746 53.2976 70.3467 53.0497 71.7179C52.9218 72.4145 52.8179 73.1001 52.8659 73.8188C52.9458 75.0462 53.2017 76.2073 53.5854 77.3131C53.6974 77.6337 53.8333 77.9323 53.9852 78.2198C54.1931 78.6068 54.4249 78.9496 54.6408 79.3256C55.0965 80.0996 55.6162 80.7741 56.1759 81.3933C57.4311 82.7645 58.7663 83.9145 60.2374 84.777C60.4693 84.9097 60.7171 85.0203 60.941 85.1751C61.3328 85.4515 61.7325 85.6616 62.1483 85.8496C63.8193 86.6015 65.5143 87.1433 67.2572 87.464C68.4885 87.6852 69.7198 87.7736 70.8471 87.8179C72.0384 87.8179 73.4455 87.6631 74.7248 87.453C75.948 87.2539 77.1473 86.9222 78.3306 86.4799C78.9862 86.2366 79.6098 85.8828 80.2494 85.5732C81.8245 84.7991 83.2956 83.7707 84.6308 82.3664C84.9586 82.0236 85.2704 81.6698 85.5663 81.2717C85.7821 80.9842 85.982 80.6967 86.2219 80.4534C86.3018 80.365 86.3818 80.2544 86.4137 80.1328C86.4857 79.8563 86.6296 79.6683 86.7575 79.4472C86.8615 79.2703 86.9574 79.0712 87.0454 78.8833C87.3892 78.1424 87.613 77.3462 87.8049 76.5169C88.1247 75.1458 88.1407 73.7635 87.8929 72.3813C87.5491 70.5015 86.8375 68.9092 85.8301 67.5712C84.5988 65.9458 83.1917 64.6741 81.6566 63.6679C80.2494 62.739 78.7783 62.0314 77.2592 61.5338C76.2998 61.2241 75.3404 60.9256 74.365 60.7597C73.7653 60.6602 73.1737 60.5607 72.574 60.4722C72.2942 60.439 72.0144 60.3948 71.7345 60.3948C70.7431 60.3838 69.7597 60.3838 68.7763 60.3838Z" fill="#FE0230"/>
<path d="M75.5999 31.1112C75.9869 31.3581 76.3577 31.6499 76.7205 31.9529C80.1144 34.7697 83.5245 37.5641 86.9427 40.3249C91.0783 43.6692 95.1898 47.0472 99.3335 50.3578C105.944 55.6436 112.506 61.0528 119.101 66.3835C121.382 68.2352 123.672 70.0645 125.961 71.905C126.05 71.9723 126.195 72.0172 126.195 72.1407C126.203 72.3202 126.042 72.3427 125.945 72.4212C123.382 74.4188 120.818 76.4164 118.262 78.414C117.916 78.6834 117.569 78.9639 117.23 79.2557C116.94 79.5138 116.634 79.5587 116.303 79.4577C115.199 79.1211 114.086 78.7844 112.982 78.4589C111.813 78.1223 110.636 77.7968 109.459 77.4713C109.056 77.3591 108.661 77.4377 108.298 77.707C108.072 77.8754 107.863 78.0886 107.661 78.313C107.427 78.5712 107.331 78.8966 107.371 79.3006C107.403 79.6036 107.444 79.9066 107.476 80.1984C107.637 81.6125 107.516 82.9816 107.186 84.3395C106.96 85.2822 106.637 86.1576 106.259 86.9993C105.38 88.9744 104.259 90.6466 102.977 92.1167C101.994 93.2277 100.954 94.2153 99.8575 95.1131C99.7769 95.1805 99.6963 95.2366 99.6318 95.3151C99.1239 95.8763 98.5596 96.3027 97.9872 96.7179C96.7054 97.6382 95.4236 98.5472 94.0934 99.3328C91.8361 100.657 89.5063 101.701 87.1362 102.554C85.6367 103.092 84.1292 103.564 82.6055 103.934C81.6059 104.181 80.5981 104.372 79.5824 104.529C78.1958 104.742 76.8091 104.865 75.4145 104.966C74.3584 105.045 73.3023 105.09 72.2462 105.101C71.3353 105.112 70.4162 105.045 69.5052 104.989C68.8764 104.955 68.2396 104.888 67.6107 104.821C66.8691 104.742 66.1193 104.641 65.3777 104.529C64.7247 104.428 64.0717 104.316 63.4187 104.192C62.3303 104.001 61.2581 103.732 60.1779 103.44C58.1786 102.89 56.2115 102.206 54.2525 101.42C51.6889 100.388 49.2059 99.041 46.7954 97.4586C45.5298 96.6282 44.256 95.7977 43.0468 94.7989C40.9023 93.037 38.8466 91.0955 36.936 88.851C36.3475 88.1552 35.7832 87.4145 35.2511 86.6289C34.4127 85.3608 33.5662 84.0926 32.8487 82.6898C31.841 80.7034 31.0187 78.5712 30.4866 76.2481C30.1158 74.6321 29.9546 72.9599 30.011 71.2541C30.0835 69.1779 30.4705 67.2252 31.1074 65.3511C31.841 63.1851 32.8245 61.2661 34.058 59.5939C35.4768 57.6749 37.0005 55.9354 38.6693 54.4428C39.2796 53.8897 39.9188 53.4053 40.5633 52.9364L41.3377 52.3778C43.1919 51.0536 45.0864 49.8416 47.0534 48.8428C48.8673 47.9225 50.7296 47.2155 52.616 46.6319C53.9381 46.2279 55.2763 45.9586 56.6227 45.7566C57.2918 45.6556 57.9528 45.5546 58.622 45.4311C59.1218 45.3413 59.6216 45.3301 60.1295 45.3301C61.2662 45.3301 62.4029 45.3526 63.5315 45.3638C64.1281 45.375 64.7166 45.4199 65.3051 45.5321C65.6598 45.5994 65.9984 45.5209 66.3289 45.3301C66.6353 45.1393 66.9174 44.8812 67.1835 44.5894C67.377 44.3874 67.4415 44.1069 67.4092 43.7814C67.385 43.5457 67.3125 43.3325 67.2238 43.1305C66.9255 42.4347 66.6272 41.7389 66.337 41.0431C65.9903 40.2014 65.6437 39.3597 65.297 38.5181C65.2406 38.3722 65.2003 38.2263 65.1439 38.0916C65.2245 37.9233 65.3535 37.8671 65.4663 37.7886C67.0787 36.5766 68.7071 35.4319 70.3437 34.3096C71.5932 33.4567 72.8267 32.5589 74.0682 31.6948C74.3664 31.4815 74.6728 31.302 74.9711 31.1C75.1887 30.9541 75.3903 30.9765 75.5999 31.1112ZM68.7763 60.3838C68.6164 60.3838 68.4645 60.3838 68.3126 60.4059C67.633 60.4943 66.9614 60.5496 66.2898 60.6934C65.7781 60.8039 65.2504 60.8592 64.7387 61.003C63.6114 61.3126 62.4921 61.6664 61.3967 62.164C59.6778 62.9602 58.0467 63.9996 56.5596 65.4371C55.7681 66.189 55.0405 67.0515 54.4329 68.091C53.8013 69.1746 53.2976 70.3467 53.0497 71.7179C52.9218 72.4145 52.8179 73.1001 52.8659 73.8188C52.9458 75.0462 53.2017 76.2073 53.5854 77.3131C53.6974 77.6337 53.8333 77.9323 53.9852 78.2198C54.1931 78.6068 54.4249 78.9496 54.6408 79.3256C55.0965 80.0996 55.6162 80.7741 56.1759 81.3933C57.4311 82.7645 58.7663 83.9145 60.2374 84.777C60.4693 84.9097 60.7171 85.0203 60.941 85.1751C61.3328 85.4515 61.7325 85.6616 62.1483 85.8496C63.8193 86.6015 65.5143 87.1433 67.2572 87.464C68.4885 87.6852 69.7198 87.7736 70.8471 87.8179C72.0384 87.8179 73.4455 87.6631 74.7248 87.453C75.948 87.2539 77.1473 86.9222 78.3306 86.4799C78.9862 86.2366 79.6098 85.8828 80.2494 85.5732C81.8245 84.7991 83.2956 83.7707 84.6308 82.3664C84.9586 82.0236 85.2704 81.6698 85.5663 81.2717C85.7821 80.9842 85.982 80.6967 86.2219 80.4534C86.3018 80.365 86.3818 80.2544 86.4137 80.1328C86.4857 79.8563 86.6296 79.6683 86.7575 79.4472C86.8615 79.2703 86.9574 79.0712 87.0454 78.8833C87.3892 78.1424 87.613 77.3462 87.8049 76.5169C88.1247 75.1458 88.1407 73.7635 87.8929 72.3813C87.5491 70.5015 86.8375 68.9092 85.8301 67.5712C84.5988 65.9458 83.1917 64.6741 81.6566 63.6679C80.2494 62.739 78.7783 62.0314 77.2592 61.5338C76.2998 61.2241 75.3404 60.9256 74.365 60.7597C73.7653 60.6602 73.1737 60.5607 72.574 60.4722C72.2942 60.439 72.0144 60.3948 71.7345 60.3948C70.7431 60.3838 69.7597 60.3838 68.7763 60.3838Z" stroke="#FAFAFA" stroke-width="6" stroke-linejoin="bevel" mask="url(#path-3-outside-3_157_613)"/>
</g>
<path d="M71.1505 86.1391C70.1142 86.0988 68.9823 86.018 67.8504 85.8162C66.2481 85.5236 64.6899 85.0292 63.1538 84.343C62.7716 84.1714 62.4041 83.9797 62.044 83.7274C61.8382 83.5862 61.6103 83.4853 61.3972 83.3642C60.0448 82.5771 58.8174 81.5277 57.6634 80.2764C57.1489 79.7113 56.6712 79.0958 56.2523 78.3894C56.0538 78.0464 55.8407 77.7335 55.6496 77.3804C55.5099 77.118 55.385 76.8456 55.2821 76.5529C54.9293 75.5439 54.6941 74.4843 54.6206 73.3643C54.5765 72.7084 54.672 72.0827 54.7896 71.447C55.0175 70.1958 55.4805 69.1261 56.0612 68.1373C56.6198 67.1887 57.2886 66.4016 58.0162 65.7155C59.3833 64.4037 60.8827 63.4551 62.4629 62.7286C63.4698 62.2745 64.4988 61.9516 65.5352 61.6691C66.0056 61.5379 66.4907 61.4875 66.961 61.3865C67.5784 61.2554 68.1958 61.2049 68.8206 61.1242C68.9602 61.104 69.0999 61.104 69.2469 61.104C70.1509 61.104 71.0549 61.104 71.9663 61.1141C72.2236 61.1141 72.4808 61.1545 72.7381 61.1847C73.2893 61.2655 73.8332 61.3563 74.3844 61.4471C75.2811 61.5985 76.1631 61.8709 77.0451 62.1534C78.4416 62.6075 79.794 63.2533 81.0875 64.101C82.4987 65.0192 83.7923 66.1796 84.9242 67.663C85.8503 68.884 86.5044 70.337 86.8205 72.0525C87.0483 73.3138 87.0336 74.5751 86.7396 75.8264C86.5632 76.5832 86.3574 77.3097 86.0414 77.9858C85.9605 78.1574 85.8723 78.339 85.7768 78.5004C85.6592 78.7023 85.5269 78.8738 85.4607 79.1261C85.4313 79.2371 85.3578 79.338 85.2843 79.4187C85.0638 79.6407 84.8801 79.9031 84.6816 80.1654C84.4097 80.5287 84.123 80.8516 83.8217 81.1644C82.5943 82.4459 81.2419 83.3844 79.794 84.0907C79.206 84.3733 78.6327 84.6962 78.03 84.9182C76.9422 85.3218 75.8397 85.6245 74.7152 85.8061C73.5392 85.9979 72.2456 86.1391 71.1505 86.1391Z" fill="#FAFAFA" stroke="#FAFAFA" stroke-width="3"/>
<path d="M85.4535 79.1262C84.3216 77.6428 82.4914 75.988 81.0876 75.0697C79.794 74.2221 78.4417 73.5763 77.0452 73.1222C76.1632 72.8296 75.2812 72.5571 74.3845 72.4158C73.8333 72.325 73.2894 72.2342 72.7381 72.1535C72.4809 72.1131 72.2236 72.0828 71.9664 72.0828C71.0624 72.0728 70.1583 72.0728 69.2469 72.0728C69.1073 72.0728 68.9676 72.0828 68.8206 72.0929C68.2033 72.1737 67.5785 72.2241 66.9611 72.3553C66.4834 72.4562 66.0056 72.5067 65.5352 72.6378C64.4989 72.9204 63.4699 73.2433 62.463 73.6974C60.8828 74.4138 59.3907 75.3724 58.0163 76.6842C57.2887 77.3805 56.9138 77.6832 56.3552 78.6317" stroke="#FAFAFA" stroke-width="3"/>
<path d="M71.1622 85.5367C70.1258 85.4963 68.994 85.4156 67.8621 85.2138C66.2598 84.9211 64.7016 84.4267 63.1655 83.7405C62.7833 83.569 62.4158 83.3773 62.0557 83.125C61.8499 82.9837 61.622 82.8828 61.4089 82.7617C60.0565 81.9746 58.8291 80.9252 57.6751 79.674C57.1606 79.1089 57.1071 79.0535 56.6881 78.3471C56.4897 78.004 57.3003 77.2105 58.0279 76.5243C59.395 75.2125 60.8944 74.264 62.4746 73.5375C63.4815 73.0834 64.5105 72.7605 65.5469 72.4779C66.0172 72.3467 66.5023 72.2963 66.9727 72.1954C67.5901 72.0642 68.2075 72.0137 68.8323 71.933C68.9719 71.9128 69.1116 71.9128 69.2585 71.9128C70.1626 71.9128 71.0666 71.9128 71.978 71.9229C72.2353 71.9229 72.4925 71.9633 72.7497 71.9936C73.301 72.0743 73.8449 72.1651 74.3961 72.2559C75.2928 72.4073 76.1748 72.6797 77.0568 72.9623C78.4533 73.4164 79.8056 74.0622 81.0992 74.9098C82.5104 75.828 83.804 76.9885 84.9359 78.4718C85.475 79.1827 85.2392 78.8104 85.2085 78.8441C84.988 79.0661 84.8918 79.3006 84.6933 79.563C84.4214 79.9262 84.1347 80.2491 83.8334 80.5619C82.606 81.8435 81.2536 82.7819 79.8056 83.4883C79.2176 83.7708 78.6444 84.0937 78.0417 84.3157C76.9539 84.7193 75.8514 85.022 74.7269 85.2037C73.5509 85.3954 72.2573 85.5367 71.1622 85.5367Z" fill="#1F1F1F"/>
<defs>
<filter id="filter0_d_157_613" x="27" y="41.8865" width="102.196" height="84.1023" filterUnits="userSpaceOnUse" color-interpolation-filters="sRGB">
<feFlood flood-opacity="0" result="BackgroundImageFix"/>
<feColorMatrix in="SourceAlpha" type="matrix" values="0 0 0 0 0 0 0 0 0 0 0 0 0 0 0 0 0 0 127 0" result="hardAlpha"/>
<feOffset dy="4"/>
<feComposite in2="hardAlpha" operator="out"/>
<feColorMatrix type="matrix" values="0 0 0 0 0.0705882 0 0 0 0 0.0705882 0 0 0 0 0.0705882 0 0 0 1 0"/>
<feBlend mode="normal" in2="BackgroundImageFix" result="effect1_dropShadow_157_613"/>
<feBlend mode="normal" in="SourceGraphic" in2="effect1_dropShadow_157_613" result="shape"/>
</filter>
<filter id="filter1_d_157_613" x="27" y="34.9431" width="102.196" height="84.1023" filterUnits="userSpaceOnUse" color-interpolation-filters="sRGB">
<feFlood flood-opacity="0" result="BackgroundImageFix"/>
<feColorMatrix in="SourceAlpha" type="matrix" values="0 0 0 0 0 0 0 0 0 0 0 0 0 0 0 0 0 0 127 0" result="hardAlpha"/>
<feOffset dy="4"/>
<feComposite in2="hardAlpha" operator="out"/>
<feColorMatrix type="matrix" values="0 0 0 0 0.0705882 0 0 0 0 0.0705882 0 0 0 0 0.0705882 0 0 0 1 0"/>
<feBlend mode="normal" in2="BackgroundImageFix" result="effect1_dropShadow_157_613"/>
<feBlend mode="normal" in="SourceGraphic" in2="effect1_dropShadow_157_613" result="shape"/>
</filter>
<filter id="filter2_d_157_613" x="27" y="28" width="102.196" height="84.1023" filterUnits="userSpaceOnUse" color-interpolation-filters="sRGB">
<feFlood flood-opacity="0" result="BackgroundImageFix"/>
<feColorMatrix in="SourceAlpha" type="matrix" values="0 0 0 0 0 0 0 0 0 0 0 0 0 0 0 0 0 0 127 0" result="hardAlpha"/>
<feOffset dy="4"/>
<feComposite in2="hardAlpha" operator="out"/>
<feColorMatrix type="matrix" values="0 0 0 0 0.0705882 0 0 0 0 0.0705882 0 0 0 0 0.0705882 0 0 0 1 0"/>
<feBlend mode="normal" in2="BackgroundImageFix" result="effect1_dropShadow_157_613"/>
<feBlend mode="normal" in="SourceGraphic" in2="effect1_dropShadow_157_613" result="shape"/>
</filter>
</defs>
</svg>
