<svg width="572" height="179" viewBox="0 0 572 179" fill="none" xmlns="http://www.w3.org/2000/svg">
<g clip-path="url(#clip0_1304_27163)">
<path fill-rule="evenodd" clip-rule="evenodd" d="M65.3155 137.191C65.8153 136.27 67.6779 135.956 68.1585 136.888L81.3098 162.394C81.5107 162.783 81.4388 163.252 81.1111 163.543C78.4601 165.896 66.1518 175.864 47.8627 175.864C27.1257 175.864 11.9807 166.544 11.9807 141.846V91.353C11.9807 90.8007 11.5329 90.353 10.9807 90.353H1.09766C0.545372 90.353 0.0976562 89.9053 0.0976562 89.353V58.5C0.0976562 57.9477 0.545372 57.5 1.09766 57.5H10.9807C11.5329 57.5 11.9807 57.0523 11.9807 56.5V18.657C11.9807 18.1047 12.4284 17.657 12.9807 17.657H47.7947C48.3469 17.657 48.7947 18.1047 48.7947 18.657V56.5C48.7947 57.0523 49.2424 57.5 49.7947 57.5H71.7937C72.3459 57.5 72.7937 57.9477 72.7937 58.5V89.353C72.7937 89.9053 72.3459 90.353 71.7937 90.353H49.7947C49.2424 90.353 48.7947 90.8007 48.7947 91.353V129.963C48.7947 136.953 51.8237 141.613 56.4837 141.613C60.614 141.613 63.8071 139.973 65.3155 137.191ZM163.352 58.5C163.352 57.9477 163.8 57.5 164.352 57.5H199.166C199.719 57.5 200.166 57.9477 200.166 58.5V173C200.166 173.552 199.719 174 199.166 174H164.352C163.8 174 163.352 173.552 163.352 173V166.712C163.352 165.843 162.311 165.378 161.641 165.931C153.984 172.241 144.471 175.864 135.159 175.864C105.801 175.864 86.9283 152.098 86.9283 120.876V58.5C86.9283 57.9477 87.376 57.5 87.9283 57.5H123.674C124.227 57.5 124.674 57.9477 124.674 58.5V119.711C124.674 133.225 132.363 142.079 144.013 142.079C155.663 142.079 163.352 132.992 163.352 119.478V58.5ZM253.258 65.5693C260.915 59.2589 270.444 55.636 279.972 55.636C284.273 55.636 288.375 56.2313 292.095 57.2389C292.614 57.3792 292.917 57.9114 292.786 58.4321L283.628 94.8443C283.447 95.5646 282.57 95.8438 281.993 95.3765C277.529 91.7635 273.231 89.421 270.885 89.421C259.235 89.421 251.546 98.508 251.546 112.022V173C251.546 173.552 251.098 174 250.546 174H215.732C215.18 174 214.732 173.552 214.732 173V58.5C214.732 57.9477 215.18 57.5 215.732 57.5H250.546C251.098 57.5 251.546 57.9477 251.546 58.5V64.788C251.546 65.6568 252.587 66.1218 253.258 65.5693ZM343.426 60.9912C350.971 57.4854 359.312 55.636 368.065 55.636C401.384 55.636 428.179 82.664 428.179 115.75C428.179 148.836 401.384 175.864 368.065 175.864C359.312 175.864 350.971 174.015 343.426 170.509C342.752 170.195 341.969 170.681 341.969 171.424V173C341.969 173.552 341.521 174 340.969 174H306.155C305.603 174 305.155 173.552 305.155 173V1.41498C305.155 0.862694 305.603 0.414978 306.155 0.414978H340.969C341.521 0.414978 341.969 0.862694 341.969 1.41498V60.076C341.969 60.8193 342.752 61.3045 343.426 60.9912ZM343.6 115.75C343.6 131.128 352.92 141.38 366.9 141.38C380.88 141.38 390.2 131.128 390.2 115.75C390.2 100.372 380.88 90.12 366.9 90.12C352.92 90.12 343.6 100.372 343.6 115.75ZM567.025 95.1489H564.215C561.891 95.1489 560 93.2578 560 90.934V88H534.5C533.672 88 533 88.6716 533 89.5C533 90.3284 533.672 91 534.5 91H552.403C556.621 99.2507 559 108.598 559 118.5C559 151.913 531.913 179 498.5 179C465.087 179 438 151.913 438 118.5C438 85.2536 464.817 58.2706 498 58.002V58H498.5H560V57.2149C560 54.8911 561.891 53 564.215 53H567.025C569.349 53 571.24 54.8911 571.24 57.2149V90.934C571.24 93.2578 569.351 95.1489 567.025 95.1489ZM564.215 55.8099C563.439 55.8099 562.81 56.4393 562.81 57.2149V90.934C562.81 91.7095 563.439 92.3389 564.215 92.3389H567.025C567.8 92.3389 568.43 91.7095 568.43 90.934V57.2149C568.43 56.4393 567.8 55.8099 567.025 55.8099H564.215ZM498.5 139C509.822 139 519 129.822 519 118.5C519 107.178 509.822 98 498.5 98C487.178 98 478 107.178 478 118.5C478 129.822 487.178 139 498.5 139Z" fill="#000000"/>
</g>
<defs>
<clipPath id="clip0_1304_27163">
<rect width="572" height="179" fill="white"/>
</clipPath>
</defs>
</svg>
