<svg width="350" height="225" viewBox="0 0 350 225" fill="none" xmlns="http://www.w3.org/2000/svg">
<defs>
<clipPath id="clip0_3713_1687">
<rect width="16" height="16" fill="white" transform="translate(218.488 102.5)"/>
</clipPath>
</defs>
<path d="M245.557 78.5753C245.554 77.9455 245.64 77.4302 245.816 77.0291C245.995 76.6281 246.247 76.3314 246.571 76.1392C246.896 75.9437 247.274 75.8459 247.705 75.8459C248.04 75.8459 248.34 75.9072 248.605 76.0298C248.873 76.1525 249.172 76.348 249.5 76.6165C249.715 76.7921 249.899 76.9181 250.051 76.9943C250.204 77.0705 250.358 77.1087 250.514 77.1087C250.766 77.1087 250.961 77.0142 251.1 76.8253C251.243 76.6364 251.313 76.3629 251.309 76.005H252.93C252.937 76.6148 252.849 77.1252 252.667 77.5362C252.484 77.9439 252.227 78.2521 251.896 78.4609C251.568 78.6664 251.185 78.7692 250.748 78.7692C250.436 78.7692 250.141 78.7095 249.863 78.5902C249.587 78.4709 249.269 78.2654 248.908 77.9737C248.689 77.8014 248.52 77.6837 248.401 77.6207C248.282 77.5578 248.144 77.5263 247.988 77.5263C247.736 77.5263 247.539 77.6108 247.397 77.7798C247.254 77.9455 247.183 78.2107 247.183 78.5753H245.557ZM245.557 81.8168C245.554 81.187 245.64 80.6716 245.816 80.2706C245.995 79.8696 246.247 79.5729 246.571 79.3807C246.896 79.1851 247.274 79.0874 247.705 79.0874C248.04 79.0874 248.34 79.1487 248.605 79.2713C248.873 79.3939 249.172 79.5895 249.5 79.858C249.715 80.0336 249.899 80.1596 250.051 80.2358C250.204 80.312 250.358 80.3501 250.514 80.3501C250.766 80.3501 250.961 80.2557 251.1 80.0668C251.243 79.8778 251.313 79.6044 251.309 79.2464H252.93C252.937 79.8563 252.849 80.3667 252.667 80.7777C252.484 81.1854 252.227 81.4936 251.896 81.7024C251.568 81.9079 251.185 82.0107 250.748 82.0107C250.436 82.0107 250.141 81.951 249.863 81.8317C249.587 81.7124 249.269 81.5069 248.908 81.2152C248.689 81.0429 248.52 80.9252 248.401 80.8622C248.282 80.7992 248.144 80.7678 247.988 80.7678C247.736 80.7678 247.539 80.8523 247.397 81.0213C247.254 81.187 247.183 81.4522 247.183 81.8168H245.557Z" fill="#424242"/>
<path d="M259.442 73.606H260.772V83H259.442V75.132L258.336 75.804L257.72 74.558L259.442 73.606ZM265.749 83.112C264.265 83.112 262.963 82.16 262.501 81.138L263.677 80.522C263.789 80.914 264.587 81.852 265.749 81.852C266.855 81.852 267.807 81.18 267.807 80.032C267.807 78.87 266.911 78.1 265.889 78.1C264.853 78.1 263.985 78.716 263.845 78.898L262.725 78.408V73.606H268.927V74.936H264.055V77.274C264.433 77.078 265.119 76.84 265.889 76.84C267.667 76.84 269.137 78.114 269.137 80.018C269.137 81.908 267.737 83.112 265.749 83.112Z" fill="#A6A6A6"/>
<path d="M279.8 73.606H281.13V83H279.8V78.996H275.712V83H274.382V73.606H275.712V77.666H279.8V73.606ZM282.859 83V73.606H285.155C288.263 73.606 290.111 75.706 290.111 78.31C290.111 80.9 288.263 83 285.155 83H282.859ZM284.189 81.74H285.155C287.325 81.74 288.669 80.27 288.669 78.31C288.669 76.336 287.325 74.852 285.155 74.852H284.189V81.74ZM299.477 76H300.807L298.371 83H297.041L294.591 76H295.921L297.699 81.096L299.477 76ZM302.632 74.39C302.212 74.39 301.876 74.054 301.876 73.634C301.876 73.214 302.212 72.878 302.632 72.878C303.038 72.878 303.388 73.214 303.388 73.634C303.388 74.054 303.038 74.39 302.632 74.39ZM301.96 83V76H303.29V83H301.96ZM310.732 72.57H312.062V83H310.732V82.23C310.102 82.776 309.276 83.112 308.366 83.112C306.364 83.112 304.754 81.488 304.754 79.5C304.754 77.512 306.364 75.888 308.366 75.888C309.276 75.888 310.102 76.224 310.732 76.77V72.57ZM308.394 81.852C309.696 81.852 310.676 80.844 310.676 79.5C310.676 78.156 309.696 77.148 308.394 77.148C307.092 77.148 306.112 78.156 306.112 79.5C306.112 80.844 307.092 81.852 308.394 81.852ZM320.55 79.122C320.55 79.206 320.564 79.262 320.55 79.318L314.88 80.34C315.174 81.194 316 81.824 316.966 81.824C318.226 81.824 319.164 80.928 319.374 80.326L320.508 80.704C320.256 81.376 319.108 83.042 316.966 83.042C315.482 83.028 314.04 82.048 313.536 80.578C313.41 80.214 313.354 79.822 313.354 79.43C313.354 77.428 314.964 75.818 316.966 75.804C318.842 75.818 320.41 77.274 320.55 79.122ZM314.698 79.29L319.038 78.52C318.702 77.61 317.792 76.98 316.812 77.008C315.72 77.05 314.81 77.932 314.712 79.024C314.712 79.066 314.712 79.164 314.698 79.29ZM325.21 83.112C323.208 83.112 321.598 81.488 321.598 79.5C321.598 77.512 323.208 75.888 325.21 75.888C327.198 75.888 328.822 77.512 328.822 79.5C328.822 81.488 327.198 83.112 325.21 83.112ZM325.252 81.852C326.54 81.852 327.534 80.844 327.534 79.5C327.534 78.156 326.54 77.134 325.252 77.134C323.95 77.134 322.97 78.156 322.97 79.5C322.97 80.844 323.95 81.852 325.252 81.852ZM332.657 83.112C330.823 83.112 329.773 81.852 329.773 81.852L330.655 81.082C330.655 81.082 331.509 81.936 332.685 81.936C333.525 81.936 334.113 81.628 334.113 81.068C334.113 79.99 329.759 80.214 329.759 77.932C329.759 76.77 330.641 75.888 332.447 75.888C334.295 75.888 335.345 77.134 335.345 77.134L334.463 77.918C334.463 77.918 333.609 77.064 332.433 77.064C331.593 77.064 331.005 77.372 331.005 77.932C331.005 79.01 335.359 78.786 335.359 81.068C335.359 82.23 334.477 83.112 332.657 83.112Z" fill="#7D7D7D"/>
<path d="M232.488 77.5C232.488 80.8137 229.802 83.5 226.488 83.5C223.175 83.5 220.488 80.8137 220.488 77.5C220.488 74.1863 223.175 71.5 226.488 71.5C229.802 71.5 232.488 74.1863 232.488 77.5Z" stroke="#7D7D7D" stroke-width="1.5" stroke-linecap="round" stroke-linejoin="round"/>
<path d="M224.821 77.4307C224.821 76.4762 224.821 75.9989 225.021 75.7324C225.195 75.5002 225.461 75.3549 225.75 75.3343C226.082 75.3105 226.484 75.5686 227.287 76.0848L227.394 76.1542C228.091 76.6021 228.44 76.8261 228.56 77.1108C228.665 77.3597 228.665 77.6404 228.56 77.8893C228.44 78.1741 228.091 78.398 227.394 78.8459L227.287 78.9153C226.484 79.4315 226.082 79.6896 225.75 79.6658C225.461 79.6452 225.195 79.4999 225.021 79.2677C224.821 79.0012 224.821 78.524 224.821 77.5694V77.4307Z" stroke="#BA4F54" stroke-linecap="round" stroke-linejoin="round"/>
<path d="M245.557 45.0753C245.554 44.4455 245.64 43.9302 245.816 43.5291C245.995 43.1281 246.247 42.8314 246.571 42.6392C246.896 42.4437 247.274 42.3459 247.705 42.3459C248.04 42.3459 248.34 42.4072 248.605 42.5298C248.873 42.6525 249.172 42.848 249.5 43.1165C249.715 43.2921 249.899 43.4181 250.051 43.4943C250.204 43.5705 250.358 43.6087 250.514 43.6087C250.766 43.6087 250.961 43.5142 251.1 43.3253C251.243 43.1364 251.313 42.8629 251.309 42.505H252.93C252.937 43.1148 252.849 43.6252 252.667 44.0362C252.484 44.4439 252.227 44.7521 251.896 44.9609C251.568 45.1664 251.185 45.2692 250.748 45.2692C250.436 45.2692 250.141 45.2095 249.863 45.0902C249.587 44.9709 249.269 44.7654 248.908 44.4737C248.689 44.3014 248.52 44.1837 248.401 44.1207C248.282 44.0578 248.144 44.0263 247.988 44.0263C247.736 44.0263 247.539 44.1108 247.397 44.2798C247.254 44.4455 247.183 44.7107 247.183 45.0753H245.557ZM245.557 48.3168C245.554 47.687 245.64 47.1716 245.816 46.7706C245.995 46.3696 246.247 46.0729 246.571 45.8807C246.896 45.6851 247.274 45.5874 247.705 45.5874C248.04 45.5874 248.34 45.6487 248.605 45.7713C248.873 45.8939 249.172 46.0895 249.5 46.358C249.715 46.5336 249.899 46.6596 250.051 46.7358C250.204 46.812 250.358 46.8501 250.514 46.8501C250.766 46.8501 250.961 46.7557 251.1 46.5668C251.243 46.3778 251.313 46.1044 251.309 45.7464H252.93C252.937 46.3563 252.849 46.8667 252.667 47.2777C252.484 47.6854 252.227 47.9936 251.896 48.2024C251.568 48.4079 251.185 48.5107 250.748 48.5107C250.436 48.5107 250.141 48.451 249.863 48.3317C249.587 48.2124 249.269 48.0069 248.908 47.7152C248.689 47.5429 248.52 47.4252 248.401 47.3622C248.282 47.2992 248.144 47.2678 247.988 47.2678C247.736 47.2678 247.539 47.3523 247.397 47.5213C247.254 47.687 247.183 47.9522 247.183 48.3168H245.557Z" fill="#424242"/>
<path d="M261.388 49.612C259.904 49.612 258.602 48.66 258.14 47.638L259.316 47.022C259.428 47.414 260.226 48.352 261.388 48.352C262.494 48.352 263.446 47.68 263.446 46.532C263.446 45.37 262.55 44.6 261.528 44.6C260.492 44.6 259.624 45.216 259.484 45.398L258.364 44.908V40.106H264.566V41.436H259.694V43.774C260.072 43.578 260.758 43.34 261.528 43.34C263.306 43.34 264.776 44.614 264.776 46.518C264.776 48.408 263.376 49.612 261.388 49.612ZM265.376 50.2L266.02 47.778H267.224L266.356 50.2H265.376ZM268.524 49.5L268.454 48.366C269.014 47.862 273.116 44.558 273.116 42.878C273.116 41.954 272.346 41.254 271.31 41.254C270.008 41.254 269.336 42.542 269.182 42.836L268.356 41.842C268.496 41.548 269.616 39.994 271.478 39.994C273.326 39.994 274.474 41.38 274.474 42.766C274.474 44.936 271.072 47.596 270.47 48.17H274.684V49.5H268.524ZM279.135 49.612C276.993 49.612 275.705 48.38 275.705 46.868C275.705 45.86 276.265 44.992 277.245 44.544C276.433 44.11 275.971 43.368 275.971 42.5C275.971 41.114 277.147 39.994 279.121 39.994C281.095 39.994 282.271 41.114 282.271 42.5C282.271 43.354 281.823 44.11 281.011 44.544C282.005 44.992 282.565 45.86 282.565 46.868C282.565 48.38 281.277 49.612 279.135 49.612ZM279.135 44.138C280.185 44.138 280.843 43.522 280.829 42.696C280.843 41.87 280.185 41.254 279.135 41.254C278.071 41.254 277.427 41.87 277.427 42.696C277.427 43.522 278.071 44.138 279.135 44.138ZM279.135 48.352C280.339 48.352 281.067 47.666 281.067 46.756C281.067 45.832 280.325 45.132 279.135 45.132C277.931 45.132 277.189 45.832 277.189 46.756C277.189 47.666 277.945 48.352 279.135 48.352ZM287.51 43.368C289.246 43.368 290.73 44.614 290.73 46.476C290.73 48.492 289.12 49.612 287.524 49.612C284.976 49.612 283.632 47.456 283.632 44.81C283.632 42.15 285.088 39.994 287.524 39.994C289.288 39.994 290.59 41.198 290.814 41.576L289.89 42.556C289.89 42.542 289.036 41.254 287.524 41.254C286.026 41.254 285.102 42.71 285.004 44.488C285.508 43.774 286.362 43.368 287.51 43.368ZM287.454 48.366C288.518 48.366 289.386 47.568 289.386 46.476C289.386 45.314 288.574 44.46 287.454 44.46C286.292 44.46 285.452 45.202 285.452 46.462C285.452 47.218 285.816 47.792 286.348 48.114C286.67 48.282 287.048 48.366 287.454 48.366Z" fill="#A6A6A6"/>
<path d="M298.761 42.472V43.508H297.487V49.5H296.171V43.508H295.345V42.472H296.171V40.47C296.171 39.574 296.661 38.972 297.459 38.972C298.173 38.972 298.691 39.182 298.691 39.182L298.425 40.19C298.425 40.19 298.159 40.12 297.921 40.12C297.585 40.12 297.487 40.302 297.487 40.89V42.472H298.761ZM300.814 40.89C300.394 40.89 300.058 40.554 300.058 40.134C300.058 39.714 300.394 39.378 300.814 39.378C301.22 39.378 301.57 39.714 301.57 40.134C301.57 40.554 301.22 40.89 300.814 40.89ZM300.142 49.5V42.5H301.472V49.5H300.142ZM303.367 49.5V39.07H304.697V49.5H303.367ZM313.181 45.622C313.181 45.706 313.195 45.762 313.181 45.818L307.511 46.84C307.805 47.694 308.631 48.324 309.597 48.324C310.857 48.324 311.795 47.428 312.005 46.826L313.139 47.204C312.887 47.876 311.739 49.542 309.597 49.542C308.113 49.528 306.671 48.548 306.167 47.078C306.041 46.714 305.985 46.322 305.985 45.93C305.985 43.928 307.595 42.318 309.597 42.304C311.473 42.318 313.041 43.774 313.181 45.622ZM307.329 45.79L311.669 45.02C311.333 44.11 310.423 43.48 309.443 43.508C308.351 43.55 307.441 44.432 307.343 45.524C307.343 45.566 307.343 45.664 307.329 45.79ZM316.921 49.612C315.087 49.612 314.037 48.352 314.037 48.352L314.919 47.582C314.919 47.582 315.773 48.436 316.949 48.436C317.789 48.436 318.377 48.128 318.377 47.568C318.377 46.49 314.023 46.714 314.023 44.432C314.023 43.27 314.905 42.388 316.711 42.388C318.559 42.388 319.609 43.634 319.609 43.634L318.727 44.418C318.727 44.418 317.873 43.564 316.697 43.564C315.857 43.564 315.269 43.872 315.269 44.432C315.269 45.51 319.623 45.286 319.623 47.568C319.623 48.73 318.741 49.612 316.921 49.612Z" fill="#7D7D7D"/>
<path d="M223.825 44.6667H229.159M223.825 47.3334H227.159" stroke="#BA4F54" stroke-width="1.5" stroke-linecap="round" stroke-linejoin="round"/>
<path d="M227.822 37.3716V38.1333C227.822 39.2534 227.822 39.8134 228.04 40.2412C228.232 40.6176 228.538 40.9235 228.914 41.1153C229.342 41.3333 229.902 41.3333 231.022 41.3333L231.784 41.3333M227.822 37.3716C227.56 37.3333 227.246 37.3333 226.721 37.3333H225.422C223.928 37.3333 223.182 37.3333 222.611 37.6239C222.11 37.8796 221.702 38.2875 221.446 38.7893C221.155 39.3597 221.155 40.1064 221.155 41.5999V46.3999C221.155 47.8934 221.155 48.6401 221.446 49.2106C221.702 49.7123 222.11 50.1203 222.611 50.3759C223.182 50.6666 223.928 50.6666 225.422 50.6666H227.555C229.049 50.6666 229.795 50.6666 230.366 50.3759C230.868 50.1203 231.276 49.7123 231.531 49.2106C231.822 48.6401 231.822 47.8934 231.822 46.3999V42.4339C231.822 41.9093 231.822 41.5956 231.784 41.3333M227.822 37.3716C227.886 37.3809 227.947 37.3925 228.007 37.4069C228.279 37.4723 228.539 37.58 228.777 37.7262C229.046 37.8911 229.277 38.1217 229.738 38.5829L230.572 39.4169C231.033 39.8781 231.264 40.1087 231.429 40.3778C231.575 40.6164 231.683 40.8765 231.748 41.1486C231.763 41.2087 231.774 41.2694 231.784 41.3333" stroke="#7D7D7D" stroke-width="1.5" stroke-linecap="round" stroke-linejoin="round"/>
<path d="M245.557 12.0753C245.554 11.4455 245.64 10.9302 245.816 10.5291C245.995 10.1281 246.247 9.83144 246.571 9.6392C246.896 9.44365 247.274 9.34588 247.705 9.34588C248.04 9.34588 248.34 9.4072 248.605 9.52983C248.873 9.65246 249.172 9.84801 249.5 10.1165C249.715 10.2921 249.899 10.4181 250.051 10.4943C250.204 10.5705 250.358 10.6087 250.514 10.6087C250.766 10.6087 250.961 10.5142 251.1 10.3253C251.243 10.1364 251.313 9.86293 251.309 9.50497H252.93C252.937 10.1148 252.849 10.6252 252.667 11.0362C252.484 11.4439 252.227 11.7521 251.896 11.9609C251.568 12.1664 251.185 12.2692 250.748 12.2692C250.436 12.2692 250.141 12.2095 249.863 12.0902C249.587 11.9709 249.269 11.7654 248.908 11.4737C248.689 11.3014 248.52 11.1837 248.401 11.1207C248.282 11.0578 248.144 11.0263 247.988 11.0263C247.736 11.0263 247.539 11.1108 247.397 11.2798C247.254 11.4455 247.183 11.7107 247.183 12.0753H245.557ZM245.557 15.3168C245.554 14.687 245.64 14.1716 245.816 13.7706C245.995 13.3696 246.247 13.0729 246.571 12.8807C246.896 12.6851 247.274 12.5874 247.705 12.5874C248.04 12.5874 248.34 12.6487 248.605 12.7713C248.873 12.8939 249.172 13.0895 249.5 13.358C249.715 13.5336 249.899 13.6596 250.051 13.7358C250.204 13.812 250.358 13.8501 250.514 13.8501C250.766 13.8501 250.961 13.7557 251.1 13.5668C251.243 13.3778 251.313 13.1044 251.309 12.7464H252.93C252.937 13.3563 252.849 13.8667 252.667 14.2777C252.484 14.6854 252.227 14.9936 251.896 15.2024C251.568 15.4079 251.185 15.5107 250.748 15.5107C250.436 15.5107 250.141 15.451 249.863 15.3317C249.587 15.2124 249.269 15.0069 248.908 14.7152C248.689 14.5429 248.52 14.4252 248.401 14.3622C248.282 14.2992 248.144 14.2678 247.988 14.2678C247.736 14.2678 247.539 14.3523 247.397 14.5213C247.254 14.687 247.183 14.9522 247.183 15.3168H245.557Z" fill="#424242"/>
<path d="M261.388 16.612C259.904 16.612 258.602 15.66 258.14 14.638L259.316 14.022C259.428 14.414 260.226 15.352 261.388 15.352C262.494 15.352 263.446 14.68 263.446 13.532C263.446 12.37 262.55 11.6 261.528 11.6C260.492 11.6 259.624 12.216 259.484 12.398L258.364 11.908V7.106H264.566V8.436H259.694V10.774C260.072 10.578 260.758 10.34 261.528 10.34C263.306 10.34 264.776 11.614 264.776 13.518C264.776 15.408 263.376 16.612 261.388 16.612ZM269.51 16.612C267.368 16.612 266.08 15.38 266.08 13.868C266.08 12.86 266.64 11.992 267.62 11.544C266.808 11.11 266.346 10.368 266.346 9.5C266.346 8.114 267.522 6.994 269.496 6.994C271.47 6.994 272.646 8.114 272.646 9.5C272.646 10.354 272.198 11.11 271.386 11.544C272.38 11.992 272.94 12.86 272.94 13.868C272.94 15.38 271.652 16.612 269.51 16.612ZM269.51 11.138C270.56 11.138 271.218 10.522 271.204 9.696C271.218 8.87 270.56 8.254 269.51 8.254C268.446 8.254 267.802 8.87 267.802 9.696C267.802 10.522 268.446 11.138 269.51 11.138ZM269.51 15.352C270.714 15.352 271.442 14.666 271.442 13.756C271.442 12.832 270.7 12.132 269.51 12.132C268.306 12.132 267.564 12.832 267.564 13.756C267.564 14.666 268.32 15.352 269.51 15.352ZM277.885 10.368C279.621 10.368 281.105 11.614 281.105 13.476C281.105 15.492 279.495 16.612 277.899 16.612C275.351 16.612 274.007 14.456 274.007 11.81C274.007 9.15 275.463 6.994 277.899 6.994C279.663 6.994 280.965 8.198 281.189 8.576L280.265 9.556C280.265 9.542 279.411 8.254 277.899 8.254C276.401 8.254 275.477 9.71 275.379 11.488C275.883 10.774 276.737 10.368 277.885 10.368ZM277.829 15.366C278.893 15.366 279.761 14.568 279.761 13.476C279.761 12.314 278.949 11.46 277.829 11.46C276.667 11.46 275.827 12.202 275.827 13.462C275.827 14.218 276.191 14.792 276.723 15.114C277.045 15.282 277.423 15.366 277.829 15.366Z" fill="#A6A6A6"/>
<path d="M289.85 9.374C291.852 9.374 293.462 10.998 293.462 12.986C293.462 14.974 291.852 16.598 289.85 16.598C288.94 16.598 288.114 16.262 287.484 15.716V19.916H286.154V9.486H287.484V10.256C288.114 9.71 288.94 9.374 289.85 9.374ZM289.808 15.338C291.11 15.338 292.104 14.33 292.104 12.986C292.104 11.642 291.11 10.62 289.808 10.62C288.52 10.62 287.526 11.642 287.526 12.986C287.526 14.33 288.52 15.338 289.808 15.338ZM295.646 7.89C295.226 7.89 294.89 7.554 294.89 7.134C294.89 6.714 295.226 6.378 295.646 6.378C296.052 6.378 296.402 6.714 296.402 7.134C296.402 7.554 296.052 7.89 295.646 7.89ZM294.974 16.5V9.5H296.304V16.5H294.974ZM301.38 16.612C299.378 16.612 297.768 14.988 297.768 13C297.768 11.012 299.378 9.388 301.38 9.388C302.696 9.388 303.844 10.102 304.474 11.166L303.284 11.74C302.836 11.082 302.122 10.648 301.38 10.648C300.078 10.648 299.098 11.656 299.098 13C299.098 14.344 300.078 15.352 301.38 15.352C302.122 15.352 302.836 14.918 303.284 14.26L304.474 14.834C303.844 15.898 302.696 16.612 301.38 16.612ZM309.73 14.652L310.332 15.702C310.332 15.702 309.618 16.612 308.428 16.612C307.28 16.612 306.328 15.996 306.328 14.568V10.704H305.334V9.5H306.328V7.218L307.658 7.134V9.5H309.562V10.704H307.658V14.204C307.658 14.946 308.176 15.38 308.694 15.38C309.31 15.38 309.73 14.806 309.73 14.652ZM316.059 9.5H317.389V16.5H316.059V15.632C315.555 16.234 314.799 16.612 314.001 16.612C312.321 16.612 311.117 15.254 311.117 13.532V9.5H312.475V13.49C312.475 14.568 313.245 15.38 314.267 15.38C315.289 15.38 316.059 14.554 316.059 13.476V9.5ZM322.505 9.388C322.925 9.388 323.331 9.486 323.681 9.682L323.275 11.04C322.939 10.788 322.561 10.62 322.225 10.62C321.203 10.62 320.433 11.432 320.433 12.524V16.5H319.103V9.5H320.433V10.368C320.951 9.766 321.707 9.388 322.505 9.388ZM331.064 12.622C331.064 12.706 331.078 12.762 331.064 12.818L325.394 13.84C325.688 14.694 326.514 15.324 327.48 15.324C328.74 15.324 329.678 14.428 329.888 13.826L331.022 14.204C330.77 14.876 329.622 16.542 327.48 16.542C325.996 16.528 324.554 15.548 324.05 14.078C323.924 13.714 323.868 13.322 323.868 12.93C323.868 10.928 325.478 9.318 327.48 9.304C329.356 9.318 330.924 10.774 331.064 12.622ZM325.212 12.79L329.552 12.02C329.216 11.11 328.306 10.48 327.326 10.508C326.234 10.55 325.324 11.432 325.226 12.524C325.226 12.566 325.226 12.664 325.212 12.79ZM334.804 16.612C332.97 16.612 331.92 15.352 331.92 15.352L332.802 14.582C332.802 14.582 333.656 15.436 334.832 15.436C335.672 15.436 336.26 15.128 336.26 14.568C336.26 13.49 331.906 13.714 331.906 11.432C331.906 10.27 332.788 9.388 334.594 9.388C336.442 9.388 337.492 10.634 337.492 10.634L336.61 11.418C336.61 11.418 335.756 10.564 334.58 10.564C333.74 10.564 333.152 10.872 333.152 11.432C333.152 12.51 337.506 12.286 337.506 14.568C337.506 15.73 336.624 16.612 334.804 16.612Z" fill="#7D7D7D"/>
<path d="M222.488 8.16669C222.488 7.6144 222.936 7.16669 223.488 7.16669C224.041 7.16669 224.488 7.6144 224.488 8.16669C224.488 8.71897 224.041 9.16669 223.488 9.16669C222.936 9.16669 222.488 8.71897 222.488 8.16669Z" stroke="#BA4F54" stroke-linecap="round" stroke-linejoin="round"/>
<path d="M233.154 9.34828C232.618 9.22937 232.06 9.16667 231.488 9.16667C227.368 9.16667 224.007 12.4166 223.829 16.4928M233.154 9.34828C233.155 9.50265 233.155 9.66416 233.155 9.83333V11.1667C233.155 13.0335 233.155 13.9669 232.791 14.68C232.472 15.3072 231.962 15.8171 231.335 16.1367C230.622 16.5 229.688 16.5 227.821 16.5H225.155C224.649 16.5 224.212 16.5 223.829 16.4928M233.154 9.34828C233.152 7.79913 233.122 6.96845 232.791 6.32003C232.472 5.69282 231.962 5.18289 231.335 4.86331C230.622 4.5 229.688 4.5 227.821 4.5H225.155C223.288 4.5 222.354 4.5 221.641 4.86331C221.014 5.18289 220.504 5.69282 220.185 6.32003C219.821 7.03307 219.821 7.96649 219.821 9.83333V11.1667C219.821 13.0335 219.821 13.9669 220.185 14.68C220.504 15.3072 221.014 15.8171 221.641 16.1367C222.161 16.4016 222.798 16.4733 223.829 16.4928" stroke="#7D7D7D" stroke-width="1.5" stroke-linecap="round" stroke-linejoin="round"/>
<path d="M245.557 111.575C245.554 110.946 245.64 110.43 245.816 110.029C245.995 109.628 246.247 109.331 246.571 109.139C246.896 108.944 247.274 108.846 247.705 108.846C248.04 108.846 248.34 108.907 248.605 109.03C248.873 109.152 249.172 109.348 249.5 109.616C249.715 109.792 249.899 109.918 250.051 109.994C250.204 110.071 250.358 110.109 250.514 110.109C250.766 110.109 250.961 110.014 251.1 109.825C251.243 109.636 251.313 109.363 251.309 109.005H252.93C252.937 109.615 252.849 110.125 252.667 110.536C252.484 110.944 252.227 111.252 251.896 111.461C251.568 111.666 251.185 111.769 250.748 111.769C250.436 111.769 250.141 111.71 249.863 111.59C249.587 111.471 249.269 111.265 248.908 110.974C248.689 110.801 248.52 110.684 248.401 110.621C248.282 110.558 248.144 110.526 247.988 110.526C247.736 110.526 247.539 110.611 247.397 110.78C247.254 110.946 247.183 111.211 247.183 111.575H245.557ZM245.557 114.817C245.554 114.187 245.64 113.672 245.816 113.271C245.995 112.87 246.247 112.573 246.571 112.381C246.896 112.185 247.274 112.087 247.705 112.087C248.04 112.087 248.34 112.149 248.605 112.271C248.873 112.394 249.172 112.589 249.5 112.858C249.715 113.034 249.899 113.16 250.051 113.236C250.204 113.312 250.358 113.35 250.514 113.35C250.766 113.35 250.961 113.256 251.1 113.067C251.243 112.878 251.313 112.604 251.309 112.246H252.93C252.937 112.856 252.849 113.367 252.667 113.778C252.484 114.185 252.227 114.494 251.896 114.702C251.568 114.908 251.185 115.011 250.748 115.011C250.436 115.011 250.141 114.951 249.863 114.832C249.587 114.712 249.269 114.507 248.908 114.215C248.689 114.043 248.52 113.925 248.401 113.862C248.282 113.799 248.144 113.768 247.988 113.768C247.736 113.768 247.539 113.852 247.397 114.021C247.254 114.187 247.183 114.452 247.183 114.817H245.557Z" fill="#424242"/>
<path d="M264.86 112.542V113.872H263.698V116H262.368V113.872H258.14V112.752L262.116 106.606L262.368 106.62V106.606H263.698V112.542H264.86ZM259.694 112.542H262.368V108.412L259.694 112.542ZM269.524 116.112C267.382 116.112 266.094 114.88 266.094 113.368C266.094 112.36 266.654 111.492 267.634 111.044C266.822 110.61 266.36 109.868 266.36 109C266.36 107.614 267.536 106.494 269.51 106.494C271.484 106.494 272.66 107.614 272.66 109C272.66 109.854 272.212 110.61 271.4 111.044C272.394 111.492 272.954 112.36 272.954 113.368C272.954 114.88 271.666 116.112 269.524 116.112ZM269.524 110.638C270.574 110.638 271.232 110.022 271.218 109.196C271.232 108.37 270.574 107.754 269.524 107.754C268.46 107.754 267.816 108.37 267.816 109.196C267.816 110.022 268.46 110.638 269.524 110.638ZM269.524 114.852C270.728 114.852 271.456 114.166 271.456 113.256C271.456 112.332 270.714 111.632 269.524 111.632C268.32 111.632 267.578 112.332 267.578 113.256C267.578 114.166 268.334 114.852 269.524 114.852ZM277.447 106.494C280.009 106.494 281.353 108.65 281.353 111.31C281.353 113.956 279.897 116.112 277.447 116.112C275.683 116.112 274.395 114.922 274.171 114.53L275.081 113.55C275.081 113.564 275.935 114.852 277.447 114.852C278.945 114.852 279.869 113.41 279.967 111.618C279.463 112.332 278.609 112.752 277.475 112.752C275.739 112.752 274.255 111.492 274.255 109.63C274.255 107.614 275.865 106.494 277.447 106.494ZM277.517 111.646C278.693 111.646 279.533 110.904 279.533 109.644C279.533 108.944 279.197 108.384 278.707 108.062C278.371 107.852 277.979 107.754 277.531 107.754C276.453 107.754 275.599 108.538 275.599 109.63C275.599 110.792 276.397 111.646 277.517 111.646Z" fill="#A6A6A6"/>
<path d="M288.88 116.112C287.046 116.112 285.996 114.852 285.996 114.852L286.878 114.082C286.878 114.082 287.732 114.936 288.908 114.936C289.748 114.936 290.336 114.628 290.336 114.068C290.336 112.99 285.982 113.214 285.982 110.932C285.982 109.77 286.864 108.888 288.67 108.888C290.518 108.888 291.568 110.134 291.568 110.134L290.686 110.918C290.686 110.918 289.832 110.064 288.656 110.064C287.816 110.064 287.228 110.372 287.228 110.932C287.228 112.01 291.582 111.786 291.582 114.068C291.582 115.23 290.7 116.112 288.88 116.112ZM296.062 116.112C294.06 116.112 292.45 114.488 292.45 112.5C292.45 110.512 294.06 108.888 296.062 108.888C298.05 108.888 299.674 110.512 299.674 112.5C299.674 114.488 298.05 116.112 296.062 116.112ZM296.104 114.852C297.392 114.852 298.386 113.844 298.386 112.5C298.386 111.156 297.392 110.134 296.104 110.134C294.802 110.134 293.822 111.156 293.822 112.5C293.822 113.844 294.802 114.852 296.104 114.852ZM304.28 108.888C305.946 108.888 307.15 110.246 307.15 111.968V116H305.792V112.01C305.792 110.932 305.022 110.12 304 110.12C302.978 110.12 302.208 110.932 302.208 112.024V116H300.878V109H302.208V109.868C302.726 109.266 303.482 108.888 304.28 108.888ZM314.383 109.014H315.713V115.426C315.685 117.526 313.921 118.982 312.101 118.982C309.959 118.982 308.867 117.484 308.615 116.812L309.679 116.28C309.903 116.882 310.841 117.764 312.101 117.764C313.473 117.764 314.369 116.532 314.397 115.426H314.383V115.244C313.753 115.79 312.927 116.126 312.017 116.126C310.015 116.126 308.405 114.516 308.405 112.514C308.405 110.526 310.015 108.902 312.017 108.902C312.927 108.902 313.753 109.238 314.383 109.784V109.014ZM312.059 114.88C313.347 114.88 314.341 113.872 314.341 112.514C314.341 111.184 313.347 110.162 312.059 110.162C310.757 110.162 309.777 111.184 309.777 112.514C309.777 113.872 310.757 114.88 312.059 114.88ZM320.065 116.112C318.231 116.112 317.181 114.852 317.181 114.852L318.063 114.082C318.063 114.082 318.917 114.936 320.093 114.936C320.933 114.936 321.521 114.628 321.521 114.068C321.521 112.99 317.167 113.214 317.167 110.932C317.167 109.77 318.049 108.888 319.855 108.888C321.703 108.888 322.753 110.134 322.753 110.134L321.871 110.918C321.871 110.918 321.017 110.064 319.841 110.064C319.001 110.064 318.413 110.372 318.413 110.932C318.413 112.01 322.767 111.786 322.767 114.068C322.767 115.23 321.885 116.112 320.065 116.112Z" fill="#7D7D7D"/>
<g clip-path="url(#clip0_3713_1687)">
<path d="M223.821 110.5V107.742C223.821 107.194 224.157 106.701 224.667 106.501L231.789 103.703C232.445 103.445 233.155 103.929 233.155 104.634V106.833M223.821 110.5V115.167M223.821 110.5L233.155 106.833M223.821 115.167C223.821 116.271 222.926 117.167 221.821 117.167C220.717 117.167 219.821 116.271 219.821 115.167C219.821 114.062 220.717 113.167 221.821 113.167C222.926 113.167 223.821 114.062 223.821 115.167ZM233.155 106.833V113.167M233.155 113.167C233.155 114.271 232.259 115.167 231.155 115.167C230.05 115.167 229.155 114.271 229.155 113.167C229.155 112.062 230.05 111.167 231.155 111.167C232.259 111.167 233.155 112.062 233.155 113.167Z" stroke="#7D7D7D" stroke-width="1.5" stroke-linecap="round" stroke-linejoin="round"/>
<path fill-rule="evenodd" clip-rule="evenodd" d="M232.41 107.929L224.574 111.016L224.574 109.394L232.41 106.32L232.41 107.929Z" fill="#BA4F54"/>
</g>
<rect x="0.5" y="70.5" width="192" height="48" rx="5.5" stroke="#2B2B2B"/>
<path d="M20.198 90.606H21.528V100H20.198V92.132L19.092 92.804L18.476 91.558L20.198 90.606ZM22.8406 100V98.278H24.2126V100H22.8406ZM32.0144 96.542V97.872H30.8524V100H29.5224V97.872H25.2944V96.752L29.2704 90.606L29.5224 90.62V90.606H30.8524V96.542H32.0144ZM26.8484 96.542H29.5224V92.412L26.8484 96.542ZM36.2338 100.112C34.4838 100.112 33.1818 98.936 32.9578 98.53L33.8678 97.55C34.0638 97.9 35.0298 98.852 36.1078 98.852C37.1298 98.852 37.8718 98.264 37.8718 97.438C37.8718 96.598 37.0458 95.8 35.3238 95.8H34.9458V94.82H35.3238C37.0458 94.82 37.8718 94.008 37.8718 93.182C37.8718 92.356 37.1298 91.754 36.1078 91.754C34.7918 91.754 33.8678 93.056 33.8678 93.056L32.9578 92.09C33.1818 91.698 34.4698 90.494 36.2338 90.494C38.2498 90.494 39.2158 91.838 39.2158 93.126C39.2158 94.288 38.2918 95.114 37.7598 95.296C38.2918 95.492 39.2158 96.318 39.2158 97.48C39.2158 98.782 38.2498 100.112 36.2338 100.112ZM41.4168 90.606H42.7468V100H41.4168V92.132L40.3108 92.804L39.6948 91.558L41.4168 90.606ZM47.4721 100.112C45.7221 100.112 44.4201 98.936 44.1961 98.53L45.1061 97.55C45.3021 97.9 46.2681 98.852 47.3461 98.852C48.3681 98.852 49.1101 98.264 49.1101 97.438C49.1101 96.598 48.2841 95.8 46.5621 95.8H46.1841V94.82H46.5621C48.2841 94.82 49.1101 94.008 49.1101 93.182C49.1101 92.356 48.3681 91.754 47.3461 91.754C46.0301 91.754 45.1061 93.056 45.1061 93.056L44.1961 92.09C44.4201 91.698 45.7081 90.494 47.4721 90.494C49.4881 90.494 50.4541 91.838 50.4541 93.126C50.4541 94.288 49.5301 95.114 48.9981 95.296C49.5301 95.492 50.4541 96.318 50.4541 97.48C50.4541 98.782 49.4881 100.112 47.4721 100.112ZM54.8139 90.494C57.3759 90.494 58.7199 92.65 58.7199 95.31C58.7199 97.956 57.2639 100.112 54.8139 100.112C53.0499 100.112 51.7619 98.922 51.5379 98.53L52.4479 97.55C52.4479 97.564 53.3019 98.852 54.8139 98.852C56.3119 98.852 57.2359 97.41 57.3339 95.618C56.8299 96.332 55.9759 96.752 54.8419 96.752C53.1059 96.752 51.6219 95.492 51.6219 93.63C51.6219 91.614 53.2319 90.494 54.8139 90.494ZM54.8839 95.646C56.0599 95.646 56.8999 94.904 56.8999 93.644C56.8999 92.944 56.5639 92.384 56.0739 92.062C55.7379 91.852 55.3459 91.754 54.8979 91.754C53.8199 91.754 52.9659 92.538 52.9659 93.63C52.9659 94.792 53.7639 95.646 54.8839 95.646ZM63.6737 93.868C65.4097 93.868 66.8937 95.114 66.8937 96.976C66.8937 98.992 65.2837 100.112 63.6877 100.112C61.1397 100.112 59.7957 97.956 59.7957 95.31C59.7957 92.65 61.2517 90.494 63.6877 90.494C65.4517 90.494 66.7537 91.698 66.9777 92.076L66.0537 93.056C66.0537 93.042 65.1997 91.754 63.6877 91.754C62.1897 91.754 61.2657 93.21 61.1677 94.988C61.6717 94.274 62.5257 93.868 63.6737 93.868ZM63.6177 98.866C64.6817 98.866 65.5497 98.068 65.5497 96.976C65.5497 95.814 64.7377 94.96 63.6177 94.96C62.4557 94.96 61.6157 95.702 61.6157 96.962C61.6157 97.718 61.9797 98.292 62.5117 98.614C62.8337 98.782 63.2117 98.866 63.6177 98.866Z" fill="#7D7D7D"/>
<path d="M141.208 100.112C138.338 100.112 136.616 97.956 136.616 95.31C136.616 92.65 138.338 90.494 141.208 90.494C143.042 90.494 144.386 91.376 145.128 92.706L143.91 93.462C143.378 92.44 142.398 91.754 141.208 91.754C139.276 91.754 138.072 93.28 138.072 95.31C138.072 97.34 139.276 98.866 141.208 98.866C142.79 98.866 143.924 97.69 144.204 96.15H141.418V94.974H145.604V100H144.442V98.544C143.756 99.482 142.65 100.112 141.208 100.112ZM147.328 100V90.606H150.604C152.83 90.606 154.16 91.796 154.16 93.28C154.16 94.12 153.698 94.862 152.858 95.31C153.698 95.73 154.16 96.472 154.16 97.326C154.16 98.796 152.83 100 150.604 100H147.328ZM148.658 94.764H150.604C151.962 94.764 152.802 94.134 152.802 93.308C152.802 92.482 151.962 91.852 150.604 91.852H148.658V94.764ZM148.658 98.74H150.604C151.962 98.74 152.802 98.11 152.802 97.284C152.802 96.472 151.962 95.842 150.604 95.842H148.658V98.74Z" fill="#7D7D7D"/>
<path fill-rule="evenodd" clip-rule="evenodd" d="M162.528 92.0285C162.769 91.7882 163.147 91.7697 163.408 91.9731L163.471 92.0285L167 95.5566L170.528 92.0285C170.769 91.7882 171.147 91.7697 171.408 91.9731L171.471 92.0285C171.711 92.2688 171.73 92.647 171.527 92.9085L171.471 92.9713L167.471 96.9713C167.231 97.2116 166.853 97.2301 166.591 97.0268L166.528 96.9713L162.528 92.9713C162.268 92.711 162.268 92.2889 162.528 92.0285Z" fill="#7D7D7D"/>
<rect x="0.5" y="0.5" width="192" height="48" rx="5.5" stroke="#2B2B2B"/>
<path d="M20.198 20.606H21.528V30H20.198V22.132L19.092 22.804L18.476 21.558L20.198 20.606ZM26.6017 30.112C24.1377 30.112 23.0457 27.956 23.0457 25.31C23.0457 22.65 24.1377 20.494 26.6017 20.494C29.0797 20.494 30.1717 22.65 30.1717 25.31C30.1717 27.956 29.0797 30.112 26.6017 30.112ZM26.6017 28.866C28.1277 28.866 28.8417 27.34 28.8417 25.31C28.8417 23.28 28.1277 21.754 26.6017 21.754C25.0897 21.754 24.3757 23.28 24.3757 25.31C24.3757 27.34 25.0897 28.866 26.6017 28.866Z" fill="#7D7D7D"/>
<path d="M133.662 30.112C131.59 30.112 129.896 28.726 129.896 26.402V20.592H131.226V26.402C131.226 27.914 132.276 28.852 133.662 28.852C135.048 28.852 136.098 27.914 136.098 26.402V20.592H137.428V26.402C137.428 28.726 135.748 30.112 133.662 30.112ZM142.066 30.112C140.498 30.112 139.111 28.894 138.832 28.586L139.742 27.676C139.938 27.9 140.918 28.852 142.08 28.852C143.144 28.852 143.802 28.376 143.802 27.592C143.802 25.758 138.93 25.828 138.93 23.028C138.93 21.628 140.134 20.508 141.968 20.494C143.536 20.494 144.922 21.712 145.216 22.02L144.306 22.93C144.082 22.692 143.088 21.754 141.968 21.754C140.89 21.754 140.232 22.23 140.232 23.014C140.232 24.862 145.104 24.778 145.104 27.578C145.104 28.978 143.9 30.112 142.066 30.112ZM146.74 30V20.606H149.036C152.144 20.606 153.992 22.706 153.992 25.31C153.992 27.9 152.144 30 149.036 30H146.74ZM148.07 28.74H149.036C151.206 28.74 152.55 27.27 152.55 25.31C152.55 23.336 151.206 21.852 149.036 21.852H148.07V28.74Z" fill="#7D7D7D"/>
<path fill-rule="evenodd" clip-rule="evenodd" d="M162.528 22.0285C162.769 21.7882 163.147 21.7697 163.408 21.9731L163.471 22.0285L167 25.5566L170.528 22.0285C170.769 21.7882 171.147 21.7697 171.408 21.9731L171.471 22.0285C171.711 22.2688 171.73 22.647 171.527 22.9085L171.471 22.9713L167.471 26.9713C167.231 27.2116 166.853 27.2301 166.591 27.0268L166.528 26.9713L162.528 22.9713C162.268 22.711 162.268 22.2889 162.528 22.0285Z" fill="#7D7D7D"/>
</svg>
