<svg width="428" height="320" viewBox="0 0 428 320" fill="none" xmlns="http://www.w3.org/2000/svg">
<path d="M283.557 178.575C283.554 177.946 283.64 177.43 283.816 177.029C283.995 176.628 284.247 176.331 284.571 176.139C284.896 175.944 285.274 175.846 285.705 175.846C286.04 175.846 286.34 175.907 286.605 176.03C286.873 176.152 287.172 176.348 287.5 176.616C287.715 176.792 287.899 176.918 288.051 176.994C288.204 177.071 288.358 177.109 288.514 177.109C288.766 177.109 288.961 177.014 289.1 176.825C289.243 176.636 289.313 176.363 289.309 176.005H290.93C290.937 176.615 290.849 177.125 290.667 177.536C290.484 177.944 290.227 178.252 289.896 178.461C289.568 178.666 289.185 178.769 288.748 178.769C288.436 178.769 288.141 178.71 287.863 178.59C287.587 178.471 287.269 178.265 286.908 177.974C286.689 177.801 286.52 177.684 286.401 177.621C286.282 177.558 286.144 177.526 285.988 177.526C285.736 177.526 285.539 177.611 285.397 177.78C285.254 177.946 285.183 178.211 285.183 178.575H283.557ZM283.557 181.817C283.554 181.187 283.64 180.672 283.816 180.271C283.995 179.87 284.247 179.573 284.571 179.381C284.896 179.185 285.274 179.087 285.705 179.087C286.04 179.087 286.34 179.149 286.605 179.271C286.873 179.394 287.172 179.589 287.5 179.858C287.715 180.034 287.899 180.16 288.051 180.236C288.204 180.312 288.358 180.35 288.514 180.35C288.766 180.35 288.961 180.256 289.1 180.067C289.243 179.878 289.313 179.604 289.309 179.246H290.93C290.937 179.856 290.849 180.367 290.667 180.778C290.484 181.185 290.227 181.494 289.896 181.702C289.568 181.908 289.185 182.011 288.748 182.011C288.436 182.011 288.141 181.951 287.863 181.832C287.587 181.712 287.269 181.507 286.908 181.215C286.689 181.043 286.52 180.925 286.401 180.862C286.282 180.799 286.144 180.768 285.988 180.768C285.736 180.768 285.539 180.852 285.397 181.021C285.254 181.187 285.183 181.452 285.183 181.817H283.557Z" fill="#424242"/>
<path d="M297.442 173.606H298.772V183H297.442V175.132L296.336 175.804L295.72 174.558L297.442 173.606ZM303.749 183.112C302.265 183.112 300.963 182.16 300.501 181.138L301.677 180.522C301.789 180.914 302.587 181.852 303.749 181.852C304.855 181.852 305.807 181.18 305.807 180.032C305.807 178.87 304.911 178.1 303.889 178.1C302.853 178.1 301.985 178.716 301.845 178.898L300.725 178.408V173.606H306.927V174.936H302.055V177.274C302.433 177.078 303.119 176.84 303.889 176.84C305.667 176.84 307.137 178.114 307.137 180.018C307.137 181.908 305.737 183.112 303.749 183.112Z" fill="#A6A6A6"/>
<path d="M317.8 173.606H319.13V183H317.8V178.996H313.712V183H312.382V173.606H313.712V177.666H317.8V173.606ZM320.859 183V173.606H323.155C326.263 173.606 328.111 175.706 328.111 178.31C328.111 180.9 326.263 183 323.155 183H320.859ZM322.189 181.74H323.155C325.325 181.74 326.669 180.27 326.669 178.31C326.669 176.336 325.325 174.852 323.155 174.852H322.189V181.74ZM337.477 176H338.807L336.371 183H335.041L332.591 176H333.921L335.699 181.096L337.477 176ZM340.632 174.39C340.212 174.39 339.876 174.054 339.876 173.634C339.876 173.214 340.212 172.878 340.632 172.878C341.038 172.878 341.388 173.214 341.388 173.634C341.388 174.054 341.038 174.39 340.632 174.39ZM339.96 183V176H341.29V183H339.96ZM348.732 172.57H350.062V183H348.732V182.23C348.102 182.776 347.276 183.112 346.366 183.112C344.364 183.112 342.754 181.488 342.754 179.5C342.754 177.512 344.364 175.888 346.366 175.888C347.276 175.888 348.102 176.224 348.732 176.77V172.57ZM346.394 181.852C347.696 181.852 348.676 180.844 348.676 179.5C348.676 178.156 347.696 177.148 346.394 177.148C345.092 177.148 344.112 178.156 344.112 179.5C344.112 180.844 345.092 181.852 346.394 181.852ZM358.55 179.122C358.55 179.206 358.564 179.262 358.55 179.318L352.88 180.34C353.174 181.194 354 181.824 354.966 181.824C356.226 181.824 357.164 180.928 357.374 180.326L358.508 180.704C358.256 181.376 357.108 183.042 354.966 183.042C353.482 183.028 352.04 182.048 351.536 180.578C351.41 180.214 351.354 179.822 351.354 179.43C351.354 177.428 352.964 175.818 354.966 175.804C356.842 175.818 358.41 177.274 358.55 179.122ZM352.698 179.29L357.038 178.52C356.702 177.61 355.792 176.98 354.812 177.008C353.72 177.05 352.81 177.932 352.712 179.024C352.712 179.066 352.712 179.164 352.698 179.29ZM363.21 183.112C361.208 183.112 359.598 181.488 359.598 179.5C359.598 177.512 361.208 175.888 363.21 175.888C365.198 175.888 366.822 177.512 366.822 179.5C366.822 181.488 365.198 183.112 363.21 183.112ZM363.252 181.852C364.54 181.852 365.534 180.844 365.534 179.5C365.534 178.156 364.54 177.134 363.252 177.134C361.95 177.134 360.97 178.156 360.97 179.5C360.97 180.844 361.95 181.852 363.252 181.852ZM370.657 183.112C368.823 183.112 367.773 181.852 367.773 181.852L368.655 181.082C368.655 181.082 369.509 181.936 370.685 181.936C371.525 181.936 372.113 181.628 372.113 181.068C372.113 179.99 367.759 180.214 367.759 177.932C367.759 176.77 368.641 175.888 370.447 175.888C372.295 175.888 373.345 177.134 373.345 177.134L372.463 177.918C372.463 177.918 371.609 177.064 370.433 177.064C369.593 177.064 369.005 177.372 369.005 177.932C369.005 179.01 373.359 178.786 373.359 181.068C373.359 182.23 372.477 183.112 370.657 183.112Z" fill="#7D7D7D"/>
<path d="M270.488 177.5C270.488 180.814 267.802 183.5 264.488 183.5C261.175 183.5 258.488 180.814 258.488 177.5C258.488 174.186 261.175 171.5 264.488 171.5C267.802 171.5 270.488 174.186 270.488 177.5Z" stroke="#7D7D7D" stroke-width="1.5" stroke-linecap="round" stroke-linejoin="round"/>
<path d="M262.821 177.43C262.821 176.476 262.821 175.999 263.021 175.732C263.195 175.5 263.461 175.355 263.75 175.334C264.082 175.31 264.484 175.568 265.287 176.085L265.394 176.154C266.091 176.602 266.44 176.826 266.56 177.111C266.665 177.359 266.665 177.64 266.56 177.889C266.44 178.174 266.091 178.398 265.394 178.846L265.287 178.915C264.484 179.431 264.082 179.689 263.75 179.666C263.461 179.645 263.195 179.5 263.021 179.267C262.821 179.001 262.821 178.524 262.821 177.569V177.43Z" stroke="#BA4F54" stroke-linecap="round" stroke-linejoin="round"/>
<path d="M283.557 145.075C283.554 144.446 283.64 143.93 283.816 143.529C283.995 143.128 284.247 142.831 284.571 142.639C284.896 142.444 285.274 142.346 285.705 142.346C286.04 142.346 286.34 142.407 286.605 142.53C286.873 142.652 287.172 142.848 287.5 143.116C287.715 143.292 287.899 143.418 288.051 143.494C288.204 143.571 288.358 143.609 288.514 143.609C288.766 143.609 288.961 143.514 289.1 143.325C289.243 143.136 289.313 142.863 289.309 142.505H290.93C290.937 143.115 290.849 143.625 290.667 144.036C290.484 144.444 290.227 144.752 289.896 144.961C289.568 145.166 289.185 145.269 288.748 145.269C288.436 145.269 288.141 145.21 287.863 145.09C287.587 144.971 287.269 144.765 286.908 144.474C286.689 144.301 286.52 144.184 286.401 144.121C286.282 144.058 286.144 144.026 285.988 144.026C285.736 144.026 285.539 144.111 285.397 144.28C285.254 144.446 285.183 144.711 285.183 145.075H283.557ZM283.557 148.317C283.554 147.687 283.64 147.172 283.816 146.771C283.995 146.37 284.247 146.073 284.571 145.881C284.896 145.685 285.274 145.587 285.705 145.587C286.04 145.587 286.34 145.649 286.605 145.771C286.873 145.894 287.172 146.089 287.5 146.358C287.715 146.534 287.899 146.66 288.051 146.736C288.204 146.812 288.358 146.85 288.514 146.85C288.766 146.85 288.961 146.756 289.1 146.567C289.243 146.378 289.313 146.104 289.309 145.746H290.93C290.937 146.356 290.849 146.867 290.667 147.278C290.484 147.685 290.227 147.994 289.896 148.202C289.568 148.408 289.185 148.511 288.748 148.511C288.436 148.511 288.141 148.451 287.863 148.332C287.587 148.212 287.269 148.007 286.908 147.715C286.689 147.543 286.52 147.425 286.401 147.362C286.282 147.299 286.144 147.268 285.988 147.268C285.736 147.268 285.539 147.352 285.397 147.521C285.254 147.687 285.183 147.952 285.183 148.317H283.557Z" fill="#424242"/>
<path d="M299.388 149.612C297.904 149.612 296.602 148.66 296.14 147.638L297.316 147.022C297.428 147.414 298.226 148.352 299.388 148.352C300.494 148.352 301.446 147.68 301.446 146.532C301.446 145.37 300.55 144.6 299.528 144.6C298.492 144.6 297.624 145.216 297.484 145.398L296.364 144.908V140.106H302.566V141.436H297.694V143.774C298.072 143.578 298.758 143.34 299.528 143.34C301.306 143.34 302.776 144.614 302.776 146.518C302.776 148.408 301.376 149.612 299.388 149.612ZM303.376 150.2L304.02 147.778H305.224L304.356 150.2H303.376ZM306.524 149.5L306.454 148.366C307.014 147.862 311.116 144.558 311.116 142.878C311.116 141.954 310.346 141.254 309.31 141.254C308.008 141.254 307.336 142.542 307.182 142.836L306.356 141.842C306.496 141.548 307.616 139.994 309.478 139.994C311.326 139.994 312.474 141.38 312.474 142.766C312.474 144.936 309.072 147.596 308.47 148.17H312.684V149.5H306.524ZM317.135 149.612C314.993 149.612 313.705 148.38 313.705 146.868C313.705 145.86 314.265 144.992 315.245 144.544C314.433 144.11 313.971 143.368 313.971 142.5C313.971 141.114 315.147 139.994 317.121 139.994C319.095 139.994 320.271 141.114 320.271 142.5C320.271 143.354 319.823 144.11 319.011 144.544C320.005 144.992 320.565 145.86 320.565 146.868C320.565 148.38 319.277 149.612 317.135 149.612ZM317.135 144.138C318.185 144.138 318.843 143.522 318.829 142.696C318.843 141.87 318.185 141.254 317.135 141.254C316.071 141.254 315.427 141.87 315.427 142.696C315.427 143.522 316.071 144.138 317.135 144.138ZM317.135 148.352C318.339 148.352 319.067 147.666 319.067 146.756C319.067 145.832 318.325 145.132 317.135 145.132C315.931 145.132 315.189 145.832 315.189 146.756C315.189 147.666 315.945 148.352 317.135 148.352ZM325.51 143.368C327.246 143.368 328.73 144.614 328.73 146.476C328.73 148.492 327.12 149.612 325.524 149.612C322.976 149.612 321.632 147.456 321.632 144.81C321.632 142.15 323.088 139.994 325.524 139.994C327.288 139.994 328.59 141.198 328.814 141.576L327.89 142.556C327.89 142.542 327.036 141.254 325.524 141.254C324.026 141.254 323.102 142.71 323.004 144.488C323.508 143.774 324.362 143.368 325.51 143.368ZM325.454 148.366C326.518 148.366 327.386 147.568 327.386 146.476C327.386 145.314 326.574 144.46 325.454 144.46C324.292 144.46 323.452 145.202 323.452 146.462C323.452 147.218 323.816 147.792 324.348 148.114C324.67 148.282 325.048 148.366 325.454 148.366Z" fill="#A6A6A6"/>
<path d="M336.761 142.472V143.508H335.487V149.5H334.171V143.508H333.345V142.472H334.171V140.47C334.171 139.574 334.661 138.972 335.459 138.972C336.173 138.972 336.691 139.182 336.691 139.182L336.425 140.19C336.425 140.19 336.159 140.12 335.921 140.12C335.585 140.12 335.487 140.302 335.487 140.89V142.472H336.761ZM338.814 140.89C338.394 140.89 338.058 140.554 338.058 140.134C338.058 139.714 338.394 139.378 338.814 139.378C339.22 139.378 339.57 139.714 339.57 140.134C339.57 140.554 339.22 140.89 338.814 140.89ZM338.142 149.5V142.5H339.472V149.5H338.142ZM341.367 149.5V139.07H342.697V149.5H341.367ZM351.181 145.622C351.181 145.706 351.195 145.762 351.181 145.818L345.511 146.84C345.805 147.694 346.631 148.324 347.597 148.324C348.857 148.324 349.795 147.428 350.005 146.826L351.139 147.204C350.887 147.876 349.739 149.542 347.597 149.542C346.113 149.528 344.671 148.548 344.167 147.078C344.041 146.714 343.985 146.322 343.985 145.93C343.985 143.928 345.595 142.318 347.597 142.304C349.473 142.318 351.041 143.774 351.181 145.622ZM345.329 145.79L349.669 145.02C349.333 144.11 348.423 143.48 347.443 143.508C346.351 143.55 345.441 144.432 345.343 145.524C345.343 145.566 345.343 145.664 345.329 145.79ZM354.921 149.612C353.087 149.612 352.037 148.352 352.037 148.352L352.919 147.582C352.919 147.582 353.773 148.436 354.949 148.436C355.789 148.436 356.377 148.128 356.377 147.568C356.377 146.49 352.023 146.714 352.023 144.432C352.023 143.27 352.905 142.388 354.711 142.388C356.559 142.388 357.609 143.634 357.609 143.634L356.727 144.418C356.727 144.418 355.873 143.564 354.697 143.564C353.857 143.564 353.269 143.872 353.269 144.432C353.269 145.51 357.623 145.286 357.623 147.568C357.623 148.73 356.741 149.612 354.921 149.612Z" fill="#7D7D7D"/>
<path d="M261.825 144.667H267.159M261.825 147.333H265.159" stroke="#BA4F54" stroke-width="1.5" stroke-linecap="round" stroke-linejoin="round"/>
<path d="M265.822 137.372V138.133C265.822 139.254 265.822 139.814 266.04 140.241C266.232 140.618 266.538 140.924 266.914 141.116C267.342 141.333 267.902 141.333 269.022 141.333L269.784 141.333M265.822 137.372C265.56 137.333 265.246 137.333 264.721 137.333H263.422C261.928 137.333 261.182 137.333 260.611 137.624C260.11 137.88 259.702 138.288 259.446 138.79C259.155 139.36 259.155 140.107 259.155 141.6V146.4C259.155 147.894 259.155 148.64 259.446 149.211C259.702 149.713 260.11 150.121 260.611 150.376C261.182 150.667 261.928 150.667 263.422 150.667H265.555C267.049 150.667 267.795 150.667 268.366 150.376C268.868 150.121 269.276 149.713 269.531 149.211C269.822 148.64 269.822 147.894 269.822 146.4V142.434C269.822 141.909 269.822 141.596 269.784 141.333M265.822 137.372C265.886 137.381 265.947 137.393 266.007 137.407C266.279 137.473 266.539 137.58 266.777 137.726C267.046 137.891 267.277 138.122 267.738 138.583L268.572 139.417C269.033 139.878 269.264 140.109 269.429 140.378C269.575 140.617 269.683 140.877 269.748 141.149C269.763 141.209 269.774 141.27 269.784 141.333" stroke="#7D7D7D" stroke-width="1.5" stroke-linecap="round" stroke-linejoin="round"/>
<path d="M283.557 112.075C283.554 111.446 283.64 110.93 283.816 110.529C283.995 110.128 284.247 109.831 284.571 109.639C284.896 109.444 285.274 109.346 285.705 109.346C286.04 109.346 286.34 109.407 286.605 109.53C286.873 109.652 287.172 109.848 287.5 110.116C287.715 110.292 287.899 110.418 288.051 110.494C288.204 110.571 288.358 110.609 288.514 110.609C288.766 110.609 288.961 110.514 289.1 110.325C289.243 110.136 289.313 109.863 289.309 109.505H290.93C290.937 110.115 290.849 110.625 290.667 111.036C290.484 111.444 290.227 111.752 289.896 111.961C289.568 112.166 289.185 112.269 288.748 112.269C288.436 112.269 288.141 112.21 287.863 112.09C287.587 111.971 287.269 111.765 286.908 111.474C286.689 111.301 286.52 111.184 286.401 111.121C286.282 111.058 286.144 111.026 285.988 111.026C285.736 111.026 285.539 111.111 285.397 111.28C285.254 111.446 285.183 111.711 285.183 112.075H283.557ZM283.557 115.317C283.554 114.687 283.64 114.172 283.816 113.771C283.995 113.37 284.247 113.073 284.571 112.881C284.896 112.685 285.274 112.587 285.705 112.587C286.04 112.587 286.34 112.649 286.605 112.771C286.873 112.894 287.172 113.089 287.5 113.358C287.715 113.534 287.899 113.66 288.051 113.736C288.204 113.812 288.358 113.85 288.514 113.85C288.766 113.85 288.961 113.756 289.1 113.567C289.243 113.378 289.313 113.104 289.309 112.746H290.93C290.937 113.356 290.849 113.867 290.667 114.278C290.484 114.685 290.227 114.994 289.896 115.202C289.568 115.408 289.185 115.511 288.748 115.511C288.436 115.511 288.141 115.451 287.863 115.332C287.587 115.212 287.269 115.007 286.908 114.715C286.689 114.543 286.52 114.425 286.401 114.362C286.282 114.299 286.144 114.268 285.988 114.268C285.736 114.268 285.539 114.352 285.397 114.521C285.254 114.687 285.183 114.952 285.183 115.317H283.557Z" fill="#424242"/>
<path d="M299.388 116.612C297.904 116.612 296.602 115.66 296.14 114.638L297.316 114.022C297.428 114.414 298.226 115.352 299.388 115.352C300.494 115.352 301.446 114.68 301.446 113.532C301.446 112.37 300.55 111.6 299.528 111.6C298.492 111.6 297.624 112.216 297.484 112.398L296.364 111.908V107.106H302.566V108.436H297.694V110.774C298.072 110.578 298.758 110.34 299.528 110.34C301.306 110.34 302.776 111.614 302.776 113.518C302.776 115.408 301.376 116.612 299.388 116.612ZM307.51 116.612C305.368 116.612 304.08 115.38 304.08 113.868C304.08 112.86 304.64 111.992 305.62 111.544C304.808 111.11 304.346 110.368 304.346 109.5C304.346 108.114 305.522 106.994 307.496 106.994C309.47 106.994 310.646 108.114 310.646 109.5C310.646 110.354 310.198 111.11 309.386 111.544C310.38 111.992 310.94 112.86 310.94 113.868C310.94 115.38 309.652 116.612 307.51 116.612ZM307.51 111.138C308.56 111.138 309.218 110.522 309.204 109.696C309.218 108.87 308.56 108.254 307.51 108.254C306.446 108.254 305.802 108.87 305.802 109.696C305.802 110.522 306.446 111.138 307.51 111.138ZM307.51 115.352C308.714 115.352 309.442 114.666 309.442 113.756C309.442 112.832 308.7 112.132 307.51 112.132C306.306 112.132 305.564 112.832 305.564 113.756C305.564 114.666 306.32 115.352 307.51 115.352ZM315.885 110.368C317.621 110.368 319.105 111.614 319.105 113.476C319.105 115.492 317.495 116.612 315.899 116.612C313.351 116.612 312.007 114.456 312.007 111.81C312.007 109.15 313.463 106.994 315.899 106.994C317.663 106.994 318.965 108.198 319.189 108.576L318.265 109.556C318.265 109.542 317.411 108.254 315.899 108.254C314.401 108.254 313.477 109.71 313.379 111.488C313.883 110.774 314.737 110.368 315.885 110.368ZM315.829 115.366C316.893 115.366 317.761 114.568 317.761 113.476C317.761 112.314 316.949 111.46 315.829 111.46C314.667 111.46 313.827 112.202 313.827 113.462C313.827 114.218 314.191 114.792 314.723 115.114C315.045 115.282 315.423 115.366 315.829 115.366Z" fill="#A6A6A6"/>
<path d="M327.85 109.374C329.852 109.374 331.462 110.998 331.462 112.986C331.462 114.974 329.852 116.598 327.85 116.598C326.94 116.598 326.114 116.262 325.484 115.716V119.916H324.154V109.486H325.484V110.256C326.114 109.71 326.94 109.374 327.85 109.374ZM327.808 115.338C329.11 115.338 330.104 114.33 330.104 112.986C330.104 111.642 329.11 110.62 327.808 110.62C326.52 110.62 325.526 111.642 325.526 112.986C325.526 114.33 326.52 115.338 327.808 115.338ZM333.646 107.89C333.226 107.89 332.89 107.554 332.89 107.134C332.89 106.714 333.226 106.378 333.646 106.378C334.052 106.378 334.402 106.714 334.402 107.134C334.402 107.554 334.052 107.89 333.646 107.89ZM332.974 116.5V109.5H334.304V116.5H332.974ZM339.38 116.612C337.378 116.612 335.768 114.988 335.768 113C335.768 111.012 337.378 109.388 339.38 109.388C340.696 109.388 341.844 110.102 342.474 111.166L341.284 111.74C340.836 111.082 340.122 110.648 339.38 110.648C338.078 110.648 337.098 111.656 337.098 113C337.098 114.344 338.078 115.352 339.38 115.352C340.122 115.352 340.836 114.918 341.284 114.26L342.474 114.834C341.844 115.898 340.696 116.612 339.38 116.612ZM347.73 114.652L348.332 115.702C348.332 115.702 347.618 116.612 346.428 116.612C345.28 116.612 344.328 115.996 344.328 114.568V110.704H343.334V109.5H344.328V107.218L345.658 107.134V109.5H347.562V110.704H345.658V114.204C345.658 114.946 346.176 115.38 346.694 115.38C347.31 115.38 347.73 114.806 347.73 114.652ZM354.059 109.5H355.389V116.5H354.059V115.632C353.555 116.234 352.799 116.612 352.001 116.612C350.321 116.612 349.117 115.254 349.117 113.532V109.5H350.475V113.49C350.475 114.568 351.245 115.38 352.267 115.38C353.289 115.38 354.059 114.554 354.059 113.476V109.5ZM360.505 109.388C360.925 109.388 361.331 109.486 361.681 109.682L361.275 111.04C360.939 110.788 360.561 110.62 360.225 110.62C359.203 110.62 358.433 111.432 358.433 112.524V116.5H357.103V109.5H358.433V110.368C358.951 109.766 359.707 109.388 360.505 109.388ZM369.064 112.622C369.064 112.706 369.078 112.762 369.064 112.818L363.394 113.84C363.688 114.694 364.514 115.324 365.48 115.324C366.74 115.324 367.678 114.428 367.888 113.826L369.022 114.204C368.77 114.876 367.622 116.542 365.48 116.542C363.996 116.528 362.554 115.548 362.05 114.078C361.924 113.714 361.868 113.322 361.868 112.93C361.868 110.928 363.478 109.318 365.48 109.304C367.356 109.318 368.924 110.774 369.064 112.622ZM363.212 112.79L367.552 112.02C367.216 111.11 366.306 110.48 365.326 110.508C364.234 110.55 363.324 111.432 363.226 112.524C363.226 112.566 363.226 112.664 363.212 112.79ZM372.804 116.612C370.97 116.612 369.92 115.352 369.92 115.352L370.802 114.582C370.802 114.582 371.656 115.436 372.832 115.436C373.672 115.436 374.26 115.128 374.26 114.568C374.26 113.49 369.906 113.714 369.906 111.432C369.906 110.27 370.788 109.388 372.594 109.388C374.442 109.388 375.492 110.634 375.492 110.634L374.61 111.418C374.61 111.418 373.756 110.564 372.58 110.564C371.74 110.564 371.152 110.872 371.152 111.432C371.152 112.51 375.506 112.286 375.506 114.568C375.506 115.73 374.624 116.612 372.804 116.612Z" fill="#7D7D7D"/>
<path d="M260.488 108.167C260.488 107.614 260.936 107.167 261.488 107.167C262.041 107.167 262.488 107.614 262.488 108.167C262.488 108.719 262.041 109.167 261.488 109.167C260.936 109.167 260.488 108.719 260.488 108.167Z" stroke="#BA4F54" stroke-linecap="round" stroke-linejoin="round"/>
<path d="M283.557 211.575C283.554 210.946 283.64 210.43 283.816 210.029C283.995 209.628 284.247 209.331 284.571 209.139C284.896 208.944 285.274 208.846 285.705 208.846C286.04 208.846 286.34 208.907 286.605 209.03C286.873 209.152 287.172 209.348 287.5 209.616C287.715 209.792 287.899 209.918 288.051 209.994C288.204 210.071 288.358 210.109 288.514 210.109C288.766 210.109 288.961 210.014 289.1 209.825C289.243 209.636 289.313 209.363 289.309 209.005H290.93C290.937 209.615 290.849 210.125 290.667 210.536C290.484 210.944 290.227 211.252 289.896 211.461C289.568 211.666 289.185 211.769 288.748 211.769C288.436 211.769 288.141 211.71 287.863 211.59C287.587 211.471 287.269 211.265 286.908 210.974C286.689 210.801 286.52 210.684 286.401 210.621C286.282 210.558 286.144 210.526 285.988 210.526C285.736 210.526 285.539 210.611 285.397 210.78C285.254 210.946 285.183 211.211 285.183 211.575H283.557ZM283.557 214.817C283.554 214.187 283.64 213.672 283.816 213.271C283.995 212.87 284.247 212.573 284.571 212.381C284.896 212.185 285.274 212.087 285.705 212.087C286.04 212.087 286.34 212.149 286.605 212.271C286.873 212.394 287.172 212.589 287.5 212.858C287.715 213.034 287.899 213.16 288.051 213.236C288.204 213.312 288.358 213.35 288.514 213.35C288.766 213.35 288.961 213.256 289.1 213.067C289.243 212.878 289.313 212.604 289.309 212.246H290.93C290.937 212.856 290.849 213.367 290.667 213.778C290.484 214.185 290.227 214.494 289.896 214.702C289.568 214.908 289.185 215.011 288.748 215.011C288.436 215.011 288.141 214.951 287.863 214.832C287.587 214.712 287.269 214.507 286.908 214.215C286.689 214.043 286.52 213.925 286.401 213.862C286.282 213.799 286.144 213.768 285.988 213.768C285.736 213.768 285.539 213.852 285.397 214.021C285.254 214.187 285.183 214.452 285.183 214.817H283.557Z" fill="#424242"/>
<path d="M302.86 212.542V213.872H301.698V216H300.368V213.872H296.14V212.752L300.116 206.606L300.368 206.62V206.606H301.698V212.542H302.86ZM297.694 212.542H300.368V208.412L297.694 212.542ZM307.524 216.112C305.382 216.112 304.094 214.88 304.094 213.368C304.094 212.36 304.654 211.492 305.634 211.044C304.822 210.61 304.36 209.868 304.36 209C304.36 207.614 305.536 206.494 307.51 206.494C309.484 206.494 310.66 207.614 310.66 209C310.66 209.854 310.212 210.61 309.4 211.044C310.394 211.492 310.954 212.36 310.954 213.368C310.954 214.88 309.666 216.112 307.524 216.112ZM307.524 210.638C308.574 210.638 309.232 210.022 309.218 209.196C309.232 208.37 308.574 207.754 307.524 207.754C306.46 207.754 305.816 208.37 305.816 209.196C305.816 210.022 306.46 210.638 307.524 210.638ZM307.524 214.852C308.728 214.852 309.456 214.166 309.456 213.256C309.456 212.332 308.714 211.632 307.524 211.632C306.32 211.632 305.578 212.332 305.578 213.256C305.578 214.166 306.334 214.852 307.524 214.852ZM315.447 206.494C318.009 206.494 319.353 208.65 319.353 211.31C319.353 213.956 317.897 216.112 315.447 216.112C313.683 216.112 312.395 214.922 312.171 214.53L313.081 213.55C313.081 213.564 313.935 214.852 315.447 214.852C316.945 214.852 317.869 213.41 317.967 211.618C317.463 212.332 316.609 212.752 315.475 212.752C313.739 212.752 312.255 211.492 312.255 209.63C312.255 207.614 313.865 206.494 315.447 206.494ZM315.517 211.646C316.693 211.646 317.533 210.904 317.533 209.644C317.533 208.944 317.197 208.384 316.707 208.062C316.371 207.852 315.979 207.754 315.531 207.754C314.453 207.754 313.599 208.538 313.599 209.63C313.599 210.792 314.397 211.646 315.517 211.646Z" fill="#A6A6A6"/>
<path d="M326.88 216.112C325.046 216.112 323.996 214.852 323.996 214.852L324.878 214.082C324.878 214.082 325.732 214.936 326.908 214.936C327.748 214.936 328.336 214.628 328.336 214.068C328.336 212.99 323.982 213.214 323.982 210.932C323.982 209.77 324.864 208.888 326.67 208.888C328.518 208.888 329.568 210.134 329.568 210.134L328.686 210.918C328.686 210.918 327.832 210.064 326.656 210.064C325.816 210.064 325.228 210.372 325.228 210.932C325.228 212.01 329.582 211.786 329.582 214.068C329.582 215.23 328.7 216.112 326.88 216.112ZM334.062 216.112C332.06 216.112 330.45 214.488 330.45 212.5C330.45 210.512 332.06 208.888 334.062 208.888C336.05 208.888 337.674 210.512 337.674 212.5C337.674 214.488 336.05 216.112 334.062 216.112ZM334.104 214.852C335.392 214.852 336.386 213.844 336.386 212.5C336.386 211.156 335.392 210.134 334.104 210.134C332.802 210.134 331.822 211.156 331.822 212.5C331.822 213.844 332.802 214.852 334.104 214.852ZM342.28 208.888C343.946 208.888 345.15 210.246 345.15 211.968V216H343.792V212.01C343.792 210.932 343.022 210.12 342 210.12C340.978 210.12 340.208 210.932 340.208 212.024V216H338.878V209H340.208V209.868C340.726 209.266 341.482 208.888 342.28 208.888ZM352.383 209.014H353.713V215.426C353.685 217.526 351.921 218.982 350.101 218.982C347.959 218.982 346.867 217.484 346.615 216.812L347.679 216.28C347.903 216.882 348.841 217.764 350.101 217.764C351.473 217.764 352.369 216.532 352.397 215.426H352.383V215.244C351.753 215.79 350.927 216.126 350.017 216.126C348.015 216.126 346.405 214.516 346.405 212.514C346.405 210.526 348.015 208.902 350.017 208.902C350.927 208.902 351.753 209.238 352.383 209.784V209.014ZM350.059 214.88C351.347 214.88 352.341 213.872 352.341 212.514C352.341 211.184 351.347 210.162 350.059 210.162C348.757 210.162 347.777 211.184 347.777 212.514C347.777 213.872 348.757 214.88 350.059 214.88ZM358.065 216.112C356.231 216.112 355.181 214.852 355.181 214.852L356.063 214.082C356.063 214.082 356.917 214.936 358.093 214.936C358.933 214.936 359.521 214.628 359.521 214.068C359.521 212.99 355.167 213.214 355.167 210.932C355.167 209.77 356.049 208.888 357.855 208.888C359.703 208.888 360.753 210.134 360.753 210.134L359.871 210.918C359.871 210.918 359.017 210.064 357.841 210.064C357.001 210.064 356.413 210.372 356.413 210.932C356.413 212.01 360.767 211.786 360.767 214.068C360.767 215.23 359.885 216.112 358.065 216.112Z" fill="#7D7D7D"/>
<g clip-path="url(#clip0_3849_5355)">
<path d="M261.821 210.5V207.742C261.821 207.194 262.157 206.701 262.667 206.501L269.789 203.703C270.445 203.445 271.155 203.929 271.155 204.634V206.833M261.821 210.5V215.167M261.821 210.5L271.155 206.833M261.821 215.167C261.821 216.271 260.926 217.167 259.821 217.167C258.717 217.167 257.821 216.271 257.821 215.167C257.821 214.062 258.717 213.167 259.821 213.167C260.926 213.167 261.821 214.062 261.821 215.167ZM271.155 206.833V213.167M271.155 213.167C271.155 214.271 270.259 215.167 269.155 215.167C268.05 215.167 267.155 214.271 267.155 213.167C267.155 212.062 268.05 211.167 269.155 211.167C270.259 211.167 271.155 212.062 271.155 213.167Z" stroke="#7D7D7D" stroke-width="1.5" stroke-linecap="round" stroke-linejoin="round"/>
<path fill-rule="evenodd" clip-rule="evenodd" d="M270.41 207.93L262.574 211.016L262.574 209.394L270.41 206.321L270.41 207.93Z" fill="#BA4F54"/>
</g>
<rect x="38.5" y="100.5" width="156" height="48" rx="5.5" stroke="#2B2B2B"/>
<path d="M58.198 120.606H59.528V130H58.198V122.132L57.092 122.804L56.476 121.558L58.198 120.606Z" fill="#A6A6A6"/>
<path d="M163.208 130.112C160.338 130.112 158.616 127.956 158.616 125.31C158.616 122.65 160.338 120.494 163.208 120.494C165.042 120.494 166.386 121.376 167.128 122.706L165.91 123.462C165.378 122.44 164.398 121.754 163.208 121.754C161.276 121.754 160.072 123.28 160.072 125.31C160.072 127.34 161.276 128.866 163.208 128.866C164.79 128.866 165.924 127.69 166.204 126.15H163.418V124.974H167.604V130H166.442V128.544C165.756 129.482 164.65 130.112 163.208 130.112ZM169.328 130V120.606H172.604C174.83 120.606 176.16 121.796 176.16 123.28C176.16 124.12 175.698 124.862 174.858 125.31C175.698 125.73 176.16 126.472 176.16 127.326C176.16 128.796 174.83 130 172.604 130H169.328ZM170.658 124.764H172.604C173.962 124.764 174.802 124.134 174.802 123.308C174.802 122.482 173.962 121.852 172.604 121.852H170.658V124.764ZM170.658 128.74H172.604C173.962 128.74 174.802 128.11 174.802 127.284C174.802 126.472 173.962 125.842 172.604 125.842H170.658V128.74Z" fill="#7D7D7D"/>
<path d="M270.821 109.348C270.298 109.229 269.754 109.167 269.196 109.167C265.179 109.167 261.902 112.417 261.729 116.493M270.821 109.348C270.821 109.503 270.821 109.664 270.821 109.833V111.167C270.821 113.034 270.821 113.967 270.467 114.68C270.155 115.307 269.658 115.817 269.047 116.137C268.352 116.5 267.441 116.5 265.621 116.5H263.021C262.528 116.5 262.102 116.5 261.729 116.493M270.821 109.348C270.818 107.799 270.789 106.968 270.467 106.32C270.155 105.693 269.658 105.183 269.047 104.863C268.352 104.5 267.441 104.5 265.621 104.5H263.021C261.201 104.5 260.291 104.5 259.596 104.863C258.984 105.183 258.487 105.693 258.176 106.32C257.821 107.033 257.821 107.966 257.821 109.833V111.167C257.821 113.034 257.821 113.967 258.176 114.68C258.487 115.307 258.984 115.817 259.596 116.137C260.103 116.402 260.724 116.473 261.729 116.493" stroke="#7D7D7D" stroke-width="1.5" stroke-linecap="round" stroke-linejoin="round"/>
<rect x="39.5" y="171.5" width="155" height="48" rx="5.5" stroke="#2B2B2B"/>
<path d="M58.176 201L58.106 199.866C58.666 199.362 62.768 196.058 62.768 194.378C62.768 193.454 61.998 192.754 60.962 192.754C59.66 192.754 58.988 194.042 58.834 194.336L58.008 193.342C58.148 193.048 59.268 191.494 61.13 191.494C62.978 191.494 64.126 192.88 64.126 194.266C64.126 196.436 60.724 199.096 60.122 199.67H64.336V201H58.176ZM68.4936 201.112C66.7436 201.112 65.4416 199.936 65.2176 199.53L66.1276 198.55C66.3236 198.9 67.2896 199.852 68.3676 199.852C69.3896 199.852 70.1316 199.264 70.1316 198.438C70.1316 197.598 69.3056 196.8 67.5836 196.8H67.2056V195.82H67.5836C69.3056 195.82 70.1316 195.008 70.1316 194.182C70.1316 193.356 69.3896 192.754 68.3676 192.754C67.0516 192.754 66.1276 194.056 66.1276 194.056L65.2176 193.09C65.4416 192.698 66.7296 191.494 68.4936 191.494C70.5096 191.494 71.4756 192.838 71.4756 194.126C71.4756 195.288 70.5516 196.114 70.0196 196.296C70.5516 196.492 71.4756 197.318 71.4756 198.48C71.4756 199.782 70.5096 201.112 68.4936 201.112ZM72.368 201V199.278H73.74V201H72.368ZM78.1327 194.868C79.8687 194.868 81.3527 196.114 81.3527 197.976C81.3527 199.992 79.7427 201.112 78.1467 201.112C75.5987 201.112 74.2547 198.956 74.2547 196.31C74.2547 193.65 75.7107 191.494 78.1467 191.494C79.9107 191.494 81.2127 192.698 81.4367 193.076L80.5127 194.056C80.5127 194.042 79.6587 192.754 78.1467 192.754C76.6487 192.754 75.7247 194.21 75.6267 195.988C76.1307 195.274 76.9847 194.868 78.1327 194.868ZM78.0767 199.866C79.1407 199.866 80.0087 199.068 80.0087 197.976C80.0087 196.814 79.1967 195.96 78.0767 195.96C76.9147 195.96 76.0747 196.702 76.0747 197.962C76.0747 198.718 76.4387 199.292 76.9707 199.614C77.2927 199.782 77.6707 199.866 78.0767 199.866ZM86.0688 201.112C83.9268 201.112 82.6388 199.88 82.6388 198.368C82.6388 197.36 83.1988 196.492 84.1788 196.044C83.3668 195.61 82.9048 194.868 82.9048 194C82.9048 192.614 84.0808 191.494 86.0548 191.494C88.0288 191.494 89.2048 192.614 89.2048 194C89.2048 194.854 88.7568 195.61 87.9448 196.044C88.9388 196.492 89.4988 197.36 89.4988 198.368C89.4988 199.88 88.2108 201.112 86.0688 201.112ZM86.0688 195.638C87.1188 195.638 87.7768 195.022 87.7628 194.196C87.7768 193.37 87.1188 192.754 86.0688 192.754C85.0048 192.754 84.3608 193.37 84.3608 194.196C84.3608 195.022 85.0048 195.638 86.0688 195.638ZM86.0688 199.852C87.2728 199.852 88.0008 199.166 88.0008 198.256C88.0008 197.332 87.2588 196.632 86.0688 196.632C84.8648 196.632 84.1228 197.332 84.1228 198.256C84.1228 199.166 84.8788 199.852 86.0688 199.852ZM94.0385 201.112C92.5545 201.112 91.2525 200.16 90.7905 199.138L91.9665 198.522C92.0785 198.914 92.8765 199.852 94.0385 199.852C95.1445 199.852 96.0965 199.18 96.0965 198.032C96.0965 196.87 95.2005 196.1 94.1785 196.1C93.1425 196.1 92.2745 196.716 92.1345 196.898L91.0145 196.408V191.606H97.2165V192.936H92.3445V195.274C92.7225 195.078 93.4085 194.84 94.1785 194.84C95.9565 194.84 97.4265 196.114 97.4265 198.018C97.4265 199.908 96.0265 201.112 94.0385 201.112ZM102.455 194.868C104.191 194.868 105.675 196.114 105.675 197.976C105.675 199.992 104.065 201.112 102.469 201.112C99.9209 201.112 98.5769 198.956 98.5769 196.31C98.5769 193.65 100.033 191.494 102.469 191.494C104.233 191.494 105.535 192.698 105.759 193.076L104.835 194.056C104.835 194.042 103.981 192.754 102.469 192.754C100.971 192.754 100.047 194.21 99.9489 195.988C100.453 195.274 101.307 194.868 102.455 194.868ZM102.399 199.866C103.463 199.866 104.331 199.068 104.331 197.976C104.331 196.814 103.519 195.96 102.399 195.96C101.237 195.96 100.397 196.702 100.397 197.962C100.397 198.718 100.761 199.292 101.293 199.614C101.615 199.782 101.993 199.866 102.399 199.866ZM113.616 197.542V198.872H112.454V201H111.124V198.872H106.896V197.752L110.872 191.606L111.124 191.62V191.606H112.454V197.542H113.616ZM108.45 197.542H111.124V193.412L108.45 197.542ZM118.28 201.112C116.138 201.112 114.85 199.88 114.85 198.368C114.85 197.36 115.41 196.492 116.39 196.044C115.578 195.61 115.116 194.868 115.116 194C115.116 192.614 116.292 191.494 118.266 191.494C120.24 191.494 121.416 192.614 121.416 194C121.416 194.854 120.968 195.61 120.156 196.044C121.15 196.492 121.71 197.36 121.71 198.368C121.71 199.88 120.422 201.112 118.28 201.112ZM118.28 195.638C119.33 195.638 119.988 195.022 119.974 194.196C119.988 193.37 119.33 192.754 118.28 192.754C117.216 192.754 116.572 193.37 116.572 194.196C116.572 195.022 117.216 195.638 118.28 195.638ZM118.28 199.852C119.484 199.852 120.212 199.166 120.212 198.256C120.212 197.332 119.47 196.632 118.28 196.632C117.076 196.632 116.334 197.332 116.334 198.256C116.334 199.166 117.09 199.852 118.28 199.852ZM126.203 191.494C128.765 191.494 130.109 193.65 130.109 196.31C130.109 198.956 128.653 201.112 126.203 201.112C124.439 201.112 123.151 199.922 122.927 199.53L123.837 198.55C123.837 198.564 124.691 199.852 126.203 199.852C127.701 199.852 128.625 198.41 128.723 196.618C128.219 197.332 127.365 197.752 126.231 197.752C124.495 197.752 123.011 196.492 123.011 194.63C123.011 192.614 124.621 191.494 126.203 191.494ZM126.273 196.646C127.449 196.646 128.289 195.904 128.289 194.644C128.289 193.944 127.953 193.384 127.463 193.062C127.127 192.852 126.735 192.754 126.287 192.754C125.209 192.754 124.355 193.538 124.355 194.63C124.355 195.792 125.153 196.646 126.273 196.646ZM130.822 191.592H137.01V192.404L132.32 201H130.822L135.218 192.922H130.822V191.592Z" fill="#A6A6A6"/>
<path d="M155.662 201.112C153.59 201.112 151.896 199.726 151.896 197.402V191.592H153.226V197.402C153.226 198.914 154.276 199.852 155.662 199.852C157.048 199.852 158.098 198.914 158.098 197.402V191.592H159.428V197.402C159.428 199.726 157.748 201.112 155.662 201.112ZM164.066 201.112C162.498 201.112 161.111 199.894 160.832 199.586L161.742 198.676C161.938 198.9 162.918 199.852 164.08 199.852C165.144 199.852 165.802 199.376 165.802 198.592C165.802 196.758 160.93 196.828 160.93 194.028C160.93 192.628 162.134 191.508 163.968 191.494C165.536 191.494 166.922 192.712 167.216 193.02L166.306 193.93C166.082 193.692 165.088 192.754 163.968 192.754C162.89 192.754 162.232 193.23 162.232 194.014C162.232 195.862 167.104 195.778 167.104 198.578C167.104 199.978 165.9 201.112 164.066 201.112ZM168.74 201V191.606H171.036C174.144 191.606 175.992 193.706 175.992 196.31C175.992 198.9 174.144 201 171.036 201H168.74ZM170.07 199.74H171.036C173.206 199.74 174.55 198.27 174.55 196.31C174.55 194.336 173.206 192.852 171.036 192.852H170.07V199.74Z" fill="#7D7D7D"/>
<defs>
<clipPath id="clip0_3849_5355">
<rect width="16" height="16" fill="white" transform="translate(256.488 202.5)"/>
</clipPath>
</defs>
</svg>
