<svg width="24" height="24" viewBox="0 0 24 24" fill="none" xmlns="http://www.w3.org/2000/svg">
<path d="M20.3954 14.1962L21.9427 13.919L20.5403 12.3495L21.7543 11.6707L20.2179 10.5256L21.2061 8.15055H19.045L19.6126 5.81759L17.297 7.00474L17.9303 3.92956L15.5905 5.85964L15.3423 2.89054L13.5744 5.56267L12.4713 2L11.3686 5.56267L9.60005 2.89054L9.35198 5.85964L7.01305 3.92956L7.64639 7.00474L5.32961 5.81759L5.89802 8.15036H3.73643L4.72425 10.5254L3.18824 11.6707L4.40213 12.3495L3 13.919L4.54815 14.1962L3.48679 16.2194L4.85655 16.7285L4.46423 18.0284L5.57697 17.7834L5.68798 19.386L6.61299 18.9146L6.69691 20.385L7.43333 20.1399C7.43333 20.1399 8.73642 21.4929 11.3552 20.8049C11.6592 20.7251 11.9182 20.5146 12.0403 20.2243C12.1768 19.9034 12.1316 19.5142 11.2576 19.3703C9.71808 19.1176 7.58726 19.4148 6.81548 17.4815C6.8099 17.4679 6.80868 17.453 6.812 17.4387C6.81533 17.4244 6.82302 17.4115 6.83404 17.4018C6.84505 17.3921 6.8588 17.3861 6.87339 17.3846C6.88799 17.3831 6.90266 17.3862 6.91541 17.3935C7.86541 17.9315 10.0917 18.417 10.2772 17.4004C10.4753 16.3176 9.52422 15.9596 8.98676 15.6631C8.44931 15.3667 6.00692 14.5757 6.1204 13.1206C6.23386 11.6656 7.82195 12.0542 8.18208 12.3444C8.50666 12.5556 11.7133 14.5291 11.7133 14.5291C11.7133 14.5291 10.5506 16.0727 12.4713 16.0727C14.3921 16.0727 13.2299 14.5287 13.2299 14.5287C13.2299 14.5287 16.4356 12.5556 16.7609 12.3444C17.1211 12.0542 18.7098 11.6659 18.8222 13.1206C18.9346 14.5754 16.4916 15.3668 15.9547 15.6633C15.4177 15.9597 14.4668 16.3177 14.6642 17.4006C14.8504 18.4166 17.0744 17.932 18.0257 17.3941C18.0384 17.3867 18.0531 17.3836 18.0677 17.385C18.0824 17.3865 18.0962 17.3925 18.1072 17.4022C18.1183 17.4119 18.126 17.4248 18.1293 17.4391C18.1326 17.4534 18.1314 17.4684 18.1258 17.482C17.355 19.4148 15.2242 19.1176 13.6852 19.3709C12.8116 19.5148 12.766 19.9042 12.9029 20.2251C13.026 20.5146 13.2832 20.7251 13.5872 20.8056C16.2068 21.4937 17.5104 20.1406 17.5104 20.1406L18.2464 20.3842L18.3297 18.9146L19.254 19.386L19.3653 17.7834L20.4778 18.0284L20.0867 16.7278L21.4564 16.2187L20.3954 14.1962ZM10.4225 12.1379C10.2142 12.1379 10.0105 12.0761 9.83731 11.9604C9.66409 11.8446 9.5291 11.6801 9.44938 11.4877C9.36967 11.2952 9.34882 11.0834 9.38948 10.8791C9.43012 10.6748 9.53046 10.4871 9.67779 10.3398C9.8251 10.1925 10.0128 10.0922 10.2171 10.0516C10.4214 10.011 10.6332 10.0319 10.8257 10.1116C11.0181 10.1913 11.1826 10.3264 11.2983 10.4996C11.4141 10.6728 11.4758 10.8765 11.4758 11.0848C11.4758 11.2232 11.4486 11.3602 11.3957 11.488C11.3428 11.6159 11.2653 11.732 11.1674 11.8299C11.0696 11.9277 10.9535 12.0053 10.8257 12.0583C10.6978 12.1112 10.5608 12.1379 10.4225 12.1379ZM14.5202 12.1379C14.3118 12.1379 14.1082 12.0762 13.9349 11.9605C13.7617 11.8448 13.6267 11.6802 13.5469 11.4878C13.4672 11.2953 13.4463 11.0835 13.4869 10.8792C13.5276 10.6749 13.6279 10.4872 13.7752 10.3399C13.9225 10.1925 14.1102 10.0922 14.3145 10.0516C14.5189 10.011 14.7307 10.0318 14.9231 10.1116C15.1156 10.1913 15.2801 10.3264 15.3958 10.4996C15.5115 10.6728 15.5733 10.8765 15.5732 11.0848C15.5733 11.2232 15.5461 11.3601 15.4932 11.488C15.4403 11.6158 15.3628 11.732 15.265 11.8298C15.1672 11.9276 15.0511 12.0053 14.9233 12.0582C14.7955 12.1112 14.6585 12.1379 14.5202 12.1379Z" fill="#AB9AFF"/>
</svg>
