<svg width="186" height="161" viewBox="0 0 186 161" fill="none" xmlns="http://www.w3.org/2000/svg">
<g filter="url(#filter0_b_1986_4941)">
<path d="M1.28442 122.953C1.28442 131.483 1.28442 135.748 2.92715 139.006C4.37213 141.872 6.67781 144.202 9.51374 145.662C12.7378 147.322 16.9582 147.322 25.3992 147.322H37.4566C45.8976 147.322 50.1181 147.322 53.3421 145.662C56.178 144.202 58.4837 141.872 59.9287 139.006C61.5714 135.748 61.5714 131.483 61.5714 122.953V100.302C61.5714 97.3053 61.5714 95.514 61.3547 94.0155C61.302 93.6511 61.2364 93.304 61.155 92.9611C60.7858 91.407 60.1768 89.9214 59.3504 88.5587C58.4184 87.0217 57.115 85.7046 54.5084 83.0705L49.7948 78.3073C47.1881 75.6732 45.8848 74.3561 44.3638 73.4143C43.0153 72.5792 41.5451 71.9638 40.0072 71.5907C39.6679 71.5084 39.3244 71.4422 38.9638 71.3889C37.481 71.1699 35.7083 71.1699 32.7431 71.1699H25.3992C16.9582 71.1699 12.7378 71.1699 9.51374 72.8299C6.67781 74.2901 4.37213 76.6201 2.92715 79.4859C1.28442 82.7438 1.28442 87.0087 1.28442 95.5386V122.953Z" fill="#141414" fill-opacity="0.2"/>
<path d="M38.9638 71.3889V75.739C38.9638 82.1364 38.9638 85.3351 40.1958 87.7786C41.2796 89.9279 43.0088 91.6754 45.1358 92.7705C47.5538 94.0155 50.7192 94.0155 57.0499 94.0155L61.3547 94.0155M38.9638 71.3889C37.481 71.1699 35.7083 71.1699 32.7431 71.1699H25.3992C16.9582 71.1699 12.7378 71.1699 9.51374 72.8299C6.67781 74.2901 4.37213 76.6201 2.92715 79.4859C1.28442 82.7438 1.28442 87.0087 1.28442 95.5386V122.953C1.28442 131.483 1.28442 135.748 2.92715 139.006C4.37213 141.872 6.67781 144.202 9.51374 145.662C12.7378 147.322 16.9582 147.322 25.3992 147.322H37.4566C45.8976 147.322 50.1181 147.322 53.3421 145.662C56.178 144.202 58.4837 141.872 59.9287 139.006C61.5714 135.748 61.5714 131.483 61.5714 122.953V100.302C61.5714 97.3053 61.5714 95.514 61.3547 94.0155M38.9638 71.3889C39.3244 71.4422 39.6679 71.5084 40.0072 71.5907C41.5451 71.9638 43.0153 72.5792 44.3638 73.4143C45.8848 74.3561 47.1881 75.6732 49.7948 78.3073L54.5084 83.0705C57.115 85.7046 58.4184 87.0217 59.3504 88.5587C60.1768 89.9214 60.7858 91.407 61.155 92.9611C61.2364 93.304 61.302 93.6511 61.3547 94.0155" stroke="#2F2B2B" stroke-width="0.88729" stroke-linecap="round" stroke-linejoin="round"/>
</g>
<g clip-path="url(#clip0_1986_4941)">
<path d="M27.951 109.17V105.722C27.951 105.037 28.3705 104.422 29.0083 104.171L37.9106 100.674C38.7307 100.352 39.6177 100.956 39.6177 101.837V104.586M27.951 109.17V115.003M27.951 109.17L39.6177 104.586M27.951 115.003C27.951 116.384 26.8318 117.503 25.451 117.503C24.0703 117.503 22.951 116.384 22.951 115.003C22.951 113.622 24.0703 112.503 25.451 112.503C26.8318 112.503 27.951 113.622 27.951 115.003ZM39.6177 104.586V112.503M39.6177 112.503C39.6177 113.884 38.4984 115.003 37.1177 115.003C35.737 115.003 34.6177 113.884 34.6177 112.503C34.6177 111.122 35.737 110.003 37.1177 110.003C38.4984 110.003 39.6177 111.122 39.6177 112.503Z" stroke="url(#paint0_linear_1986_4941)" stroke-width="1.5" stroke-linecap="round" stroke-linejoin="round"/>
</g>
<g filter="url(#filter1_b_1986_4941)">
<g filter="url(#filter2_b_1986_4941)">
<path d="M105.489 68.5612C105.489 79.7708 105.489 85.3755 107.648 89.657C109.547 93.4231 112.577 96.485 116.304 98.404C120.541 100.585 126.087 100.585 137.18 100.585H153.025C164.118 100.585 169.664 100.585 173.901 98.404C177.628 96.485 180.658 93.4231 182.557 89.657C184.716 85.3755 184.716 79.7708 184.716 68.5612V38.7936C184.716 34.8557 184.716 32.5017 184.431 30.5325C184.362 30.0536 184.276 29.5974 184.168 29.1468C183.683 27.1045 182.883 25.1522 181.797 23.3614C180.572 21.3415 178.859 19.6107 175.434 16.149L169.239 9.88944C165.814 6.42779 164.101 4.69697 162.102 3.4592C160.33 2.36179 158.398 1.5531 156.377 1.06279C155.931 0.954605 155.48 0.867583 155.006 0.797586C153.057 0.50977 150.728 0.50977 146.831 0.50977H137.18C126.087 0.50977 120.541 0.50977 116.304 2.69129C112.577 4.61021 109.547 7.67214 107.648 11.4382C105.489 15.7197 105.489 21.3245 105.489 32.534V68.5612Z" fill="#141414" fill-opacity="0.2"/>
<path d="M155.006 0.797586V6.51431C155.006 14.9215 155.006 19.125 156.625 22.3361C158.049 25.1607 160.322 27.4572 163.117 28.8963C166.294 30.5325 170.454 30.5325 178.774 30.5325L184.431 30.5325M155.006 0.797586C153.057 0.50977 150.728 0.50977 146.831 0.50977H137.18C126.087 0.50977 120.541 0.50977 116.304 2.69129C112.577 4.61021 109.547 7.67214 107.648 11.4382C105.489 15.7197 105.489 21.3245 105.489 32.534V68.5613C105.489 79.7708 105.489 85.3755 107.648 89.657C109.547 93.4231 112.577 96.485 116.304 98.404C120.541 100.585 126.087 100.585 137.18 100.585H153.025C164.118 100.585 169.664 100.585 173.901 98.404C177.628 96.485 180.658 93.4231 182.557 89.657C184.716 85.3755 184.716 79.7708 184.716 68.5612V38.7936C184.716 34.8557 184.716 32.5017 184.431 30.5325M155.006 0.797586C155.48 0.867583 155.931 0.954605 156.377 1.06279C158.398 1.5531 160.33 2.36179 162.102 3.4592C164.101 4.69697 165.814 6.42779 169.239 9.88944L175.434 16.149C178.859 19.6107 180.572 21.3415 181.797 23.3614C182.883 25.1522 183.683 27.1045 184.168 29.1468C184.276 29.5974 184.362 30.0536 184.431 30.5325" stroke="#2F2B2B" stroke-width="0.811655" stroke-linecap="round" stroke-linejoin="round"/>
</g>
<path d="M157.173 50.8213C157.173 56.1259 152.873 60.4262 147.568 60.4262C142.263 60.4262 137.963 56.1259 137.963 50.8213C137.963 45.5166 142.263 41.2163 147.568 41.2163C152.873 41.2163 157.173 45.5166 157.173 50.8213Z" stroke="url(#paint1_linear_1986_4941)" stroke-width="1.37214" stroke-linecap="round" stroke-linejoin="round"/>
<path d="M144.9 50.7103C144.9 49.1822 144.9 48.4181 145.219 47.9916C145.498 47.6198 145.924 47.3873 146.387 47.3542C146.918 47.3162 147.561 47.7294 148.846 48.5557L149.019 48.6667C150.134 49.3838 150.692 49.7423 150.885 50.1982C151.053 50.5965 151.053 51.046 150.885 51.4443C150.692 51.9002 150.134 52.2587 149.019 52.9758L148.846 53.0868C147.561 53.9131 146.918 54.3263 146.387 54.2883C145.924 54.2552 145.498 54.0227 145.219 53.6509C144.9 53.2244 144.9 52.4604 144.9 50.9323V50.7103Z" stroke="url(#paint2_linear_1986_4941)" stroke-width="1.37214" stroke-linecap="round" stroke-linejoin="round"/>
</g>
<g filter="url(#filter3_b_1986_4941)">
<path d="M75.1274 25.6786C81.8656 21.7883 85.2346 19.8432 88.8164 19.0819C91.9856 18.4082 95.261 18.4082 98.4302 19.0819C102.012 19.8432 105.381 21.7883 112.119 25.6786L132.718 37.5714C139.456 41.4617 142.825 43.4068 145.276 46.1281C147.444 48.5358 149.081 51.3724 150.082 54.4538C151.214 57.9364 151.214 61.8267 151.214 69.6072V93.3928C151.214 101.173 151.214 105.064 150.082 108.546C149.081 111.628 147.444 114.464 145.276 116.872C142.825 119.593 139.456 121.538 132.718 125.429L112.119 137.321C105.381 141.212 102.012 143.157 98.4302 143.918C95.261 144.592 91.9856 144.592 88.8164 143.918C85.2346 143.157 81.8656 141.212 75.1274 137.321L54.5285 125.429C47.7903 121.538 44.4213 119.593 41.971 116.872C39.8031 114.464 38.1654 111.628 37.1642 108.546C36.0326 105.064 36.0326 101.173 36.0326 93.3928V69.6072C36.0326 61.8267 36.0326 57.9364 37.1642 54.4538C38.1654 51.3724 39.8031 48.5358 41.971 46.1281C44.4213 43.4068 47.7903 41.4617 54.5285 37.5714L75.1274 25.6786Z" fill="#B3151D" fill-opacity="0.9"/>
<path d="M75.1274 25.6786C81.8656 21.7883 85.2346 19.8432 88.8164 19.0819C91.9856 18.4082 95.261 18.4082 98.4302 19.0819C102.012 19.8432 105.381 21.7883 112.119 25.6786L132.718 37.5714C139.456 41.4617 142.825 43.4068 145.276 46.1281C147.444 48.5358 149.081 51.3724 150.082 54.4538C151.214 57.9364 151.214 61.8267 151.214 69.6072V93.3928C151.214 101.173 151.214 105.064 150.082 108.546C149.081 111.628 147.444 114.464 145.276 116.872C142.825 119.593 139.456 121.538 132.718 125.429L112.119 137.321C105.381 141.212 102.012 143.157 98.4302 143.918C95.261 144.592 91.9856 144.592 88.8164 143.918C85.2346 143.157 81.8656 141.212 75.1274 137.321L54.5285 125.429C47.7903 121.538 44.4213 119.593 41.971 116.872C39.8031 114.464 38.1654 111.628 37.1642 108.546C36.0326 105.064 36.0326 101.173 36.0326 93.3928V69.6072C36.0326 61.8267 36.0326 57.9364 37.1642 54.4538C38.1654 51.3724 39.8031 48.5358 41.971 46.1281C44.4213 43.4068 47.7903 41.4617 54.5285 37.5714L75.1274 25.6786Z" fill="url(#paint3_linear_1986_4941)" fill-opacity="0.4" style="mix-blend-mode:overlay"/>
<path d="M75.1274 25.6786C81.8656 21.7883 85.2346 19.8432 88.8164 19.0819C91.9856 18.4082 95.261 18.4082 98.4302 19.0819C102.012 19.8432 105.381 21.7883 112.119 25.6786L132.718 37.5714C139.456 41.4617 142.825 43.4068 145.276 46.1281C147.444 48.5358 149.081 51.3724 150.082 54.4538C151.214 57.9364 151.214 61.8267 151.214 69.6072V93.3928C151.214 101.173 151.214 105.064 150.082 108.546C149.081 111.628 147.444 114.464 145.276 116.872C142.825 119.593 139.456 121.538 132.718 125.429L112.119 137.321C105.381 141.212 102.012 143.157 98.4302 143.918C95.261 144.592 91.9856 144.592 88.8164 143.918C85.2346 143.157 81.8656 141.212 75.1274 137.321L54.5285 125.429C47.7903 121.538 44.4213 119.593 41.971 116.872C39.8031 114.464 38.1654 111.628 37.1642 108.546C36.0326 105.064 36.0326 101.173 36.0326 93.3928V69.6072C36.0326 61.8267 36.0326 57.9364 37.1642 54.4538C38.1654 51.3724 39.8031 48.5358 41.971 46.1281C44.4213 43.4068 47.7903 41.4617 54.5285 37.5714L75.1274 25.6786Z" stroke="#181414" stroke-width="2.19231" stroke-linecap="round" stroke-linejoin="round"/>
</g>
<g filter="url(#filter4_i_1986_4941)">
<path d="M110.457 68.35V82M110.457 68.35C110.457 71.5809 102.696 74.2 93.1232 74.2C83.5503 74.2 75.7899 71.5809 75.7899 68.35M110.457 68.35C110.457 65.1191 102.696 62.5 93.1232 62.5C83.5503 62.5 75.7899 65.1191 75.7899 68.35M110.457 82V95.2843C110.457 98.7171 102.696 101.5 93.1232 101.5C83.5503 101.5 75.7899 98.7171 75.7899 95.2843V82M110.457 82C110.457 85.2309 102.696 87.85 93.1232 87.85C83.5503 87.85 75.7899 85.2309 75.7899 82M75.7899 82V68.35M101.79 79.8333H101.812M101.79 92.8333H101.812" stroke="url(#paint4_linear_1986_4941)" stroke-width="3" stroke-linecap="round" stroke-linejoin="round"/>
</g>
<circle cx="46.7138" cy="54.6369" r="1.44499" fill="#580F0F"/>
<circle cx="46.7138" cy="107.4" r="1.44499" fill="#580F0F"/>
<circle cx="140.533" cy="54.6369" r="1.44499" fill="#580F0F"/>
<circle cx="140.533" cy="107.4" r="1.44499" fill="#580F0F"/>
<circle cx="140.533" cy="80.5368" r="1.44499" fill="#580F0F"/>
<circle cx="46.7138" cy="80.5368" r="1.44499" fill="#580F0F"/>
<g filter="url(#filter5_b_1986_4941)">
<path d="M112.123 144.735C112.123 150.127 112.123 152.823 113.157 154.883C114.067 156.694 115.519 158.167 117.304 159.09C119.334 160.14 121.991 160.14 127.304 160.14H134.895C140.209 160.14 142.866 160.14 144.895 159.09C146.681 158.167 148.132 156.694 149.042 154.883C150.076 152.823 150.076 150.127 150.076 144.735V130.416C150.076 128.521 150.076 127.389 149.94 126.442C149.906 126.211 149.865 125.992 149.814 125.775C149.581 124.793 149.198 123.854 148.678 122.992C148.091 122.021 147.271 121.188 145.63 119.523L142.662 116.512C141.021 114.847 140.201 114.014 139.243 113.419C138.394 112.891 137.469 112.502 136.501 112.266C136.287 112.214 136.071 112.172 135.844 112.138C134.91 112 133.794 112 131.928 112H127.304C121.991 112 119.334 112 117.304 113.049C115.519 113.972 114.067 115.445 113.157 117.257C112.123 119.316 112.123 122.013 112.123 127.405V144.735Z" fill="#141414" fill-opacity="0.2"/>
<path d="M135.844 112.138V114.888C135.844 118.932 135.844 120.955 136.619 122.499C137.302 123.858 138.39 124.963 139.729 125.655C141.251 126.442 143.244 126.442 147.23 126.442L149.94 126.442M135.844 112.138C134.91 112 133.794 112 131.928 112H127.304C121.991 112 119.334 112 117.304 113.049C115.519 113.972 114.067 115.445 113.157 117.257C112.123 119.316 112.123 122.013 112.123 127.405V144.735C112.123 150.127 112.123 152.823 113.157 154.883C114.067 156.694 115.519 158.167 117.304 159.09C119.334 160.14 121.991 160.14 127.304 160.14H134.895C140.209 160.14 142.866 160.14 144.895 159.09C146.681 158.167 148.132 156.694 149.042 154.883C150.076 152.823 150.076 150.127 150.076 144.735V130.416C150.076 128.521 150.076 127.389 149.94 126.442M135.844 112.138C136.071 112.172 136.287 112.214 136.501 112.266C137.469 112.502 138.394 112.891 139.243 113.419C140.201 114.014 141.021 114.847 142.662 116.512L145.63 119.523C147.271 121.188 148.091 122.021 148.678 122.992C149.198 123.854 149.581 124.793 149.814 125.775C149.865 125.992 149.906 126.211 149.94 126.442" stroke="#2F2B2B" stroke-width="0.746491" stroke-linecap="round" stroke-linejoin="round"/>
</g>
<defs>
<filter id="filter0_b_1986_4941" x="-2.81434" y="67.0709" width="68.4845" height="84.3499" filterUnits="userSpaceOnUse" color-interpolation-filters="sRGB">
<feFlood flood-opacity="0" result="BackgroundImageFix"/>
<feGaussianBlur in="BackgroundImageFix" stdDeviation="1.82758"/>
<feComposite in2="SourceAlpha" operator="in" result="effect1_backgroundBlur_1986_4941"/>
<feBlend mode="normal" in="SourceGraphic" in2="effect1_backgroundBlur_1986_4941" result="shape"/>
</filter>
<filter id="filter1_b_1986_4941" x="92.279" y="-12.7002" width="105.647" height="126.496" filterUnits="userSpaceOnUse" color-interpolation-filters="sRGB">
<feFlood flood-opacity="0" result="BackgroundImageFix"/>
<feGaussianBlur in="BackgroundImageFix" stdDeviation="6.40212"/>
<feComposite in2="SourceAlpha" operator="in" result="effect1_backgroundBlur_1986_4941"/>
<feBlend mode="normal" in="SourceGraphic" in2="effect1_backgroundBlur_1986_4941" result="shape"/>
</filter>
<filter id="filter2_b_1986_4941" x="101.74" y="-3.23958" width="86.7255" height="107.574" filterUnits="userSpaceOnUse" color-interpolation-filters="sRGB">
<feFlood flood-opacity="0" result="BackgroundImageFix"/>
<feGaussianBlur in="BackgroundImageFix" stdDeviation="1.67179"/>
<feComposite in2="SourceAlpha" operator="in" result="effect1_backgroundBlur_1986_4941"/>
<feBlend mode="normal" in="SourceGraphic" in2="effect1_backgroundBlur_1986_4941" result="shape"/>
</filter>
<filter id="filter3_b_1986_4941" x="25.9052" y="8.44931" width="135.436" height="146.101" filterUnits="userSpaceOnUse" color-interpolation-filters="sRGB">
<feFlood flood-opacity="0" result="BackgroundImageFix"/>
<feGaussianBlur in="BackgroundImageFix" stdDeviation="4.51558"/>
<feComposite in2="SourceAlpha" operator="in" result="effect1_backgroundBlur_1986_4941"/>
<feBlend mode="normal" in="SourceGraphic" in2="effect1_backgroundBlur_1986_4941" result="shape"/>
</filter>
<filter id="filter4_i_1986_4941" x="74.2899" y="61" width="37.6666" height="42" filterUnits="userSpaceOnUse" color-interpolation-filters="sRGB">
<feFlood flood-opacity="0" result="BackgroundImageFix"/>
<feBlend mode="normal" in="SourceGraphic" in2="BackgroundImageFix" result="shape"/>
<feColorMatrix in="SourceAlpha" type="matrix" values="0 0 0 0 0 0 0 0 0 0 0 0 0 0 0 0 0 0 127 0" result="hardAlpha"/>
<feOffset dy="1"/>
<feComposite in2="hardAlpha" operator="arithmetic" k2="-1" k3="1"/>
<feColorMatrix type="matrix" values="0 0 0 0 0.393392 0 0 0 0 0.124075 0 0 0 0 0.137886 0 0 0 0.2 0"/>
<feBlend mode="normal" in2="shape" result="effect1_innerShadow_1986_4941"/>
</filter>
<filter id="filter5_b_1986_4941" x="108.675" y="108.552" width="44.8496" height="55.036" filterUnits="userSpaceOnUse" color-interpolation-filters="sRGB">
<feFlood flood-opacity="0" result="BackgroundImageFix"/>
<feGaussianBlur in="BackgroundImageFix" stdDeviation="1.53757"/>
<feComposite in2="SourceAlpha" operator="in" result="effect1_backgroundBlur_1986_4941"/>
<feBlend mode="normal" in="SourceGraphic" in2="effect1_backgroundBlur_1986_4941" result="shape"/>
</filter>
<linearGradient id="paint0_linear_1986_4941" x1="31.2844" y1="100.586" x2="41.2287" y2="121.259" gradientUnits="userSpaceOnUse">
<stop stop-color="#E5E2E2"/>
<stop offset="1" stop-color="#B36E71"/>
</linearGradient>
<linearGradient id="paint1_linear_1986_4941" x1="147.568" y1="41.2163" x2="158.755" y2="64.8217" gradientUnits="userSpaceOnUse">
<stop stop-color="#E5E2E2"/>
<stop offset="1" stop-color="#B36E71"/>
</linearGradient>
<linearGradient id="paint2_linear_1986_4941" x1="147.568" y1="41.2163" x2="158.755" y2="64.8217" gradientUnits="userSpaceOnUse">
<stop stop-color="#E5E2E2"/>
<stop offset="1" stop-color="#B36E71"/>
</linearGradient>
<linearGradient id="paint3_linear_1986_4941" x1="138.934" y1="15" x2="51.5764" y2="192.605" gradientUnits="userSpaceOnUse">
<stop stop-color="#B7B7B7"/>
<stop offset="1"/>
</linearGradient>
<linearGradient id="paint4_linear_1986_4941" x1="93.1232" y1="62.5" x2="117.487" y2="108.198" gradientUnits="userSpaceOnUse">
<stop stop-color="#E5E2E2"/>
<stop offset="1" stop-color="#B36E71"/>
</linearGradient>
<clipPath id="clip0_1986_4941">
<rect width="20" height="20" fill="white" transform="translate(21.2844 99.1699)"/>
</clipPath>
</defs>
</svg>
