<svg width="603" height="603" viewBox="0 0 603 603" fill="none" xmlns="http://www.w3.org/2000/svg">
<g clip-path="url(#clip0_61_6)">
<path fill-rule="evenodd" clip-rule="evenodd" d="M416.386 301.955L308.757 165.482C304.223 159.598 299.776 158.637 294.906 164.957L187.111 301.733L291.444 396.031L301.576 179.987L311.708 396.031L416.386 301.955Z" fill="url(#paint0_linear_61_6)"/>
<path d="M492.816 443L602.201 209.575C604.548 204.461 598.944 199.352 594.069 202.159L430.508 296.169L324.193 415.936L492.816 443Z" fill="url(#paint1_linear_61_6)"/>
<path d="M110.184 443L0.798413 209.575C-1.54802 204.461 4.05556 199.352 8.93098 202.159L172.492 296.169L278.807 415.936L110.184 443Z" fill="url(#paint2_linear_61_6)"/>
</g>
<defs>
<linearGradient id="paint0_linear_61_6" x1="300.941" y1="396.031" x2="300.941" y2="160.626" gradientUnits="userSpaceOnUse">
<stop stop-color="#6B57F9"/>
<stop offset="1" stop-color="#9787FF"/>
</linearGradient>
<linearGradient id="paint1_linear_61_6" x1="367.701" y1="348.025" x2="514.568" y2="431.451" gradientUnits="userSpaceOnUse">
<stop stop-color="#6B57F9"/>
<stop offset="1" stop-color="#9787FF"/>
</linearGradient>
<linearGradient id="paint2_linear_61_6" x1="235.299" y1="348.025" x2="88.4317" y2="431.451" gradientUnits="userSpaceOnUse">
<stop stop-color="#6B57F9"/>
<stop offset="1" stop-color="#9787FF"/>
</linearGradient>
<clipPath id="clip0_61_6">
<rect width="603" height="283" fill="white" transform="translate(0 160)"/>
</clipPath>
</defs>
</svg>
