<svg width="18" height="18" viewBox="0 0 18 18" fill="none" xmlns="http://www.w3.org/2000/svg">
<path d="M10.1895 6.51046C10.549 6.15395 11.1294 6.15633 11.4859 6.51578L11.4912 6.52109C11.8477 6.88054 11.8453 7.46093 11.4859 7.81744L10.2942 8.99994L11.4859 10.1824L11.4912 10.1878C11.8477 10.5472 11.8453 11.1276 11.4859 11.4841L11.4806 11.4894C11.1211 11.8459 10.5407 11.8436 10.1842 11.4841L9.00173 10.2924L7.81923 11.4841L7.81392 11.4894C7.45447 11.8459 6.87408 11.8436 6.51757 11.4841L6.51225 11.4788C6.15574 11.1194 6.15812 10.539 6.51757 10.1824L7.70923 8.99994L6.51757 7.81744C6.15812 7.458 6.15812 6.87522 6.51757 6.51578C6.87701 6.15633 7.45979 6.15633 7.81923 6.51578L9.00173 7.70744L10.1842 6.51578L10.1895 6.51046Z" fill="white"/>
<path fill-rule="evenodd" clip-rule="evenodd" d="M14.5 0.75H3.5C1.98122 0.75 0.75 1.98122 0.75 3.5V14.5C0.75 16.0188 1.98122 17.25 3.5 17.25H14.5C16.0188 17.25 17.25 16.0188 17.25 14.5V3.5C17.25 1.98122 16.0188 0.75 14.5 0.75ZM15.4167 14.5C15.4167 15.0063 15.0063 15.4167 14.5 15.4167H3.5C2.99374 15.4167 2.58333 15.0063 2.58333 14.5V3.5C2.58333 2.99374 2.99374 2.58333 3.5 2.58333H14.5C15.0063 2.58333 15.4167 2.99374 15.4167 3.5V14.5Z" fill="white"/>
</svg>
