<svg width="18" height="18" viewBox="0 0 18 18" fill="none" xmlns="http://www.w3.org/2000/svg">
<path fill-rule="evenodd" clip-rule="evenodd" d="M13.9949 2.82373C13.9037 1.24892 12.5977 0 11 0H3L2.82373 0.00509269C1.24892 0.0963391 0 1.40232 0 3V11L0.00509269 11.1763C0.0963391 12.7511 1.40232 14 3 14H4V15C4 16.6569 5.34315 18 7 18H15C16.6569 18 18 16.6569 18 15V7C18 5.34315 16.6569 4 15 4H14V3L13.9949 2.82373ZM12 4V3C12 2.48716 11.614 2.06449 11.1166 2.00673L11 2H3C2.48716 2 2.06449 2.38604 2.00673 2.88338L2 3V11C2 11.5128 2.38604 11.9355 2.88338 11.9933L3 12H4V7C4 5.34315 5.34315 4 7 4H12ZM6 15C6 15.5523 6.44772 16 7 16H15C15.5523 16 16 15.5523 16 15V7C16 6.44772 15.5523 6 15 6H7C6.44772 6 6 6.44772 6 7V15Z" fill="white"/>
</svg>
