<svg width="20" height="20" viewBox="0 0 20 20" fill="none" xmlns="http://www.w3.org/2000/svg">
<path fill-rule="evenodd" clip-rule="evenodd" d="M18.2071 1.79312C16.9882 0.574168 15.0118 0.574168 13.7929 1.79312L12.2932 3.29284L5.29289 10.2931L5.20608 10.3922C5.07316 10.5657 5 10.7792 5 11.0002V14.0002L5.00673 14.1168C5.06449 14.6142 5.48716 15.0002 6 15.0002H9L9.13144 14.9916C9.34814 14.9628 9.55083 14.8636 9.70711 14.7073L18.2071 6.20733L18.3423 6.06341C19.4243 4.83748 19.3792 2.96519 18.2071 1.79312ZM15.9999 5.58593L16.7929 4.79312C17.1995 4.3865 17.2286 3.74527 16.88 3.30514L16.7929 3.20733C16.3863 2.80071 15.745 2.77166 15.3049 3.1202L15.2071 3.20733L14.4142 4.00022L15.9999 5.58593ZM13 5.41441L14.5855 6.99999L8.585 12.9992H7V11.4142L13 5.41441Z" fill="white"/>
<path d="M6 5.00023C6.55228 5.00023 7 5.44794 7 6.00023C7 6.51306 6.61396 6.93573 6.11662 6.9935L6 7.00023H3C2.48716 7.00023 2.06449 7.38627 2.00673 7.88361L2 8.00023V17.0002C2 17.5131 2.38604 17.9357 2.88338 17.9935L3 18.0002H12C12.5128 18.0002 12.9355 17.6142 12.9933 17.1168L13 17.0002V14.0002C13 13.4479 13.4477 13.0002 14 13.0002C14.5128 13.0002 14.9355 13.3863 14.9933 13.8836L15 14.0002V17.0002C15 18.5979 13.7511 19.9039 12.1763 19.9951L12 20.0002H3C1.40232 20.0002 0.0963391 18.7513 0.00509269 17.1765L0 17.0002V8.00023C0 6.40255 1.24892 5.09657 2.82373 5.00532L3 5.00023H6Z" fill="white"/>
</svg>
