<svg width="34" height="42" viewBox="0 0 34 42" fill="none" xmlns="http://www.w3.org/2000/svg">
<path d="M14.9163 25.1667C13.8113 25.1667 12.7515 25.6057 11.9701 26.3871C11.1887 27.1685 10.7497 28.2283 10.7497 29.3334C10.7497 30.4384 11.1887 31.4982 11.9701 32.2796C12.7515 33.061 13.8113 33.5 14.9163 33.5C16.0214 33.5 17.0812 33.061 17.8626 32.2796C18.644 31.4982 19.083 30.4384 19.083 29.3334C19.083 29.1355 19.0689 28.9391 19.0413 28.7454V22.25L20.1872 22.8125C21.1455 23.2084 22.2497 22.8542 22.7913 21.9792C23.3747 20.9792 23.0622 19.7084 22.083 19.125L17.9163 17.0417C17.6247 16.8959 17.3122 16.8334 16.9997 16.8334C15.8538 16.8334 14.9163 17.75 14.9163 18.9167L14.9163 25.1667Z" fill="white"/>
<path fill-rule="evenodd" clip-rule="evenodd" d="M0.333008 35.5837C0.333008 39.0212 3.12467 41.8337 6.58301 41.8337H27.4163V41.8316C30.8538 41.8316 33.6663 39.0191 33.6663 35.5816V12.6649C33.6663 12.6287 33.6654 12.5925 33.6635 12.5565C33.6519 12.3348 33.6052 12.1179 33.5285 11.9148C33.4242 11.6386 33.2644 11.388 33.0622 11.1858L22.6455 0.76911C22.2497 0.373277 21.708 0.14411 21.1663 0.164943V0.166687C21.1534 0.166687 21.1404 0.1668 21.1275 0.167027H6.58301C3.12467 0.167027 0.333008 2.95869 0.333008 6.41703V35.5837ZM19.083 4.33369H6.58301C5.41634 4.33369 4.49967 5.25036 4.49967 6.41703V35.5837C4.49967 36.7295 5.41634 37.667 6.58301 37.667H27.4163C28.5622 37.667 29.4997 36.7295 29.4997 35.5837V14.75H23.2497C20.9372 14.75 19.083 12.875 19.083 10.5834V4.33369ZM23.2497 7.27119V10.5834H26.5618L23.2497 7.27119Z" fill="white"/>
</svg>
