<svg width="21" height="22" viewBox="0 0 21 22" fill="none" xmlns="http://www.w3.org/2000/svg">
<path d="M20.5 3.64826C20.5 5.19663 19.2268 6.46979 17.6785 6.46979C17.0106 6.46979 16.4018 6.22371 15.9161 5.83003L8.38434 10.9692C8.39977 11.1104 8.4094 11.2529 8.4094 11.398C8.4094 11.6285 8.3858 11.8533 8.3474 12.0733L15.6962 17.0886C16.199 16.6282 16.8613 16.3393 17.5904 16.3393C19.1388 16.3393 20.4119 17.6124 20.4119 19.1608C20.4119 20.7092 19.1388 21.9823 17.5904 21.9823C16.042 21.9823 14.7689 20.7092 14.7689 19.1608C14.7689 18.9503 14.7969 18.7466 14.8414 18.5488L7.68514 13.6654C6.96748 14.6826 5.78625 15.3525 4.45467 15.3525C2.28057 15.3525 0.5 13.572 0.5 11.3979C0.5 9.22375 2.28057 7.44318 4.45467 7.44318C5.86635 7.44318 7.10904 8.19589 7.80914 9.31763L14.9796 4.42377C14.9072 4.17537 14.8556 3.91866 14.8556 3.64817C14.8556 2.0998 16.1301 0.826645 17.6785 0.826645C19.2268 0.826739 20.5 2.09989 20.5 3.64826Z" fill="#FAFAFA"/>
</svg>
