<svg width="32" height="32" viewBox="0 0 32 32" fill="none" xmlns="http://www.w3.org/2000/svg">
<path d="M16.0002 3.328C8.93076 3.328 3.2002 9.05856 3.2002 16.128V19.968H7.0402V17.408C7.0402 16.3475 7.89972 15.488 8.9602 15.488C9.49012 15.488 9.97011 15.703 10.3176 16.0506C10.6652 16.3981 10.8802 16.8781 10.8802 17.408V19.968H14.7202V18.688C14.7202 15.8605 17.0127 13.568 19.8402 13.568C22.6677 13.568 24.9602 15.8605 24.9602 18.688V19.968H28.8002V16.128C28.8002 9.05856 23.0696 3.328 16.0002 3.328ZM8.9602 13.568C7.89972 13.568 7.0402 12.7085 7.0402 11.648C7.0402 10.5875 7.89972 9.728 8.9602 9.728C10.0207 9.728 10.8802 10.5875 10.8802 11.648C10.8802 12.7085 10.0207 13.568 8.9602 13.568Z" fill="#EEEEEE"/>
<path d="M32 16C32 24.8366 24.8366 32 16 32C7.16344 32 0 24.8366 0 16C0 7.16344 7.16344 0 16 0C24.8366 0 32 7.16344 32 16Z" fill="#23232D"/>
<path d="M16 3.328C8.93056 3.328 3.2 9.05856 3.2 16.128V19.968H7.04V17.408C7.04 16.3475 7.89952 15.488 8.96 15.488C9.48992 15.488 9.96992 15.703 10.3174 16.0506C10.665 16.3981 10.88 16.8781 10.88 17.408V19.968H14.72V18.688C14.72 15.8605 17.0125 13.568 19.84 13.568C22.6675 13.568 24.96 15.8605 24.96 18.688V19.968H28.8V16.128C28.8 9.05856 23.0694 3.328 16 3.328ZM8.96 13.568C7.89952 13.568 7.04 12.7085 7.04 11.648C7.04 10.5875 7.89952 9.728 8.96 9.728C10.0205 9.728 10.88 10.5875 10.88 11.648C10.88 12.7085 10.0205 13.568 8.96 13.568Z" fill="#F0F0F0"/>
</svg>
