<svg width="340" height="321" viewBox="0 0 340 321" fill="none" xmlns="http://www.w3.org/2000/svg">
<path d="M284.814 13.1932L270.623 5.00021L256.432 13.1932L270.623 21.3862L284.814 13.1932Z" stroke="#484848" stroke-width="0.271452"/>
<path d="M299.004 21.3864L284.813 13.1934L270.623 21.3864L284.813 29.5794L299.004 21.3864Z" stroke="#484848" stroke-width="0.271452"/>
<path d="M313.196 29.5796L299.005 21.3866L284.814 29.5796L299.005 37.7726L313.196 29.5796Z" stroke="#484848" stroke-width="0.271452"/>
<path d="M327.386 37.7721L313.195 29.5791L299.005 37.7721L313.195 45.9651L327.386 37.7721Z" stroke="#484848" stroke-width="0.271452"/>
<path d="M341.576 45.9655L327.386 37.7725L313.195 45.9655L327.386 54.1585L341.576 45.9655Z" stroke="#484848" stroke-width="0.271452"/>
<path d="M355.767 54.1585L341.576 45.9655L327.386 54.1585L341.576 62.3515L355.767 54.1585Z" stroke="#484848" stroke-width="0.271452"/>
<path d="M270.623 21.3864L256.433 13.1934L242.242 21.3864L256.433 29.5794L270.623 21.3864Z" stroke="#484848" stroke-width="0.271452"/>
<path d="M284.814 29.5796L270.623 21.3866L256.432 29.5796L270.623 37.7726L284.814 29.5796Z" stroke="#484848" stroke-width="0.271452"/>
<path d="M299.005 37.7725L284.814 29.5795L270.624 37.7725L284.814 45.9655L299.005 37.7725Z" stroke="#484848" stroke-width="0.271452"/>
<path d="M313.195 45.9655L299.004 37.7725L284.813 45.9655L299.004 54.1585L313.195 45.9655Z" stroke="#484848" stroke-width="0.271452"/>
<path d="M327.386 54.1585L313.195 45.9655L299.005 54.1585L313.195 62.3514L327.386 54.1585Z" stroke="#484848" stroke-width="0.271452"/>
<path d="M341.577 62.3512L327.387 54.1582L313.196 62.3512L327.387 70.5442L341.577 62.3512Z" stroke="#484848" stroke-width="0.271452"/>
<path d="M355.767 70.5446L341.576 62.3516L327.386 70.5446L341.576 78.7376L355.767 70.5446Z" stroke="#484848" stroke-width="0.271452"/>
<path d="M256.432 29.5796L242.241 21.3866L228.051 29.5796L242.241 37.7726L256.432 29.5796Z" stroke="#484848" stroke-width="0.271452"/>
<path d="M270.622 37.7725L256.432 29.5795L242.241 37.7725L256.432 45.9655L270.622 37.7725Z" stroke="#484848" stroke-width="0.271452"/>
<path d="M284.814 45.9659L270.623 37.7729L256.432 45.9659L270.623 54.1589L284.814 45.9659Z" stroke="#484848" stroke-width="0.271452"/>
<path d="M299.004 54.1584L284.813 45.9655L270.623 54.1584L284.813 62.3514L299.004 54.1584Z" stroke="#484848" stroke-width="0.271452"/>
<path d="M313.195 62.3512L299.004 54.1582L284.813 62.3512L299.004 70.5442L313.195 62.3512Z" stroke="#484848" stroke-width="0.271452"/>
<path d="M327.386 70.5444L313.195 62.3514L299.005 70.5444L313.195 78.7374L327.386 70.5444Z" stroke="#484848" stroke-width="0.271452"/>
<path d="M341.576 78.7379L327.386 70.5449L313.195 78.7379L327.386 86.9309L341.576 78.7379Z" stroke="#484848" stroke-width="0.271452"/>
<path d="M355.767 86.9303L341.576 78.7373L327.386 86.9303L341.576 95.1233L355.767 86.9303Z" stroke="#484848" stroke-width="0.271452"/>
<path d="M242.241 37.7721L228.051 29.5791L213.86 37.7721L228.051 45.9651L242.241 37.7721Z" stroke="#484848" stroke-width="0.271452"/>
<path d="M256.432 45.9655L242.241 37.7725L228.051 45.9655L242.241 54.1585L256.432 45.9655Z" stroke="#484848" stroke-width="0.271452"/>
<path d="M270.624 54.1585L256.434 45.9655L242.243 54.1585L256.434 62.3514L270.624 54.1585Z" stroke="#484848" stroke-width="0.271452"/>
<path d="M284.814 62.3514L270.623 54.1584L256.432 62.3514L270.623 70.5444L284.814 62.3514Z" stroke="#484848" stroke-width="0.271452"/>
<path d="M299.004 70.5446L284.813 62.3516L270.623 70.5446L284.813 78.7376L299.004 70.5446Z" stroke="#484848" stroke-width="0.271452"/>
<path d="M313.196 78.7378L299.005 70.5448L284.814 78.7378L299.005 86.9308L313.196 78.7378Z" stroke="#484848" stroke-width="0.271452"/>
<path d="M327.386 86.9303L313.195 78.7373L299.005 86.9303L313.195 95.1233L327.386 86.9303Z" stroke="#484848" stroke-width="0.271452"/>
<path d="M341.576 95.1233L327.386 86.9303L313.195 95.1233L327.386 103.316L341.576 95.1233Z" stroke="#484848" stroke-width="0.271452"/>
<path d="M355.767 103.317L341.576 95.1237L327.386 103.317L341.576 111.51L355.767 103.317Z" stroke="#484848" stroke-width="0.271452"/>
<path d="M228.051 45.9655L213.86 37.7725L199.67 45.9655L213.86 54.1585L228.051 45.9655Z" stroke="#484848" stroke-width="0.271452"/>
<path d="M242.241 54.1584L228.051 45.9655L213.86 54.1585L228.051 62.3514L242.241 54.1584Z" stroke="#484848" stroke-width="0.271452"/>
<path d="M256.433 62.3512L242.242 54.1582L228.052 62.3512L242.242 70.5442L256.433 62.3512Z" stroke="#484848" stroke-width="0.271452"/>
<path d="M270.623 70.5446L256.433 62.3516L242.242 70.5446L256.433 78.7376L270.623 70.5446Z" stroke="#484848" stroke-width="0.271452"/>
<path d="M284.814 78.7373L270.623 70.5444L256.432 78.7373L270.623 86.9303L284.814 78.7373Z" stroke="#484848" stroke-width="0.271452"/>
<path d="M299.005 86.9303L284.814 78.7373L270.624 86.9303L284.814 95.1233L299.005 86.9303Z" stroke="#484848" stroke-width="0.271452"/>
<path d="M313.196 95.1233L299.005 86.9303L284.814 95.1233L299.005 103.316L313.196 95.1233Z" stroke="#484848" stroke-width="0.271452"/>
<path d="M327.386 103.316L313.195 95.1232L299.005 103.316L313.195 111.509L327.386 103.316Z" stroke="#484848" stroke-width="0.271452"/>
<path d="M341.576 111.509L327.386 103.316L313.195 111.509L327.386 119.702L341.576 111.509Z" stroke="#484848" stroke-width="0.271452"/>
<path d="M355.767 119.703L341.576 111.51L327.385 119.703L341.576 127.896L355.767 119.703Z" stroke="#484848" stroke-width="0.271452"/>
<path d="M213.861 54.1585L199.67 45.9655L185.479 54.1584L199.67 62.3514L213.861 54.1585Z" stroke="#484848" stroke-width="0.271452"/>
<path d="M228.05 62.3512L213.859 54.1582L199.669 62.3512L213.859 70.5442L228.05 62.3512Z" stroke="#484848" stroke-width="0.271452"/>
<path d="M242.241 70.5444L228.051 62.3514L213.86 70.5444L228.051 78.7374L242.241 70.5444Z" stroke="#484848" stroke-width="0.271452"/>
<path d="M256.432 78.7378L242.241 70.5448L228.051 78.7378L242.241 86.9307L256.432 78.7378Z" stroke="#484848" stroke-width="0.271452"/>
<path d="M270.622 86.9303L256.432 78.7373L242.241 86.9303L256.432 95.1233L270.622 86.9303Z" stroke="#484848" stroke-width="0.271452"/>
<path d="M284.814 95.1233L270.623 86.9303L256.432 95.1233L270.623 103.316L284.814 95.1233Z" stroke="#484848" stroke-width="0.271452"/>
<path d="M299.004 103.317L284.813 95.1237L270.623 103.317L284.813 111.51L299.004 103.317Z" stroke="#484848" stroke-width="0.271452"/>
<path d="M313.195 111.509L299.004 103.316L284.813 111.509L299.004 119.702L313.195 111.509Z" stroke="#484848" stroke-width="0.271452"/>
<path d="M327.386 119.703L313.195 111.51L299.005 119.703L313.195 127.896L327.386 119.703Z" stroke="#484848" stroke-width="0.271452"/>
<path d="M341.576 127.895L327.386 119.702L313.195 127.895L327.386 136.088L341.576 127.895Z" stroke="#484848" stroke-width="0.271452"/>
<path d="M355.767 136.089L341.576 127.896L327.386 136.089L341.576 144.281L355.767 136.089Z" stroke="#484848" stroke-width="0.271452"/>
<path d="M199.67 62.3514L185.479 54.1584L171.289 62.3514L185.479 70.5444L199.67 62.3514Z" stroke="#484848" stroke-width="0.271452"/>
<path d="M213.861 70.5446L199.67 62.3516L185.479 70.5446L199.67 78.7376L213.861 70.5446Z" stroke="#484848" stroke-width="0.271452"/>
<path d="M228.051 78.7379L213.86 70.5449L199.67 78.7379L213.86 86.9309L228.051 78.7379Z" stroke="#484848" stroke-width="0.271452"/>
<path d="M242.241 86.9303L228.051 78.7373L213.86 86.9303L228.051 95.1233L242.241 86.9303Z" stroke="#484848" stroke-width="0.271452"/>
<path d="M256.432 95.1233L242.241 86.9303L228.051 95.1233L242.241 103.316L256.432 95.1233Z" stroke="#484848" stroke-width="0.271452"/>
<path d="M270.623 103.317L256.433 95.1237L242.242 103.317L256.433 111.51L270.623 103.317Z" stroke="#484848" stroke-width="0.271452"/>
<path d="M284.814 111.509L270.623 103.316L256.432 111.509L270.623 119.702L284.814 111.509Z" stroke="#484848" stroke-width="0.271452"/>
<path d="M299.004 119.703L284.813 111.51L270.623 119.703L284.813 127.896L299.004 119.703Z" stroke="#484848" stroke-width="0.271452"/>
<path d="M313.196 127.895L299.005 119.702L284.814 127.895L299.005 136.088L313.196 127.895Z" stroke="#484848" stroke-width="0.271452"/>
<path d="M327.386 136.089L313.195 127.896L299.005 136.089L313.195 144.281L327.386 136.089Z" stroke="#484848" stroke-width="0.271452"/>
<path d="M341.576 144.281L327.386 136.088L313.195 144.281L327.386 152.474L341.576 144.281Z" stroke="#484848" stroke-width="0.271452"/>
<path d="M355.766 152.474L341.575 144.281L327.385 152.474L341.575 160.667L355.766 152.474Z" stroke="#484848" stroke-width="0.271452"/>
<path d="M185.48 70.5446L171.289 62.3516L157.098 70.5446L171.289 78.7376L185.48 70.5446Z" stroke="#484848" stroke-width="0.271452"/>
<path d="M199.67 78.7373L185.479 70.5443L171.289 78.7373L185.479 86.9303L199.67 78.7373Z" stroke="#484848" stroke-width="0.271452"/>
<path d="M213.862 86.9303L199.671 78.7373L185.48 86.9303L199.671 95.1233L213.862 86.9303Z" stroke="#484848" stroke-width="0.271452"/>
<path d="M228.051 95.1232L213.86 86.9303L199.67 95.1232L213.86 103.316L228.051 95.1232Z" stroke="#484848" stroke-width="0.271452"/>
<path d="M242.241 103.316L228.051 95.1232L213.86 103.316L228.051 111.509L242.241 103.316Z" stroke="#484848" stroke-width="0.271452"/>
<path d="M256.433 111.509L242.242 103.316L228.052 111.509L242.242 119.702L256.433 111.509Z" stroke="#484848" stroke-width="0.271452"/>
<path d="M270.624 119.703L256.434 111.51L242.243 119.703L256.434 127.896L270.624 119.703Z" stroke="#484848" stroke-width="0.271452"/>
<path d="M284.814 127.895L270.623 119.702L256.432 127.895L270.623 136.088L284.814 127.895Z" stroke="#484848" stroke-width="0.271452"/>
<path d="M299.005 136.088L284.814 127.895L270.624 136.088L284.814 144.281L299.005 136.088Z" stroke="#484848" stroke-width="0.271452"/>
<path d="M313.196 144.281L299.005 136.088L284.814 144.281L299.005 152.474L313.196 144.281Z" stroke="#484848" stroke-width="0.271452"/>
<path d="M327.387 152.474L313.196 144.281L299.006 152.474L313.196 160.667L327.387 152.474Z" stroke="#484848" stroke-width="0.271452"/>
<path d="M341.576 160.667L327.386 152.474L313.195 160.667L327.386 168.86L341.576 160.667Z" stroke="#484848" stroke-width="0.271452"/>
<path d="M355.767 168.86L341.576 160.667L327.386 168.86L341.576 177.053L355.767 168.86Z" stroke="#484848" stroke-width="0.271452"/>
<path d="M171.288 78.7378L157.098 70.5448L142.907 78.7378L157.098 86.9308L171.288 78.7378Z" stroke="#484848" stroke-width="0.271452"/>
<path d="M185.479 86.9303L171.288 78.7373L157.097 86.9303L171.288 95.1233L185.479 86.9303Z" stroke="#484848" stroke-width="0.271452"/>
<path d="M199.67 95.1233L185.479 86.9303L171.289 95.1233L185.479 103.316L199.67 95.1233Z" stroke="#484848" stroke-width="0.271452"/>
<path d="M213.861 103.317L199.67 95.1237L185.479 103.317L199.67 111.51L213.861 103.317Z" stroke="#484848" stroke-width="0.271452"/>
<path d="M228.051 111.509L213.86 103.316L199.67 111.509L213.86 119.702L228.051 111.509Z" stroke="#484848" stroke-width="0.271452"/>
<path d="M242.241 119.703L228.051 111.51L213.86 119.703L228.051 127.896L242.241 119.703Z" stroke="#484848" stroke-width="0.271452"/>
<path d="M256.432 127.895L242.241 119.702L228.051 127.895L242.241 136.088L256.432 127.895Z" stroke="#484848" stroke-width="0.271452"/>
<path d="M270.622 136.088L256.432 127.895L242.241 136.088L256.432 144.281L270.622 136.088Z" stroke="#484848" stroke-width="0.271452"/>
<path d="M284.814 144.281L270.623 136.088L256.432 144.281L270.623 152.474L284.814 144.281Z" stroke="#484848" stroke-width="0.271452"/>
<path d="M299.004 152.474L284.813 144.281L270.623 152.474L284.813 160.667L299.004 152.474Z" stroke="#484848" stroke-width="0.271452"/>
<path d="M313.196 160.667L299.005 152.474L284.814 160.667L299.005 168.86L313.196 160.667Z" stroke="#484848" stroke-width="0.271452"/>
<path d="M327.385 168.86L313.194 160.667L299.004 168.86L313.194 177.053L327.385 168.86Z" stroke="#484848" stroke-width="0.271452"/>
<path d="M341.576 177.053L327.386 168.86L313.195 177.053L327.386 185.246L341.576 177.053Z" stroke="#484848" stroke-width="0.271452"/>
<path d="M355.767 185.246L341.576 177.053L327.385 185.246L341.576 193.439L355.767 185.246Z" stroke="#484848" stroke-width="0.271452"/>
<path d="M157.098 86.9303L142.907 78.7373L128.717 86.9303L142.907 95.1233L157.098 86.9303Z" stroke="#484848" stroke-width="0.271452"/>
<path d="M171.288 95.1233L157.098 86.9303L142.907 95.1233L157.098 103.316L171.288 95.1233Z" stroke="#484848" stroke-width="0.271452"/>
<path d="M185.48 103.317L171.289 95.1237L157.098 103.317L171.289 111.51L185.48 103.317Z" stroke="#484848" stroke-width="0.271452"/>
<path d="M199.669 111.509L185.479 103.316L171.288 111.509L185.479 119.702L199.669 111.509Z" stroke="#484848" stroke-width="0.271452"/>
<path d="M213.861 119.703L199.67 111.51L185.479 119.703L199.67 127.896L213.861 119.703Z" stroke="#484848" stroke-width="0.271452"/>
<path d="M228.051 127.895L213.86 119.702L199.67 127.895L213.86 136.088L228.051 127.895Z" stroke="#484848" stroke-width="0.271452"/>
<path d="M242.241 136.089L228.051 127.896L213.86 136.089L228.051 144.282L242.241 136.089Z" stroke="#484848" stroke-width="0.271452"/>
<path d="M256.432 144.281L242.241 136.088L228.051 144.281L242.241 152.474L256.432 144.281Z" stroke="#484848" stroke-width="0.271452"/>
<path d="M270.623 152.474L256.433 144.281L242.242 152.474L256.433 160.667L270.623 152.474Z" stroke="#484848" stroke-width="0.271452"/>
<path d="M284.814 160.667L270.623 152.474L256.432 160.667L270.623 168.86L284.814 160.667Z" stroke="#484848" stroke-width="0.271452"/>
<path d="M299.004 168.86L284.813 160.667L270.623 168.86L284.813 177.053L299.004 168.86Z" stroke="#484848" stroke-width="0.271452"/>
<path d="M313.195 177.053L299.004 168.86L284.813 177.053L299.004 185.246L313.195 177.053Z" stroke="#484848" stroke-width="0.271452"/>
<path d="M327.386 185.246L313.195 177.053L299.005 185.246L313.195 193.439L327.386 185.246Z" stroke="#484848" stroke-width="0.271452"/>
<path d="M341.576 193.439L327.386 185.246L313.195 193.439L327.386 201.632L341.576 193.439Z" stroke="#484848" stroke-width="0.271452"/>
<path d="M355.767 201.632L341.576 193.439L327.385 201.632L341.576 209.825L355.767 201.632Z" stroke="#484848" stroke-width="0.271452"/>
<path d="M142.907 95.1233L128.717 86.9303L114.526 95.1233L128.717 103.316L142.907 95.1233Z" stroke="#484848" stroke-width="0.271452"/>
<path d="M157.098 103.317L142.907 95.1237L128.717 103.317L142.907 111.51L157.098 103.317Z" stroke="#484848" stroke-width="0.271452"/>
<path d="M171.289 111.509L157.099 103.316L142.908 111.509L157.099 119.702L171.289 111.509Z" stroke="#484848" stroke-width="0.271452"/>
<path d="M185.479 119.703L171.288 111.51L157.097 119.703L171.288 127.896L185.479 119.703Z" stroke="#484848" stroke-width="0.271452"/>
<path d="M199.67 127.895L185.479 119.702L171.289 127.895L185.48 136.088L199.67 127.895Z" stroke="#484848" stroke-width="0.271452"/>
<path d="M213.861 136.089L199.67 127.896L185.479 136.089L199.67 144.281L213.861 136.089Z" stroke="#484848" stroke-width="0.271452"/>
<path d="M228.051 144.281L213.86 136.088L199.67 144.281L213.86 152.474L228.051 144.281Z" stroke="#484848" stroke-width="0.271452"/>
<path d="M242.24 152.474L228.05 144.281L213.859 152.474L228.05 160.667L242.24 152.474Z" stroke="#484848" stroke-width="0.271452"/>
<path d="M256.432 160.667L242.241 152.474L228.051 160.667L242.241 168.86L256.432 160.667Z" stroke="#484848" stroke-width="0.271452"/>
<path d="M270.623 168.86L256.433 160.667L242.242 168.86L256.433 177.053L270.623 168.86Z" stroke="#484848" stroke-width="0.271452"/>
<path d="M284.814 177.053L270.623 168.86L256.432 177.053L270.623 185.246L284.814 177.053Z" stroke="#484848" stroke-width="0.271452"/>
<path d="M299.004 185.246L284.813 177.053L270.623 185.246L284.813 193.439L299.004 185.246Z" stroke="#484848" stroke-width="0.271452"/>
<path d="M313.196 193.439L299.005 185.246L284.814 193.439L299.005 201.632L313.196 193.439Z" stroke="#484848" stroke-width="0.271452"/>
<path d="M327.385 201.632L313.194 193.439L299.004 201.632L313.194 209.825L327.385 201.632Z" stroke="#484848" stroke-width="0.271452"/>
<path d="M341.576 209.825L327.386 201.632L313.195 209.825L327.386 218.018L341.576 209.825Z" stroke="#484848" stroke-width="0.271452"/>
<path d="M355.767 218.018L341.576 209.825L327.386 218.018L341.576 226.211L355.767 218.018Z" stroke="#484848" stroke-width="0.271452"/>
<path d="M128.717 103.316L114.526 95.1231L100.336 103.316L114.526 111.509L128.717 103.316Z" stroke="#484848" stroke-width="0.271452"/>
<path d="M142.907 111.509L128.717 103.316L114.526 111.509L128.717 119.702L142.907 111.509Z" stroke="#484848" stroke-width="0.271452"/>
<path d="M157.099 119.703L142.908 111.51L128.718 119.703L142.908 127.896L157.099 119.703Z" stroke="#484848" stroke-width="0.271452"/>
<path d="M171.289 127.895L157.099 119.702L142.908 127.895L157.099 136.088L171.289 127.895Z" stroke="#484848" stroke-width="0.271452"/>
<path d="M185.48 136.088L171.289 127.895L157.098 136.088L171.289 144.281L185.48 136.088Z" stroke="#484848" stroke-width="0.271452"/>
<path d="M199.67 144.281L185.479 136.088L171.289 144.281L185.479 152.474L199.67 144.281Z" stroke="#484848" stroke-width="0.271452"/>
<path d="M213.862 152.474L199.671 144.281L185.48 152.474L199.671 160.667L213.862 152.474Z" stroke="#484848" stroke-width="0.271452"/>
<path d="M228.051 160.667L213.86 152.474L199.67 160.667L213.86 168.86L228.051 160.667Z" stroke="#484848" stroke-width="0.271452"/>
<path d="M242.242 168.86L228.052 160.667L213.861 168.86L228.052 177.053L242.242 168.86Z" stroke="#484848" stroke-width="0.271452"/>
<path d="M256.433 177.053L242.242 168.86L228.052 177.053L242.242 185.246L256.433 177.053Z" stroke="#484848" stroke-width="0.271452"/>
<path d="M270.624 185.246L256.434 177.053L242.243 185.246L256.434 193.439L270.624 185.246Z" stroke="#484848" stroke-width="0.271452"/>
<path d="M284.814 193.438L270.623 185.245L256.432 193.438L270.623 201.631L284.814 193.438Z" stroke="#484848" stroke-width="0.271452"/>
<path d="M299.005 201.632L284.814 193.439L270.624 201.632L284.814 209.825L299.005 201.632Z" stroke="#484848" stroke-width="0.271452"/>
<path d="M313.196 209.825L299.005 201.632L284.814 209.825L299.005 218.018L313.196 209.825Z" stroke="#484848" stroke-width="0.271452"/>
<path d="M327.386 218.018L313.195 209.825L299.005 218.018L313.195 226.211L327.386 218.018Z" stroke="#484848" stroke-width="0.271452"/>
<path d="M341.577 226.211L327.387 218.018L313.196 226.211L327.387 234.404L341.577 226.211Z" stroke="#484848" stroke-width="0.271452"/>
<path d="M355.768 234.404L341.577 226.211L327.386 234.404L341.577 242.597L355.768 234.404Z" stroke="#484848" stroke-width="0.271452"/>
<path d="M114.526 111.509L100.335 103.316L86.1443 111.509L100.335 119.702L114.526 111.509Z" stroke="#484848" stroke-width="0.271452"/>
<path d="M128.716 119.703L114.525 111.51L100.335 119.703L114.525 127.896L128.716 119.703Z" stroke="#484848" stroke-width="0.271452"/>
<path d="M142.907 127.895L128.717 119.702L114.526 127.895L128.717 136.088L142.907 127.895Z" stroke="#484848" stroke-width="0.271452"/>
<path d="M157.098 136.089L142.907 127.896L128.717 136.089L142.907 144.282L157.098 136.089Z" stroke="#484848" stroke-width="0.271452"/>
<path d="M171.288 144.281L157.098 136.088L142.907 144.281L157.098 152.474L171.288 144.281Z" stroke="#484848" stroke-width="0.271452"/>
<path d="M185.48 152.474L171.289 144.281L157.098 152.474L171.289 160.667L185.48 152.474Z" stroke="#484848" stroke-width="0.271452"/>
<path d="M199.67 160.667L185.479 152.474L171.289 160.667L185.479 168.86L199.67 160.667Z" stroke="#484848" stroke-width="0.271452"/>
<path d="M213.861 168.86L199.67 160.667L185.479 168.86L199.67 177.053L213.861 168.86Z" stroke="#484848" stroke-width="0.271452"/>
<path d="M228.051 177.053L213.86 168.86L199.67 177.053L213.86 185.246L228.051 177.053Z" stroke="#484848" stroke-width="0.271452"/>
<path d="M242.241 185.246L228.051 177.053L213.86 185.246L228.051 193.439L242.241 185.246Z" stroke="#484848" stroke-width="0.271452"/>
<path d="M256.433 193.439L242.242 185.246L228.052 193.439L242.242 201.632L256.433 193.439Z" stroke="#484848" stroke-width="0.271452"/>
<path d="M270.622 201.632L256.432 193.439L242.241 201.632L256.432 209.825L270.622 201.632Z" stroke="#484848" stroke-width="0.271452"/>
<path d="M284.814 209.825L270.623 201.632L256.432 209.825L270.623 218.018L284.814 209.825Z" stroke="#484848" stroke-width="0.271452"/>
<path d="M299.004 218.018L284.813 209.825L270.623 218.018L284.813 226.211L299.004 218.018Z" stroke="#484848" stroke-width="0.271452"/>
<path d="M313.196 226.211L299.005 218.018L284.814 226.211L299.005 234.404L313.196 226.211Z" stroke="#484848" stroke-width="0.271452"/>
<path d="M327.386 234.404L313.195 226.211L299.005 234.404L313.195 242.597L327.386 234.404Z" stroke="#484848" stroke-width="0.271452"/>
<path d="M341.576 242.597L327.386 234.404L313.195 242.597L327.386 250.79L341.576 242.597Z" stroke="#484848" stroke-width="0.271452"/>
<path d="M355.767 250.79L341.576 242.597L327.385 250.79L341.576 258.983L355.767 250.79Z" stroke="#484848" stroke-width="0.271452"/>
<path d="M100.335 119.703L86.1445 111.51L71.9539 119.703L86.1445 127.896L100.335 119.703Z" stroke="#484848" stroke-width="0.271452"/>
<path d="M114.526 127.895L100.335 119.702L86.1443 127.895L100.335 136.088L114.526 127.895Z" stroke="#484848" stroke-width="0.271452"/>
<path d="M128.717 136.089L114.526 127.896L100.336 136.089L114.526 144.281L128.717 136.089Z" stroke="#484848" stroke-width="0.271452"/>
<path d="M142.907 144.281L128.717 136.088L114.526 144.281L128.717 152.474L142.907 144.281Z" stroke="#484848" stroke-width="0.271452"/>
<path d="M157.098 152.474L142.907 144.281L128.717 152.474L142.907 160.667L157.098 152.474Z" stroke="#484848" stroke-width="0.271452"/>
<path d="M171.289 160.667L157.099 152.474L142.908 160.667L157.099 168.86L171.289 160.667Z" stroke="#484848" stroke-width="0.271452"/>
<path d="M185.48 168.86L171.289 160.667L157.098 168.86L171.289 177.053L185.48 168.86Z" stroke="#484848" stroke-width="0.271452"/>
<path d="M199.67 177.053L185.479 168.86L171.289 177.053L185.479 185.246L199.67 177.053Z" stroke="#484848" stroke-width="0.271452"/>
<path d="M213.861 185.246L199.67 177.053L185.479 185.246L199.67 193.439L213.861 185.246Z" stroke="#484848" stroke-width="0.271452"/>
<path d="M228.051 193.439L213.86 185.246L199.67 193.439L213.86 201.632L228.051 193.439Z" stroke="#484848" stroke-width="0.271452"/>
<path d="M242.241 201.632L228.051 193.439L213.86 201.632L228.051 209.825L242.241 201.632Z" stroke="#484848" stroke-width="0.271452"/>
<path d="M256.432 209.825L242.241 201.632L228.051 209.825L242.241 218.018L256.432 209.825Z" stroke="#484848" stroke-width="0.271452"/>
<path d="M270.623 218.018L256.433 209.825L242.242 218.018L256.433 226.211L270.623 218.018Z" stroke="#484848" stroke-width="0.271452"/>
<path d="M284.814 226.211L270.623 218.018L256.432 226.211L270.623 234.404L284.814 226.211Z" stroke="#484848" stroke-width="0.271452"/>
<path d="M299.005 234.404L284.814 226.211L270.624 234.404L284.814 242.597L299.005 234.404Z" stroke="#484848" stroke-width="0.271452"/>
<path d="M313.196 242.597L299.005 234.404L284.814 242.597L299.005 250.79L313.196 242.597Z" stroke="#484848" stroke-width="0.271452"/>
<path d="M327.386 250.79L313.195 242.597L299.005 250.79L313.195 258.983L327.386 250.79Z" stroke="#484848" stroke-width="0.271452"/>
<path d="M341.576 258.984L327.386 250.791L313.195 258.984L327.386 267.177L341.576 258.984Z" stroke="#484848" stroke-width="0.271452"/>
<path d="M355.767 267.176L341.576 258.983L327.385 267.176L341.576 275.369L355.767 267.176Z" stroke="#484848" stroke-width="0.271452"/>
<path d="M86.1438 127.895L71.9531 119.702L57.7625 127.895L71.9531 136.088L86.1438 127.895Z" stroke="#484848" stroke-width="0.271452"/>
<path d="M100.335 136.089L86.1445 127.896L71.9539 136.089L86.1445 144.282L100.335 136.089Z" stroke="#484848" stroke-width="0.271452"/>
<path d="M114.526 144.281L100.335 136.089L86.1443 144.281L100.335 152.474L114.526 144.281Z" stroke="#484848" stroke-width="0.271452"/>
<path d="M128.716 152.474L114.525 144.281L100.335 152.474L114.525 160.667L128.716 152.474Z" stroke="#484848" stroke-width="0.271452"/>
<path d="M142.907 160.668L128.717 152.475L114.526 160.668L128.717 168.861L142.907 160.668Z" stroke="#484848" stroke-width="0.271452"/>
<path d="M157.098 168.861L142.907 160.668L128.717 168.861L142.907 177.054L157.098 168.861Z" stroke="#484848" stroke-width="0.271452"/>
<path d="M171.288 177.053L157.098 168.86L142.907 177.053L157.098 185.246L171.288 177.053Z" stroke="#484848" stroke-width="0.271452"/>
<path d="M185.478 185.246L171.287 177.053L157.096 185.246L171.287 193.439L185.478 185.246Z" stroke="#484848" stroke-width="0.271452"/>
<path d="M199.67 193.439L185.479 185.246L171.289 193.439L185.479 201.632L199.67 193.439Z" stroke="#484848" stroke-width="0.271452"/>
<path d="M213.861 201.632L199.67 193.439L185.479 201.632L199.67 209.825L213.861 201.632Z" stroke="#484848" stroke-width="0.271452"/>
<path d="M228.051 209.825L213.86 201.632L199.67 209.825L213.86 218.018L228.051 209.825Z" stroke="#484848" stroke-width="0.271452"/>
<path d="M242.241 218.018L228.051 209.825L213.86 218.018L228.051 226.211L242.241 218.018Z" stroke="#484848" stroke-width="0.271452"/>
<path d="M256.432 226.211L242.241 218.018L228.051 226.211L242.241 234.404L256.432 226.211Z" stroke="#484848" stroke-width="0.271452"/>
<path d="M270.622 234.404L256.432 226.211L242.241 234.404L256.432 242.597L270.622 234.404Z" stroke="#484848" stroke-width="0.271452"/>
<path d="M284.814 242.597L270.623 234.404L256.432 242.597L270.623 250.79L284.814 242.597Z" stroke="#484848" stroke-width="0.271452"/>
<path d="M299.004 250.791L284.813 242.598L270.623 250.791L284.813 258.984L299.004 250.791Z" stroke="#484848" stroke-width="0.271452"/>
<path d="M313.196 258.983L299.005 250.79L284.814 258.983L299.005 267.176L313.196 258.983Z" stroke="#484848" stroke-width="0.271452"/>
<path d="M327.386 267.176L313.195 258.983L299.005 267.176L313.195 275.369L327.386 267.176Z" stroke="#484848" stroke-width="0.271452"/>
<path d="M341.576 275.369L327.386 267.176L313.195 275.369L327.386 283.562L341.576 275.369Z" stroke="#484848" stroke-width="0.271452"/>
<path d="M71.9534 136.089L57.7627 127.896L43.572 136.089L57.7627 144.282L71.9534 136.089Z" stroke="#484848" stroke-width="0.271452"/>
<path d="M86.1438 144.281L71.9531 136.088L57.7625 144.281L71.9531 152.474L86.1438 144.281Z" stroke="#484848" stroke-width="0.271452"/>
<path d="M100.335 152.475L86.1445 144.282L71.9539 152.475L86.1445 160.668L100.335 152.475Z" stroke="#484848" stroke-width="0.271452"/>
<path d="M114.526 160.667L100.335 152.474L86.1443 160.667L100.335 168.86L114.526 160.667Z" stroke="#484848" stroke-width="0.271452"/>
<path d="M128.716 168.86L114.525 160.667L100.335 168.86L114.525 177.053L128.716 168.86Z" stroke="#484848" stroke-width="0.271452"/>
<path d="M142.907 177.053L128.717 168.86L114.526 177.053L128.717 185.246L142.907 177.053Z" stroke="#484848" stroke-width="0.271452"/>
<path d="M157.098 185.247L142.907 177.054L128.717 185.247L142.907 193.44L157.098 185.247Z" stroke="#484848" stroke-width="0.271452"/>
<path d="M171.288 193.439L157.098 185.246L142.907 193.439L157.098 201.632L171.288 193.439Z" stroke="#484848" stroke-width="0.271452"/>
<path d="M185.479 201.632L171.288 193.439L157.097 201.632L171.288 209.825L185.479 201.632Z" stroke="#484848" stroke-width="0.271452"/>
<path d="M199.67 209.825L185.479 201.632L171.289 209.825L185.48 218.018L199.67 209.825Z" stroke="#484848" stroke-width="0.271452"/>
<path d="M213.861 218.018L199.67 209.825L185.479 218.018L199.67 226.211L213.861 218.018Z" stroke="#484848" stroke-width="0.271452"/>
<path d="M228.05 226.211L213.859 218.018L199.669 226.211L213.859 234.404L228.05 226.211Z" stroke="#484848" stroke-width="0.271452"/>
<path d="M242.241 234.404L228.051 226.211L213.86 234.404L228.051 242.597L242.241 234.404Z" stroke="#484848" stroke-width="0.271452"/>
<path d="M256.432 242.597L242.241 234.404L228.051 242.597L242.241 250.79L256.432 242.597Z" stroke="#484848" stroke-width="0.271452"/>
<path d="M270.623 250.791L256.433 242.598L242.242 250.791L256.433 258.984L270.623 250.791Z" stroke="#484848" stroke-width="0.271452"/>
<path d="M284.814 258.983L270.623 250.79L256.432 258.983L270.623 267.176L284.814 258.983Z" stroke="#484848" stroke-width="0.271452"/>
<path d="M299.005 267.176L284.814 258.983L270.624 267.176L284.814 275.369L299.005 267.176Z" stroke="#484848" stroke-width="0.271452"/>
<path d="M313.196 275.369L299.005 267.176L284.814 275.369L299.005 283.562L313.196 275.369Z" stroke="#484848" stroke-width="0.271452"/>
<path d="M327.385 283.562L313.194 275.369L299.004 283.562L313.194 291.755L327.385 283.562Z" stroke="#484848" stroke-width="0.271452"/>
<path d="M57.7639 144.281L43.5732 136.088L29.3826 144.281L43.5732 152.474L57.7639 144.281Z" stroke="#484848" stroke-width="0.271452"/>
<path d="M71.9543 152.474L57.7637 144.281L43.573 152.474L57.7637 160.667L71.9543 152.474Z" stroke="#484848" stroke-width="0.271452"/>
<path d="M86.1448 160.667L71.9541 152.474L57.7634 160.667L71.9541 168.86L86.1448 160.667Z" stroke="#484848" stroke-width="0.271452"/>
<path d="M100.335 168.86L86.1445 160.667L71.9539 168.86L86.1445 177.053L100.335 168.86Z" stroke="#484848" stroke-width="0.271452"/>
<path d="M114.526 177.053L100.335 168.86L86.1443 177.053L100.335 185.246L114.526 177.053Z" stroke="#484848" stroke-width="0.271452"/>
<path d="M128.717 185.246L114.526 177.053L100.336 185.246L114.526 193.439L128.717 185.246Z" stroke="#484848" stroke-width="0.271452"/>
<path d="M142.907 193.439L128.717 185.246L114.526 193.439L128.717 201.632L142.907 193.439Z" stroke="#484848" stroke-width="0.271452"/>
<path d="M157.098 201.632L142.907 193.439L128.717 201.632L142.907 209.825L157.098 201.632Z" stroke="#484848" stroke-width="0.271452"/>
<path d="M171.288 209.825L157.098 201.632L142.907 209.825L157.098 218.018L171.288 209.825Z" stroke="#484848" stroke-width="0.271452"/>
<path d="M185.48 218.018L171.289 209.825L157.098 218.018L171.289 226.211L185.48 218.018Z" stroke="#484848" stroke-width="0.271452"/>
<path d="M199.67 226.211L185.479 218.018L171.289 226.211L185.479 234.404L199.67 226.211Z" stroke="#484848" stroke-width="0.271452"/>
<path d="M213.861 234.403L199.67 226.21L185.479 234.403L199.67 242.596L213.861 234.403Z" stroke="#484848" stroke-width="0.271452"/>
<path d="M228.051 242.597L213.86 234.404L199.67 242.597L213.86 250.79L228.051 242.597Z" stroke="#484848" stroke-width="0.271452"/>
<path d="M242.241 250.79L228.051 242.597L213.86 250.79L228.051 258.983L242.241 250.79Z" stroke="#484848" stroke-width="0.271452"/>
<path d="M256.433 258.984L242.242 250.791L228.052 258.984L242.242 267.177L256.433 258.984Z" stroke="#484848" stroke-width="0.271452"/>
<path d="M270.624 267.176L256.434 258.983L242.243 267.176L256.434 275.369L270.624 267.176Z" stroke="#484848" stroke-width="0.271452"/>
<path d="M284.815 275.369L270.624 267.176L256.433 275.369L270.624 283.562L284.815 275.369Z" stroke="#484848" stroke-width="0.271452"/>
<path d="M299.005 283.562L284.814 275.369L270.624 283.562L284.814 291.755L299.005 283.562Z" stroke="#484848" stroke-width="0.271452"/>
<path d="M313.196 291.755L299.005 283.562L284.814 291.755L299.005 299.948L313.196 291.755Z" stroke="#484848" stroke-width="0.271452"/>
<path d="M43.5725 152.474L29.3818 144.281L15.1912 152.474L29.3818 160.667L43.5725 152.474Z" stroke="#484848" stroke-width="0.271452"/>
<path d="M57.7639 160.667L43.5732 152.474L29.3826 160.667L43.5732 168.86L57.7639 160.667Z" stroke="#484848" stroke-width="0.271452"/>
<path d="M71.9543 168.861L57.7637 160.668L43.573 168.861L57.7637 177.054L71.9543 168.861Z" stroke="#484848" stroke-width="0.271452"/>
<path d="M86.1438 177.053L71.9531 168.86L57.7625 177.053L71.9531 185.246L86.1438 177.053Z" stroke="#484848" stroke-width="0.271452"/>
<path d="M100.335 185.246L86.1445 177.053L71.9539 185.246L86.1445 193.439L100.335 185.246Z" stroke="#484848" stroke-width="0.271452"/>
<path d="M114.526 193.439L100.335 185.246L86.1443 193.439L100.335 201.632L114.526 193.439Z" stroke="#484848" stroke-width="0.271452"/>
<path d="M128.717 201.632L114.526 193.439L100.336 201.632L114.526 209.825L128.717 201.632Z" stroke="#484848" stroke-width="0.271452"/>
<path d="M142.907 209.825L128.717 201.632L114.526 209.825L128.717 218.018L142.907 209.825Z" stroke="#484848" stroke-width="0.271452"/>
<path d="M157.098 218.018L142.907 209.825L128.717 218.018L142.907 226.211L157.098 218.018Z" stroke="#484848" stroke-width="0.271452"/>
<path d="M171.288 226.211L157.098 218.018L142.907 226.211L157.098 234.404L171.288 226.211Z" stroke="#484848" stroke-width="0.271452"/>
<path d="M185.479 234.404L171.288 226.211L157.097 234.404L171.288 242.597L185.479 234.404Z" stroke="#484848" stroke-width="0.271452"/>
<path d="M199.67 242.597L185.479 234.404L171.289 242.597L185.479 250.79L199.67 242.597Z" stroke="#484848" stroke-width="0.271452"/>
<path d="M213.861 250.79L199.67 242.597L185.479 250.79L199.67 258.983L213.861 250.79Z" stroke="#484848" stroke-width="0.271452"/>
<path d="M228.051 258.984L213.86 250.791L199.67 258.984L213.86 267.176L228.051 258.984Z" stroke="#484848" stroke-width="0.271452"/>
<path d="M242.241 267.176L228.051 258.983L213.86 267.176L228.051 275.369L242.241 267.176Z" stroke="#484848" stroke-width="0.271452"/>
<path d="M256.432 275.369L242.241 267.176L228.051 275.369L242.241 283.562L256.432 275.369Z" stroke="#484848" stroke-width="0.271452"/>
<path d="M270.624 283.562L256.434 275.369L242.243 283.562L256.434 291.755L270.624 283.562Z" stroke="#484848" stroke-width="0.271452"/>
<path d="M284.814 291.755L270.623 283.562L256.432 291.755L270.623 299.948L284.814 291.755Z" stroke="#484848" stroke-width="0.271452"/>
<path d="M299.004 299.948L284.813 291.755L270.623 299.948L284.813 308.141L299.004 299.948Z" stroke="#484848" stroke-width="0.271452"/>
<path d="M29.3821 160.667L15.1914 152.474L1.00073 160.667L15.1914 168.86L29.3821 160.667Z" stroke="#484848" stroke-width="0.271452"/>
<path d="M43.5715 168.86L29.3809 160.667L15.1902 168.86L29.3809 177.053L43.5715 168.86Z" stroke="#484848" stroke-width="0.271452"/>
<path d="M57.7629 177.053L43.5723 168.86L29.3816 177.053L43.5723 185.246L57.7629 177.053Z" stroke="#484848" stroke-width="0.271452"/>
<path d="M71.9534 185.246L57.7627 177.053L43.572 185.246L57.7627 193.439L71.9534 185.246Z" stroke="#484848" stroke-width="0.271452"/>
<path d="M86.1438 193.439L71.9531 185.246L57.7625 193.439L71.9531 201.632L86.1438 193.439Z" stroke="#484848" stroke-width="0.271452"/>
<path d="M100.335 201.632L86.1445 193.439L71.9539 201.632L86.1445 209.825L100.335 201.632Z" stroke="#484848" stroke-width="0.271452"/>
<path d="M114.526 209.825L100.335 201.632L86.1443 209.825L100.335 218.018L114.526 209.825Z" stroke="#484848" stroke-width="0.271452"/>
<path d="M128.716 218.018L114.525 209.825L100.335 218.018L114.525 226.211L128.716 218.018Z" stroke="#484848" stroke-width="0.271452"/>
<path d="M142.907 226.211L128.717 218.018L114.526 226.211L128.717 234.404L142.907 226.211Z" stroke="#484848" stroke-width="0.271452"/>
<path d="M157.098 234.404L142.907 226.211L128.717 234.404L142.907 242.597L157.098 234.404Z" stroke="#484848" stroke-width="0.271452"/>
<path d="M171.288 242.597L157.098 234.404L142.907 242.597L157.098 250.79L171.288 242.597Z" stroke="#484848" stroke-width="0.271452"/>
<path d="M185.478 250.79L171.287 242.597L157.096 250.79L171.287 258.983L185.478 250.79Z" stroke="#484848" stroke-width="0.271452"/>
<path d="M199.67 258.983L185.479 250.79L171.289 258.983L185.479 267.176L199.67 258.983Z" stroke="#484848" stroke-width="0.271452"/>
<path d="M213.861 267.176L199.67 258.983L185.479 267.176L199.67 275.369L213.861 267.176Z" stroke="#484848" stroke-width="0.271452"/>
<path d="M228.051 275.369L213.86 267.176L199.67 275.369L213.86 283.562L228.051 275.369Z" stroke="#484848" stroke-width="0.271452"/>
<path d="M242.241 283.562L228.051 275.369L213.86 283.562L228.051 291.755L242.241 283.562Z" stroke="#484848" stroke-width="0.271452"/>
<path d="M256.433 291.755L242.242 283.562L228.052 291.755L242.242 299.948L256.433 291.755Z" stroke="#484848" stroke-width="0.271452"/>
<path d="M270.623 299.948L256.433 291.755L242.242 299.948L256.433 308.141L270.623 299.948Z" stroke="#484848" stroke-width="0.271452"/>
<path d="M284.814 308.141L270.623 299.948L256.432 308.141L270.623 316.334L284.814 308.141Z" stroke="#484848" stroke-width="0.271452"/>
<rect opacity="0.05" width="16.2567" height="16.2567" transform="matrix(0.871718 0.503287 -0.871718 0.503287 99.6504 136.009)" fill="#D9D9D9"/>
<rect opacity="0.05" width="16.2567" height="16.2567" transform="matrix(0.871718 0.503287 -0.871718 0.503287 184.871 151.925)" fill="#D9D9D9"/>
<rect opacity="0.05" width="16.2567" height="16.2567" transform="matrix(0.871718 0.503287 -0.871718 0.503287 255.171 62)" fill="#D9D9D9"/>
<rect opacity="0.05" width="16.2567" height="16.2567" transform="matrix(0.871718 0.503287 -0.871718 0.503287 157.171 103)" fill="#D9D9D9"/>
<rect opacity="0.05" width="16.2567" height="16.2567" transform="matrix(0.871718 0.503287 -0.871718 0.503287 242.536 152.009)" fill="#D9D9D9"/>
<rect opacity="0.05" width="16.2567" height="16.2567" transform="matrix(0.871718 0.503287 -0.871718 0.503287 99.96 184.517)" fill="#D9D9D9"/>
</svg>
