<svg width="847" height="566" viewBox="0 0 847 566" fill="none" xmlns="http://www.w3.org/2000/svg">
<path d="M698.626 30.8205L663.744 10.6818L628.863 30.8205L663.744 50.9593L698.626 30.8205Z" stroke="#303030" stroke-width="0.667242"/>
<path d="M733.506 50.9627L698.625 30.8239L663.744 50.9627L698.625 71.1015L733.506 50.9627Z" stroke="#303030" stroke-width="0.667242"/>
<path d="M768.389 71.1018L733.508 50.9631L698.626 71.1018L733.508 91.2406L768.389 71.1018Z" stroke="#303030" stroke-width="0.667242"/>
<path d="M803.271 91.2394L768.389 71.1007L733.508 91.2394L768.389 111.378L803.271 91.2394Z" stroke="#303030" stroke-width="0.667242"/>
<path d="M838.151 111.382L803.27 91.2428L768.388 111.382L803.27 131.52L838.151 111.382Z" stroke="#303030" stroke-width="0.667242"/>
<path d="M873.032 131.521L838.151 111.382L803.27 131.521L838.151 151.659L873.032 131.521Z" stroke="#303030" stroke-width="0.667242"/>
<path d="M907.913 151.655L873.032 131.517L838.15 151.655L873.032 171.794L907.913 151.655Z" stroke="#303030" stroke-width="0.667242"/>
<path d="M663.745 50.9627L628.864 30.8239L593.982 50.9627L628.864 71.1015L663.745 50.9627Z" stroke="#303030" stroke-width="0.667242"/>
<path d="M698.626 71.1018L663.744 50.9631L628.863 71.1018L663.744 91.2406L698.626 71.1018Z" stroke="#303030" stroke-width="0.667242"/>
<path d="M733.508 91.2394L698.627 71.1007L663.746 91.2394L698.627 111.378L733.508 91.2394Z" stroke="#303030" stroke-width="0.667242"/>
<path d="M768.388 111.382L733.506 91.2428L698.625 111.382L733.506 131.52L768.388 111.382Z" stroke="#303030" stroke-width="0.667242"/>
<path d="M803.271 131.521L768.389 111.382L733.508 131.521L768.389 151.659L803.271 131.521Z" stroke="#303030" stroke-width="0.667242"/>
<path d="M838.153 151.655L803.272 131.517L768.391 151.655L803.272 171.794L838.153 151.655Z" stroke="#303030" stroke-width="0.667242"/>
<path d="M873.032 171.794L838.151 151.656L803.27 171.794L838.151 191.933L873.032 171.794Z" stroke="#303030" stroke-width="0.667242"/>
<path d="M907.913 191.937L873.032 171.798L838.15 191.937L873.032 212.075L907.913 191.937Z" stroke="#303030" stroke-width="0.667242"/>
<path d="M628.862 71.1018L593.98 50.9631L559.099 71.1018L593.98 91.2406L628.862 71.1018Z" stroke="#303030" stroke-width="0.667242"/>
<path d="M663.743 91.2394L628.861 71.1007L593.98 91.2394L628.861 111.378L663.743 91.2394Z" stroke="#303030" stroke-width="0.667242"/>
<path d="M698.626 111.382L663.744 91.2428L628.863 111.382L663.744 131.52L698.626 111.382Z" stroke="#303030" stroke-width="0.667242"/>
<path d="M733.506 131.521L698.625 111.382L663.744 131.521L698.625 151.659L733.506 131.521Z" stroke="#303030" stroke-width="0.667242"/>
<path d="M768.388 151.655L733.506 131.517L698.625 151.655L733.506 171.794L768.388 151.655Z" stroke="#303030" stroke-width="0.667242"/>
<path d="M803.271 171.794L768.389 151.656L733.508 171.794L768.389 191.933L803.271 171.794Z" stroke="#303030" stroke-width="0.667242"/>
<path d="M838.151 191.937L803.27 171.798L768.388 191.937L803.27 212.075L838.151 191.937Z" stroke="#303030" stroke-width="0.667242"/>
<path d="M873.032 212.073L838.151 191.934L803.27 212.073L838.151 232.211L873.032 212.073Z" stroke="#303030" stroke-width="0.667242"/>
<path d="M907.913 232.212L873.032 212.073L838.15 232.212L873.032 252.351L907.913 232.212Z" stroke="#303030" stroke-width="0.667242"/>
<path d="M593.98 91.2394L559.099 71.1007L524.218 91.2394L559.099 111.378L593.98 91.2394Z" stroke="#303030" stroke-width="0.667242"/>
<path d="M628.862 111.382L593.98 91.2428L559.099 111.382L593.98 131.52L628.862 111.382Z" stroke="#303030" stroke-width="0.667242"/>
<path d="M663.747 131.521L628.865 111.382L593.984 131.521L628.865 151.659L663.747 131.521Z" stroke="#303030" stroke-width="0.667242"/>
<path d="M698.626 151.655L663.744 131.517L628.863 151.655L663.744 171.794L698.626 151.655Z" stroke="#303030" stroke-width="0.667242"/>
<path d="M733.506 171.794L698.625 151.656L663.744 171.794L698.625 191.933L733.506 171.794Z" stroke="#303030" stroke-width="0.667242"/>
<path d="M768.389 191.937L733.508 171.798L698.626 191.937L733.508 212.075L768.389 191.937Z" stroke="#303030" stroke-width="0.667242"/>
<path d="M803.271 212.073L768.389 191.934L733.508 212.073L768.389 232.211L803.271 212.073Z" stroke="#303030" stroke-width="0.667242"/>
<path d="M838.151 232.212L803.27 212.073L768.388 232.212L803.27 252.351L838.151 232.212Z" stroke="#303030" stroke-width="0.667242"/>
<path d="M873.032 252.354L838.151 232.215L803.27 252.354L838.151 272.493L873.032 252.354Z" stroke="#303030" stroke-width="0.667242"/>
<path d="M907.916 272.489L873.034 252.35L838.153 272.489L873.034 292.627L907.916 272.489Z" stroke="#303030" stroke-width="0.667242"/>
<path d="M559.1 111.382L524.219 91.2428L489.337 111.382L524.219 131.52L559.1 111.382Z" stroke="#303030" stroke-width="0.667242"/>
<path d="M593.98 131.521L559.099 111.382L524.218 131.521L559.099 151.659L593.98 131.521Z" stroke="#303030" stroke-width="0.667242"/>
<path d="M628.863 151.655L593.982 131.517L559.101 151.655L593.982 171.794L628.863 151.655Z" stroke="#303030" stroke-width="0.667242"/>
<path d="M663.745 171.794L628.864 151.656L593.982 171.794L628.864 191.933L663.745 171.794Z" stroke="#303030" stroke-width="0.667242"/>
<path d="M698.626 191.937L663.744 171.798L628.863 191.937L663.744 212.075L698.626 191.937Z" stroke="#303030" stroke-width="0.667242"/>
<path d="M733.508 212.073L698.627 191.934L663.746 212.073L698.627 232.211L733.508 212.073Z" stroke="#303030" stroke-width="0.667242"/>
<path d="M768.389 232.212L733.508 212.073L698.626 232.212L733.508 252.351L768.389 232.212Z" stroke="#303030" stroke-width="0.667242"/>
<path d="M803.271 252.346L768.389 232.208L733.508 252.346L768.389 272.485L803.271 252.346Z" stroke="#303030" stroke-width="0.667242"/>
<path d="M838.151 272.489L803.27 252.35L768.388 272.489L803.27 292.627L838.151 272.489Z" stroke="#303030" stroke-width="0.667242"/>
<path d="M873.032 292.628L838.151 272.489L803.27 292.628L838.151 312.766L873.032 292.628Z" stroke="#303030" stroke-width="0.667242"/>
<path d="M907.913 312.767L873.032 292.628L838.15 312.767L873.032 332.906L907.913 312.767Z" stroke="#303030" stroke-width="0.667242"/>
<path d="M524.219 131.521L489.337 111.382L454.456 131.521L489.337 151.659L524.219 131.521Z" stroke="#303030" stroke-width="0.667242"/>
<path d="M559.098 151.655L524.216 131.517L489.335 151.655L524.216 171.794L559.098 151.655Z" stroke="#303030" stroke-width="0.667242"/>
<path d="M593.98 171.794L559.099 151.656L524.218 171.794L559.099 191.933L593.98 171.794Z" stroke="#303030" stroke-width="0.667242"/>
<path d="M628.862 191.937L593.98 171.798L559.099 191.937L593.98 212.075L628.862 191.937Z" stroke="#303030" stroke-width="0.667242"/>
<path d="M663.743 212.073L628.861 191.934L593.98 212.073L628.861 232.211L663.743 212.073Z" stroke="#303030" stroke-width="0.667242"/>
<path d="M698.625 232.212L663.744 212.073L628.863 232.212L663.744 252.351L698.625 232.212Z" stroke="#303030" stroke-width="0.667242"/>
<path d="M733.506 252.354L698.625 232.215L663.744 252.354L698.625 272.493L733.506 252.354Z" stroke="#303030" stroke-width="0.667242"/>
<path d="M768.388 272.489L733.506 252.35L698.625 272.489L733.506 292.627L768.388 272.489Z" stroke="#303030" stroke-width="0.667242"/>
<path d="M803.271 292.628L768.389 272.489L733.508 292.628L768.389 312.766L803.271 292.628Z" stroke="#303030" stroke-width="0.667242"/>
<path d="M838.151 312.767L803.27 292.628L768.388 312.767L803.27 332.906L838.151 312.767Z" stroke="#303030" stroke-width="0.667242"/>
<path d="M873.032 332.909L838.151 312.77L803.27 332.909L838.151 353.048L873.032 332.909Z" stroke="#303030" stroke-width="0.667242"/>
<path d="M907.913 353.044L873.032 332.905L838.15 353.044L873.032 373.182L907.913 353.044Z" stroke="#303030" stroke-width="0.667242"/>
<path d="M489.338 151.655L454.457 131.517L419.575 151.655L454.457 171.794L489.338 151.655Z" stroke="#303030" stroke-width="0.667242"/>
<path d="M524.219 171.794L489.337 151.656L454.456 171.794L489.337 191.933L524.219 171.794Z" stroke="#303030" stroke-width="0.667242"/>
<path d="M559.1 191.937L524.219 171.798L489.337 191.937L524.219 212.075L559.1 191.937Z" stroke="#303030" stroke-width="0.667242"/>
<path d="M593.98 212.073L559.099 191.934L524.218 212.073L559.099 232.211L593.98 212.073Z" stroke="#303030" stroke-width="0.667242"/>
<path d="M628.862 232.212L593.98 212.073L559.099 232.212L593.98 252.351L628.862 232.212Z" stroke="#303030" stroke-width="0.667242"/>
<path d="M663.745 252.354L628.864 232.215L593.982 252.354L628.864 272.493L663.745 252.354Z" stroke="#303030" stroke-width="0.667242"/>
<path d="M698.626 272.489L663.744 252.35L628.863 272.489L663.744 292.627L698.626 272.489Z" stroke="#303030" stroke-width="0.667242"/>
<path d="M733.506 292.628L698.625 272.489L663.744 292.628L698.625 312.766L733.506 292.628Z" stroke="#303030" stroke-width="0.667242"/>
<path d="M768.389 312.767L733.508 292.628L698.626 312.767L733.508 332.906L768.389 312.767Z" stroke="#303030" stroke-width="0.667242"/>
<path d="M803.271 332.909L768.389 312.77L733.508 332.909L768.389 353.048L803.271 332.909Z" stroke="#303030" stroke-width="0.667242"/>
<path d="M838.151 353.044L803.27 332.905L768.388 353.044L803.27 373.182L838.151 353.044Z" stroke="#303030" stroke-width="0.667242"/>
<path d="M873.029 373.181L838.147 353.042L803.266 373.181L838.147 393.32L873.029 373.181Z" stroke="#303030" stroke-width="0.667242"/>
<path d="M907.913 393.32L873.032 373.181L838.15 393.32L873.032 413.459L907.913 393.32Z" stroke="#303030" stroke-width="0.667242"/>
<path d="M454.457 171.794L419.575 151.656L384.694 171.794L419.575 191.933L454.457 171.794Z" stroke="#303030" stroke-width="0.667242"/>
<path d="M489.338 191.937L454.457 171.798L419.575 191.937L454.457 212.075L489.338 191.937Z" stroke="#303030" stroke-width="0.667242"/>
<path d="M524.222 212.073L489.341 191.934L454.459 212.073L489.341 232.211L524.222 212.073Z" stroke="#303030" stroke-width="0.667242"/>
<path d="M559.1 232.212L524.219 212.073L489.337 232.212L524.219 252.351L559.1 232.212Z" stroke="#303030" stroke-width="0.667242"/>
<path d="M593.98 252.346L559.099 232.208L524.218 252.346L559.099 272.485L593.98 252.346Z" stroke="#303030" stroke-width="0.667242"/>
<path d="M628.863 272.489L593.982 252.35L559.101 272.489L593.982 292.627L628.863 272.489Z" stroke="#303030" stroke-width="0.667242"/>
<path d="M663.747 292.628L628.865 272.489L593.984 292.628L628.865 312.766L663.747 292.628Z" stroke="#303030" stroke-width="0.667242"/>
<path d="M698.625 312.767L663.744 292.628L628.863 312.767L663.744 332.906L698.625 312.767Z" stroke="#303030" stroke-width="0.667242"/>
<path d="M733.508 332.909L698.627 312.77L663.746 332.909L698.627 353.048L733.508 332.909Z" stroke="#303030" stroke-width="0.667242"/>
<path d="M768.389 353.044L733.508 332.905L698.626 353.044L733.508 373.182L768.389 353.044Z" stroke="#303030" stroke-width="0.667242"/>
<path d="M803.272 373.181L768.391 353.042L733.51 373.181L768.391 393.32L803.272 373.181Z" stroke="#303030" stroke-width="0.667242"/>
<path d="M838.151 393.32L803.27 373.181L768.388 393.32L803.27 413.459L838.151 393.32Z" stroke="#303030" stroke-width="0.667242"/>
<path d="M873.032 413.462L838.151 393.324L803.27 413.462L838.151 433.601L873.032 413.462Z" stroke="#303030" stroke-width="0.667242"/>
<path d="M907.913 433.602L873.032 413.463L838.15 433.602L873.032 453.74L907.913 433.602Z" stroke="#303030" stroke-width="0.667242"/>
<path d="M419.574 191.937L384.692 171.798L349.811 191.937L384.692 212.075L419.574 191.937Z" stroke="#303030" stroke-width="0.667242"/>
<path d="M454.455 212.073L419.574 191.934L384.692 212.073L419.574 232.211L454.455 212.073Z" stroke="#303030" stroke-width="0.667242"/>
<path d="M489.338 232.212L454.457 212.073L419.575 232.212L454.457 252.351L489.338 232.212Z" stroke="#303030" stroke-width="0.667242"/>
<path d="M524.219 252.354L489.337 232.215L454.456 252.354L489.337 272.493L524.219 252.354Z" stroke="#303030" stroke-width="0.667242"/>
<path d="M559.1 272.489L524.219 252.35L489.337 272.489L524.219 292.627L559.1 272.489Z" stroke="#303030" stroke-width="0.667242"/>
<path d="M593.98 292.628L559.099 272.489L524.218 292.628L559.099 312.766L593.98 292.628Z" stroke="#303030" stroke-width="0.667242"/>
<path d="M628.862 312.767L593.98 292.628L559.099 312.767L593.98 332.906L628.862 312.767Z" stroke="#303030" stroke-width="0.667242"/>
<path d="M663.743 332.909L628.861 312.77L593.98 332.909L628.861 353.048L663.743 332.909Z" stroke="#303030" stroke-width="0.667242"/>
<path d="M698.626 353.044L663.744 332.905L628.863 353.044L663.744 373.182L698.626 353.044Z" stroke="#303030" stroke-width="0.667242"/>
<path d="M733.506 373.181L698.625 353.042L663.744 373.181L698.625 393.32L733.506 373.181Z" stroke="#303030" stroke-width="0.667242"/>
<path d="M768.39 393.32L733.508 373.181L698.627 393.32L733.508 413.459L768.39 393.32Z" stroke="#303030" stroke-width="0.667242"/>
<path d="M803.268 413.462L768.387 393.324L733.505 413.462L768.387 433.601L803.268 413.462Z" stroke="#303030" stroke-width="0.667242"/>
<path d="M838.151 433.602L803.27 413.463L768.388 433.602L803.27 453.74L838.151 433.602Z" stroke="#303030" stroke-width="0.667242"/>
<path d="M873.032 453.744L838.151 433.605L803.27 453.744L838.151 473.882L873.032 453.744Z" stroke="#303030" stroke-width="0.667242"/>
<path d="M907.913 473.878L873.032 453.74L838.15 473.878L873.032 494.017L907.913 473.878Z" stroke="#303030" stroke-width="0.667242"/>
<path d="M384.693 212.073L349.812 191.934L314.93 212.073L349.812 232.211L384.693 212.073Z" stroke="#303030" stroke-width="0.667242"/>
<path d="M419.574 232.212L384.692 212.073L349.811 232.212L384.692 252.351L419.574 232.212Z" stroke="#303030" stroke-width="0.667242"/>
<path d="M454.457 252.354L419.575 232.215L384.694 252.354L419.575 272.493L454.457 252.354Z" stroke="#303030" stroke-width="0.667242"/>
<path d="M489.336 272.489L454.455 252.35L419.573 272.489L454.455 292.627L489.336 272.489Z" stroke="#303030" stroke-width="0.667242"/>
<path d="M524.219 292.628L489.337 272.489L454.456 292.628L489.337 312.766L524.219 292.628Z" stroke="#303030" stroke-width="0.667242"/>
<path d="M559.1 312.767L524.219 292.628L489.337 312.767L524.219 332.906L559.1 312.767Z" stroke="#303030" stroke-width="0.667242"/>
<path d="M593.98 332.909L559.099 312.77L524.218 332.909L559.099 353.048L593.98 332.909Z" stroke="#303030" stroke-width="0.667242"/>
<path d="M628.862 353.044L593.98 332.905L559.099 353.044L593.98 373.182L628.862 353.044Z" stroke="#303030" stroke-width="0.667242"/>
<path d="M663.745 373.181L628.864 353.042L593.982 373.181L628.864 393.32L663.745 373.181Z" stroke="#303030" stroke-width="0.667242"/>
<path d="M698.626 393.32L663.744 373.181L628.863 393.32L663.744 413.459L698.626 393.32Z" stroke="#303030" stroke-width="0.667242"/>
<path d="M733.506 413.462L698.625 393.324L663.744 413.462L698.625 433.601L733.506 413.462Z" stroke="#303030" stroke-width="0.667242"/>
<path d="M768.388 433.602L733.506 413.463L698.625 433.602L733.506 453.74L768.388 433.602Z" stroke="#303030" stroke-width="0.667242"/>
<path d="M803.271 453.744L768.389 433.605L733.508 453.744L768.389 473.882L803.271 453.744Z" stroke="#303030" stroke-width="0.667242"/>
<path d="M838.151 473.878L803.27 453.739L768.388 473.878L803.27 494.017L838.151 473.878Z" stroke="#303030" stroke-width="0.667242"/>
<path d="M873.032 494.014L838.151 473.876L803.27 494.014L838.151 514.153L873.032 494.014Z" stroke="#303030" stroke-width="0.667242"/>
<path d="M907.913 514.153L873.032 494.015L838.15 514.153L873.032 534.292L907.913 514.153Z" stroke="#303030" stroke-width="0.667242"/>
<path d="M349.814 232.212L314.933 212.073L280.051 232.212L314.933 252.351L349.814 232.212Z" stroke="#303030" stroke-width="0.667242"/>
<path d="M384.693 252.354L349.812 232.215L314.93 252.354L349.812 272.493L384.693 252.354Z" stroke="#303030" stroke-width="0.667242"/>
<path d="M419.578 272.489L384.696 252.35L349.815 272.489L384.696 292.627L419.578 272.489Z" stroke="#303030" stroke-width="0.667242"/>
<path d="M454.455 292.628L419.574 272.489L384.692 292.628L419.574 312.766L454.455 292.628Z" stroke="#303030" stroke-width="0.667242"/>
<path d="M489.338 312.767L454.457 292.628L419.575 312.767L454.457 332.906L489.338 312.767Z" stroke="#303030" stroke-width="0.667242"/>
<path d="M524.219 332.909L489.337 312.77L454.456 332.909L489.337 353.048L524.219 332.909Z" stroke="#303030" stroke-width="0.667242"/>
<path d="M559.1 353.044L524.219 332.905L489.337 353.044L524.219 373.182L559.1 353.044Z" stroke="#303030" stroke-width="0.667242"/>
<path d="M593.979 373.181L559.097 353.042L524.216 373.181L559.097 393.32L593.979 373.181Z" stroke="#303030" stroke-width="0.667242"/>
<path d="M628.862 393.32L593.98 373.181L559.099 393.32L593.98 413.459L628.862 393.32Z" stroke="#303030" stroke-width="0.667242"/>
<path d="M663.745 413.462L628.864 393.324L593.982 413.462L628.864 433.601L663.745 413.462Z" stroke="#303030" stroke-width="0.667242"/>
<path d="M698.625 433.602L663.744 413.463L628.863 433.602L663.744 453.74L698.625 433.602Z" stroke="#303030" stroke-width="0.667242"/>
<path d="M733.506 453.736L698.625 433.597L663.744 453.736L698.625 473.875L733.506 453.736Z" stroke="#303030" stroke-width="0.667242"/>
<path d="M768.39 473.878L733.508 453.74L698.627 473.878L733.508 494.017L768.39 473.878Z" stroke="#303030" stroke-width="0.667242"/>
<path d="M803.268 494.014L768.387 473.876L733.505 494.014L768.387 514.153L803.268 494.014Z" stroke="#303030" stroke-width="0.667242"/>
<path d="M838.151 514.153L803.27 494.015L768.388 514.153L803.27 534.292L838.151 514.153Z" stroke="#303030" stroke-width="0.667242"/>
<path d="M873.032 534.294L838.151 514.155L803.27 534.294L838.151 554.433L873.032 534.294Z" stroke="#303030" stroke-width="0.667242"/>
<path d="M907.916 554.435L873.034 534.296L838.153 554.435L873.034 574.574L907.916 554.435Z" stroke="#303030" stroke-width="0.667242"/>
<path d="M314.933 252.346L280.051 232.208L245.17 252.346L280.051 272.485L314.933 252.346Z" stroke="#303030" stroke-width="0.667242"/>
<path d="M349.814 272.489L314.933 252.35L280.051 272.489L314.933 292.627L349.814 272.489Z" stroke="#303030" stroke-width="0.667242"/>
<path d="M384.697 292.628L349.815 272.489L314.934 292.628L349.815 312.766L384.697 292.628Z" stroke="#303030" stroke-width="0.667242"/>
<path d="M419.578 312.767L384.696 292.628L349.815 312.767L384.696 332.906L419.578 312.767Z" stroke="#303030" stroke-width="0.667242"/>
<path d="M454.459 332.909L419.578 312.77L384.696 332.909L419.578 353.048L454.459 332.909Z" stroke="#303030" stroke-width="0.667242"/>
<path d="M489.338 353.044L454.457 332.905L419.575 353.044L454.457 373.182L489.338 353.044Z" stroke="#303030" stroke-width="0.667242"/>
<path d="M524.222 373.181L489.341 353.042L454.459 373.181L489.341 393.32L524.222 373.181Z" stroke="#303030" stroke-width="0.667242"/>
<path d="M559.1 393.32L524.219 373.181L489.337 393.32L524.219 413.459L559.1 393.32Z" stroke="#303030" stroke-width="0.667242"/>
<path d="M593.983 413.462L559.102 393.324L524.22 413.462L559.102 433.601L593.983 413.462Z" stroke="#303030" stroke-width="0.667242"/>
<path d="M628.863 433.602L593.982 413.463L559.101 433.602L593.982 453.74L628.863 433.602Z" stroke="#303030" stroke-width="0.667242"/>
<path d="M663.747 453.736L628.865 433.597L593.984 453.736L628.865 473.875L663.747 453.736Z" stroke="#303030" stroke-width="0.667242"/>
<path d="M698.625 473.878L663.744 453.74L628.863 473.878L663.744 494.017L698.625 473.878Z" stroke="#303030" stroke-width="0.667242"/>
<path d="M733.508 494.014L698.627 473.876L663.746 494.014L698.627 514.153L733.508 494.014Z" stroke="#303030" stroke-width="0.667242"/>
<path d="M768.389 514.154L733.508 494.015L698.626 514.154L733.508 534.292L768.389 514.154Z" stroke="#303030" stroke-width="0.667242"/>
<path d="M803.271 534.294L768.389 514.155L733.508 534.294L768.389 554.433L803.271 534.294Z" stroke="#303030" stroke-width="0.667242"/>
<path d="M838.153 554.435L803.272 534.296L768.391 554.435L803.272 574.573L838.153 554.435Z" stroke="#303030" stroke-width="0.667242"/>
<path d="M873.034 574.569L838.153 554.431L803.271 574.569L838.153 594.708L873.034 574.569Z" stroke="#303030" stroke-width="0.667242"/>
<path d="M280.048 272.489L245.167 252.35L210.286 272.489L245.167 292.627L280.048 272.489Z" stroke="#303030" stroke-width="0.667242"/>
<path d="M314.93 292.628L280.049 272.489L245.167 292.628L280.049 312.766L314.93 292.628Z" stroke="#303030" stroke-width="0.667242"/>
<path d="M349.814 312.767L314.933 292.628L280.051 312.767L314.933 332.906L349.814 312.767Z" stroke="#303030" stroke-width="0.667242"/>
<path d="M384.693 332.909L349.812 312.77L314.93 332.909L349.812 353.048L384.693 332.909Z" stroke="#303030" stroke-width="0.667242"/>
<path d="M419.574 353.044L384.692 332.905L349.811 353.044L384.692 373.182L419.574 353.044Z" stroke="#303030" stroke-width="0.667242"/>
<path d="M454.459 373.181L419.578 353.042L384.696 373.181L419.578 393.32L454.459 373.181Z" stroke="#303030" stroke-width="0.667242"/>
<path d="M489.338 393.32L454.457 373.181L419.575 393.32L454.457 413.459L489.338 393.32Z" stroke="#303030" stroke-width="0.667242"/>
<path d="M524.219 413.462L489.337 393.324L454.456 413.462L489.337 433.601L524.219 413.462Z" stroke="#303030" stroke-width="0.667242"/>
<path d="M559.1 433.602L524.219 413.463L489.337 433.602L524.219 453.74L559.1 433.602Z" stroke="#303030" stroke-width="0.667242"/>
<path d="M593.98 453.744L559.099 433.605L524.218 453.744L559.099 473.882L593.98 453.744Z" stroke="#303030" stroke-width="0.667242"/>
<path d="M628.863 473.878L593.982 453.74L559.101 473.878L593.982 494.017L628.863 473.878Z" stroke="#303030" stroke-width="0.667242"/>
<path d="M663.743 494.014L628.861 473.876L593.98 494.014L628.861 514.153L663.743 494.014Z" stroke="#303030" stroke-width="0.667242"/>
<path d="M698.626 514.154L663.744 494.015L628.863 514.154L663.744 534.292L698.626 514.154Z" stroke="#303030" stroke-width="0.667242"/>
<path d="M733.506 534.294L698.625 514.155L663.744 534.294L698.625 554.433L733.506 534.294Z" stroke="#303030" stroke-width="0.667242"/>
<path d="M768.39 554.435L733.508 534.296L698.627 554.435L733.508 574.574L768.39 554.435Z" stroke="#303030" stroke-width="0.667242"/>
<path d="M803.27 574.569L768.389 554.431L733.508 574.569L768.389 594.708L803.27 574.569Z" stroke="#303030" stroke-width="0.667242"/>
<path d="M245.169 292.628L210.288 272.489L175.407 292.628L210.288 312.766L245.169 292.628Z" stroke="#303030" stroke-width="0.667242"/>
<path d="M280.048 312.767L245.167 292.628L210.286 312.767L245.167 332.906L280.048 312.767Z" stroke="#303030" stroke-width="0.667242"/>
<path d="M314.933 332.909L280.051 312.77L245.17 332.909L280.051 353.048L314.933 332.909Z" stroke="#303030" stroke-width="0.667242"/>
<path d="M349.814 353.044L314.933 332.905L280.051 353.044L314.933 373.182L349.814 353.044Z" stroke="#303030" stroke-width="0.667242"/>
<path d="M384.693 373.181L349.812 353.042L314.93 373.181L349.812 393.32L384.693 373.181Z" stroke="#303030" stroke-width="0.667242"/>
<path d="M419.578 393.32L384.696 373.181L349.815 393.32L384.696 413.459L419.578 393.32Z" stroke="#303030" stroke-width="0.667242"/>
<path d="M454.459 413.462L419.578 393.324L384.696 413.462L419.578 433.601L454.459 413.462Z" stroke="#303030" stroke-width="0.667242"/>
<path d="M489.338 433.602L454.457 413.463L419.575 433.602L454.457 453.74L489.338 433.602Z" stroke="#303030" stroke-width="0.667242"/>
<path d="M524.219 453.744L489.337 433.605L454.456 453.744L489.337 473.882L524.219 453.744Z" stroke="#303030" stroke-width="0.667242"/>
<path d="M559.1 473.878L524.219 453.74L489.337 473.878L524.219 494.017L559.1 473.878Z" stroke="#303030" stroke-width="0.667242"/>
<path d="M593.98 494.014L559.099 473.876L524.218 494.014L559.099 514.153L593.98 494.014Z" stroke="#303030" stroke-width="0.667242"/>
<path d="M628.862 514.153L593.98 494.015L559.099 514.154L593.98 534.292L628.862 514.153Z" stroke="#303030" stroke-width="0.667242"/>
<path d="M663.745 534.294L628.864 514.155L593.982 534.294L628.864 554.433L663.745 534.294Z" stroke="#303030" stroke-width="0.667242"/>
<path d="M698.626 554.435L663.744 534.296L628.863 554.435L663.744 574.574L698.626 554.435Z" stroke="#303030" stroke-width="0.667242"/>
<path d="M733.508 574.569L698.627 554.431L663.746 574.569L698.627 594.708L733.508 574.569Z" stroke="#303030" stroke-width="0.667242"/>
<path d="M210.286 312.767L175.404 292.628L140.523 312.767L175.404 332.906L210.286 312.767Z" stroke="#303030" stroke-width="0.667242"/>
<path d="M245.169 332.909L210.288 312.77L175.407 332.909L210.288 353.048L245.169 332.909Z" stroke="#303030" stroke-width="0.667242"/>
<path d="M280.048 353.047L245.167 332.908L210.286 353.047L245.167 373.185L280.048 353.047Z" stroke="#303030" stroke-width="0.667242"/>
<path d="M314.93 373.181L280.049 353.042L245.167 373.181L280.049 393.32L314.93 373.181Z" stroke="#303030" stroke-width="0.667242"/>
<path d="M349.814 393.32L314.933 373.181L280.051 393.32L314.933 413.459L349.814 393.32Z" stroke="#303030" stroke-width="0.667242"/>
<path d="M384.693 413.462L349.812 393.324L314.93 413.462L349.811 433.601L384.693 413.462Z" stroke="#303030" stroke-width="0.667242"/>
<path d="M419.574 433.602L384.692 413.463L349.811 433.602L384.692 453.74L419.574 433.602Z" stroke="#303030" stroke-width="0.667242"/>
<path d="M454.453 453.744L419.571 433.605L384.69 453.744L419.571 473.882L454.453 453.744Z" stroke="#303030" stroke-width="0.667242"/>
<path d="M489.338 473.878L454.457 453.74L419.575 473.878L454.457 494.017L489.338 473.878Z" stroke="#303030" stroke-width="0.667242"/>
<path d="M524.219 494.014L489.337 473.876L454.456 494.014L489.337 514.153L524.219 494.014Z" stroke="#303030" stroke-width="0.667242"/>
<path d="M559.1 514.153L524.219 494.015L489.337 514.154L524.219 534.292L559.1 514.153Z" stroke="#303030" stroke-width="0.667242"/>
<path d="M593.98 534.294L559.099 514.155L524.218 534.294L559.099 554.433L593.98 534.294Z" stroke="#303030" stroke-width="0.667242"/>
<path d="M628.862 554.435L593.98 534.296L559.099 554.435L593.98 574.574L628.862 554.435Z" stroke="#303030" stroke-width="0.667242"/>
<path d="M663.743 574.569L628.861 554.431L593.98 574.569L628.861 594.708L663.743 574.569Z" stroke="#303030" stroke-width="0.667242"/>
<path d="M175.403 332.909L140.521 312.77L105.64 332.909L140.522 353.048L175.403 332.909Z" stroke="#303030" stroke-width="0.667242"/>
<path d="M210.286 353.044L175.404 332.905L140.523 353.044L175.404 373.182L210.286 353.044Z" stroke="#303030" stroke-width="0.667242"/>
<path d="M245.169 373.186L210.288 353.047L175.407 373.186L210.288 393.324L245.169 373.186Z" stroke="#303030" stroke-width="0.667242"/>
<path d="M280.048 393.32L245.167 373.181L210.286 393.32L245.167 413.459L280.048 393.32Z" stroke="#303030" stroke-width="0.667242"/>
<path d="M314.93 413.462L280.049 393.324L245.167 413.462L280.049 433.601L314.93 413.462Z" stroke="#303030" stroke-width="0.667242"/>
<path d="M349.814 433.602L314.933 413.463L280.051 433.602L314.933 453.74L349.814 433.602Z" stroke="#303030" stroke-width="0.667242"/>
<path d="M384.693 453.744L349.812 433.605L314.93 453.744L349.812 473.882L384.693 453.744Z" stroke="#303030" stroke-width="0.667242"/>
<path d="M419.574 473.878L384.692 453.74L349.811 473.878L384.692 494.017L419.574 473.878Z" stroke="#303030" stroke-width="0.667242"/>
<path d="M454.455 494.014L419.574 473.876L384.692 494.014L419.574 514.153L454.455 494.014Z" stroke="#303030" stroke-width="0.667242"/>
<path d="M489.338 514.154L454.457 494.015L419.575 514.153L454.457 534.292L489.338 514.154Z" stroke="#303030" stroke-width="0.667242"/>
<path d="M524.219 534.294L489.337 514.155L454.456 534.294L489.337 554.433L524.219 534.294Z" stroke="#303030" stroke-width="0.667242"/>
<path d="M559.098 554.435L524.216 534.296L489.335 554.435L524.216 574.574L559.098 554.435Z" stroke="#303030" stroke-width="0.667242"/>
<path d="M593.98 574.569L559.099 554.431L524.218 574.569L559.099 594.708L593.98 574.569Z" stroke="#303030" stroke-width="0.667242"/>
<path d="M140.527 353.044L105.646 332.905L70.7641 353.044L105.645 373.182L140.527 353.044Z" stroke="#303030" stroke-width="0.667242"/>
<path d="M175.407 373.181L140.525 353.042L105.644 373.181L140.525 393.32L175.407 373.181Z" stroke="#303030" stroke-width="0.667242"/>
<path d="M210.288 393.32L175.406 373.182L140.525 393.32L175.406 413.459L210.288 393.32Z" stroke="#303030" stroke-width="0.667242"/>
<path d="M245.169 413.462L210.288 393.324L175.407 413.462L210.288 433.601L245.169 413.462Z" stroke="#303030" stroke-width="0.667242"/>
<path d="M280.048 433.602L245.167 413.463L210.286 433.602L245.167 453.74L280.048 433.602Z" stroke="#303030" stroke-width="0.667242"/>
<path d="M314.933 453.744L280.051 433.605L245.17 453.744L280.051 473.882L314.933 453.744Z" stroke="#303030" stroke-width="0.667242"/>
<path d="M349.814 473.878L314.933 453.74L280.051 473.878L314.933 494.017L349.814 473.878Z" stroke="#303030" stroke-width="0.667242"/>
<path d="M384.693 494.014L349.812 473.876L314.93 494.014L349.811 514.153L384.693 494.014Z" stroke="#303030" stroke-width="0.667242"/>
<path d="M419.574 514.154L384.692 494.015L349.811 514.154L384.692 534.292L419.574 514.154Z" stroke="#303030" stroke-width="0.667242"/>
<path d="M454.457 534.294L419.575 514.155L384.694 534.294L419.575 554.433L454.457 534.294Z" stroke="#303030" stroke-width="0.667242"/>
<path d="M489.338 554.435L454.457 534.296L419.575 554.435L454.457 574.574L489.338 554.435Z" stroke="#303030" stroke-width="0.667242"/>
<path d="M524.219 574.569L489.337 554.431L454.456 574.569L489.337 594.708L524.219 574.569Z" stroke="#303030" stroke-width="0.667242"/>
<path d="M105.644 373.181L70.7627 353.042L35.8813 373.181L70.7627 393.32L105.644 373.181Z" stroke="#303030" stroke-width="0.667242"/>
<path d="M140.527 393.32L105.646 373.181L70.7641 393.32L105.645 413.459L140.527 393.32Z" stroke="#303030" stroke-width="0.667242"/>
<path d="M175.407 413.462L140.525 393.324L105.644 413.462L140.525 433.601L175.407 413.462Z" stroke="#303030" stroke-width="0.667242"/>
<path d="M210.286 433.602L175.404 413.463L140.523 433.602L175.404 453.74L210.286 433.602Z" stroke="#303030" stroke-width="0.667242"/>
<path d="M245.169 453.744L210.288 433.605L175.407 453.744L210.288 473.882L245.169 453.744Z" stroke="#303030" stroke-width="0.667242"/>
<path d="M280.048 473.878L245.167 453.74L210.286 473.878L245.167 494.017L280.048 473.878Z" stroke="#303030" stroke-width="0.667242"/>
<path d="M314.933 494.014L280.051 473.876L245.17 494.014L280.051 514.153L314.933 494.014Z" stroke="#303030" stroke-width="0.667242"/>
<path d="M349.814 514.153L314.933 494.015L280.051 514.154L314.933 534.292L349.814 514.153Z" stroke="#303030" stroke-width="0.667242"/>
<path d="M384.693 534.294L349.812 514.155L314.93 534.294L349.812 554.433L384.693 534.294Z" stroke="#303030" stroke-width="0.667242"/>
<path d="M419.574 554.435L384.692 534.296L349.811 554.435L384.692 574.574L419.574 554.435Z" stroke="#303030" stroke-width="0.667242"/>
<path d="M454.455 574.569L419.574 554.431L384.692 574.569L419.574 594.708L454.455 574.569Z" stroke="#303030" stroke-width="0.667242"/>
<path d="M70.7622 393.32L35.8809 373.181L0.999482 393.32L35.8809 413.459L70.7622 393.32Z" stroke="#303030" stroke-width="0.667242"/>
<path d="M105.64 413.462L70.7588 393.324L35.8774 413.462L70.7588 433.601L105.64 413.462Z" stroke="#303030" stroke-width="0.667242"/>
<path d="M140.523 433.602L105.642 413.463L70.7602 433.602L105.642 453.74L140.523 433.602Z" stroke="#303030" stroke-width="0.667242"/>
<path d="M175.403 453.744L140.521 433.605L105.64 453.744L140.521 473.882L175.403 453.744Z" stroke="#303030" stroke-width="0.667242"/>
<path d="M210.286 473.878L175.404 453.74L140.523 473.878L175.404 494.017L210.286 473.878Z" stroke="#303030" stroke-width="0.667242"/>
<path d="M245.169 494.014L210.288 473.876L175.407 494.014L210.288 514.153L245.169 494.014Z" stroke="#303030" stroke-width="0.667242"/>
<path d="M280.048 514.154L245.167 494.015L210.286 514.154L245.167 534.292L280.048 514.154Z" stroke="#303030" stroke-width="0.667242"/>
<path d="M314.93 534.294L280.049 514.155L245.167 534.294L280.049 554.433L314.93 534.294Z" stroke="#303030" stroke-width="0.667242"/>
<path d="M349.814 554.435L314.933 534.296L280.051 554.435L314.933 574.574L349.814 554.435Z" stroke="#303030" stroke-width="0.667242"/>
<path d="M384.693 574.569L349.812 554.431L314.93 574.569L349.812 594.708L384.693 574.569Z" stroke="#303030" stroke-width="0.667242"/>
<rect opacity="0.05" width="39.9597" height="39.9597" transform="matrix(0.871718 0.503287 -0.871718 0.503287 243.485 332.713)" fill="#D9D9D9"/>
<rect opacity="0.05" width="39.9597" height="39.9597" transform="matrix(0.871718 0.503287 -0.871718 0.503287 452.962 371.836)" fill="#D9D9D9"/>
<rect opacity="0.05" width="39.9597" height="39.9597" transform="matrix(0.871718 0.503287 -0.871718 0.503287 625.762 150.791)" fill="#D9D9D9"/>
<rect opacity="0.05" width="39.9597" height="39.9597" transform="matrix(0.871718 0.503287 -0.871718 0.503287 384.873 251.572)" fill="#D9D9D9"/>
<rect opacity="0.05" width="39.9597" height="39.9597" transform="matrix(0.871718 0.503287 -0.871718 0.503287 594.706 372.042)" fill="#D9D9D9"/>
<rect opacity="0.05" width="39.9597" height="39.9597" transform="matrix(0.871718 0.503287 -0.871718 0.503287 244.246 451.946)" fill="#D9D9D9"/>
<rect opacity="0.05" width="39.9597" height="39.9597" transform="matrix(0.871718 0.503287 -0.871718 0.503287 837.765 392.025)" fill="#D9D9D9"/>
<rect opacity="0.05" width="39.9597" height="39.9597" transform="matrix(0.871718 0.503287 -0.871718 0.503287 839.256 474.007)" fill="#D9D9D9"/>
</svg>
