<svg width="24" height="24" viewBox="0 0 24 24" fill="none" xmlns="http://www.w3.org/2000/svg">
<path d="M20.5985 3L12.9626 8.62182L14.3776 5.30737L20.5985 3Z" fill="#E27625"/>
<path d="M2.9699 3L10.5421 8.67281L9.19087 5.30737L2.9699 3Z" fill="#E27625"/>
<path d="M17.8582 16.0409L15.8185 19.1259L20.1783 20.3242L21.4276 16.1047L17.8582 16.0409Z" fill="#E27625"/>
<path d="M2.16751 16.1047L3.40405 20.3242L7.75109 19.1259L5.72417 16.0409L2.16751 16.1047Z" fill="#E27625"/>
<path d="M7.5208 10.8151L6.30975 12.638L10.6185 12.8292L10.4783 8.21451L7.5208 10.8151Z" fill="#E27625"/>
<path d="M16.0603 10.8154L13.0518 8.16384L12.9626 12.8296L17.2713 12.6384L16.0603 10.8154Z" fill="#E27625"/>
<path d="M7.74909 19.1263L10.3624 17.877L8.10603 16.1433L7.74909 19.1263Z" fill="#E27625"/>
<path d="M13.219 17.877L15.8196 19.1263L15.4626 16.1433L13.219 17.877Z" fill="#E27625"/>
<path d="M15.8196 19.1263L13.219 17.877L13.4357 19.559L13.4102 20.2729L15.8196 19.1263Z" fill="#D7C1B3"/>
<path d="M7.74909 19.1263L10.1712 20.2729L10.1584 19.559L10.3624 17.877L7.74909 19.1263Z" fill="#D7C1B3"/>
<path d="M10.2095 15.0216L8.05516 14.3969L9.5849 13.6958L10.2095 15.0216Z" fill="#2F343B"/>
<path d="M13.3596 15.0216L13.997 13.6958L15.5268 14.3969L13.3596 15.0216Z" fill="#2F343B"/>
<path d="M7.74909 19.1263L8.13178 16.0409L5.72243 16.1047L7.74909 19.1263Z" fill="#CC6228"/>
<path d="M15.4483 16.0409L15.8185 19.1259L17.8577 16.1047L15.4483 16.0409Z" fill="#CC6228"/>
<path d="M17.2713 12.637L12.9626 12.8282L13.3577 15.0208L13.9951 13.695L15.5249 14.3962L17.2713 12.637Z" fill="#CC6228"/>
<path d="M8.05621 14.3962L9.58596 13.695L10.2106 15.0208L10.6185 12.8282L6.30975 12.637L8.05621 14.3962Z" fill="#CC6228"/>
<path d="M6.30975 12.637L8.1072 16.1426L8.05621 14.3962L6.30975 12.637Z" fill="#E27625"/>
<path d="M15.5249 14.3962L15.4607 16.1426L17.2713 12.637L15.5249 14.3962Z" fill="#E27625"/>
<path d="M10.6185 12.8292L10.2095 15.0216L10.7199 17.6225L10.8347 14.2061L10.6185 12.8292Z" fill="#E27625"/>
<path d="M12.9642 12.8293L12.7475 14.1933L12.8495 17.6225L13.3596 15.0216L12.9642 12.8293Z" fill="#E27625"/>
<path d="M13.3596 15.0216L12.8495 17.6225L13.219 17.877L15.4626 16.1433L15.5268 14.3969L13.3596 15.0216Z" fill="#F5841F"/>
<path d="M8.05516 14.3969L8.10603 16.1433L10.3624 17.877L10.7199 17.6225L10.2095 15.0216L8.05516 14.3969Z" fill="#F5841F"/>
<path d="M13.4092 20.2727L13.4347 19.5588L13.2307 19.3931H10.3369L10.1584 19.559L10.1712 20.2729L7.74909 19.1263L8.59045 19.8138L10.3114 20.9993H13.2562L14.9771 19.8138L15.8185 19.1259L13.4092 20.2727Z" fill="#C0AD9E"/>
<path d="M13.2178 17.8769L12.8481 17.6219L10.7199 17.6225L10.3624 17.877L10.1584 19.559L10.3369 19.3931H13.2307L13.4347 19.5588L13.2178 17.8769Z" fill="#2F343B"/>
<path d="M20.9315 8.99151L21.5689 5.88102L20.6 3L13.219 8.4306L16.0618 10.8145L20.0774 11.9873L20.957 10.9547L20.5745 10.6742L21.1864 10.1261L20.7148 9.75638L21.3267 9.29746L20.9315 8.99151Z" fill="#763E1A"/>
<path d="M2 5.88102L2.65014 8.99151L2.24221 9.29746L2.85411 9.76913L2.38244 10.1261L2.99434 10.6742L2.6119 10.9547L3.50425 11.9873L7.51984 10.8145L10.3626 8.4306L2.96884 3L2 5.88102Z" fill="#763E1A"/>
<path d="M20.0755 11.9878L16.0603 10.8154L17.2713 12.6384L15.4607 16.1437L17.8577 16.1047L21.4267 16.1054L20.0755 11.9878Z" fill="#F5841F"/>
<path d="M7.5208 10.8151L3.50604 11.9878L2.16751 16.1047L5.72417 16.1054L8.10803 16.1437L6.30975 12.638L7.5208 10.8151Z" fill="#F5841F"/>
<path d="M12.9639 12.8281L13.219 8.4306L14.3789 5.30687L9.19087 5.30737L10.3626 8.4306L10.6185 12.8282L10.7202 14.2049V17.6213H12.8491L12.8619 14.2049L12.9639 12.8281Z" fill="#F5841F"/>
</svg>
