<svg width="209" height="191" viewBox="0 0 209 191" fill="none" xmlns="http://www.w3.org/2000/svg">
<defs>
<filter id="filter0_b_3761_8967" x="-3.09901" y="94.9012" width="68.4846" height="84.3495" filterUnits="userSpaceOnUse" color-interpolation-filters="sRGB">
<feFlood flood-opacity="0" result="BackgroundImageFix"/>
<feGaussianBlur in="BackgroundImageFix" stdDeviation="1.82758"/>
<feComposite in2="SourceAlpha" operator="in" result="effect1_backgroundBlur_3761_8967"/>
<feBlend mode="normal" in="SourceGraphic" in2="effect1_backgroundBlur_3761_8967" result="shape"/>
</filter>
<filter id="filter1_b_3761_8967" x="106.559" y="-13.441" width="115.491" height="138.284" filterUnits="userSpaceOnUse" color-interpolation-filters="sRGB">
<feFlood flood-opacity="0" result="BackgroundImageFix"/>
<feGaussianBlur in="BackgroundImageFix" stdDeviation="6.99871"/>
<feComposite in2="SourceAlpha" operator="in" result="effect1_backgroundBlur_3761_8967"/>
<feBlend mode="normal" in="SourceGraphic" in2="effect1_backgroundBlur_3761_8967" result="shape"/>
</filter>
<filter id="filter2_b_3761_8967" x="116.901" y="-3.09877" width="94.8069" height="117.599" filterUnits="userSpaceOnUse" color-interpolation-filters="sRGB">
<feFlood flood-opacity="0" result="BackgroundImageFix"/>
<feGaussianBlur in="BackgroundImageFix" stdDeviation="1.82758"/>
<feComposite in2="SourceAlpha" operator="in" result="effect1_backgroundBlur_3761_8967"/>
<feBlend mode="normal" in="SourceGraphic" in2="effect1_backgroundBlur_3761_8967" result="shape"/>
</filter>
<filter id="filter3_b_3761_8967" x="39.3871" y="23.6275" width="35.4627" height="44.8854" filterUnits="userSpaceOnUse" color-interpolation-filters="sRGB">
<feFlood flood-opacity="0" result="BackgroundImageFix"/>
<feGaussianBlur in="BackgroundImageFix" stdDeviation="1.25398"/>
<feComposite in2="SourceAlpha" operator="in" result="effect1_backgroundBlur_3761_8967"/>
<feBlend mode="normal" in="SourceGraphic" in2="effect1_backgroundBlur_3761_8967" result="shape"/>
</filter>
<filter id="filter4_b_3761_8967" x="26.0039" y="20.2" width="156.992" height="170.6" filterUnits="userSpaceOnUse" color-interpolation-filters="sRGB">
<feFlood flood-opacity="0" result="BackgroundImageFix"/>
<feGaussianBlur in="BackgroundImageFix" stdDeviation="4.68749"/>
<feComposite in2="SourceAlpha" operator="in" result="effect1_backgroundBlur_3761_8967"/>
<feBlend mode="normal" in="SourceGraphic" in2="effect1_backgroundBlur_3761_8967" result="shape"/>
</filter>
<filter id="filter5_i_3761_8967" x="85.1665" y="85" width="37.6665" height="42" filterUnits="userSpaceOnUse" color-interpolation-filters="sRGB">
<feFlood flood-opacity="0" result="BackgroundImageFix"/>
<feBlend mode="normal" in="SourceGraphic" in2="BackgroundImageFix" result="shape"/>
<feColorMatrix in="SourceAlpha" type="matrix" values="0 0 0 0 0 0 0 0 0 0 0 0 0 0 0 0 0 0 127 0" result="hardAlpha"/>
<feOffset dy="1"/>
<feComposite in2="hardAlpha" operator="arithmetic" k2="-1" k3="1"/>
<feColorMatrix type="matrix" values="0 0 0 0 0.393392 0 0 0 0 0.124075 0 0 0 0 0.137886 0 0 0 0.2 0"/>
<feBlend mode="normal" in2="shape" result="effect1_innerShadow_3761_8967"/>
</filter>
<filter id="filter6_b_3761_8967" x="116.585" y="138.552" width="43.4823" height="55.0364" filterUnits="userSpaceOnUse" color-interpolation-filters="sRGB">
<feFlood flood-opacity="0" result="BackgroundImageFix"/>
<feGaussianBlur in="BackgroundImageFix" stdDeviation="1.53757"/>
<feComposite in2="SourceAlpha" operator="in" result="effect1_backgroundBlur_3761_8967"/>
<feBlend mode="normal" in="SourceGraphic" in2="effect1_backgroundBlur_3761_8967" result="shape"/>
</filter>
<linearGradient id="paint0_linear_3761_8967" x1="30.9998" y1="128.416" x2="40.9442" y2="149.089" gradientUnits="userSpaceOnUse">
<stop stop-color="#E5E2E2"/>
<stop offset="1" stop-color="#B36E71"/>
</linearGradient>
<linearGradient id="paint1_linear_3761_8967" x1="165.807" y1="45.2018" x2="176.994" y2="68.8072" gradientUnits="userSpaceOnUse">
<stop stop-color="#E5E2E2"/>
<stop offset="1" stop-color="#B36E71"/>
</linearGradient>
<linearGradient id="paint2_linear_3761_8967" x1="165.807" y1="45.2018" x2="176.994" y2="68.8072" gradientUnits="userSpaceOnUse">
<stop stop-color="#E5E2E2"/>
<stop offset="1" stop-color="#B36E71"/>
</linearGradient>
<linearGradient id="paint3_linear_3761_8967" x1="57.333" y1="41.5612" x2="63.9315" y2="52.7002" gradientUnits="userSpaceOnUse">
<stop stop-color="#E5E2E2"/>
<stop offset="1" stop-color="#B36E71"/>
</linearGradient>
<linearGradient id="paint4_linear_3761_8967" x1="157.987" y1="27" x2="54.8657" y2="236.654" gradientUnits="userSpaceOnUse">
<stop stop-color="#B7B7B7"/>
<stop offset="1"/>
</linearGradient>
<linearGradient id="paint5_linear_3761_8967" x1="104" y1="86.5" x2="128.363" y2="132.198" gradientUnits="userSpaceOnUse">
<stop stop-color="#E5E2E2"/>
<stop offset="1" stop-color="#B36E71"/>
</linearGradient>
<linearGradient id="paint6_linear_3761_8967" x1="138.169" y1="161.106" x2="143.716" y2="174.112" gradientUnits="userSpaceOnUse">
<stop stop-color="#E5E2E2"/>
<stop offset="1" stop-color="#B36E71"/>
</linearGradient>
<clipPath id="clip0_3761_8967">
<rect width="20" height="20" fill="white" transform="translate(21 127)"/>
</clipPath>
<clipPath id="clip1_3761_8967">
<rect width="12" height="12" fill="white" transform="translate(51.333 40.561)"/>
</clipPath>
<clipPath id="clip2_3761_8967">
<rect width="13.6202" height="13.6202" fill="white" transform="translate(131.359 159.404)"/>
</clipPath>
</defs>
<g filter="url(#filter0_b_3761_8967)">
<path d="M1 150.783C1 159.313 1 163.578 2.64272 166.836C4.0877 169.702 6.39339 172.032 9.22932 173.492C12.4533 175.152 16.6738 175.152 25.1148 175.152H37.1722C45.6132 175.152 49.8336 175.152 53.0577 173.492C55.8936 172.032 58.1993 169.702 59.6443 166.836C61.287 163.578 61.287 159.313 61.287 150.783V128.132C61.287 125.135 61.287 123.344 61.0703 121.846C61.0175 121.481 60.952 121.134 60.8706 120.791C60.5013 119.237 59.8924 117.751 59.066 116.389C58.134 114.852 56.8306 113.535 54.2239 110.901L49.5104 106.137C46.9037 103.503 45.6003 102.186 44.0793 101.244C42.7308 100.409 41.2607 99.7939 39.7228 99.4208C39.3835 99.3385 39.04 99.2723 38.6794 99.219C37.1965 99 35.4239 99 32.4586 99H25.1148C16.6738 99 12.4533 99 9.22932 100.66C6.39339 102.12 4.0877 104.45 2.64272 107.316C1 110.574 1 114.839 1 123.369V150.783Z" fill="#141414" fill-opacity="0.2"/>
<path d="M38.6794 99.219V103.569C38.6794 109.966 38.6794 113.165 39.9114 115.609C40.9951 117.758 42.7244 119.505 44.8514 120.601C47.2694 121.846 50.4347 121.846 56.7655 121.846L61.0703 121.846M38.6794 99.219C37.1965 99 35.4239 99 32.4586 99H25.1148C16.6738 99 12.4533 99 9.22932 100.66C6.39339 102.12 4.0877 104.45 2.64272 107.316C1 110.574 1 114.839 1 123.369V150.783C1 159.313 1 163.578 2.64272 166.836C4.0877 169.702 6.39339 172.032 9.22932 173.492C12.4533 175.152 16.6738 175.152 25.1148 175.152H37.1722C45.6132 175.152 49.8336 175.152 53.0577 173.492C55.8936 172.032 58.1993 169.702 59.6443 166.836C61.287 163.578 61.287 159.313 61.287 150.783V128.132C61.287 125.135 61.287 123.344 61.0703 121.846M38.6794 99.219C39.04 99.2723 39.3835 99.3385 39.7228 99.4208C41.2607 99.7939 42.7308 100.409 44.0793 101.244C45.6003 102.186 46.9037 103.503 49.5104 106.137L54.2239 110.901C56.8306 113.535 58.134 114.852 59.066 116.389C59.8924 117.751 60.5013 119.237 60.8706 120.791C60.952 121.134 61.0175 121.481 61.0703 121.846" stroke="#2F2B2B" stroke-width="0.88729" stroke-linecap="round" stroke-linejoin="round"/>
</g>
<g clip-path="url(#clip0_3761_8967)">
<path d="M27.6665 137V133.553C27.6665 132.867 28.0859 132.252 28.7237 132.001L37.6261 128.504C38.4461 128.182 39.3332 128.786 39.3332 129.667V132.417M27.6665 137V142.833M27.6665 137L39.3332 132.417M27.6665 142.833C27.6665 144.214 26.5472 145.333 25.1665 145.333C23.7858 145.333 22.6665 144.214 22.6665 142.833C22.6665 141.453 23.7858 140.333 25.1665 140.333C26.5472 140.333 27.6665 141.453 27.6665 142.833ZM39.3332 132.417V140.333M39.3332 140.333C39.3332 141.714 38.2139 142.833 36.8332 142.833C35.4525 142.833 34.3332 141.714 34.3332 140.333C34.3332 138.953 35.4525 137.833 36.8332 137.833C38.2139 137.833 39.3332 138.953 39.3332 140.333Z" stroke="url(#paint0_linear_3761_8967)" stroke-width="1.5" stroke-linecap="round" stroke-linejoin="round"/>
</g>
<g filter="url(#filter1_b_3761_8967)">
<g filter="url(#filter2_b_3761_8967)">
<path d="M121 75.393C121 87.6471 121 93.7741 123.36 98.4546C125.436 102.572 128.748 105.919 132.822 108.017C137.454 110.401 143.517 110.401 155.644 110.401H172.966C185.092 110.401 191.155 110.401 195.787 108.017C199.861 105.919 203.174 102.572 205.249 98.4546C207.609 93.7741 207.609 87.6471 207.609 75.3929V42.8513C207.609 38.5466 207.609 35.9731 207.298 33.8204C207.222 33.2969 207.128 32.7982 207.011 32.3056C206.481 30.073 205.606 27.9387 204.419 25.981C203.08 23.773 201.207 21.8808 197.463 18.0966L190.691 11.2537C186.946 7.46951 185.074 5.57739 182.889 4.22428C180.951 3.02461 178.839 2.14055 176.63 1.60456C176.142 1.48629 175.649 1.39116 175.131 1.31464C173.001 1.00001 170.454 1.00001 166.194 1.00001H155.644C143.517 1.00001 137.454 1.00001 132.822 3.38481C128.748 5.48255 125.436 8.82981 123.36 12.9468C121 17.6273 121 23.7543 121 36.0084V75.393Z" fill="#141414" fill-opacity="0.2"/>
<path d="M175.131 1.31464V7.56409C175.131 16.7547 175.131 21.35 176.901 24.8603C178.458 27.9481 180.942 30.4585 183.998 32.0318C187.471 33.8204 192.019 33.8204 201.114 33.8204L207.298 33.8204M175.131 1.31464C173.001 1.00001 170.454 1.00001 166.194 1.00001H155.644C143.517 1.00001 137.454 1.00001 132.822 3.38481C128.748 5.48255 125.436 8.82981 123.36 12.9468C121 17.6273 121 23.7543 121 36.0084V75.393C121 87.6471 121 93.7741 123.36 98.4546C125.436 102.572 128.748 105.919 132.822 108.017C137.454 110.401 143.517 110.401 155.644 110.401H172.966C185.092 110.401 191.155 110.401 195.787 108.017C199.861 105.919 203.174 102.572 205.249 98.4546C207.609 93.7741 207.609 87.6471 207.609 75.3929V42.8513C207.609 38.5466 207.609 35.9731 207.298 33.8204M175.131 1.31464C175.649 1.39116 176.142 1.48629 176.63 1.60456C178.839 2.14055 180.951 3.02461 182.889 4.22428C185.074 5.57739 186.946 7.46951 190.691 11.2537L197.463 18.0966C201.207 21.8808 203.08 23.773 204.419 25.981C205.606 27.9387 206.481 30.073 207.011 32.3056C207.128 32.7982 207.222 33.2969 207.298 33.8204" stroke="#2F2B2B" stroke-width="0.88729" stroke-linecap="round" stroke-linejoin="round"/>
</g>
<path d="M175.412 54.8067C175.412 60.1114 171.112 64.4117 165.807 64.4117C160.502 64.4117 156.202 60.1114 156.202 54.8067C156.202 49.5021 160.502 45.2018 165.807 45.2018C171.112 45.2018 175.412 49.5021 175.412 54.8067Z" stroke="url(#paint1_linear_3761_8967)" stroke-width="1.37214" stroke-linecap="round" stroke-linejoin="round"/>
<path d="M163.139 54.6957C163.139 53.1676 163.139 52.4036 163.458 51.977C163.737 51.6053 164.163 51.3728 164.626 51.3397C165.157 51.3017 165.8 51.7149 167.085 52.5412L167.258 52.6522C168.373 53.3693 168.931 53.7278 169.124 54.1837C169.292 54.582 169.292 55.0315 169.124 55.4298C168.931 55.8857 168.373 56.2442 167.258 56.9613L167.085 57.0723C165.8 57.8986 165.157 58.3117 164.626 58.2738C164.163 58.2407 163.737 58.0081 163.458 57.6364C163.139 57.2099 163.139 56.4458 163.139 54.9177V54.6957Z" stroke="url(#paint2_linear_3761_8967)" stroke-width="1.37214" stroke-linecap="round" stroke-linejoin="round"/>
</g>
<g filter="url(#filter3_b_3761_8967)">
<path d="M42.1992 53.1372C42.1992 57.5348 42.1992 59.7336 43.0123 61.4133C43.7274 62.8908 44.8686 64.092 46.2722 64.8448C47.8679 65.7007 49.9567 65.7006 54.1345 65.7006H60.1021C64.2798 65.7006 66.3687 65.7007 67.9644 64.8448C69.368 64.092 70.5091 62.8908 71.2243 61.4133C72.0374 59.7336 72.0374 57.5348 72.0374 53.1372V41.4591C72.0374 39.9142 72.0374 38.9907 71.9301 38.2182C71.904 38.0303 71.8716 37.8513 71.8312 37.6745C71.6485 36.8733 71.3471 36.1074 70.9381 35.4049C70.4768 34.6124 69.8317 33.9334 68.5416 32.5754L66.2087 30.1197C64.9186 28.7616 64.2735 28.0826 63.5207 27.597C62.8533 27.1665 62.1256 26.8493 61.3645 26.6569C61.1965 26.6145 61.0265 26.5803 60.8481 26.5529C60.1142 26.4399 59.2368 26.4399 57.7692 26.4399H54.1345C49.9567 26.4399 47.8679 26.4399 46.2722 27.2958C44.8686 28.0486 43.7274 29.2498 43.0123 30.7273C42.1992 32.407 42.1992 34.6058 42.1992 39.0034V53.1372Z" fill="#141414" fill-opacity="0.2"/>
<path d="M60.8481 26.5529V28.7956C60.8481 32.0938 60.8481 33.7429 61.4578 35.0026C61.9942 36.1108 62.8501 37.0117 63.9028 37.5763C65.0995 38.2182 66.6662 38.2182 69.7995 38.2182L71.9301 38.2182M60.8481 26.5529C60.1142 26.4399 59.2368 26.4399 57.7692 26.4399H54.1345C49.9567 26.4399 47.8679 26.4399 46.2722 27.2958C44.8686 28.0486 43.7274 29.2498 43.0123 30.7273C42.1992 32.407 42.1992 34.6058 42.1992 39.0034V53.1372C42.1992 57.5348 42.1992 59.7336 43.0123 61.4133C43.7274 62.8908 44.8686 64.092 46.2722 64.8448C47.8679 65.7007 49.9567 65.7006 54.1345 65.7006H60.1021C64.2798 65.7006 66.3687 65.7007 67.9644 64.8448C69.368 64.092 70.5091 62.8908 71.2243 61.4133C72.0374 59.7336 72.0374 57.5348 72.0374 53.1372V41.4591C72.0374 39.9142 72.0374 38.9907 71.9301 38.2182M60.8481 26.5529C61.0265 26.5803 61.1965 26.6145 61.3645 26.6569C62.1256 26.8493 62.8533 27.1665 63.5207 27.597C64.2735 28.0826 64.9186 28.7616 66.2087 30.1197L68.5416 32.5754C69.8317 33.9334 70.4768 34.6124 70.9381 35.4049C71.3471 36.1074 71.6485 36.8733 71.8312 37.6745C71.8716 37.8513 71.904 38.0303 71.9301 38.2182" stroke="#2F2B2B" stroke-width="0.608809" stroke-linecap="round" stroke-linejoin="round"/>
</g>
<g clip-path="url(#clip1_3761_8967)">
<path d="M58.333 41.5899V42.1612C58.333 43.0012 58.333 43.4213 58.4965 43.7421C58.6403 44.0244 58.8698 44.2539 59.152 44.3977C59.4729 44.5612 59.8929 44.5612 60.733 44.5612L61.3042 44.5612M58.333 41.5899C58.1362 41.5612 57.901 41.5612 57.5075 41.5612H56.533C55.4129 41.5612 54.8529 41.5612 54.425 41.7791C54.0487 41.9709 53.7427 42.2769 53.551 42.6532C53.333 43.081 53.333 43.6411 53.333 44.7612V48.3612C53.333 49.4813 53.333 50.0413 53.551 50.4691C53.7427 50.8455 54.0487 51.1514 54.425 51.3432C54.8529 51.5612 55.4129 51.5612 56.533 51.5612H58.133C59.2531 51.5612 59.8132 51.5612 60.241 51.3432C60.6173 51.1514 60.9233 50.8455 61.115 50.4691C61.333 50.0413 61.333 49.4813 61.333 48.3612V45.3866C61.333 44.9932 61.333 44.7579 61.3042 44.5612M58.333 41.5899C58.3809 41.5969 58.4264 41.6056 58.4715 41.6164C58.6755 41.6654 58.8706 41.7462 59.0496 41.8559C59.2514 41.9796 59.4244 42.1525 59.7703 42.4984L60.3957 43.1239C60.7417 43.4698 60.9146 43.6428 61.0383 43.8446C61.1479 44.0235 61.2288 44.2186 61.2777 44.4227C61.2886 44.4677 61.2973 44.5133 61.3042 44.5612M55.333 47.0612H59.333M55.333 49.0612H57.833" stroke="url(#paint3_linear_3761_8967)" stroke-width="0.9" stroke-linecap="round" stroke-linejoin="round"/>
</g>
<g filter="url(#filter4_b_3761_8967)">
<path d="M85.3 38.0851C92.2946 34.0468 95.792 32.0276 99.5101 31.2373C102.8 30.538 106.2 30.538 109.49 31.2373C113.208 32.0276 116.705 34.0468 123.7 38.0851L153.283 55.1649C160.278 59.2032 163.775 61.2224 166.318 64.0473C168.569 66.5467 170.269 69.4913 171.308 72.69C172.483 76.3052 172.483 80.3435 172.483 88.4203V122.58C172.483 130.656 172.483 134.695 171.308 138.31C170.269 141.509 168.569 144.453 166.318 146.953C163.775 149.778 160.278 151.797 153.283 155.835L123.7 172.915C116.705 176.953 113.208 178.972 109.49 179.763C106.2 180.462 102.8 180.462 99.5101 179.763C95.792 178.972 92.2946 176.953 85.3 172.915L55.717 155.835C48.7224 151.797 45.225 149.778 42.6815 146.953C40.431 144.453 38.731 141.509 37.6916 138.31C36.517 134.695 36.517 130.656 36.517 122.58V88.4202C36.517 80.3435 36.517 76.3052 37.6916 72.69C38.731 69.4913 40.431 66.5467 42.6815 64.0473C45.225 61.2224 48.7224 59.2032 55.717 55.1649L85.3 38.0851Z" fill="#B3151D"/>
<path d="M85.3 38.0851C92.2946 34.0468 95.792 32.0276 99.5101 31.2373C102.8 30.538 106.2 30.538 109.49 31.2373C113.208 32.0276 116.705 34.0468 123.7 38.0851L153.283 55.1649C160.278 59.2032 163.775 61.2224 166.318 64.0473C168.569 66.5467 170.269 69.4913 171.308 72.69C172.483 76.3052 172.483 80.3435 172.483 88.4203V122.58C172.483 130.656 172.483 134.695 171.308 138.31C170.269 141.509 168.569 144.453 166.318 146.953C163.775 149.778 160.278 151.797 153.283 155.835L123.7 172.915C116.705 176.953 113.208 178.972 109.49 179.763C106.2 180.462 102.8 180.462 99.5101 179.763C95.792 178.972 92.2946 176.953 85.3 172.915L55.717 155.835C48.7224 151.797 45.225 149.778 42.6815 146.953C40.431 144.453 38.731 141.509 37.6916 138.31C36.517 134.695 36.517 130.656 36.517 122.58V88.4202C36.517 80.3435 36.517 76.3052 37.6916 72.69C38.731 69.4913 40.431 66.5467 42.6815 64.0473C45.225 61.2224 48.7224 59.2032 55.717 55.1649L85.3 38.0851Z" fill="url(#paint4_linear_3761_8967)" fill-opacity="0.4" style="mix-blend-mode:overlay"/>
<path d="M85.3 38.0851C92.2946 34.0468 95.792 32.0276 99.5101 31.2373C102.8 30.538 106.2 30.538 109.49 31.2373C113.208 32.0276 116.705 34.0468 123.7 38.0851L153.283 55.1649C160.278 59.2032 163.775 61.2224 166.318 64.0473C168.569 66.5467 170.269 69.4913 171.308 72.69C172.483 76.3052 172.483 80.3435 172.483 88.4203V122.58C172.483 130.656 172.483 134.695 171.308 138.31C170.269 141.509 168.569 144.453 166.318 146.953C163.775 149.778 160.278 151.797 153.283 155.835L123.7 172.915C116.705 176.953 113.208 178.972 109.49 179.763C106.2 180.462 102.8 180.462 99.5101 179.763C95.792 178.972 92.2946 176.953 85.3 172.915L55.717 155.835C48.7224 151.797 45.225 149.778 42.6815 146.953C40.431 144.453 38.731 141.509 37.6916 138.31C36.517 134.695 36.517 130.656 36.517 122.58V88.4202C36.517 80.3435 36.517 76.3052 37.6916 72.69C38.731 69.4913 40.431 66.5467 42.6815 64.0473C45.225 61.2224 48.7224 59.2032 55.717 55.1649L85.3 38.0851Z" stroke="#424242" stroke-width="2.27577" stroke-linecap="round" stroke-linejoin="round"/>
</g>
<g filter="url(#filter5_i_3761_8967)">
<path d="M121.333 92.35V106M121.333 92.35C121.333 95.5809 113.573 98.2 104 98.2C94.4269 98.2 86.6665 95.5809 86.6665 92.35M121.333 92.35C121.333 89.1191 113.573 86.5 104 86.5C94.4269 86.5 86.6665 89.1191 86.6665 92.35M121.333 106V119.284C121.333 122.717 113.573 125.5 104 125.5C94.4269 125.5 86.6665 122.717 86.6665 119.284V106M121.333 106C121.333 109.231 113.573 111.85 104 111.85C94.4269 111.85 86.6665 109.231 86.6665 106M86.6665 106V92.35M112.666 103.833H112.688M112.666 116.833H112.688" stroke="url(#paint5_linear_3761_8967)" stroke-width="3" stroke-linecap="round" stroke-linejoin="round"/>
</g>
<circle cx="47.5" cy="74.5" r="1.5" fill="#580F0F"/>
<circle cx="47.5" cy="135.5" r="1.5" fill="#580F0F"/>
<circle cx="161.5" cy="74.5" r="1.5" fill="#580F0F"/>
<circle cx="161.5" cy="135.5" r="1.5" fill="#580F0F"/>
<circle cx="161.5" cy="104.5" r="1.5" fill="#580F0F"/>
<circle cx="47.5" cy="104.5" r="1.5" fill="#580F0F"/>
<g filter="url(#filter6_b_3761_8967)">
<path d="M120.033 174.735C120.033 180.127 120.033 182.823 121.03 184.883C121.907 186.694 123.306 188.167 125.027 189.09C126.984 190.14 129.545 190.14 134.668 190.14H141.985C147.107 190.14 149.669 190.14 151.625 189.09C153.346 188.167 154.745 186.694 155.622 184.883C156.619 182.823 156.619 180.127 156.619 174.735V160.416C156.619 158.521 156.619 157.389 156.488 156.442C156.456 156.211 156.416 155.992 156.367 155.775C156.142 154.793 155.773 153.854 155.271 152.992C154.706 152.021 153.915 151.188 152.333 149.523L149.472 146.512C147.891 144.847 147.1 144.014 146.177 143.419C145.358 142.891 144.466 142.502 143.533 142.266C143.327 142.214 143.118 142.172 142.899 142.138C142 142 140.924 142 139.124 142H134.668C129.545 142 126.984 142 125.027 143.049C123.306 143.972 121.907 145.445 121.03 147.257C120.033 149.316 120.033 152.013 120.033 157.405V174.735Z" fill="#141414" fill-opacity="0.2"/>
<path d="M142.899 142.138V144.888C142.899 148.932 142.899 150.955 143.647 152.499C144.305 153.858 145.354 154.963 146.645 155.655C148.112 156.442 150.033 156.442 153.875 156.442L156.488 156.442M142.899 142.138C142 142 140.924 142 139.124 142H134.668C129.545 142 126.984 142 125.027 143.049C123.306 143.972 121.907 145.445 121.03 147.257C120.033 149.316 120.033 152.013 120.033 157.405V174.735C120.033 180.127 120.033 182.823 121.03 184.883C121.907 186.694 123.306 188.167 125.027 189.09C126.984 190.14 129.545 190.14 134.668 190.14H141.985C147.107 190.14 149.669 190.14 151.625 189.09C153.346 188.167 154.745 186.694 155.622 184.883C156.619 182.823 156.619 180.127 156.619 174.735V160.416C156.619 158.521 156.619 157.389 156.488 156.442M142.899 142.138C143.118 142.172 143.327 142.214 143.533 142.266C144.466 142.502 145.358 142.891 146.177 143.419C147.1 144.014 147.891 144.847 149.472 146.512L152.333 149.523C153.915 151.188 154.706 152.021 155.271 152.992C155.773 153.854 156.142 154.793 156.367 155.775C156.416 155.992 156.456 156.211 156.488 156.442" stroke="#2F2B2B" stroke-width="0.746491" stroke-linecap="round" stroke-linejoin="round"/>
</g>
<g clip-path="url(#clip2_3761_8967)">
<rect width="13.6202" height="13.6202" transform="translate(131.359 159.404)" fill="#141414" fill-opacity="0.2"/>
<path d="M143.844 165.233C143.387 165.132 142.913 165.079 142.426 165.079C138.918 165.079 136.057 167.845 135.906 171.315M143.844 165.233C143.844 165.365 143.844 165.502 143.844 165.646V166.781C143.844 168.371 143.844 169.165 143.535 169.772C143.263 170.306 142.829 170.74 142.295 171.012C141.688 171.321 140.893 171.321 139.304 171.321H137.034C136.604 171.321 136.231 171.321 135.906 171.315M143.844 165.233C143.842 163.915 143.816 163.208 143.535 162.656C143.263 162.122 142.829 161.688 142.295 161.416C141.688 161.106 140.893 161.106 139.304 161.106H137.034C135.445 161.106 134.65 161.106 134.043 161.416C133.51 161.688 133.075 162.122 132.803 162.656C132.494 163.263 132.494 164.057 132.494 165.646V166.781C132.494 168.371 132.494 169.165 132.803 169.772C133.075 170.306 133.51 170.74 134.043 171.012C134.486 171.238 135.028 171.299 135.906 171.315M135.615 165.079C135.145 165.079 134.764 164.698 134.764 164.228C134.764 163.757 135.145 163.376 135.615 163.376C136.086 163.376 136.467 163.757 136.467 164.228C136.467 164.698 136.086 165.079 135.615 165.079Z" stroke="url(#paint6_linear_3761_8967)" stroke-width="1.3" stroke-linecap="round" stroke-linejoin="round"/>
</g>
</svg>
