<svg width="142" height="148" viewBox="0 0 142 148" fill="none" xmlns="http://www.w3.org/2000/svg">
<defs>
<linearGradient id="paint0_linear_1563_7134" x1="15.75" y1="22.75" x2="5.25" y2="50.5" gradientUnits="userSpaceOnUse">
<stop stop-color="#F4BE8C"/>
<stop offset="0.375247" stop-color="#D31721"/>
<stop offset="0.605839" stop-color="#561417"/>
<stop offset="1" stop-color="#121212" stop-opacity="0"/>
</linearGradient>
<linearGradient id="paint1_linear_1563_7134" x1="140" y1="70" x2="131" y2="89" gradientUnits="userSpaceOnUse">
<stop stop-color="#F4BE8C"/>
<stop offset="0.375247" stop-color="#D31721"/>
<stop offset="0.605839" stop-color="#561417"/>
<stop offset="1" stop-color="#121212" stop-opacity="0"/>
</linearGradient>
<linearGradient id="paint2_linear_1563_7134" x1="74" y1="27.6665" x2="74" y2="106.921" gradientUnits="userSpaceOnUse">
<stop stop-color="#F4BE8C"/>
<stop offset="0.0989583" stop-color="#D31721"/>
<stop offset="0.589544" stop-color="#561417"/>
<stop offset="1" stop-color="#121212" stop-opacity="0"/>
</linearGradient>
<linearGradient id="paint3_linear_1563_7134" x1="108.345" y1="22.248" x2="29.159" y2="138.781" gradientUnits="userSpaceOnUse">
<stop stop-color="#F4BE8C"/>
<stop offset="0.0989583" stop-color="#D31721"/>
<stop offset="0.493189" stop-color="#561417"/>
<stop offset="1" stop-color="#121212" stop-opacity="0"/>
</linearGradient>
</defs>
<path opacity="0.7" d="M12 19C11.5926 25.4512 6.4512 30.5926 0 31C6.4512 31.4074 11.5926 36.5488 12 43C12.4074 36.5488 17.5488 31.4074 24 31C17.5488 30.5926 12.4074 25.4512 12 19Z" fill="url(#paint0_linear_1563_7134)"/>
<path opacity="0.5" d="M136.5 70C136.313 72.9568 133.957 75.3133 131 75.5C133.957 75.6867 136.313 78.0432 136.5 81C136.687 78.0432 139.043 75.6867 142 75.5C139.043 75.3133 136.687 72.9568 136.5 70Z" fill="url(#paint1_linear_1563_7134)"/>
<circle opacity="0.4" cx="23" cy="55" r="2" fill="#93161D"/>
<circle opacity="0.3" cx="48" cy="75" r="3" fill="#93161D"/>
<circle opacity="0.3" cx="113.5" cy="3.5" r="3.5" fill="#93161D"/>
<circle opacity="0.2" cx="16" cy="87" r="2" fill="#93161D"/>
<path fill-rule="evenodd" clip-rule="evenodd" d="M103.095 31.3727C101.887 30.3471 100.638 29.3657 99.3511 28.4307C97.5638 27.1322 95.0623 27.5285 93.7639 29.3157C92.4654 31.103 92.8617 33.6045 94.6489 34.9029C96.0078 35.8901 97.317 36.936 98.573 38.0367L103.095 31.3727ZM97.8061 39.1668L69.9923 39.1668H69.9923C64.7729 39.1668 60.6117 39.1667 57.2523 39.4412C53.8089 39.7225 50.8571 40.3121 48.1492 41.6918C43.7901 43.9129 40.2461 47.4569 38.025 51.816C35.6853 56.408 35.5327 61.9982 35.5043 69.9859C35.4964 72.195 37.2809 73.9922 39.49 74.0001C41.6991 74.008 43.4964 72.2235 43.5042 70.0144C43.5345 61.5182 43.8446 58.016 45.1531 55.4479C46.6071 52.5941 48.9274 50.2739 51.7811 48.8199C53.1733 48.1105 54.955 47.6556 57.9038 47.4146C60.8992 47.1699 64.7335 47.1668 70.1667 47.1668H92.3776L97.8061 39.1668ZM97.8077 48.9552C98.4949 48.375 99.1669 47.7787 99.823 47.1668H99.0213L107.171 35.1565C108.629 36.6355 110.011 38.1859 111.312 39.8022C112.094 40.7744 112.5 41.9645 112.5 43.1668C112.5 44.3692 112.094 45.5592 111.312 46.5313C107.86 50.8197 103.838 54.6434 99.3511 57.9029C97.5638 59.2014 95.0623 58.8051 93.7639 57.0178C93.488 56.6381 93.2886 56.2261 93.1628 55.8003L97.8077 48.9552ZM61.3895 92.8335H48.177C49.8071 91.3134 51.5348 89.8891 53.3511 88.5696C55.1383 87.2711 55.5346 84.7697 54.2361 82.9824C52.9377 81.1951 50.4362 80.7989 48.6489 82.0973C44.1624 85.3568 40.1401 89.1805 36.6882 93.4689C35.9056 94.4411 35.5 95.6311 35.5 96.8335C35.5 98.0358 35.9056 99.2258 36.6882 100.198C40.1401 104.486 44.1623 108.31 48.6489 111.57C48.6549 111.574 48.6609 111.578 48.6669 111.583L53.1614 104.959C51.4145 103.678 49.7503 102.301 48.177 100.833H55.9609L61.3895 92.8335ZM62.6046 100.833L68.0332 92.8335H77.8333C83.2665 92.8335 87.1008 92.8304 90.0962 92.5856C93.0449 92.3447 94.8267 91.8897 96.2189 91.1804C99.0726 89.7263 101.393 87.4061 102.847 84.5523C104.155 81.9842 104.466 78.4821 104.496 69.9859C104.504 67.7768 106.301 65.9923 108.51 66.0001C110.719 66.008 112.504 67.8052 112.496 70.0144C112.467 78.0021 112.315 83.5923 109.975 88.1842C107.754 92.5433 104.21 96.0874 99.8508 98.3084C97.1429 99.6882 94.1911 100.278 90.7477 100.559C87.3884 100.834 83.2273 100.833 78.0081 100.833H78.0078H62.6046Z" fill="url(#paint2_linear_1563_7134)"/>
<path fill-rule="evenodd" clip-rule="evenodd" d="M110.638 17.5434C111.894 18.3958 111.945 20.5125 110.751 22.2711L27.1891 145.415C25.9957 147.174 24.01 147.909 22.7538 147.056C21.4976 146.204 21.4467 144.087 22.64 142.329L106.202 19.1843C107.396 17.4256 109.381 16.6909 110.638 17.5434Z" fill="url(#paint3_linear_1563_7134)"/>
</svg>
