<svg width="573" height="184" viewBox="0 0 573 184" fill="none" xmlns="http://www.w3.org/2000/svg">
<path d="M496 58.5H563V92H557L563 118.5L561 138L552 156.5L543 165.5L533.5 173L520.5 179L506 181.5L481 179L460.5 167L444 145L439 117L443.5 98L454 80.5L472 65.5L496 58.5Z" fill="#FAFAFA"/>
<path d="M66.9969 139.476C65.8238 141.639 63.2362 143.113 59.4837 143.113C57.7291 143.113 56.2486 142.265 55.1452 140.585C54.0135 138.863 53.2947 136.265 53.2947 132.963V94.853H74.7937C76.1744 94.853 77.2937 93.7337 77.2937 92.353V61.5C77.2937 60.1193 76.1744 59 74.7937 59H53.2947V21.657C53.2947 20.2763 52.1754 19.157 50.7947 19.157H15.9807C14.5999 19.157 13.4807 20.2763 13.4807 21.657V59H4.09766C2.71695 59 1.59766 60.1193 1.59766 61.5V92.353C1.59766 93.7337 2.71695 94.853 4.09766 94.853H13.4807V144.846C13.4807 157.515 17.3782 166.488 24.1743 172.26C30.9256 177.994 40.2999 180.364 50.8627 180.364C69.6917 180.364 82.3463 170.115 85.1069 167.664C85.982 166.887 86.1363 165.663 85.643 164.706L72.4917 139.201C71.8153 137.889 70.3742 137.749 69.5494 137.857C68.6824 137.971 67.5569 138.443 66.9969 139.476ZM164.852 61.5V122.478C164.852 128.959 163.01 134.239 159.91 137.873C156.829 141.485 152.419 143.579 147.013 143.579C141.595 143.579 137.184 141.533 134.109 137.981C131.016 134.408 129.174 129.191 129.174 122.711V61.5C129.174 60.1193 128.055 59 126.674 59H90.9283C89.5476 59 88.4283 60.1193 88.4283 61.5V123.876C88.4283 139.781 93.2361 153.892 101.893 164.051C110.567 174.231 123.043 180.364 138.159 180.364C147.55 180.364 157.083 176.829 164.852 170.688V176C164.852 177.381 165.972 178.5 167.352 178.5H202.166C203.547 178.5 204.666 177.381 204.666 176V61.5C204.666 60.1193 203.547 59 202.166 59H167.352C165.972 59 164.852 60.1193 164.852 61.5ZM282.972 57.136C273.376 57.136 263.821 60.668 256.046 66.8124V61.5C256.046 60.1193 254.927 59 253.546 59H218.732C217.351 59 216.232 60.1193 216.232 61.5V176C216.232 177.381 217.351 178.5 218.732 178.5H253.546C254.927 178.5 256.046 177.381 256.046 176V115.022C256.046 108.541 257.889 103.261 260.988 99.6272C264.069 96.0151 268.479 93.921 273.885 93.921C274.665 93.921 276.048 94.3489 277.934 95.3645C279.759 96.3475 281.871 97.7797 284.049 99.5424C285.45 100.677 287.626 100.028 288.083 98.2101L297.24 61.7979C297.566 60.5049 296.816 59.1507 295.488 58.791C291.644 57.7502 287.41 57.136 282.972 57.136ZM371.065 57.136C362.359 57.136 354.037 58.9229 346.469 62.3226V4.41498C346.469 3.03427 345.35 1.91498 343.969 1.91498H309.155C307.774 1.91498 306.655 3.03426 306.655 4.41498V176C306.655 177.381 307.774 178.5 309.155 178.5H343.969C345.35 178.5 346.469 177.381 346.469 176V175.177C354.037 178.577 362.359 180.364 371.065 180.364C405.216 180.364 432.679 152.661 432.679 118.75C432.679 84.8393 405.216 57.136 371.065 57.136ZM369.9 142.88C363.296 142.88 357.887 140.469 354.117 136.323C350.336 132.163 348.1 126.139 348.1 118.75C348.1 111.361 350.336 105.337 354.117 101.177C357.887 97.0305 363.296 94.62 369.9 94.62C376.504 94.62 381.913 97.0305 385.683 101.177C389.464 105.337 391.7 111.361 391.7 118.75C391.7 126.139 389.464 132.163 385.683 136.323C381.913 140.469 376.504 142.88 369.9 142.88Z" fill="#FAFAFA" stroke="#FAFAFA" stroke-width="3"/>
<circle cx="501.52" cy="120.52" r="22.145" fill="#171717" stroke="#FAFAFA" stroke-width="2.75"/>
<path d="M501.223 183.447C466.363 183.447 438 155.086 438 120.223C438 85.3606 466.363 57 501.223 57L563.042 57C563.817 57 564.447 57.6294 564.447 58.405V92.1241C564.447 92.8996 563.817 93.529 563.042 93.529H534.565C533.79 93.529 533.16 92.8996 533.16 92.1241C533.16 91.3485 533.79 90.7191 534.565 90.7191H561.637V59.8099L501.223 59.8099C467.914 59.8099 440.81 86.9116 440.81 120.223C440.81 153.535 467.914 180.637 501.223 180.637C534.532 180.637 561.637 153.535 561.637 120.223C561.637 112.67 560.243 105.277 557.495 98.2553C557.211 97.5332 557.568 96.7183 558.293 96.4345C559.009 96.1479 559.83 96.5075 560.114 97.2325C562.988 104.583 564.447 112.319 564.447 120.223C564.447 155.086 536.086 183.447 501.223 183.447Z" fill="#171717"/>
<path d="M559.004 98.2394L557.734 95.1923L556.516 92.1452" stroke="#171717" stroke-width="2.78" stroke-linecap="round"/>
<path d="M568.658 96.1489H565.848C563.524 96.1489 561.633 94.2578 561.633 91.934V58.2149C561.633 55.8911 563.524 54 565.848 54H568.658C570.981 54 572.873 55.8911 572.873 58.2149V91.934C572.873 94.2578 570.984 96.1489 568.658 96.1489ZM565.848 56.8099C565.072 56.8099 564.443 57.4393 564.443 58.2149V91.934C564.443 92.7095 565.072 93.3389 565.848 93.3389H568.658C569.433 93.3389 570.063 92.7095 570.063 91.934V58.2149C570.063 57.4393 569.433 56.8099 568.658 56.8099H565.848Z" fill="#FAFAFA"/>
</svg>
